<?xml version="1.0" encoding="utf-8"?>
<!-- Generator: Adobe Illustrator 16.0.0, SVG Export Plug-In . SVG Version: 6.00 Build 0)  -->
<!DOCTYPE svg PUBLIC "-//W3C//DTD SVG 1.1//EN" "http://www.w3.org/Graphics/SVG/1.1/DTD/svg11.dtd">
<svg version="1.1" id="Layer_1" xmlns="http://www.w3.org/2000/svg" xmlns:xlink="http://www.w3.org/1999/xlink" x="0px" y="0px"
	 width="475.625px" height="259.938px" viewBox="0 0 475.625 259.938" enable-background="new 0 0 475.625 259.938"
	 xml:space="preserve">
<g id="Layer_1_1_">
	<g id="Change1">
		<polygon fill="#F2F2DB" points="44.935,215.911 45.003,216.187 237.812,259.937 430.067,216.285 237.383,134.717 		"/>
	</g>
</g>
<g id="Layer_3">
	<g id="Change3">
		<polygon fill="#B7A77F" points="475.501,34.256 475.625,33.752 237.812,0 0,33.752 0.131,34.285 237.383,134.717 		"/>
	</g>
</g>
<g id="Layer_2">
	<g id="Change2">
		<polygon fill="#3C3636" points="0.131,34.285 44.935,215.911 237.383,134.717 		"/>
		<polygon fill="#3C3636" points="475.501,34.256 237.383,134.717 430.067,216.285 430.62,216.187 		"/>
		<rect x="295.479" y="79.402" fill="#3C3636" width="43.334" height="0.779"/>
		<rect x="136.812" y="79.402" fill="#3C3636" width="43.334" height="0.779"/>
		<rect x="295.479" y="67.958" fill="#3C3636" width="71.334" height="1"/>
		<rect x="295.479" y="71.768" fill="#3C3636" width="62.669" height="0.938"/>
		<rect x="295.479" y="75.579" fill="#3C3636" width="54" height="0.87"/>
		<rect x="126.146" y="75.579" fill="#3C3636" width="54" height="0.87"/>
		<rect x="117.479" y="71.768" fill="#3C3636" width="62.667" height="0.938"/>
		<rect x="108.812" y="67.958" fill="#3C3636" width="71.334" height="1"/>
		<polygon fill="#3C3636" points="210.146,11.5 265.479,11.5 237.438,3.75 		"/>
	</g>
</g>
<g id="Layer_4">
	<g id="Change3_1_">
		<polygon fill="#B7A77F" points="130.063,156.358 90.562,156.358 110.581,161.89 		"/>
		<polygon fill="#B7A77F" points="130.063,116.557 90.562,116.557 110.581,111.025 		"/>
		<polygon fill="#B7A77F" points="385.062,156.358 345.562,156.358 365.578,161.89 		"/>
		<polygon fill="#B7A77F" points="385.062,116.557 345.562,116.557 365.578,111.025 		"/>
	</g>
</g>
<g id="T">
	<rect x="118.961" y="165.615" fill="none" width="237.701" height="36.956"/>
	<text transform="matrix(1 0 0 1 154.7747 198.844)" fill="#3C3636" font-family="'AlfaSlabOne-Regular'" font-size="35">GARAGE</text>
</g>
<g id="T_5_">
	<rect x="118.961" y="197.807" fill="none" width="237.701" height="36.957"/>
	<text transform="matrix(1 0 0 1 154.7747 231.0374)" fill="#3C3636" font-family="'AlfaSlabOne-Regular'" font-size="35">LOUNGE</text>
</g>
<g id="T_right">
	<rect x="58.627" y="40.281" fill="none" width="122.371" height="28.729"/>
	<text transform="matrix(1 0 0 1 71.7292 59.4651)" fill="#F2F2DB" font-family="'CarterOne'" font-size="20">wednesday</text>
</g>
<g id="T_left">
	<rect x="297.627" y="40.281" fill="none" width="95.368" height="28.729"/>
	<text transform="matrix(1 0 0 1 297.6272 59.4651)" fill="#F2F2DB" font-family="'CarterOne'" font-size="20">january</text>
</g>
<g id="T_2_">
	<rect x="153.627" y="11.5" fill="none" width="168.368" height="81.508"/>
	<text transform="matrix(1 0 0 1 192.3123 81.4065)" fill="#F2F2DB" font-family="'AlfaSlabOne-Regular'" font-size="70">25</text>
</g>
<g id="T_3_">
	<rect x="221.647" y="81.406" fill="none" width="34" height="29.616"/>
	<text transform="matrix(1 0 0 1 224.8782 104.1321)" fill="#F2F2DB" font-family="'CarterOne'" font-size="20">TH</text>
</g>
<g id="T_7_">
	<rect x="31.573" y="120.469" fill="none" width="168.367" height="16.691"/>
	<text transform="matrix(1 0 0 1 52.8792 132.7249)" fill="#F2F2DB" font-family="'CarterOne'" font-size="12">Opening celebration</text>
</g>
<g id="T_6_">
	<rect x="31.573" y="135.694" fill="none" width="168.367" height="16.691"/>
	<text transform="matrix(1 0 0 1 78.3376 147.1252)" fill="#F2F2DB" font-family="'CarterOne'" font-size="12">6pm - 10pm</text>
</g>
<g id="T_8_">
	<rect x="277.961" y="120.469" fill="none" width="168.367" height="16.691"/>
	<text transform="matrix(1 0 0 1 321.5491 132.7249)" fill="#F2F2DB" font-family="'CarterOne'" font-size="12">26 King street</text>
</g>
<g id="T_4_">
	<rect x="277.961" y="135.694" fill="none" width="168.367" height="16.691"/>
	<text transform="matrix(1 0 0 1 321.5491 147.1252)" fill="#F2F2DB" font-family="'CarterOne'" font-size="12">3000 CITYVILLE</text>
</g>
</svg>
