<?xml version="1.0" encoding="utf-8"?>
<!-- Generator: Adobe Illustrator 16.0.0, SVG Export Plug-In . SVG Version: 6.00 Build 0)  -->
<!DOCTYPE svg PUBLIC "-//W3C//DTD SVG 1.1//EN" "http://www.w3.org/Graphics/SVG/1.1/DTD/svg11.dtd">
<svg version="1.1" id="Layer_1" xmlns="http://www.w3.org/2000/svg" xmlns:xlink="http://www.w3.org/1999/xlink" x="0px" y="0px"
	 width="493px" height="493px" viewBox="0 0 493 493" enable-background="new 0 0 493 493" xml:space="preserve">
<g id="change1">
	<path fill="#FF6666" d="M246.5,493c-65.842,0-127.744-25.641-174.301-72.198S0,312.343,0,246.5
		c0-65.842,25.641-127.744,72.198-174.302S180.657,0,246.5,0c65.843,0,127.744,25.641,174.302,72.198S493,180.657,493,246.5
		s-25.641,127.744-72.198,174.302S312.342,493,246.5,493z M246.5,2C181.191,2,119.792,27.433,73.612,73.612
		C27.433,119.792,2,181.192,2,246.5c0,65.309,25.433,126.708,71.612,172.888S181.191,491,246.5,491
		c65.309,0,126.708-25.433,172.888-71.612S491,311.809,491,246.5c0-65.308-25.433-126.708-71.612-172.888
		C373.208,27.433,311.808,2,246.5,2z"/>
	<circle fill="#FF6666" cx="246.5" cy="246.981" r="231.25"/>
</g>
<g id="T">
	<rect x="96.759" y="54" fill="none" width="285" height="209"/>
	<text transform="matrix(1 0 0 1 122.4233 166.9531)" fill="#FFFFFF" font-family="'Sacramento-Regular'" font-size="134.49">The</text>
</g>
<g id="T_1_">
	<rect x="17.759" y="184" fill="none" width="461" height="139"/>
	<text transform="matrix(1 0 0 1 44.4907 289)" fill="#FFFFFF" font-family="'JosefinSans'" font-size="103.678">COFFEE</text>
</g>
<g id="T_2_">
	<rect x="96.759" y="292" fill="none" width="303" height="148"/>
	<text transform="matrix(1 0 0 1 121.2417 395.6562)" fill="#FFFFFF" font-family="'JosefinSans'" font-size="103.678">SHOP</text>
</g>
</svg>
