<?xml version="1.0" encoding="utf-8"?>
<!-- Generator: Adobe Illustrator 16.0.0, SVG Export Plug-In . SVG Version: 6.00 Build 0)  -->
<!DOCTYPE svg PUBLIC "-//W3C//DTD SVG 1.1//EN" "http://www.w3.org/Graphics/SVG/1.1/DTD/svg11.dtd">
<svg version="1.1" id="Layer_1" xmlns="http://www.w3.org/2000/svg" xmlns:xlink="http://www.w3.org/1999/xlink" x="0px" y="0px"
	 width="467px" height="479px" viewBox="0 0 467 479" enable-background="new 0 0 467 479" xml:space="preserve">
<g id="change1">
	<rect fill="#3C281D" width="467" height="191"/>
</g>
<g id="change3">
	<g>
		<rect y="191" fill="#86ACB5" width="467" height="288"/>
	</g>
	<polygon fill="#86ACB5" points="170,176 143.228,176 147.914,161.644 143.228,145 170,145 	"/>
	<polygon fill="#86ACB5" points="304,144 331.228,144 326.543,158.356 331.228,175 304,175 	"/>
</g>
<g id="T_1_">
	<rect x="29" y="64" fill="none" width="424" height="70"/>
	<text transform="matrix(1 0 0 1 69.4897 123.1729)" fill="#D6C6AC" font-family="'Anton'" font-size="60">Organic Roast</text>
</g>
<g id="change2">
	<g>
		<rect x="9" y="202" fill="#B6C1B9" width="448" height="6"/>
		<rect x="9" y="443" fill="#B6C1B9" width="448" height="6"/>
		<rect x="231" y="445" fill="#B6C1B9" width="6" height="28"/>
	</g>
	<rect x="153" y="141" fill="#B6C1B9" width="168" height="31"/>
</g>
<g id="T_6_">
	<rect x="197" y="145" fill="none" width="85" height="21"/>
	<text transform="matrix(1 0 0 1 215.062 160.5)" fill="#3C281D" font-family="'ArchivoNarrow-Bold'" font-size="11.9723">EST. 1994</text>
</g>
<g id="T_4_">
	<rect x="13" y="285" fill="none" width="447" height="38"/>
	<text transform="matrix(1 0 0 1 17.1484 313.791)" fill="#EAE9D5" font-family="'SpecialElite-Regular'" font-size="24.8721">NAME: ALEXANDRA</text>
</g>
<g id="T_3_">
	<rect x="9" y="348" fill="none" width="447" height="38"/>
	<text transform="matrix(1 0 0 1 17.1484 377.416)" fill="#EAE9D5" font-family="'SpecialElite-Regular'" font-size="24.8721">TYPE: MACCHIATO</text>
</g>
<g id="T_2_">
	<rect x="118" y="409" fill="none" width="238" height="26"/>
	<text transform="matrix(1 0 0 1 143.3975 425.1279)" fill="#3C281D" font-family="'SpecialElite-Regular'" font-size="17.1839">www.organicroast.com</text>
</g>
<g id="T">
	<rect x="192" y="20" fill="none" width="90" height="44"/>
	<text transform="matrix(1 0 0 1 209.9512 58.3535)" fill="#D6C6AC" font-family="'Anton'" font-size="41.1811">THE</text>
</g>
<g id="change1_1_">
	<g>
		<rect x="17" y="269" fill="#3C281D" width="1" height="3"/>
		<path fill="#3C281D" d="M454,272h-2v-3h2V272z M450,272h-2v-3h2V272z M446,272h-2v-3h2V272z M442,272h-2v-3h2V272z M438,272h-2v-3
			h2V272z M434,272h-2v-3h2V272z M430,272h-2v-3h2V272z M426,272h-2v-3h2V272z M422,272h-2v-3h2V272z M418,272h-2v-3h2V272z
			 M414,272h-2v-3h2V272z M410,272h-2v-3h2V272z M406,272h-2v-3h2V272z M402,272h-2v-3h2V272z M398,272h-2v-3h2V272z M394,272h-2v-3
			h2V272z M390,272h-2v-3h2V272z M386,272h-2v-3h2V272z M382,272h-2v-3h2V272z M378,272h-2v-3h2V272z M374,272h-2v-3h2V272z
			 M370,272h-2v-3h2V272z M366,272h-2v-3h2V272z M362,272h-2v-3h2V272z M358,272h-2v-3h2V272z M354,272h-2v-3h2V272z M350,272h-2v-3
			h2V272z M346,272h-2v-3h2V272z M342,272h-2v-3h2V272z M338,272h-2v-3h2V272z M334,272h-2v-3h2V272z M330,272h-2v-3h2V272z
			 M326,272h-2v-3h2V272z M322,272h-2v-3h2V272z M318,272h-2v-3h2V272z M314,272h-2v-3h2V272z M310,272h-2v-3h2V272z M306,272h-2v-3
			h2V272z M302,272h-2v-3h2V272z M298,272h-2v-3h2V272z M294,272h-2v-3h2V272z M290,272h-2v-3h2V272z M286,272h-2v-3h2V272z
			 M282,272h-2v-3h2V272z M278,272h-2v-3h2V272z M274,272h-2v-3h2V272z M270,272h-2v-3h2V272z M266,272h-2v-3h2V272z M262,272h-2v-3
			h2V272z M258,272h-2v-3h2V272z M254,272h-2v-3h2V272z M250,272h-2v-3h2V272z M246,272h-2v-3h2V272z M242,272h-2v-3h2V272z
			 M238,272h-2v-3h2V272z M234,272h-2v-3h2V272z M230,272h-2v-3h2V272z M226,272h-2v-3h2V272z M222,272h-2v-3h2V272z M218,272h-2v-3
			h2V272z M214,272h-2v-3h2V272z M210,272h-2v-3h2V272z M206,272h-2v-3h2V272z M202,272h-2v-3h2V272z M198,272h-2v-3h2V272z
			 M194,272h-2v-3h2V272z M190,272h-2v-3h2V272z M186,272h-2v-3h2V272z M182,272h-2v-3h2V272z M178,272h-2v-3h2V272z M174,272h-2v-3
			h2V272z M170,272h-2v-3h2V272z M166,272h-2v-3h2V272z M162,272h-2v-3h2V272z M158,272h-2v-3h2V272z M154,272h-2v-3h2V272z
			 M150,272h-2v-3h2V272z M146,272h-2v-3h2V272z M142,272h-2v-3h2V272z M138,272h-2v-3h2V272z M134,272h-2v-3h2V272z M130,272h-2v-3
			h2V272z M126,272h-2v-3h2V272z M122,272h-2v-3h2V272z M118,272h-2v-3h2V272z M114,272h-2v-3h2V272z M110,272h-2v-3h2V272z
			 M106,272h-2v-3h2V272z M102,272h-2v-3h2V272z M98,272h-2v-3h2V272z M94,272h-2v-3h2V272z M90,272h-2v-3h2V272z M86,272h-2v-3h2
			V272z M82,272h-2v-3h2V272z M78,272h-2v-3h2V272z M74,272h-2v-3h2V272z M70,272h-2v-3h2V272z M66,272h-2v-3h2V272z M62,272h-2v-3
			h2V272z M58,272h-2v-3h2V272z M54,272h-2v-3h2V272z M50,272h-2v-3h2V272z M46,272h-2v-3h2V272z M42,272h-2v-3h2V272z M38,272h-2
			v-3h2V272z M34,272h-2v-3h2V272z M30,272h-2v-3h2V272z M26,272h-2v-3h2V272z M22,272h-2v-3h2V272z"/>
		<rect x="456" y="269" fill="#3C281D" width="1" height="3"/>
	</g>
	<g>
		<rect x="16" y="328" fill="#3C281D" width="1" height="3"/>
		<path fill="#3C281D" d="M453,331h-2v-3h2V331z M449,331h-2v-3h2V331z M445,331h-2v-3h2V331z M441,331h-2v-3h2V331z M437,331h-2v-3
			h2V331z M433,331h-2v-3h2V331z M429,331h-2v-3h2V331z M425,331h-2v-3h2V331z M421,331h-2v-3h2V331z M417,331h-2v-3h2V331z
			 M413,331h-2v-3h2V331z M409,331h-2v-3h2V331z M405,331h-2v-3h2V331z M401,331h-2v-3h2V331z M397,331h-2v-3h2V331z M393,331h-2v-3
			h2V331z M389,331h-2v-3h2V331z M385,331h-2v-3h2V331z M381,331h-2v-3h2V331z M377,331h-2v-3h2V331z M373,331h-2v-3h2V331z
			 M369,331h-2v-3h2V331z M365,331h-2v-3h2V331z M361,331h-2v-3h2V331z M357,331h-2v-3h2V331z M353,331h-2v-3h2V331z M349,331h-2v-3
			h2V331z M345,331h-2v-3h2V331z M341,331h-2v-3h2V331z M337,331h-2v-3h2V331z M333,331h-2v-3h2V331z M329,331h-2v-3h2V331z
			 M325,331h-2v-3h2V331z M321,331h-2v-3h2V331z M317,331h-2v-3h2V331z M313,331h-2v-3h2V331z M309,331h-2v-3h2V331z M305,331h-2v-3
			h2V331z M301,331h-2v-3h2V331z M297,331h-2v-3h2V331z M293,331h-2v-3h2V331z M289,331h-2v-3h2V331z M285,331h-2v-3h2V331z
			 M281,331h-2v-3h2V331z M277,331h-2v-3h2V331z M273,331h-2v-3h2V331z M269,331h-2v-3h2V331z M265,331h-2v-3h2V331z M261,331h-2v-3
			h2V331z M257,331h-2v-3h2V331z M253,331h-2v-3h2V331z M249,331h-2v-3h2V331z M245,331h-2v-3h2V331z M241,331h-2v-3h2V331z
			 M237,331h-2v-3h2V331z M233,331h-2v-3h2V331z M229,331h-2v-3h2V331z M225,331h-2v-3h2V331z M221,331h-2v-3h2V331z M217,331h-2v-3
			h2V331z M213,331h-2v-3h2V331z M209,331h-2v-3h2V331z M205,331h-2v-3h2V331z M201,331h-2v-3h2V331z M197,331h-2v-3h2V331z
			 M193,331h-2v-3h2V331z M189,331h-2v-3h2V331z M185,331h-2v-3h2V331z M181,331h-2v-3h2V331z M177,331h-2v-3h2V331z M173,331h-2v-3
			h2V331z M169,331h-2v-3h2V331z M165,331h-2v-3h2V331z M161,331h-2v-3h2V331z M157,331h-2v-3h2V331z M153,331h-2v-3h2V331z
			 M149,331h-2v-3h2V331z M145,331h-2v-3h2V331z M141,331h-2v-3h2V331z M137,331h-2v-3h2V331z M133,331h-2v-3h2V331z M129,331h-2v-3
			h2V331z M125,331h-2v-3h2V331z M121,331h-2v-3h2V331z M117,331h-2v-3h2V331z M113,331h-2v-3h2V331z M109,331h-2v-3h2V331z
			 M105,331h-2v-3h2V331z M101,331h-2v-3h2V331z M97,331h-2v-3h2V331z M93,331h-2v-3h2V331z M89,331h-2v-3h2V331z M85,331h-2v-3h2
			V331z M81,331h-2v-3h2V331z M77,331h-2v-3h2V331z M73,331h-2v-3h2V331z M69,331h-2v-3h2V331z M65,331h-2v-3h2V331z M61,331h-2v-3
			h2V331z M57,331h-2v-3h2V331z M53,331h-2v-3h2V331z M49,331h-2v-3h2V331z M45,331h-2v-3h2V331z M41,331h-2v-3h2V331z M37,331h-2
			v-3h2V331z M33,331h-2v-3h2V331z M29,331h-2v-3h2V331z M25,331h-2v-3h2V331z M21,331h-2v-3h2V331z"/>
		<rect x="455" y="328" fill="#3C281D" width="1" height="3"/>
	</g>
	<g>
		<rect x="16" y="392" fill="#3C281D" width="1" height="3"/>
		<path fill="#3C281D" d="M453,395h-2v-3h2V395z M449,395h-2v-3h2V395z M445,395h-2v-3h2V395z M441,395h-2v-3h2V395z M437,395h-2v-3
			h2V395z M433,395h-2v-3h2V395z M429,395h-2v-3h2V395z M425,395h-2v-3h2V395z M421,395h-2v-3h2V395z M417,395h-2v-3h2V395z
			 M413,395h-2v-3h2V395z M409,395h-2v-3h2V395z M405,395h-2v-3h2V395z M401,395h-2v-3h2V395z M397,395h-2v-3h2V395z M393,395h-2v-3
			h2V395z M389,395h-2v-3h2V395z M385,395h-2v-3h2V395z M381,395h-2v-3h2V395z M377,395h-2v-3h2V395z M373,395h-2v-3h2V395z
			 M369,395h-2v-3h2V395z M365,395h-2v-3h2V395z M361,395h-2v-3h2V395z M357,395h-2v-3h2V395z M353,395h-2v-3h2V395z M349,395h-2v-3
			h2V395z M345,395h-2v-3h2V395z M341,395h-2v-3h2V395z M337,395h-2v-3h2V395z M333,395h-2v-3h2V395z M329,395h-2v-3h2V395z
			 M325,395h-2v-3h2V395z M321,395h-2v-3h2V395z M317,395h-2v-3h2V395z M313,395h-2v-3h2V395z M309,395h-2v-3h2V395z M305,395h-2v-3
			h2V395z M301,395h-2v-3h2V395z M297,395h-2v-3h2V395z M293,395h-2v-3h2V395z M289,395h-2v-3h2V395z M285,395h-2v-3h2V395z
			 M281,395h-2v-3h2V395z M277,395h-2v-3h2V395z M273,395h-2v-3h2V395z M269,395h-2v-3h2V395z M265,395h-2v-3h2V395z M261,395h-2v-3
			h2V395z M257,395h-2v-3h2V395z M253,395h-2v-3h2V395z M249,395h-2v-3h2V395z M245,395h-2v-3h2V395z M241,395h-2v-3h2V395z
			 M237,395h-2v-3h2V395z M233,395h-2v-3h2V395z M229,395h-2v-3h2V395z M225,395h-2v-3h2V395z M221,395h-2v-3h2V395z M217,395h-2v-3
			h2V395z M213,395h-2v-3h2V395z M209,395h-2v-3h2V395z M205,395h-2v-3h2V395z M201,395h-2v-3h2V395z M197,395h-2v-3h2V395z
			 M193,395h-2v-3h2V395z M189,395h-2v-3h2V395z M185,395h-2v-3h2V395z M181,395h-2v-3h2V395z M177,395h-2v-3h2V395z M173,395h-2v-3
			h2V395z M169,395h-2v-3h2V395z M165,395h-2v-3h2V395z M161,395h-2v-3h2V395z M157,395h-2v-3h2V395z M153,395h-2v-3h2V395z
			 M149,395h-2v-3h2V395z M145,395h-2v-3h2V395z M141,395h-2v-3h2V395z M137,395h-2v-3h2V395z M133,395h-2v-3h2V395z M129,395h-2v-3
			h2V395z M125,395h-2v-3h2V395z M121,395h-2v-3h2V395z M117,395h-2v-3h2V395z M113,395h-2v-3h2V395z M109,395h-2v-3h2V395z
			 M105,395h-2v-3h2V395z M101,395h-2v-3h2V395z M97,395h-2v-3h2V395z M93,395h-2v-3h2V395z M89,395h-2v-3h2V395z M85,395h-2v-3h2
			V395z M81,395h-2v-3h2V395z M77,395h-2v-3h2V395z M73,395h-2v-3h2V395z M69,395h-2v-3h2V395z M65,395h-2v-3h2V395z M61,395h-2v-3
			h2V395z M57,395h-2v-3h2V395z M53,395h-2v-3h2V395z M49,395h-2v-3h2V395z M45,395h-2v-3h2V395z M41,395h-2v-3h2V395z M37,395h-2
			v-3h2V395z M33,395h-2v-3h2V395z M29,395h-2v-3h2V395z M25,395h-2v-3h2V395z M21,395h-2v-3h2V395z"/>
		<rect x="455" y="392" fill="#3C281D" width="1" height="3"/>
	</g>
</g>
<g id="T_5_">
	<text transform="matrix(1 0 0 1 17.1484 250.666)" fill="#EAE9D5" font-family="'SpecialElite-Regular'" font-size="24.8721">COFFEE: BREAKFAST BLEND</text>
	<rect x="9" y="220" fill="none" width="447" height="38"/>
</g>
</svg>
