<?xml version="1.0" encoding="utf-8"?>
<!-- Generator: Adobe Illustrator 16.0.0, SVG Export Plug-In . SVG Version: 6.00 Build 0)  -->
<!DOCTYPE svg PUBLIC "-//W3C//DTD SVG 1.1//EN" "http://www.w3.org/Graphics/SVG/1.1/DTD/svg11.dtd">
<svg version="1.1" id="Layer_1" xmlns="http://www.w3.org/2000/svg" xmlns:xlink="http://www.w3.org/1999/xlink" x="0px" y="0px"
	 width="290px" height="500px" viewBox="0 0 290 500" enable-background="new 0 0 290 500" xml:space="preserve">
<g id="Change1">
	<path fill="#8A93AA" d="M252.166,6.538L37.831,65.342c-14.276,0-25.85,11.574-25.85,25.85v258.498
		c0,14.277,11.573,25.854,25.85,25.854h30.922l-51.125,119.3l98.241-119.3h136.299c14.277,0,25.852-11.567,25.852-25.854V32.386
		C278.018,18.11,266.445,6.538,252.166,6.538z"/>
</g>
<g id="Change2">
	<path fill="#9D427A" d="M248.32,365.662h-4.23c-1.17,0-2.115-0.947-2.115-2.117s0.945-2.117,2.115-2.117h4.23
		c1.17,0,2.115,0.947,2.115,2.117S249.49,365.662,248.32,365.662z M231.41,365.662h-4.227c-1.17,0-2.117-0.947-2.117-2.117
		s0.947-2.117,2.117-2.117h4.227c1.17,0,2.117,0.947,2.117,2.117S232.58,365.662,231.41,365.662z M214.502,365.662h-4.229
		c-1.17,0-2.117-0.947-2.117-2.117s0.947-2.117,2.117-2.117h4.229c1.17,0,2.117,0.947,2.117,2.117S215.672,365.662,214.502,365.662z
		 M197.594,365.662h-4.229c-1.17,0-2.115-0.947-2.115-2.117s0.945-2.117,2.115-2.117h4.229c1.17,0,2.117,0.947,2.117,2.117
		S198.764,365.662,197.594,365.662z M180.686,365.662h-4.228c-1.173,0-2.117-0.947-2.117-2.117s0.944-2.117,2.117-2.117h4.228
		c1.17,0,2.117,0.947,2.117,2.117S181.855,365.662,180.686,365.662z M163.777,365.662h-4.229c-1.17,0-2.116-0.947-2.116-2.117
		s0.946-2.117,2.116-2.117h4.229c1.17,0,2.117,0.947,2.117,2.117S164.945,365.662,163.777,365.662z M146.867,365.662h-4.229
		c-1.169,0-2.117-0.947-2.117-2.117s0.947-2.117,2.117-2.117h4.229c1.17,0,2.117,0.947,2.117,2.117S148.037,365.662,146.867,365.662
		z M129.959,365.662h-4.229c-1.168,0-2.117-0.947-2.117-2.117s0.947-2.117,2.117-2.117h4.229c1.169,0,2.117,0.947,2.117,2.117
		S131.128,365.662,129.959,365.662z M70.008,365.662h-4.229c-1.168,0-2.117-0.947-2.117-2.117s0.947-2.117,2.117-2.117h4.229
		c1.169,0,2.118,0.947,2.118,2.117S71.178,365.662,70.008,365.662z M53.1,365.662h-4.229c-1.17,0-2.117-0.947-2.117-2.117
		s0.947-2.117,2.117-2.117H53.1c1.17,0,2.118,0.947,2.118,2.117S54.27,365.662,53.1,365.662z M36.197,365.576
		c-0.075,0-0.15-0.004-0.228-0.014c-1.601-0.17-3.166-0.563-4.656-1.168c-1.084-0.438-1.605-1.679-1.167-2.764
		c0.439-1.084,1.673-1.604,2.758-1.167c1.125,0.456,2.309,0.759,3.517,0.888c1.163,0.125,2.005,1.168,1.88,2.332
		C38.184,364.77,37.265,365.576,36.197,365.576z M260.516,363.173c-0.688,0-1.367-0.337-1.771-0.957
		c-0.644-0.978-0.369-2.29,0.606-2.932c1.019-0.668,1.938-1.472,2.732-2.39c0.771-0.881,2.104-0.979,2.988-0.209
		c0.883,0.768,0.977,2.104,0.205,2.982c-1.053,1.211-2.268,2.271-3.607,3.146C261.316,363.061,260.912,363.173,260.516,363.173z
		 M23.524,355.714c-0.858,0-1.667-0.526-1.985-1.379c-0.561-1.505-0.907-3.081-1.033-4.687c-0.092-1.166,0.779-2.188,1.945-2.276
		c1.178-0.078,2.187,0.778,2.277,1.946c0.095,1.211,0.357,2.402,0.78,3.537c0.408,1.097-0.149,2.312-1.245,2.725
		C24.019,355.671,23.769,355.714,23.524,355.714z M267.43,348.634c-1.17,0-2.117-0.946-2.117-2.116v-4.229
		c0-1.17,0.947-2.117,2.117-2.117s2.115,0.947,2.115,2.117v4.229C269.545,347.688,268.6,348.634,267.43,348.634z M22.569,338.919
		c-1.169,0-2.118-0.946-2.118-2.117v-4.227c0-1.171,0.948-2.117,2.118-2.117s2.118,0.946,2.118,2.117v4.227
		C24.687,337.973,23.738,338.919,22.569,338.919z M267.43,331.725c-1.17,0-2.117-0.947-2.117-2.117v-4.228
		c0-1.17,0.947-2.116,2.117-2.116s2.115,0.946,2.115,2.116v4.228C269.545,330.777,268.6,331.725,267.43,331.725z M22.569,322.011
		c-1.169,0-2.118-0.946-2.118-2.116v-4.229c0-1.17,0.948-2.117,2.118-2.117s2.118,0.947,2.118,2.117v4.229
		C24.687,321.062,23.738,322.011,22.569,322.011z M267.43,314.814c-1.17,0-2.117-0.946-2.117-2.116v-4.228
		c0-1.175,0.947-2.117,2.117-2.117s2.115,0.942,2.115,2.117v4.228C269.545,313.868,268.6,314.814,267.43,314.814z M22.569,305.102
		c-1.169,0-2.118-0.942-2.118-2.117v-4.228c0-1.17,0.948-2.116,2.118-2.116s2.118,0.946,2.118,2.116v4.228
		C24.687,304.154,23.738,305.102,22.569,305.102z M267.43,297.907c-1.17,0-2.117-0.947-2.117-2.117v-4.228
		c0-1.17,0.947-2.117,2.117-2.117s2.115,0.947,2.115,2.117v4.228C269.545,296.96,268.6,297.907,267.43,297.907z M22.569,288.191
		c-1.169,0-2.118-0.946-2.118-2.116v-4.228c0-1.175,0.948-2.117,2.118-2.117s2.118,0.942,2.118,2.117v4.228
		C24.687,287.245,23.738,288.191,22.569,288.191z M267.43,280.998c-1.17,0-2.117-0.947-2.117-2.117v-4.229
		c0-1.17,0.947-2.116,2.117-2.116s2.115,0.946,2.115,2.116v4.229C269.545,280.051,268.6,280.998,267.43,280.998z M22.569,271.284
		c-1.169,0-2.118-0.947-2.118-2.117v-4.228c0-1.17,0.948-2.117,2.118-2.117s2.118,0.947,2.118,2.117v4.228
		C24.687,270.337,23.738,271.284,22.569,271.284z M267.43,264.089c-1.17,0-2.117-0.946-2.117-2.116v-4.228
		c0-1.17,0.947-2.117,2.117-2.117s2.115,0.947,2.115,2.117v4.228C269.545,263.143,268.6,264.089,267.43,264.089z M22.569,254.375
		c-1.169,0-2.118-0.947-2.118-2.117v-4.227c0-1.169,0.948-2.118,2.118-2.118s2.118,0.948,2.118,2.118v4.227
		C24.687,253.428,23.738,254.375,22.569,254.375z M267.43,247.181c-1.17,0-2.117-0.948-2.117-2.118v-4.228
		c0-1.169,0.947-2.118,2.117-2.118s2.115,0.948,2.115,2.118v4.228C269.545,246.233,268.6,247.181,267.43,247.181z M22.569,237.467
		c-1.169,0-2.118-0.948-2.118-2.118v-4.227c0-1.169,0.948-2.118,2.118-2.118s2.118,0.948,2.118,2.118v4.227
		C24.687,236.519,23.738,237.467,22.569,237.467z M267.43,230.272c-1.17,0-2.117-0.948-2.117-2.118v-4.227
		c0-1.169,0.947-2.118,2.117-2.118s2.115,0.948,2.115,2.118v4.227C269.545,229.324,268.6,230.272,267.43,230.272z M22.569,220.558
		c-1.169,0-2.118-0.948-2.118-2.118v-4.228c0-1.169,0.948-2.118,2.118-2.118s2.118,0.948,2.118,2.118v4.228
		C24.687,219.61,23.738,220.558,22.569,220.558z M267.43,213.363c-1.17,0-2.117-0.948-2.117-2.118v-4.227
		c0-1.169,0.947-2.118,2.117-2.118s2.115,0.948,2.115,2.118v4.227C269.545,212.415,268.6,213.363,267.43,213.363z M22.569,203.649
		c-1.169,0-2.118-0.948-2.118-2.118v-4.227c0-1.169,0.948-2.118,2.118-2.118s2.118,0.948,2.118,2.118v4.227
		C24.687,202.701,23.738,203.649,22.569,203.649z M267.43,196.455c-1.17,0-2.117-0.948-2.117-2.118v-4.228
		c0-1.169,0.947-2.118,2.117-2.118s2.115,0.948,2.115,2.118v4.228C269.545,195.506,268.6,196.455,267.43,196.455z M22.569,186.74
		c-1.169,0-2.118-0.948-2.118-2.118v-4.227c0-1.169,0.948-2.118,2.118-2.118s2.118,0.948,2.118,2.118v4.227
		C24.687,185.792,23.738,186.74,22.569,186.74z M267.43,179.545c-1.17,0-2.117-0.948-2.117-2.118V173.2
		c0-1.169,0.947-2.118,2.117-2.118s2.115,0.948,2.115,2.118v4.227C269.545,178.597,268.6,179.545,267.43,179.545z M22.569,169.832
		c-1.169,0-2.118-0.948-2.118-2.118v-4.228c0-1.169,0.948-2.118,2.118-2.118s2.118,0.948,2.118,2.118v4.228
		C24.687,168.883,23.738,169.832,22.569,169.832z M267.43,162.637c-1.17,0-2.117-0.948-2.117-2.118v-4.227
		c0-1.169,0.947-2.118,2.117-2.118s2.115,0.948,2.115,2.118v4.227C269.545,161.688,268.6,162.637,267.43,162.637z M22.569,152.922
		c-1.169,0-2.118-0.948-2.118-2.118v-4.227c0-1.169,0.948-2.118,2.118-2.118s2.118,0.948,2.118,2.118v4.227
		C24.687,151.974,23.738,152.922,22.569,152.922z M267.43,145.728c-1.17,0-2.117-0.948-2.117-2.118v-4.228
		c0-1.169,0.947-2.118,2.117-2.118s2.115,0.948,2.115,2.118v4.228C269.545,144.78,268.6,145.728,267.43,145.728z M22.569,136.014
		c-1.169,0-2.118-0.948-2.118-2.118v-4.227c0-1.169,0.948-2.118,2.118-2.118s2.118,0.948,2.118,2.118v4.227
		C24.687,135.065,23.738,136.014,22.569,136.014z M267.43,128.819c-1.17,0-2.117-0.948-2.117-2.118v-4.227
		c0-1.169,0.947-2.118,2.117-2.118s2.115,0.948,2.115,2.118v4.227C269.545,127.871,268.6,128.819,267.43,128.819z M22.569,119.105
		c-1.169,0-2.118-0.948-2.118-2.118v-4.228c0-1.169,0.948-2.118,2.118-2.118s2.118,0.948,2.118,2.118v4.228
		C24.687,118.157,23.738,119.105,22.569,119.105z M267.43,111.91c-1.17,0-2.117-0.948-2.117-2.118v-4.227
		c0-1.169,0.947-2.118,2.117-2.118s2.115,0.948,2.115,2.118v4.227C269.545,110.962,268.6,111.91,267.43,111.91z M22.569,102.196
		c-1.169,0-2.118-0.948-2.118-2.118v-4.227c0-1.169,0.948-2.118,2.118-2.118s2.118,0.948,2.118,2.118v4.227
		C24.687,101.248,23.738,102.196,22.569,102.196z M267.43,95.001c-1.17,0-2.117-0.948-2.117-2.118v-4.228
		c0-1.169,0.947-2.118,2.117-2.118s2.115,0.948,2.115,2.118v4.228C269.545,94.053,268.6,95.001,267.43,95.001z M23.977,85.494
		c-0.298,0-0.602-0.063-0.89-0.197c-1.062-0.493-1.521-1.751-1.029-2.812c0.675-1.455,1.55-2.811,2.601-4.03
		c0.763-0.887,2.1-0.988,2.986-0.223c0.886,0.763,0.986,2.1,0.223,2.986c-0.795,0.923-1.457,1.949-1.968,3.05
		C25.541,85.04,24.776,85.494,23.977,85.494z M267.43,78.092c-1.17,0-2.117-0.948-2.117-2.118v-4.227
		c0-1.169,0.947-2.118,2.117-2.118s2.115,0.948,2.115,2.118v4.227C269.545,77.144,268.6,78.092,267.43,78.092z M37.375,76.644
		c-1.142,0-2.082-0.908-2.115-2.056c-0.034-1.169,0.886-2.144,2.055-2.178c0.171-0.005,0.343-0.008,0.516-0.008h1.143l1.987-0.545
		c1.128-0.312,2.293,0.354,2.602,1.482c0.311,1.127-0.354,2.293-1.481,2.602l-2.262,0.621c-0.182,0.05-0.371,0.076-0.56,0.076
		h-1.427c-0.133,0-0.264,0.002-0.394,0.006C37.417,76.644,37.396,76.644,37.375,76.644z M53.748,72.662
		c-0.932,0-1.783-0.618-2.041-1.558c-0.311-1.128,0.354-2.293,1.48-2.602l4.077-1.118c1.126-0.31,2.292,0.354,2.603,1.482
		c0.311,1.128-0.354,2.293-1.481,2.602l-4.077,1.118C54.121,72.637,53.933,72.662,53.748,72.662z M70.054,68.188
		c-0.93,0-1.782-0.618-2.041-1.558c-0.312-1.128,0.354-2.293,1.481-2.602l4.076-1.118c1.127-0.311,2.293,0.354,2.604,1.482
		s-0.354,2.293-1.482,2.602l-4.076,1.118C70.428,68.164,70.24,68.188,70.054,68.188z M86.361,63.714
		c-0.931,0-1.783-0.618-2.041-1.558c-0.311-1.128,0.354-2.293,1.48-2.604l4.077-1.119c1.13-0.312,2.293,0.354,2.603,1.481
		c0.312,1.128-0.354,2.293-1.479,2.603l-4.077,1.119C86.734,63.69,86.546,63.714,86.361,63.714z M267.43,61.184
		c-1.17,0-2.117-0.948-2.117-2.118v-4.227c0-1.169,0.947-2.118,2.117-2.118s2.115,0.948,2.115,2.118v4.227
		C269.545,60.235,268.6,61.184,267.43,61.184z M102.667,59.241c-0.931,0-1.783-0.618-2.041-1.558
		c-0.312-1.128,0.354-2.293,1.479-2.603l4.077-1.119c1.126-0.311,2.293,0.354,2.603,1.481c0.312,1.128-0.354,2.293-1.479,2.603
		l-4.077,1.119C103.041,59.216,102.852,59.241,102.667,59.241z M118.973,54.767c-0.93,0-1.783-0.617-2.041-1.558
		c-0.311-1.128,0.354-2.293,1.48-2.603l4.076-1.119c1.129-0.313,2.293,0.354,2.604,1.481c0.311,1.128-0.354,2.293-1.48,2.603
		l-4.076,1.119C119.348,54.743,119.158,54.767,118.973,54.767z M135.279,50.293c-0.931,0-1.783-0.618-2.041-1.558
		c-0.31-1.128,0.354-2.293,1.481-2.602l4.077-1.118c1.127-0.312,2.292,0.354,2.604,1.482c0.31,1.128-0.354,2.293-1.481,2.602
		l-4.077,1.118C135.654,50.269,135.465,50.293,135.279,50.293z M151.586,45.819c-0.934,0-1.783-0.618-2.041-1.558
		c-0.312-1.128,0.354-2.293,1.479-2.602l4.078-1.118c1.127-0.31,2.293,0.354,2.604,1.482s-0.354,2.293-1.479,2.602l-4.076,1.119
		C151.96,45.795,151.771,45.819,151.586,45.819z M267.43,44.275c-1.17,0-2.117-0.948-2.117-2.118V37.93
		c0-1.169,0.947-2.118,2.117-2.118s2.115,0.948,2.115,2.118v4.228C269.545,43.327,268.6,44.275,267.43,44.275z M167.893,41.346
		c-0.931,0-1.783-0.618-2.041-1.558c-0.31-1.128,0.354-2.293,1.481-2.602l4.073-1.118c1.129-0.31,2.295,0.354,2.604,1.482
		c0.312,1.128-0.354,2.293-1.479,2.602l-4.076,1.118C168.268,41.321,168.078,41.346,167.893,41.346z M184.197,36.872
		c-0.932,0-1.783-0.617-2.041-1.558c-0.311-1.128,0.354-2.293,1.48-2.603l4.074-1.119c1.13-0.309,2.294,0.354,2.604,1.482
		c0.312,1.127-0.354,2.293-1.479,2.602l-4.077,1.119C184.572,36.848,184.384,36.872,184.197,36.872z M200.505,32.398
		c-0.933,0-1.782-0.617-2.041-1.558c-0.312-1.128,0.354-2.293,1.479-2.603l4.076-1.119c1.129-0.309,2.293,0.354,2.604,1.481
		c0.311,1.128-0.354,2.293-1.48,2.603l-4.076,1.119C200.879,32.374,200.691,32.398,200.505,32.398z M216.812,27.925
		c-0.937,0-1.783-0.617-2.041-1.558c-0.312-1.128,0.354-2.293,1.479-2.603l4.076-1.119c1.129-0.309,2.295,0.354,2.605,1.481
		c0.311,1.128-0.355,2.293-1.48,2.603l-4.076,1.119C217.186,27.9,216.996,27.925,216.812,27.925z M266.369,27.501
		c-0.846,0-1.645-0.508-1.973-1.341c-0.443-1.126-1.045-2.188-1.787-3.155c-0.711-0.928-0.533-2.258,0.395-2.969
		c0.932-0.711,2.262-0.535,2.973,0.394c0.979,1.28,1.773,2.685,2.361,4.176c0.432,1.088-0.104,2.318-1.191,2.747
		C266.891,27.453,266.625,27.501,266.369,27.501z M233.117,23.451c-0.932,0-1.783-0.618-2.041-1.558
		c-0.311-1.128,0.354-2.293,1.48-2.603l4.073-1.119c1.134-0.309,2.296,0.355,2.604,1.481c0.312,1.128-0.354,2.293-1.479,2.603
		l-4.075,1.119C233.49,23.427,233.303,23.451,233.117,23.451z M249.422,18.977c-0.93,0-1.781-0.618-2.039-1.558
		c-0.311-1.128,0.354-2.293,1.48-2.602l3.986-1.094c0.231-0.065,0.479-0.089,0.727-0.069c0.01,0.001,0.113,0.01,0.125,0.011
		c1.164,0.109,2.021,1.142,1.91,2.306c-0.098,1.031-0.918,1.82-1.912,1.911l-3.717,1.019
		C249.797,18.953,249.609,18.977,249.422,18.977z"/>
	<path fill="#9D427A" d="M83.973,367.609c-0.277,0-0.562-0.055-0.833-0.172c-0.803-0.35-1.284-1.125-1.284-1.945
		c-0.755-0.324-1.283-1.074-1.283-1.947c0-1.17,0.949-2.117,2.119-2.117h2.117c0.713,0,1.377,0.357,1.768,0.951
		c0.394,0.596,0.459,1.346,0.18,2l-0.834,1.946C85.576,367.128,84.795,367.609,83.973,367.609z"/>
	<path fill="#9D427A" d="M62.686,417.284c-0.279,0-0.562-0.061-0.834-0.172c-1.074-0.461-1.572-1.705-1.111-2.78l1.773-4.14
		c0.46-1.075,1.705-1.577,2.78-1.112c1.073,0.461,1.571,1.705,1.11,2.78L64.632,416C64.287,416.803,63.507,417.284,62.686,417.284z
		 M69.781,400.726c-0.277,0-0.562-0.055-0.834-0.172c-1.073-0.461-1.571-1.705-1.11-2.774l1.772-4.146
		c0.461-1.075,1.705-1.577,2.78-1.112c1.075,0.461,1.573,1.705,1.112,2.781l-1.773,4.145
		C71.384,400.244,70.602,400.726,69.781,400.726z M76.877,384.168c-0.278,0-0.562-0.055-0.833-0.172
		c-1.075-0.461-1.573-1.706-1.112-2.78l1.774-4.14c0.46-1.075,1.702-1.576,2.78-1.112c1.074,0.461,1.572,1.706,1.111,2.78
		l-1.773,4.14C78.48,383.688,77.697,384.168,76.877,384.168z"/>
	<path fill="#9D427A" d="M56.529,431.649c-0.377,0-0.758-0.104-1.101-0.312c-0.899-0.548-1.26-1.674-0.845-2.643l0.834-1.946
		c0.46-1.075,1.703-1.575,2.779-1.112c0.188,0.081,0.359,0.188,0.513,0.312c0.181,0.077,0.354,0.182,0.513,0.312
		c0.903,0.743,1.032,2.078,0.289,2.98l-1.346,1.635C57.749,431.382,57.143,431.649,56.529,431.649z"/>
	<path fill="#9D427A" d="M66.029,420.112c-0.474,0-0.951-0.158-1.344-0.483c-0.904-0.743-1.033-2.078-0.289-2.979l2.717-3.308
		c0.744-0.897,2.08-1.026,2.981-0.289c0.903,0.743,1.032,2.078,0.289,2.98l-2.718,3.302
		C67.248,419.849,66.641,420.112,66.029,420.112z M76.904,406.908c-0.475,0-0.951-0.159-1.346-0.483
		c-0.902-0.744-1.031-2.078-0.289-2.979l2.719-3.307c0.746-0.896,2.08-1.023,2.981-0.282c0.901,0.738,1.032,2.072,0.289,2.979
		l-2.719,3.301C78.121,406.645,77.515,406.908,76.904,406.908z M87.777,393.705c-0.474,0-0.951-0.158-1.345-0.482
		c-0.903-0.744-1.032-2.078-0.288-2.979l2.717-3.305c0.744-0.9,2.08-1.03,2.981-0.289c0.901,0.744,1.032,2.078,0.289,2.979
		l-2.72,3.305C88.994,393.441,88.389,393.705,87.777,393.705z M98.652,380.501c-0.475,0-0.951-0.159-1.346-0.483
		c-0.902-0.742-1.031-2.078-0.289-2.979l2.719-3.303c0.744-0.899,2.078-1.027,2.98-0.286c0.902,0.741,1.032,2.075,0.289,2.979
		l-2.719,3.301C99.869,380.236,99.263,380.501,98.652,380.501z"/>
	<path fill="#9D427A" d="M109.525,367.298c-0.474,0-0.951-0.157-1.345-0.483c-0.903-0.737-1.032-2.078-0.289-2.979l1.347-1.635
		c0.401-0.489,1.002-0.771,1.635-0.771h2.117c1.17,0,2.119,0.946,2.119,2.116s-0.949,2.117-2.119,2.117h-1.117l-0.711,0.862
		C110.742,367.034,110.136,367.298,109.525,367.298z"/>
</g>
<g id="T">
	<rect x="32.5" y="88.5" fill="none" width="223" height="261"/>
	<text transform="matrix(1 0 0 1 59.7227 229.2998)" fill="#9D427A" font-family="'DroidSerif'" font-size="80">Hey!</text>
</g>
</svg>
