<?xml version="1.0" encoding="utf-8"?>
<!-- Generator: Adobe Illustrator 16.0.0, SVG Export Plug-In . SVG Version: 6.00 Build 0)  -->
<!DOCTYPE svg PUBLIC "-//W3C//DTD SVG 1.1//EN" "http://www.w3.org/Graphics/SVG/1.1/DTD/svg11.dtd">
<svg version="1.1" id="Layer_1" xmlns="http://www.w3.org/2000/svg" xmlns:xlink="http://www.w3.org/1999/xlink" x="0px" y="0px"
	 width="500px" height="197px" viewBox="0 0 500 197" enable-background="new 0 0 500 197" xml:space="preserve">
<g id="Change2">
	<path fill="#DE5947" d="M430.81,67.075c-2.396,0-4.438,0.108-6.188,0.304H50.973c-24.34,0-44.072,19.733-44.072,44.071v34.28
		c0,24.343,19.732,44.074,44.072,44.074h399.12c24.342,0,44.07-19.731,44.07-44.074v-26.317v-7.963V3.718
		C494.168,3.718,484.984,67.075,430.81,67.075z"/>
</g>
<g id="Change1">
	<g id="Layer_2">
	</g>
	<path fill="#F1F1D9" d="M485.568,47.018c-0.748-0.251-1.571,0.004-2.05,0.635c-0.358,0.477-0.729,0.949-1.102,1.42
		c-0.631,0.797-0.492,1.951,0.306,2.58c0.337,0.266,0.732,0.396,1.138,0.396c0.312,0.241,0.699,0.384,1.124,0.384
		c1.019,0,1.837-0.822,1.837-1.836V48.76C486.821,47.97,486.316,47.269,485.568,47.018z"/>
	<path fill="#F1F1D9" d="M128.139,76.56c0-1.014-0.82-1.836-1.836-1.836h-3.692c-1.016,0-1.838,0.822-1.838,1.836
		c0,1.015,0.822,1.836,1.838,1.836h3.692C127.318,78.397,128.139,77.575,128.139,76.56z"/>
	<path fill="#F1F1D9" d="M172.466,76.56c0-1.014-0.822-1.836-1.836-1.836h-3.694c-1.014,0-1.836,0.822-1.836,1.836
		c0,1.015,0.822,1.836,1.836,1.836h3.694C171.643,78.397,172.466,77.575,172.466,76.56z"/>
	<path fill="#F1F1D9" d="M160.481,178.787h-3.688c-1.02,0-1.836,0.822-1.836,1.838s0.816,1.838,1.836,1.838h3.688
		c1.02,0,1.838-0.822,1.838-1.838C162.318,179.609,161.495,178.787,160.481,178.787z"/>
	<path fill="#F1F1D9" d="M175.256,178.787h-3.694c-1.014,0-1.836,0.822-1.836,1.838s0.822,1.838,1.836,1.838h3.694
		c1.014,0,1.836-0.822,1.836-1.838S176.27,178.787,175.256,178.787z"/>
	<path fill="#F1F1D9" d="M142.915,76.56c0-1.014-0.822-1.836-1.836-1.836h-3.694c-1.014,0-1.836,0.822-1.836,1.836
		c0,1.015,0.822,1.836,1.836,1.836h3.694C142.093,78.397,142.915,77.575,142.915,76.56z"/>
	<path fill="#F1F1D9" d="M130.93,178.787h-3.692c-1.016,0-1.836,0.822-1.836,1.838s0.82,1.838,1.836,1.838h3.692
		c1.016,0,1.836-0.822,1.836-1.838S131.945,178.787,130.93,178.787z"/>
	<path fill="#F1F1D9" d="M187.241,76.56c0-1.014-0.822-1.836-1.84-1.836h-3.69c-1.018,0-1.836,0.822-1.836,1.836
		c0,1.015,0.818,1.836,1.836,1.836h3.69C186.419,78.397,187.241,77.575,187.241,76.56z"/>
	<path fill="#F1F1D9" d="M157.69,76.56c0-1.014-0.816-1.836-1.836-1.836h-3.688c-1.02,0-1.836,0.822-1.836,1.836
		c0,1.015,0.816,1.836,1.836,1.836h3.688C156.868,78.397,157.69,77.575,157.69,76.56z"/>
	<path fill="#F1F1D9" d="M145.705,178.787h-3.694c-1.014,0-1.836,0.822-1.836,1.838s0.822,1.838,1.836,1.838h3.694
		c1.014,0,1.836-0.822,1.836-1.838S146.72,178.787,145.705,178.787z"/>
	<path fill="#F1F1D9" d="M190.032,178.787h-3.694c-1.014,0-1.836,0.822-1.836,1.838s0.822,1.838,1.836,1.838h3.694
		c1.014,0,1.836-0.822,1.836-1.838S191.046,178.787,190.032,178.787z"/>
	<path fill="#F1F1D9" d="M234.359,178.787h-3.69c-1.018,0-1.836,0.822-1.836,1.838s0.818,1.838,1.836,1.838h3.69
		c1.018,0,1.836-0.822,1.836-1.838S235.372,178.787,234.359,178.787z"/>
	<path fill="#F1F1D9" d="M246.342,76.56c0-1.014-0.822-1.836-1.836-1.836h-3.694c-1.014,0-1.836,0.822-1.836,1.836
		c0,1.015,0.822,1.836,1.836,1.836h3.694C245.52,78.397,246.342,77.575,246.342,76.56z"/>
	<path fill="#F1F1D9" d="M231.568,76.56c0-1.014-0.818-1.836-1.838-1.836h-3.688c-1.02,0-1.836,0.822-1.836,1.836
		c0,1.015,0.816,1.836,1.836,1.836h3.688C230.744,78.397,231.568,77.575,231.568,76.56z"/>
	<path fill="#F1F1D9" d="M202.016,76.56c0-1.014-0.82-1.836-1.836-1.836h-3.692c-1.016,0-1.836,0.822-1.836,1.836
		c0,1.015,0.82,1.836,1.836,1.836h3.692C201.195,78.397,202.016,77.575,202.016,76.56z"/>
	<path fill="#F1F1D9" d="M249.133,178.787h-3.694c-1.014,0-1.836,0.822-1.836,1.838s0.822,1.838,1.836,1.838h3.694
		c1.014,0,1.836-0.822,1.836-1.838S250.147,178.787,249.133,178.787z"/>
	<path fill="#F1F1D9" d="M204.807,178.787h-3.688c-1.02,0-1.84,0.822-1.84,1.838s0.82,1.838,1.84,1.838h3.688
		c1.02,0,1.836-0.822,1.836-1.838S205.822,178.787,204.807,178.787z"/>
	<path fill="#F1F1D9" d="M219.582,178.787h-3.694c-1.014,0-1.836,0.822-1.836,1.838s0.822,1.838,1.836,1.838h3.694
		c1.014,0,1.836-0.822,1.836-1.838S220.597,178.787,219.582,178.787z"/>
	<path fill="#F1F1D9" d="M216.791,76.56c0-1.014-0.822-1.836-1.836-1.836h-3.693c-1.014,0-1.836,0.822-1.836,1.836
		c0,1.015,0.822,1.836,1.836,1.836h3.693C215.969,78.397,216.791,77.575,216.791,76.56z"/>
	<path fill="#F1F1D9" d="M16.081,119.814c1.014,0,1.836-0.822,1.836-1.836v-3.695c0-1.014-0.822-1.836-1.836-1.836
		c-1.018,0-1.836,0.822-1.836,1.836v3.695C14.245,118.992,15.068,119.814,16.081,119.814z"/>
	<path fill="#F1F1D9" d="M116.156,178.787h-3.69c-1.018,0-1.836,0.822-1.836,1.838s0.818,1.838,1.836,1.838h3.69
		c1.018,0,1.84-0.822,1.84-1.838S117.169,178.787,116.156,178.787z"/>
	<path fill="#F1F1D9" d="M42.824,177.773c-1.125-0.287-2.247-0.644-3.341-1.043c-0.949-0.355-2.01,0.131-2.357,1.082
		c-0.354,0.944,0.13,2.008,1.081,2.356c1.212,0.449,2.46,0.845,3.711,1.156c0.148,0.039,0.304,0.062,0.455,0.062
		c0.815,0,1.562-0.557,1.774-1.387C44.401,179.021,43.806,178.023,42.824,177.773z"/>
	<path fill="#F1F1D9" d="M30.39,171.578c-0.905-0.727-1.788-1.506-2.617-2.322c-0.722-0.711-1.884-0.705-2.597,0.02
		c-0.712,0.726-0.704,1.89,0.02,2.601c0.924,0.908,1.896,1.771,2.903,2.58c0.338,0.271,0.743,0.396,1.146,0.396
		c0.539,0,1.07-0.231,1.437-0.688C31.313,173.367,31.183,172.213,30.39,171.578z"/>
	<path fill="#F1F1D9" d="M39.68,78.385c-0.379-0.941-1.451-1.396-2.39-1.018c-1.195,0.48-2.38,1.033-3.521,1.641
		c-0.896,0.477-1.229,1.588-0.758,2.484c0.33,0.621,0.966,0.974,1.623,0.974c0.291,0,0.586-0.069,0.861-0.216
		c1.021-0.547,2.093-1.043,3.167-1.477C39.603,80.396,40.058,79.327,39.68,78.385z"/>
	<path fill="#F1F1D9" d="M27.156,88.555c0.703-0.73,0.684-1.895-0.053-2.598c-0.729-0.702-1.894-0.68-2.597,0.052
		c-0.896,0.932-1.751,1.919-2.542,2.937c-0.623,0.801-0.479,1.955,0.322,2.577c0.335,0.261,0.729,0.388,1.126,0.388
		c0.547,0,1.089-0.244,1.447-0.709C25.578,90.284,26.348,89.394,27.156,88.555z"/>
	<path fill="#F1F1D9" d="M261.117,76.56c0-1.014-0.821-1.836-1.841-1.836h-3.688c-1.02,0-1.838,0.822-1.838,1.836
		c0,1.015,0.819,1.836,1.838,1.836h3.688C260.296,78.397,261.117,77.575,261.117,76.56z"/>
	<path fill="#F1F1D9" d="M16.617,105.066c0.145,0.035,0.285,0.053,0.431,0.053c0.829,0,1.582-0.562,1.784-1.404
		c0.271-1.133,0.604-2.26,0.999-3.354c0.342-0.955-0.156-2.005-1.11-2.347c-0.955-0.343-2.007,0.154-2.348,1.111
		c-0.438,1.217-0.812,2.471-1.112,3.727C15.025,103.838,15.631,104.828,16.617,105.066z"/>
	<path fill="#F1F1D9" d="M17.961,147.434c-0.029-0.562-0.043-1.129-0.043-1.699v-1.896c0-1.019-0.822-1.838-1.836-1.838
		c-1.018,0-1.836,0.822-1.836,1.838v1.897c0,0.636,0.017,1.265,0.048,1.888c0.05,0.979,0.857,1.744,1.833,1.744
		c0.031,0,0.062-0.002,0.095-0.007C17.235,149.311,18.013,148.447,17.961,147.434z"/>
	<path fill="#F1F1D9" d="M16.081,134.59c1.014,0,1.836-0.822,1.836-1.836v-3.695c0-1.016-0.822-1.836-1.836-1.836
		c-1.018,0-1.836,0.82-1.836,1.836v3.695C14.245,133.768,15.068,134.59,16.081,134.59z"/>
	<path fill="#F1F1D9" d="M20.14,157.652c-0.367-0.945-1.432-1.418-2.376-1.047c-0.943,0.36-1.415,1.43-1.048,2.375
		c0.466,1.201,1.003,2.395,1.597,3.543c0.326,0.633,0.974,0.996,1.639,0.996c0.278,0,0.565-0.066,0.841-0.205
		c0.896-0.465,1.255-1.574,0.79-2.479C21.042,159.805,20.558,158.732,20.14,157.652z"/>
	<path fill="#F1F1D9" d="M98.589,76.56c0-1.014-0.822-1.836-1.836-1.836h-3.694c-1.014,0-1.836,0.822-1.836,1.836
		c0,1.015,0.822,1.836,1.836,1.836h3.694C97.766,78.397,98.589,77.575,98.589,76.56z"/>
	<path fill="#F1F1D9" d="M86.604,178.787h-3.688c-1.02,0-1.836,0.822-1.836,1.838s0.816,1.838,1.836,1.838h3.688
		c1.02,0,1.836-0.822,1.836-1.838S87.618,178.787,86.604,178.787z"/>
	<path fill="#F1F1D9" d="M101.38,178.787h-3.694c-1.014,0-1.836,0.822-1.836,1.838s0.822,1.838,1.836,1.838h3.694
		c1.014,0,1.836-0.822,1.836-1.838S102.394,178.787,101.38,178.787z"/>
	<path fill="#F1F1D9" d="M113.365,76.56c0-1.014-0.822-1.836-1.84-1.836h-3.69c-1.018,0-1.836,0.822-1.836,1.836
		c0,1.015,0.818,1.836,1.836,1.836h3.69C112.542,78.397,113.365,77.575,113.365,76.56z"/>
	<path fill="#F1F1D9" d="M54.263,76.56c0-1.014-0.82-1.836-1.836-1.836h-1.453c-0.781,0-1.573,0.024-2.354,0.075
		c-1.016,0.064-1.781,0.938-1.72,1.949c0.062,0.973,0.868,1.72,1.831,1.72c0.037,0,0.077-0.001,0.116-0.003
		c0.703-0.045,1.417-0.067,2.123-0.067h1.453C53.442,78.397,54.263,77.575,54.263,76.56z"/>
	<path fill="#F1F1D9" d="M57.054,178.787h-3.692c-1.016,0-1.836,0.822-1.836,1.838s0.82,1.838,1.836,1.838h3.692
		c1.016,0,1.836-0.822,1.836-1.838S58.069,178.787,57.054,178.787z"/>
	<path fill="#F1F1D9" d="M83.813,76.56c0-1.014-0.816-1.836-1.836-1.836h-3.688c-1.02,0-1.836,0.822-1.836,1.836
		c0,1.015,0.816,1.836,1.836,1.836h3.688C82.991,78.397,83.813,77.575,83.813,76.56z"/>
	<path fill="#F1F1D9" d="M69.038,76.56c0-1.014-0.822-1.836-1.836-1.836h-3.694c-1.014,0-1.836,0.822-1.836,1.836
		c0,1.015,0.822,1.836,1.836,1.836h3.694C68.216,78.397,69.038,77.575,69.038,76.56z"/>
	<path fill="#F1F1D9" d="M71.829,178.787h-3.694c-1.014,0-1.836,0.822-1.836,1.838s0.822,1.838,1.836,1.838h3.694
		c1.014,0,1.836-0.822,1.836-1.838S72.843,178.787,71.829,178.787z"/>
	<path fill="#F1F1D9" d="M349.77,76.56c0-1.014-0.821-1.836-1.837-1.836h-3.693c-1.016,0-1.836,0.822-1.836,1.836
		c0,1.015,0.82,1.836,1.836,1.836h3.693C348.947,78.397,349.77,77.575,349.77,76.56z"/>
	<path fill="#F1F1D9" d="M452.812,72.782c-0.298-0.97-1.325-1.514-2.296-1.216c-1.137,0.349-2.3,0.671-3.457,0.954
		c-0.983,0.242-1.589,1.236-1.348,2.221c0.201,0.838,0.956,1.399,1.778,1.399c0.146,0,0.291-0.017,0.438-0.053
		c1.229-0.302,2.459-0.642,3.66-1.011C452.565,74.778,453.11,73.75,452.812,72.782z"/>
	<path fill="#F1F1D9" d="M466.115,66.427c-0.517-0.874-1.646-1.164-2.517-0.646c-1.029,0.608-2.086,1.191-3.143,1.733
		c-0.897,0.464-1.258,1.571-0.794,2.474c0.324,0.633,0.975,0.996,1.641,0.996c0.276,0,0.563-0.064,0.838-0.203
		c1.114-0.574,2.231-1.193,3.325-1.838C466.344,68.426,466.633,67.299,466.115,66.427z"/>
	<path fill="#F1F1D9" d="M455.649,178.322c-1.145,0.193-2.312,0.33-3.478,0.402c-1.017,0.062-1.779,0.938-1.722,1.944
		c0.062,0.978,0.869,1.726,1.831,1.726c0.038,0,0.076-0.002,0.115-0.004c1.293-0.08,2.593-0.232,3.857-0.447
		c1-0.17,1.674-1.117,1.504-2.117C457.598,178.826,456.656,178.154,455.649,178.322z"/>
	<path fill="#F1F1D9" d="M477.641,57.216c-0.694-0.74-1.854-0.772-2.598-0.079c-0.88,0.824-1.776,1.63-2.688,2.396
		c-0.771,0.654-0.87,1.813-0.216,2.588c0.359,0.429,0.882,0.649,1.397,0.649c0.421,0,0.846-0.143,1.188-0.435
		c0.952-0.807,1.902-1.656,2.826-2.524C478.302,59.118,478.337,57.954,477.641,57.216z"/>
	<path fill="#F1F1D9" d="M468.533,173.152c-0.967,0.646-1.977,1.256-2.998,1.801c-0.896,0.479-1.232,1.586-0.763,2.482
		c0.33,0.621,0.968,0.977,1.624,0.977c0.29,0,0.585-0.066,0.856-0.215c1.141-0.604,2.26-1.273,3.329-2
		c0.844-0.564,1.062-1.709,0.492-2.551C470.52,172.807,469.379,172.586,468.533,173.152z"/>
	<path fill="#F1F1D9" d="M426.438,178.787h-3.692c-1.017,0-1.839,0.822-1.839,1.838s0.822,1.838,1.839,1.838h3.692
		c1.017,0,1.836-0.822,1.836-1.838S427.448,178.787,426.438,178.787z"/>
	<path fill="#F1F1D9" d="M441.213,178.787h-3.691c-1.018,0-1.837,0.822-1.837,1.838s0.819,1.838,1.837,1.838h3.691
		c1.018,0,1.837-0.822,1.837-1.838S442.227,178.787,441.213,178.787z"/>
	<path fill="#F1F1D9" d="M423.646,76.56c0-1.014-0.822-1.836-1.838-1.836h-3.692c-1.016,0-1.836,0.822-1.836,1.836
		c0,1.015,0.82,1.836,1.836,1.836h3.692C422.823,78.397,423.646,77.575,423.646,76.56z"/>
	<path fill="#F1F1D9" d="M438.399,75.897c-0.077-1.011-0.933-1.76-1.976-1.689c-1.188,0.091-2.396,0.154-3.6,0.187
		c-1.017,0.027-1.812,0.872-1.786,1.886c0.025,0.996,0.848,1.786,1.836,1.786c0.021,0,0.03,0,0.054,0
		c1.264-0.034,2.528-0.1,3.775-0.196C437.721,77.792,438.477,76.909,438.399,75.897z"/>
	<path fill="#F1F1D9" d="M484.984,89.391c-1.018,0-1.837,0.822-1.837,1.836v3.694c0,1.014,0.819,1.836,1.837,1.836
		c1.021,0,1.837-0.822,1.837-1.836v-3.694C486.821,90.214,486,89.391,484.984,89.391z"/>
	<path fill="#F1F1D9" d="M484.984,74.616c-1.018,0-1.837,0.822-1.837,1.836v3.694c0,1.015,0.819,1.836,1.837,1.836
		c1.021,0,1.837-0.821,1.837-1.836v-3.694C486.821,75.438,486,74.616,484.984,74.616z"/>
	<path fill="#F1F1D9" d="M411.658,178.787h-3.69c-1.019,0-1.837,0.822-1.837,1.838s0.818,1.838,1.837,1.838h3.69
		c1.019,0,1.837-0.822,1.837-1.838S412.677,178.787,411.658,178.787z"/>
	<path fill="#F1F1D9" d="M484.984,104.166c-1.018,0-1.837,0.822-1.837,1.838v3.691c0,1.016,0.819,1.838,1.837,1.838
		c1.021,0,1.837-0.822,1.837-1.838v-3.691C486.821,104.988,486,104.166,484.984,104.166z"/>
	<path fill="#F1F1D9" d="M480.709,162.557c-0.858-0.533-1.992-0.271-2.528,0.59c-0.61,0.984-1.284,1.951-2.003,2.869
		c-0.624,0.799-0.479,1.953,0.315,2.576c0.335,0.262,0.729,0.389,1.132,0.389c0.546,0,1.087-0.237,1.443-0.707
		c0.796-1.02,1.543-2.092,2.229-3.188C481.834,164.227,481.569,163.094,480.709,162.557z"/>
	<path fill="#F1F1D9" d="M484.984,59.841c-1.018,0-1.837,0.821-1.837,1.836v3.694c0,1.014,0.819,1.836,1.837,1.836
		c1.021,0,1.837-0.822,1.837-1.836v-3.694C486.821,60.663,486,59.841,484.984,59.841z"/>
	<path fill="#F1F1D9" d="M484.984,118.941c-1.018,0-1.837,0.822-1.837,1.838v3.693c0,1.014,0.819,1.836,1.837,1.836
		c1.021,0,1.837-0.822,1.837-1.836v-3.693C486.821,119.764,486,118.941,484.984,118.941z"/>
	<path fill="#F1F1D9" d="M484.926,148.494c-1.017-0.131-1.933,0.574-2.062,1.58c-0.146,1.148-0.365,2.309-0.642,3.438
		c-0.237,0.986,0.366,1.979,1.354,2.217c0.146,0.035,0.289,0.058,0.438,0.058c0.828,0,1.58-0.562,1.783-1.406
		c0.306-1.254,0.543-2.541,0.711-3.812C486.638,149.549,485.93,148.625,484.926,148.494z"/>
	<path fill="#F1F1D9" d="M484.984,133.717c-1.018,0-1.837,0.822-1.837,1.838v3.691c0,1.016,0.819,1.838,1.837,1.838
		c1.021,0,1.837-0.822,1.837-1.838v-3.691C486.821,134.539,486,133.717,484.984,133.717z"/>
	<path fill="#F1F1D9" d="M367.336,178.787h-3.691c-1.017,0-1.837,0.822-1.837,1.838s0.82,1.838,1.837,1.838h3.691
		c1.017,0,1.837-0.822,1.837-1.838S368.35,178.787,367.336,178.787z"/>
	<path fill="#F1F1D9" d="M334.99,76.56c0-1.014-0.817-1.836-1.838-1.836h-3.688c-1.021,0-1.837,0.822-1.837,1.836
		c0,1.015,0.816,1.836,1.837,1.836h3.688C334.173,78.397,334.99,77.575,334.99,76.56z"/>
	<path fill="#F1F1D9" d="M308.233,178.787h-3.688c-1.019,0-1.837,0.822-1.837,1.838s0.818,1.838,1.837,1.838h3.688
		c1.021,0,1.836-0.822,1.836-1.838S309.245,178.787,308.233,178.787z"/>
	<path fill="#F1F1D9" d="M323.01,178.787h-3.69c-1.018,0-1.837,0.822-1.837,1.838s0.819,1.838,1.837,1.838h3.69
		c1.018,0,1.839-0.822,1.839-1.838C324.847,179.609,324.024,178.787,323.01,178.787z"/>
	<path fill="#F1F1D9" d="M305.445,76.56c0-1.014-0.818-1.836-1.84-1.836h-3.688c-1.021,0-1.836,0.822-1.836,1.836
		c0,1.015,0.814,1.836,1.836,1.836h3.688C304.622,78.397,305.445,77.575,305.445,76.56z"/>
	<path fill="#F1F1D9" d="M320.22,76.56c0-1.014-0.819-1.836-1.837-1.836h-3.691c-1.018,0-1.838,0.822-1.838,1.836
		c0,1.015,0.82,1.836,1.838,1.836h3.691C319.397,78.397,320.22,77.575,320.22,76.56z"/>
	<path fill="#F1F1D9" d="M278.682,178.787h-3.688c-1.021,0-1.842,0.822-1.842,1.838s0.82,1.838,1.842,1.838h3.688
		c1.021,0,1.838-0.822,1.838-1.838S279.698,178.787,278.682,178.787z"/>
	<path fill="#F1F1D9" d="M275.893,76.56c0-1.014-0.816-1.836-1.838-1.836h-3.688c-1.021,0-1.841,0.822-1.841,1.836
		c0,1.015,0.82,1.836,1.841,1.836h3.688C275.072,78.397,275.893,77.575,275.893,76.56z"/>
	<path fill="#F1F1D9" d="M290.668,76.56c0-1.014-0.82-1.836-1.836-1.836h-3.693c-1.016,0-1.837,0.822-1.837,1.836
		c0,1.015,0.821,1.836,1.837,1.836h3.693C289.848,78.397,290.668,77.575,290.668,76.56z"/>
	<path fill="#F1F1D9" d="M293.459,178.787h-3.691c-1.017,0-1.836,0.822-1.836,1.838s0.819,1.838,1.836,1.838h3.691
		c1.016,0,1.837-0.822,1.837-1.838S294.473,178.787,293.459,178.787z"/>
	<path fill="#F1F1D9" d="M396.887,178.787h-3.691c-1.018,0-1.836,0.822-1.836,1.838s0.818,1.838,1.836,1.838h3.691
		c1.018,0,1.838-0.822,1.838-1.838C398.723,179.609,397.9,178.787,396.887,178.787z"/>
	<path fill="#F1F1D9" d="M337.781,178.787h-3.689c-1.019,0-1.836,0.822-1.836,1.838s0.817,1.838,1.836,1.838h3.689
		c1.019,0,1.837-0.822,1.837-1.838S338.8,178.787,337.781,178.787z"/>
	<path fill="#F1F1D9" d="M394.097,76.56c0-1.014-0.819-1.836-1.837-1.836h-3.691c-1.018,0-1.837,0.822-1.837,1.836
		c0,1.015,0.819,1.836,1.837,1.836h3.691C393.274,78.397,394.097,77.575,394.097,76.56z"/>
	<path fill="#F1F1D9" d="M408.868,76.56c0-1.014-0.818-1.836-1.837-1.836h-3.69c-1.02,0-1.837,0.822-1.837,1.836
		c0,1.015,0.817,1.836,1.837,1.836h3.69C408.05,78.397,408.868,77.575,408.868,76.56z"/>
	<path fill="#F1F1D9" d="M379.319,76.56c0-1.014-0.815-1.836-1.836-1.836h-3.691c-1.018,0-1.837,0.822-1.837,1.836
		c0,1.015,0.819,1.836,1.837,1.836h3.691C378.495,78.397,379.319,77.575,379.319,76.56z"/>
	<path fill="#F1F1D9" d="M382.11,178.787h-3.688c-1.021,0-1.841,0.822-1.841,1.838s0.82,1.838,1.841,1.838h3.688
		c1.021,0,1.837-0.822,1.837-1.838S383.126,178.787,382.11,178.787z"/>
	<path fill="#F1F1D9" d="M352.56,178.787h-3.692c-1.016,0-1.837,0.822-1.837,1.838s0.821,1.838,1.837,1.838h3.692
		c1.017,0,1.837-0.822,1.837-1.838S353.573,178.787,352.56,178.787z"/>
	<path fill="#F1F1D9" d="M364.546,76.56c0-1.014-0.82-1.836-1.837-1.836h-3.692c-1.017,0-1.839,0.822-1.839,1.836
		c0,1.015,0.822,1.836,1.839,1.836h3.692C363.723,78.397,364.546,77.575,364.546,76.56z"/>
	<path fill="#F1F1D9" d="M263.908,178.787h-3.692c-1.016,0-1.836,0.822-1.836,1.838s0.82,1.838,1.836,1.838h3.692
		c1.015,0,1.836-0.822,1.836-1.838S264.923,178.787,263.908,178.787z"/>
</g>
<g id="T">
	<rect x="41.5" y="78.396" fill="none" width="411" height="100.391"/>
	<text transform="matrix(1 0 0 1 145.7205 154.8994)" fill="#F1F1D9" font-family="'Raleway-ExtraLight'" font-size="80">hello!</text>
</g>
</svg>
