<?xml version="1.0" encoding="utf-8"?>
<!-- Generator: Adobe Illustrator 16.0.0, SVG Export Plug-In . SVG Version: 6.00 Build 0)  -->
<!DOCTYPE svg PUBLIC "-//W3C//DTD SVG 1.1//EN" "http://www.w3.org/Graphics/SVG/1.1/DTD/svg11.dtd">
<svg version="1.1" id="Layer_1" xmlns="http://www.w3.org/2000/svg" xmlns:xlink="http://www.w3.org/1999/xlink" x="0px" y="0px"
	 width="432px" height="500px" viewBox="0 0 432 500" enable-background="new 0 0 432 500" xml:space="preserve">
<g id="Change1">
	<path fill="#8BCFB1" d="M216.005,8.305c-115.222,0-208.626,93.404-208.626,208.623c0,73.562,38.104,138.175,95.622,175.329
		l99.516,99.522c0,0-35.062-53.524-21.969-69.292c11.53,1.978,23.363,3.062,35.457,3.062c115.215,0,208.616-93.396,208.616-208.622
		C424.621,101.709,331.22,8.305,216.005,8.305z"/>
</g>
<g id="Change2">
	<path fill="#55A4A5" d="M143.583,411.499c-0.9,0-1.8-0.344-2.486-1.03l-4.938-4.938c-1.373-1.374-1.373-3.604,0-4.979
		c1.369-1.373,3.599-1.373,4.972,0l4.938,4.94c1.373,1.374,1.373,3.6,0,4.973C145.382,411.155,144.482,411.499,143.583,411.499z
		 M225.98,411.229c-1.856,0-3.412-1.452-3.51-3.336c-0.102-1.938,1.393-3.593,3.329-3.688c2.265-0.116,4.562-0.277,6.839-0.479
		c1.938-0.162,3.643,1.265,3.812,3.193c0.169,1.933-1.263,3.642-3.193,3.812c-2.358,0.209-4.747,0.375-7.095,0.493
		C226.104,411.228,226.041,411.229,225.98,411.229z M205.041,411.159c-0.07,0-0.143-0.002-0.21-0.007
		c-2.359-0.145-4.746-0.324-7.097-0.556c-1.933-0.186-3.35-1.897-3.164-3.837c0.188-1.934,1.903-3.345,3.839-3.163
		c2.263,0.224,4.562,0.396,6.835,0.53c1.938,0.114,3.417,1.778,3.303,3.717C208.437,409.718,206.887,411.159,205.041,411.159z
		 M253.672,407.757c-1.645,0-3.107-1.154-3.443-2.825c-0.381-1.898,0.854-3.757,2.756-4.139c2.236-0.449,4.488-0.944,6.691-1.472
		c1.889-0.452,3.787,0.711,4.238,2.6c0.453,1.889-0.711,3.786-2.604,4.238c-2.289,0.549-4.625,1.062-6.943,1.528
		C254.134,407.734,253.9,407.757,253.672,407.757z M280.562,400.262c-1.438,0-2.791-0.891-3.31-2.317
		c-0.657-1.829,0.286-3.847,2.112-4.507c2.146-0.771,4.308-1.597,6.404-2.438c1.804-0.729,3.854,0.146,4.572,1.95
		c0.727,1.802-0.146,3.851-1.949,4.568c-2.181,0.883-4.414,1.729-6.646,2.533C281.359,400.194,280.956,400.262,280.562,400.262z
		 M123.825,391.738c-0.9,0-1.803-0.344-2.486-1.03l-4.939-4.94c-1.373-1.373-1.373-3.6,0-4.973s3.602-1.373,4.975,0l4.938,4.939
		c1.373,1.375,1.373,3.601,0,4.974C125.625,391.395,124.725,391.738,123.825,391.738z M306.051,388.904
		c-1.254,0-2.467-0.672-3.104-1.854c-0.918-1.711-0.271-3.843,1.438-4.761c1.993-1.068,4.001-2.193,5.968-3.346
		c1.68-0.979,3.828-0.416,4.812,1.261c0.979,1.677,0.415,3.83-1.261,4.812c-2.042,1.193-4.126,2.361-6.191,3.471
		C307.181,388.77,306.612,388.904,306.051,388.904z M102.395,373.993c-0.726,0-1.458-0.226-2.087-0.688
		c-1.897-1.406-3.801-2.865-5.647-4.339c-1.521-1.211-1.771-3.423-0.561-4.94c1.211-1.519,3.422-1.769,4.941-0.56
		c1.783,1.423,3.612,2.829,5.444,4.185c1.562,1.154,1.895,3.355,0.737,4.918C104.536,373.5,103.472,373.993,102.395,373.993z
		 M329.604,373.956c-1.072,0-2.137-0.491-2.824-1.422c-1.156-1.56-0.83-3.763,0.729-4.919c1.817-1.352,3.646-2.758,5.428-4.182
		c1.518-1.218,3.729-0.973,4.941,0.551c1.213,1.518,0.966,3.729-0.554,4.938c-1.849,1.479-3.737,2.938-5.629,4.342
		C331.066,373.73,330.328,373.956,329.604,373.956z M81.198,355.805c-0.896,0-1.792-0.342-2.478-1.021
		c-1.67-1.658-3.339-3.377-4.96-5.108c-1.327-1.418-1.254-3.643,0.164-4.97c1.416-1.328,3.642-1.255,4.97,0.163
		c1.563,1.67,3.171,3.324,4.781,4.925c1.378,1.368,1.386,3.597,0.018,4.974C83.005,355.457,82.102,355.805,81.198,355.805z
		 M350.745,355.748c-0.899,0-1.805-0.346-2.488-1.035c-1.37-1.376-1.366-3.604,0.01-4.973c1.617-1.61,3.225-3.268,4.771-4.926
		c1.324-1.418,3.553-1.496,4.973-0.172c1.419,1.32,1.496,3.551,0.171,4.971c-1.604,1.721-3.271,3.438-4.944,5.109
		C352.543,355.406,351.646,355.748,350.745,355.748z M62.876,334.732c-1.07,0-2.127-0.487-2.818-1.409
		c-1.412-1.888-2.812-3.83-4.159-5.775c-1.104-1.596-0.708-3.786,0.892-4.894c1.594-1.104,3.786-0.709,4.892,0.89
		c1.299,1.874,2.647,3.747,4.008,5.563c1.164,1.556,0.85,3.76-0.708,4.922C64.348,334.504,63.608,334.732,62.876,334.732z
		 M369.045,334.669c-0.73,0-1.474-0.229-2.104-0.7c-1.559-1.162-1.873-3.365-0.711-4.922c1.369-1.835,2.722-3.709,4.012-5.568
		c1.104-1.598,3.3-1.994,4.896-0.888c1.599,1.106,1.993,3.298,0.89,4.894c-1.339,1.935-2.736,3.871-4.158,5.773
		C371.174,334.182,370.115,334.669,369.045,334.669z M47.833,311.212c-1.25,0-2.46-0.668-3.099-1.845
		c-1.126-2.083-2.225-4.21-3.267-6.32c-0.859-1.74-0.144-3.85,1.598-4.709c1.742-0.859,3.852-0.145,4.709,1.598
		c1.003,2.032,2.062,4.082,3.146,6.088c0.923,1.709,0.287,3.848-1.421,4.771C48.97,311.076,48.397,311.212,47.833,311.212z
		 M384.102,311.152c-0.562,0-1.139-0.137-1.671-0.424c-1.708-0.931-2.343-3.062-1.418-4.771c1.088-2.01,2.147-4.062,3.16-6.102
		c0.859-1.736,2.97-2.449,4.711-1.592c1.737,0.861,2.452,2.977,1.59,4.711c-1.046,2.113-2.146,4.242-3.274,6.324
		C386.56,310.486,385.351,311.152,384.102,311.152z M36.402,285.746c-1.438,0-2.786-0.889-3.306-2.316
		c-0.805-2.22-1.58-4.479-2.303-6.729c-0.598-1.85,0.421-3.829,2.27-4.424c1.852-0.596,3.829,0.42,4.424,2.27
		c0.696,2.163,1.442,4.344,2.222,6.48c0.663,1.826-0.28,3.844-2.105,4.506C37.205,285.678,36.8,285.746,36.402,285.746z
		 M395.571,285.688c-0.396,0-0.809-0.063-1.203-0.213c-1.822-0.664-2.769-2.684-2.104-4.508c0.782-2.146,1.533-4.335,2.23-6.502
		c0.599-1.848,2.581-2.863,4.429-2.265c1.852,0.597,2.859,2.577,2.269,4.427c-0.729,2.248-1.509,4.518-2.315,6.746
		C398.355,284.801,397.007,285.688,395.571,285.688z M28.827,258.887c-1.639,0-3.104-1.146-3.441-2.812
		c-0.471-2.306-0.906-4.655-1.293-6.985c-0.319-1.916,0.976-3.727,2.891-4.045c1.913-0.32,3.729,0.975,4.045,2.891
		c0.374,2.247,0.793,4.512,1.247,6.733c0.392,1.901-0.839,3.761-2.739,4.147C29.296,258.863,29.06,258.887,28.827,258.887z
		 M403.179,258.801c-0.23,0-0.474-0.023-0.708-0.07c-1.899-0.391-3.13-2.248-2.738-4.146c0.453-2.229,0.877-4.497,1.25-6.74
		c0.316-1.915,2.129-3.212,4.047-2.89c1.915,0.319,3.209,2.131,2.894,4.046c-0.392,2.327-0.824,4.681-1.3,6.991
		C406.279,257.652,404.814,258.801,403.179,258.801z M25.256,231.217c-1.854,0-3.403-1.448-3.508-3.321
		c-0.13-2.346-0.223-4.733-0.27-7.096c-0.038-1.941,1.505-3.546,3.446-3.585c1.979-0.027,3.546,1.505,3.585,3.446
		c0.045,2.279,0.131,4.581,0.257,6.844c0.108,1.939-1.376,3.598-3.312,3.706C25.388,231.215,25.322,231.217,25.256,231.217z
		 M406.748,231.122c-0.062,0-0.131-0.001-0.194-0.005c-1.938-0.107-3.424-1.766-3.313-3.705c0.125-2.272,0.211-4.578,0.255-6.852
		c0.037-1.941,1.608-3.478,3.583-3.448c1.938,0.038,3.482,1.642,3.448,3.583c-0.049,2.359-0.138,4.749-0.268,7.105
		C410.155,229.672,408.605,231.122,406.748,231.122z M25.725,203.321c-0.104,0-0.21-0.005-0.313-0.014
		c-1.937-0.173-3.362-1.88-3.19-3.815c0.21-2.35,0.466-4.729,0.762-7.071c0.243-1.927,1.999-3.293,3.932-3.048
		c1.926,0.243,3.291,2.002,3.048,3.929c-0.285,2.257-0.532,4.55-0.733,6.815C29.06,201.944,27.525,203.321,25.725,203.321z
		 M406.27,203.215c-1.8,0-3.334-1.375-3.495-3.202c-0.203-2.265-0.452-4.558-0.738-6.814c-0.244-1.926,1.119-3.686,3.046-3.931
		c1.931-0.246,3.688,1.119,3.934,3.046c0.297,2.341,0.558,4.72,0.769,7.07c0.174,1.934-1.253,3.643-3.188,3.816
		C406.481,203.21,406.372,203.215,406.27,203.215z M30.235,175.78c-0.271,0-0.548-0.032-0.822-0.098
		c-1.891-0.454-3.054-2.353-2.6-4.241c0.55-2.287,1.152-4.604,1.79-6.884c0.523-1.87,2.464-2.96,4.333-2.439
		c1.87,0.523,2.962,2.463,2.439,4.333c-0.615,2.198-1.195,4.43-1.728,6.633C33.264,174.696,31.823,175.78,30.235,175.78z
		 M401.74,175.676c-1.587,0-3.023-1.082-3.415-2.692c-0.538-2.227-1.12-4.459-1.729-6.634c-0.521-1.87,0.563-3.811,2.438-4.335
		c1.867-0.524,3.812,0.566,4.335,2.437c0.636,2.256,1.234,4.572,1.794,6.882c0.456,1.887-0.702,3.787-2.593,4.243
		C402.294,175.644,402.017,175.676,401.74,175.676z M38.742,149.19c-0.438,0-0.887-0.083-1.315-0.256
		c-1.801-0.727-2.671-2.776-1.945-4.577c0.884-2.187,1.821-4.394,2.788-6.56c0.792-1.773,2.873-2.568,4.646-1.776
		c1.771,0.792,2.565,2.871,1.773,4.645c-0.933,2.088-1.837,4.216-2.688,6.324C41.451,148.358,40.133,149.19,38.742,149.19z
		 M393.223,149.097c-1.394,0-2.708-0.831-3.261-2.2c-0.854-2.105-1.752-4.221-2.68-6.29c-0.793-1.773,0.002-3.853,1.771-4.646
		c1.772-0.792,3.854,0.001,4.646,1.774c0.96,2.147,1.896,4.342,2.774,6.526c0.729,1.8-0.143,3.85-1.94,4.577
		C394.107,149.015,393.658,149.097,393.223,149.097z M51.064,124.123c-0.604,0-1.216-0.156-1.772-0.483
		c-1.678-0.982-2.237-3.137-1.255-4.812c1.193-2.04,2.442-4.084,3.713-6.076c1.043-1.638,3.216-2.121,4.854-1.078
		c1.639,1.043,2.121,3.216,1.078,4.854c-1.223,1.92-2.427,3.891-3.58,5.856C53.446,123.501,52.272,124.123,51.064,124.123z
		 M380.908,124.078c-1.206,0-2.381-0.622-3.036-1.738c-1.146-1.952-2.346-3.917-3.567-5.84c-1.042-1.638-0.562-3.812,1.079-4.854
		c1.639-1.042,3.812-0.56,4.854,1.079c1.271,1.995,2.52,4.033,3.704,6.058c0.979,1.675,0.421,3.829-1.255,4.812
		C382.128,123.922,381.516,124.078,380.908,124.078z M66.906,101.125c-0.771,0-1.548-0.253-2.194-0.773
		c-1.518-1.215-1.758-3.428-0.543-4.943c1.479-1.844,3.01-3.684,4.552-5.469c1.271-1.469,3.49-1.631,4.959-0.363
		c1.47,1.27,1.632,3.49,0.363,4.959c-1.486,1.721-2.962,3.494-4.391,5.271C68.957,100.675,67.937,101.125,66.906,101.125z
		 M365.078,101.104c-1.027,0-2.051-0.451-2.742-1.317c-1.413-1.763-2.891-3.534-4.386-5.266c-1.271-1.47-1.104-3.69,0.363-4.959
		c1.471-1.27,3.688-1.106,4.959,0.363c1.552,1.796,3.081,3.634,4.547,5.463c1.215,1.516,0.974,3.729-0.544,4.943
		C366.63,100.852,365.853,101.104,365.078,101.104z M85.906,80.669c-0.939,0-1.881-0.376-2.571-1.12
		c-1.324-1.421-1.245-3.646,0.176-4.969c1.722-1.604,3.501-3.202,5.289-4.75c1.467-1.271,3.687-1.112,4.96,0.356
		c1.271,1.468,1.111,3.688-0.356,4.96c-1.724,1.493-3.438,3.034-5.1,4.58C87.626,80.357,86.765,80.669,85.906,80.669z
		 M346.086,80.656c-0.857,0-1.72-0.312-2.396-0.942c-1.681-1.562-3.396-3.104-5.104-4.583c-1.471-1.271-1.63-3.492-0.354-4.959
		c1.271-1.468,3.487-1.629,4.96-0.357c1.771,1.534,3.552,3.132,5.292,4.751c1.421,1.323,1.502,3.548,0.179,4.969
		C347.969,80.28,347.028,80.656,346.086,80.656z M107.656,63.179c-1.113,0-2.213-0.53-2.896-1.518
		c-1.104-1.597-0.704-3.787,0.894-4.892c1.938-1.337,3.928-2.66,5.916-3.932c1.639-1.046,3.812-0.566,4.856,1.071
		c1.045,1.637,0.566,3.811-1.071,4.856c-1.919,1.226-3.838,2.501-5.703,3.79C109.042,62.977,108.346,63.179,107.656,63.179z
		 M324.324,63.163c-0.688,0-1.386-0.202-1.996-0.624c-1.868-1.293-3.794-2.571-5.716-3.797c-1.64-1.045-2.117-3.219-1.069-4.856
		c1.045-1.636,3.22-2.116,4.854-1.072c1.991,1.273,3.986,2.598,5.931,3.939c1.601,1.104,1.998,3.294,0.896,4.892
		C326.538,62.632,325.443,63.163,324.324,63.163z M131.7,49.034c-1.299,0-2.542-0.72-3.155-1.96c-0.86-1.742-0.146-3.85,1.596-4.709
		c2.114-1.044,4.274-2.062,6.419-3.024c1.771-0.795,3.854-0.004,4.648,1.767s0.004,3.853-1.77,4.648
		c-2.064,0.928-4.146,1.909-6.187,2.915C132.754,48.917,132.223,49.034,131.7,49.034z M300.256,49.008
		c-0.521,0-1.055-0.117-1.555-0.364c-2.046-1.009-4.139-1.993-6.217-2.926c-1.771-0.795-2.562-2.875-1.771-4.647
		s2.875-2.565,4.646-1.769c2.154,0.967,4.324,1.988,6.445,3.035c1.741,0.859,2.457,2.967,1.602,4.708
		C302.8,48.288,301.553,49.008,300.256,49.008z M157.548,38.551c-1.485,0-2.866-0.949-3.346-2.439
		c-0.599-1.848,0.42-3.83,2.269-4.425c2.238-0.721,4.529-1.413,6.809-2.056c1.867-0.526,3.812,0.562,4.342,2.43
		c0.524,1.869-0.562,3.812-2.433,4.339c-2.194,0.62-4.402,1.286-6.562,1.981C158.269,38.497,157.906,38.551,157.548,38.551z
		 M274.368,38.522c-0.354,0-0.722-0.055-1.078-0.17c-2.157-0.695-4.364-1.36-6.562-1.978c-1.869-0.526-2.959-2.468-2.436-4.337
		c0.521-1.869,2.471-2.958,4.337-2.433c2.278,0.641,4.568,1.332,6.812,2.053c1.853,0.595,2.863,2.576,2.271,4.424
		C277.236,37.573,275.855,38.522,274.368,38.522z M184.669,31.975c-1.689,0-3.182-1.221-3.464-2.942
		c-0.317-1.916,0.978-3.726,2.894-4.043c2.325-0.385,4.692-0.733,7.037-1.034c1.923-0.244,3.688,1.114,3.935,3.041
		c0.247,1.926-1.112,3.688-3.041,3.935c-2.259,0.29-4.541,0.625-6.778,0.996C185.054,31.959,184.86,31.975,184.669,31.975z
		 M247.247,31.958c-0.188,0-0.388-0.016-0.576-0.047c-2.245-0.371-4.526-0.705-6.782-0.993c-1.928-0.246-3.289-2.007-3.043-3.933
		c0.246-1.927,2.014-3.293,3.934-3.042c2.346,0.299,4.707,0.646,7.037,1.03c1.916,0.316,3.213,2.126,2.896,4.042
		C250.428,30.736,248.938,31.958,247.247,31.958z M212.462,29.438c-1.912,0-3.479-1.532-3.517-3.452
		c-0.032-1.941,1.513-3.544,3.452-3.58c2.365-0.044,4.748-0.045,7.111-0.002c1.942,0.035,3.488,1.637,3.453,3.579
		c-0.034,1.941-1.625,3.527-3.578,3.453c-2.279-0.041-4.574-0.04-6.858,0.002C212.506,29.438,212.484,29.438,212.462,29.438z"/>
	<path fill="#55A4A5" d="M171.26,409.672c-0.792,0-1.589-0.267-2.246-0.812c-1.493-1.241-1.698-3.458-0.457-4.951l2.248-2.704
		c0.803-0.967,2.059-1.438,3.298-1.219l3.465,0.594c1.914,0.328,3.2,2.146,2.872,4.06s-2.147,3.194-4.06,2.872l-1.465-0.251
		l-0.95,1.146C173.271,409.239,172.269,409.672,171.26,409.672z"/>
	<path fill="#55A4A5" d="M160.887,428.806c-0.918,0-1.817-0.354-2.487-1.024l-2.483-2.486c-1.373-1.373-1.373-3.6,0-4.973
		c0.88-0.887,2.112-1.194,3.245-0.947c0.862-0.864,2.154-1.253,3.42-0.905c1.873,0.521,2.973,2.45,2.458,4.322
		c-0.272,0.992-0.503,2.034-0.688,3.096c-0.222,1.296-1.146,2.359-2.397,2.759C161.603,428.751,161.243,428.806,160.887,428.806z"/>
</g>
<g id="T">
	<rect x="49.5" y="117.5" fill="none" width="334" height="207"/>
	<text transform="matrix(1 0 0 1 135.918 254.0752)" fill="#55A4A5" font-family="'FredokaOne-Regular'" font-size="112">Hi!</text>
</g>
</svg>
