<?xml version="1.0" encoding="utf-8"?>
<!-- Generator: Adobe Illustrator 16.0.0, SVG Export Plug-In . SVG Version: 6.00 Build 0)  -->
<!DOCTYPE svg PUBLIC "-//W3C//DTD SVG 1.1//EN" "http://www.w3.org/Graphics/SVG/1.1/DTD/svg11.dtd">
<svg version="1.1" id="Layer_1" xmlns="http://www.w3.org/2000/svg" xmlns:xlink="http://www.w3.org/1999/xlink" x="0px" y="0px"
	 width="429px" height="500px" viewBox="0 0 429 500" enable-background="new 0 0 429 500" xml:space="preserve">
<g id="E">
	<g id="change1_2_">
		<path fill="#DE5947" d="M361.74,295.016V244.5v-163V43.934c0-21.704-17.604-39.301-39.304-39.301H310.25V81.5v163v251.41h12.188
			c21.697,0,39.304-17.604,39.304-39.302V370.67L425,247.769L361.74,295.016z M344.633,75.726V70.03
			c0-1.578,1.272-2.856,2.854-2.856c1.573,0,2.854,1.279,2.854,2.856v5.696c0.001,1.577-1.278,2.856-2.854,2.856
			C345.906,78.582,344.633,77.303,344.633,75.726z M350.343,47.245v5.696c0.001,1.578-1.278,2.856-2.854,2.856
			c-1.577,0-2.854-1.279-2.854-2.856v-5.696c0-1.578,1.272-2.856,2.854-2.856C349.063,44.389,350.343,45.668,350.343,47.245z
			 M338.269,24.347c1.123-1.107,2.935-1.096,4.039,0.027c1.479,1.505,2.8,3.18,3.907,4.978c0.82,1.343,0.402,3.103-0.938,3.93
			c-0.466,0.287-0.979,0.424-1.494,0.424c-0.959,0-1.896-0.482-2.438-1.358c-0.882-1.431-1.929-2.764-3.106-3.962
			C337.134,27.263,337.146,25.455,338.269,24.347z M319.513,16.061h2.953c1.021,0.001,2.044,0.057,3.047,0.166
			c1.562,0.171,2.7,1.582,2.522,3.149c-0.153,1.462-1.396,2.546-2.836,2.546c-0.104,0-0.209-0.005-0.312-0.017
			c-0.798-0.087-1.61-0.131-2.428-0.132h-2.951c-1.577,0-2.854-1.279-2.854-2.856S317.936,16.061,319.513,16.061z M347.487,112.742
			c1.573,0,2.854,1.279,2.854,2.856v5.696c0.001,1.578-1.278,2.856-2.854,2.856c-1.577,0-2.854-1.279-2.854-2.856v-5.696
			C344.631,114.02,345.906,112.742,347.487,112.742z M344.631,98.51v-5.696c0-1.578,1.272-2.856,2.854-2.856
			c1.573,0,2.854,1.279,2.854,2.856v5.696c0.001,1.577-1.278,2.856-2.854,2.856S344.631,100.087,344.631,98.51z M347.487,135.527
			c1.573,0,2.854,1.279,2.854,2.856v5.696c0.001,1.577-1.278,2.856-2.854,2.856c-1.577,0-2.854-1.279-2.854-2.856v-5.696
			C344.631,136.805,345.906,135.527,347.487,135.527z M347.487,158.311c1.573,0,2.854,1.279,2.854,2.856v5.696
			c0.001,1.577-1.278,2.854-2.854,2.854c-1.577,0-2.854-1.279-2.854-2.854v-5.696C344.631,159.589,345.906,158.311,347.487,158.311z
			 M347.487,181.095c1.573,0,2.854,1.279,2.854,2.856v5.696c0.001,1.578-1.278,2.856-2.854,2.856c-1.577,0-2.854-1.279-2.854-2.856
			v-5.696C344.631,182.373,345.906,181.095,347.487,181.095z M347.487,203.88c1.573,0,2.854,1.279,2.854,2.856v5.696
			c0.001,1.577-1.278,2.856-2.854,2.856c-1.577,0-2.854-1.279-2.854-2.856v-5.696C344.631,205.158,345.906,203.88,347.487,203.88z
			 M347.487,226.664c1.573,0,2.854,1.279,2.854,2.856v5.696c0.001,1.577-1.278,2.856-2.854,2.856c-1.577,0-2.854-1.279-2.854-2.856
			v-5.696C344.631,227.942,345.906,226.664,347.487,226.664z M361.765,309.285l4.562-3.41c1.271-0.945,3.061-0.686,3.997,0.579
			c0.94,1.264,0.688,3.054-0.579,3.997l-4.562,3.41c-0.516,0.383-1.109,0.568-1.707,0.568c-0.87,0-1.729-0.396-2.29-1.147
			C360.24,312.018,360.494,310.229,361.765,309.285z M347.487,272.232c1.573,0,2.854,1.272,2.854,2.854v5.696
			c0.001,1.573-1.278,2.854-2.854,2.854c-1.577,0-2.854-1.278-2.854-2.854v-5.696C344.631,273.512,345.906,272.232,347.487,272.232z
			 M344.631,258v-5.695c0-1.578,1.272-2.854,2.854-2.854c1.573,0,2.854,1.275,2.854,2.854V258c0.001,1.577-1.278,2.855-2.854,2.855
			S344.631,259.577,344.631,258z M347.487,295.018c1.573,0,2.854,1.278,2.854,2.855v5.695c0.001,1.578-1.278,2.854-2.854,2.854
			c-1.577,0-2.854-1.275-2.854-2.854v-5.695C344.631,296.296,345.906,295.018,347.487,295.018z M347.487,317.8
			c0.938,0,1.771,0.451,2.289,1.147c0.865,0.001,1.729,0.396,2.283,1.146c0.944,1.265,0.688,3.056-0.575,3.997l-2.288,1.709
			c-0.503,0.377-1.104,0.569-1.709,0.569c-0.438,0-0.875-0.101-1.28-0.304c-0.966-0.483-1.569-1.479-1.569-2.562v-2.854
			C344.631,319.079,345.906,317.8,347.487,317.8z M329.326,483.633c-2.045,0.521-4.148,0.812-6.271,0.854
			c-0.021,0.001-0.042,0.001-0.062,0.001c-1.55,0-2.814-1.239-2.854-2.796c-0.029-1.577,1.222-2.894,2.795-2.916
			c1.688-0.036,3.363-0.271,4.988-0.687c1.526-0.387,3.084,0.537,3.472,2.065C331.781,481.69,330.861,483.244,329.326,483.633z
			 M348.014,467.765c-0.854,1.938-1.918,3.773-3.188,5.479c-0.562,0.752-1.422,1.146-2.293,1.146c-0.594,0-1.188-0.184-1.704-0.562
			c-1.265-0.942-1.521-2.731-0.585-3.997c1.012-1.354,1.854-2.813,2.532-4.354c0.633-1.438,2.312-2.104,3.77-1.468
			C347.99,464.635,348.647,466.32,348.014,467.765z M350.343,449.823c0.001,1.576-1.278,2.854-2.854,2.854
			c-1.577,0-2.854-1.271-2.854-2.854v-5.696c0-1.577,1.272-2.855,2.854-2.855c1.573,0,2.854,1.278,2.854,2.855V449.823z
			 M350.343,427.039c0.001,1.576-1.278,2.854-2.854,2.854c-1.577,0-2.854-1.271-2.854-2.854v-5.696c0-1.577,1.272-2.854,2.854-2.854
			c1.573,0,2.854,1.271,2.854,2.854V427.039z M350.343,404.254c0.001,1.577-1.278,2.856-2.854,2.856
			c-1.577,0-2.854-1.279-2.854-2.856v-5.696c0-1.566,1.272-2.854,2.854-2.854c1.573,0,2.854,1.279,2.854,2.854V404.254z
			 M350.343,381.471c0.001,1.576-1.278,2.855-2.854,2.855c-1.577,0-2.854-1.279-2.854-2.855v-5.697c0-1.566,1.272-2.854,2.854-2.854
			c1.573,0,2.854,1.279,2.854,2.854V381.471z M356.533,355.874l-2.604,5.063c-0.507,0.979-1.507,1.549-2.542,1.549
			c-0.438,0-0.887-0.104-1.31-0.315c-1.398-0.723-1.95-2.444-1.229-3.847l2.604-5.064c0.729-1.402,2.446-1.953,3.854-1.232
			C356.703,352.75,357.262,354.471,356.533,355.874z M366.966,335.616l-2.604,5.063c-0.51,0.979-1.51,1.549-2.542,1.549
			c-0.438,0-0.891-0.104-1.309-0.315c-1.399-0.724-1.955-2.444-1.229-3.847l2.604-5.064c0.727-1.402,2.44-1.953,3.847-1.232
			C367.136,332.492,367.688,334.213,366.966,335.616z M377.392,315.357l-2.604,5.062c-0.507,0.981-1.507,1.55-2.542,1.55
			c-0.438,0-0.891-0.103-1.309-0.314c-1.399-0.723-1.951-2.438-1.229-3.848l2.604-5.062c0.726-1.403,2.447-1.953,3.851-1.231
			C377.562,312.232,378.114,313.954,377.392,315.357z M385.261,300.068c-0.507,0.979-1.507,1.55-2.542,1.55
			c-0.438,0-0.894-0.103-1.312-0.316c-0.396-0.206-0.729-0.493-0.979-0.831c-0.375-0.191-0.712-0.471-0.979-0.83
			c-0.938-1.265-0.688-3.055,0.579-3.998l2.288-1.709c1.062-0.795,2.535-0.75,3.554,0.107c1.021,0.859,1.311,2.305,0.695,3.486
			L385.261,300.068z"/>
	</g>
	<g id="change2_1_">
		<path fill="#F1F1D9" d="M346.2,326.066c0.405,0.203,0.85,0.303,1.28,0.303c0.604,0,1.205-0.191,1.709-0.569l2.287-1.709
			c1.265-0.942,1.521-2.733,0.576-3.997c-0.562-0.75-1.418-1.146-2.284-1.146c-0.521-0.696-1.354-1.147-2.288-1.147
			c-1.577,0-2.854,1.279-2.854,2.856v2.854C344.631,324.593,345.24,325.582,346.2,326.066z"/>
		<path fill="#F1F1D9" d="M385.866,294.041c-1.019-0.857-2.482-0.902-3.554-0.107l-2.288,1.709
			c-1.268,0.943-1.521,2.733-0.579,3.998c0.271,0.359,0.604,0.646,0.979,0.83c0.251,0.338,0.582,0.625,0.979,0.831
			c0.418,0.214,0.864,0.316,1.312,0.316c1.028,0,2.028-0.565,2.542-1.55l1.311-2.541C387.177,296.346,386.889,294.9,385.866,294.041
			z"/>
		<path fill="#F1F1D9" d="M347.487,260.855c1.574,0,2.854-1.278,2.854-2.855v-5.695c0-1.578-1.279-2.854-2.854-2.854
			c-1.577,0-2.854,1.275-2.854,2.854V258C344.631,259.577,345.906,260.855,347.487,260.855z"/>
		<path fill="#F1F1D9" d="M327.926,478.096c-1.625,0.413-3.309,0.646-4.988,0.687c-1.573,0.022-2.824,1.339-2.795,2.916
			c0.033,1.557,1.308,2.796,2.854,2.796c0.021,0,0.041,0,0.062-0.001c2.118-0.045,4.229-0.331,6.271-0.854
			c1.527-0.389,2.453-1.938,2.062-3.472C331.01,478.633,329.452,477.709,327.926,478.096z"/>
		<path fill="#F1F1D9" d="M347.487,283.641c1.574,0,2.854-1.279,2.854-2.854v-5.696c0-1.575-1.279-2.854-2.854-2.854
			c-1.577,0-2.854,1.279-2.854,2.854v5.696C344.631,282.361,345.906,283.641,347.487,283.641z"/>
		<path fill="#F1F1D9" d="M347.487,306.425c1.574,0,2.854-1.278,2.854-2.856v-5.688c0-1.576-1.279-2.854-2.854-2.854
			c-1.577,0-2.854,1.271-2.854,2.854v5.688C344.631,305.146,345.906,306.425,347.487,306.425z"/>
		<path fill="#F1F1D9" d="M347.487,418.487c-1.577,0-2.854,1.271-2.854,2.854v5.696c0,1.577,1.272,2.854,2.854,2.854
			c1.574,0,2.854-1.271,2.854-2.854v-5.696C350.343,419.766,349.063,418.487,347.487,418.487z"/>
		<path fill="#F1F1D9" d="M355.307,352.027c-1.397-0.721-3.124-0.17-3.854,1.229l-2.604,5.062c-0.722,1.396-0.17,3.123,1.229,3.849
			c0.423,0.214,0.863,0.312,1.31,0.312c1.035,0,2.035-0.562,2.542-1.549l2.604-5.062
			C357.262,354.471,356.703,352.75,355.307,352.027z"/>
		<path fill="#F1F1D9" d="M365.732,331.77c-1.396-0.721-3.12-0.17-3.847,1.232l-2.604,5.064c-0.726,1.396-0.17,3.123,1.229,3.847
			c0.418,0.214,0.858,0.315,1.309,0.315c1.032,0,2.032-0.565,2.542-1.559l2.604-5.062
			C367.688,334.213,367.136,332.492,365.732,331.77z"/>
		<path fill="#F1F1D9" d="M376.156,311.51c-1.396-0.72-3.125-0.17-3.851,1.233l-2.604,5.063c-0.723,1.396-0.17,3.125,1.229,3.848
			c0.418,0.214,0.865,0.316,1.309,0.316c1.035,0,2.035-0.566,2.542-1.56l2.604-5.062
			C378.114,313.954,377.562,312.232,376.156,311.51z"/>
		<path fill="#F1F1D9" d="M347.487,372.918c-1.577,0-2.854,1.279-2.854,2.855v5.697c0,1.566,1.272,2.854,2.854,2.854
			c1.574,0,2.854-1.279,2.854-2.854v-5.697C350.343,374.197,349.063,372.918,347.487,372.918z"/>
		<path fill="#F1F1D9" d="M346.543,464.002c-1.448-0.636-3.134,0.024-3.767,1.468c-0.679,1.54-1.521,3.003-2.532,4.354
			c-0.938,1.266-0.68,3.055,0.585,3.997c0.52,0.381,1.11,0.562,1.704,0.562c0.871,0,1.729-0.396,2.293-1.146
			c1.27-1.697,2.333-3.536,3.188-5.479C348.647,466.32,347.99,464.635,346.543,464.002z"/>
		<path fill="#F1F1D9" d="M347.487,395.702c-1.577,0-2.854,1.279-2.854,2.854v5.696c0,1.577,1.272,2.856,2.854,2.856
			c1.574,0,2.854-1.279,2.854-2.856v-5.696C350.343,396.981,349.063,395.702,347.487,395.702z"/>
		<path fill="#F1F1D9" d="M347.487,441.271c-1.577,0-2.854,1.271-2.854,2.854v5.696c0,1.577,1.272,2.854,2.854,2.854
			c1.574,0,2.854-1.271,2.854-2.854v-5.696C350.343,442.55,349.063,441.271,347.487,441.271z"/>
		<path fill="#F1F1D9" d="M363.476,314.43c0.598,0,1.191-0.186,1.707-0.568l4.562-3.4c1.271-0.938,1.521-2.729,0.579-3.997
			c-0.938-1.271-2.729-1.521-3.997-0.579l-4.562,3.41c-1.271,0.938-1.521,2.729-0.579,3.997
			C361.74,314.033,362.605,314.43,363.476,314.43z"/>
		<path fill="#F1F1D9" d="M347.487,215.288c1.574,0,2.854-1.279,2.854-2.856v-5.696c0-1.577-1.279-2.856-2.854-2.856
			c-1.577,0-2.854,1.278-2.854,2.856v5.696C344.631,214.009,345.906,215.288,347.487,215.288z"/>
		<path fill="#F1F1D9" d="M347.487,169.719c1.574,0,2.854-1.279,2.854-2.856v-5.696c0-1.577-1.279-2.856-2.854-2.856
			c-1.577,0-2.854,1.278-2.854,2.856v5.696C344.631,168.44,345.906,169.719,347.487,169.719z"/>
		<path fill="#F1F1D9" d="M347.487,192.503c1.574,0,2.854-1.278,2.854-2.856v-5.696c0-1.577-1.279-2.856-2.854-2.856
			c-1.577,0-2.854,1.278-2.854,2.856v5.696C344.631,191.224,345.906,192.503,347.487,192.503z"/>
		<path fill="#F1F1D9" d="M347.487,238.072c1.574,0,2.854-1.279,2.854-2.856v-5.696c0-1.577-1.279-2.856-2.854-2.856
			c-1.577,0-2.854,1.278-2.854,2.856v5.696C344.631,236.793,345.906,238.072,347.487,238.072z"/>
		<path fill="#F1F1D9" d="M347.487,146.935c1.574,0,2.854-1.279,2.854-2.856v-5.696c0-1.577-1.279-2.856-2.854-2.856
			c-1.577,0-2.854,1.278-2.854,2.856v5.696C344.631,145.656,345.906,146.935,347.487,146.935z"/>
		<path fill="#F1F1D9" d="M347.487,101.366c1.574,0,2.854-1.279,2.854-2.856v-5.696c0-1.577-1.279-2.856-2.854-2.856
			c-1.577,0-2.854,1.278-2.854,2.856v5.696C344.631,100.087,345.906,101.366,347.487,101.366z"/>
		<path fill="#F1F1D9" d="M347.487,124.15c1.574,0,2.854-1.278,2.854-2.856v-5.696c0-1.577-1.279-2.856-2.854-2.856
			c-1.577,0-2.854,1.278-2.854,2.856v5.696C344.631,122.871,345.906,124.15,347.487,124.15z"/>
		<path fill="#F1F1D9" d="M347.487,67.174c-1.577,0-2.854,1.278-2.854,2.856v5.696c0,1.577,1.272,2.856,2.854,2.856
			c1.574,0,2.854-1.279,2.854-2.856V70.03C350.343,68.453,349.063,67.174,347.487,67.174z"/>
		<path fill="#F1F1D9" d="M344.631,47.245v5.696c0,1.577,1.272,2.856,2.854,2.856c1.574,0,2.854-1.278,2.854-2.856v-5.696
			c0-1.577-1.279-2.856-2.854-2.856S344.631,45.667,344.631,47.245z"/>
		<path fill="#F1F1D9" d="M341.352,32.348c0.539,0.876,1.479,1.358,2.438,1.358c0.518,0,1.028-0.137,1.494-0.424
			c1.347-0.827,1.765-2.587,0.938-3.93c-1.104-1.798-2.425-3.473-3.907-4.978c-1.104-1.123-2.916-1.134-4.039-0.027
			c-1.122,1.108-1.135,2.916-0.021,4.039C339.423,29.584,340.47,30.917,341.352,32.348z"/>
		<path fill="#F1F1D9" d="M319.513,21.773h2.951c0.812,0.001,1.63,0.045,2.428,0.132c0.104,0.012,0.21,0.017,0.312,0.017
			c1.438,0,2.683-1.084,2.836-2.546c0.178-1.567-0.962-2.978-2.522-3.149c-1.003-0.109-2.023-0.165-3.047-0.166h-2.953
			c-1.577,0-2.854,1.279-2.854,2.856S317.936,21.773,319.513,21.773z"/>
	</g>
</g>
<g id="W">
	<g id="change1">
		<path fill="#DE5947" d="M45.688,4.633c-21.7,0-39.301,17.598-39.301,39.301V81.5v163v212.108
			c0,21.689,17.601,39.302,39.301,39.302h36.566V244.5v-163V4.633H45.688z M20.69,417.211c-1.578,0-2.854-1.279-2.854-2.854v-5.696
			c0-1.577,1.272-2.856,2.854-2.856s2.856,1.279,2.856,2.856v5.696C23.546,415.931,22.268,417.211,20.69,417.211z M23.546,431.445
			v5.688c0,1.577-1.278,2.856-2.856,2.856s-2.854-1.279-2.854-2.856v-5.688c0-1.577,1.272-2.856,2.854-2.856
			S23.546,429.868,23.546,431.445z M20.69,394.428c-1.578,0-2.854-1.279-2.854-2.854v-5.695c0-1.577,1.272-2.854,2.854-2.854
			s2.856,1.271,2.856,2.854v5.695C23.546,393.148,22.268,394.428,20.69,394.428z M20.69,371.645c-1.578,0-2.854-1.272-2.854-2.854
			v-5.695c0-1.574,1.272-2.854,2.854-2.854s2.856,1.279,2.856,2.854v5.695C23.546,370.363,22.268,371.645,20.69,371.645z
			 M20.69,348.859c-1.578,0-2.854-1.279-2.854-2.856v-5.696c0-1.576,1.272-2.854,2.854-2.854s2.856,1.277,2.856,2.854v5.696
			C23.546,347.58,22.268,348.859,20.69,348.859z M20.69,326.072c-1.578,0-2.854-1.279-2.854-2.856v-5.692
			c0-1.578,1.272-2.854,2.854-2.854s2.856,1.278,2.856,2.854v5.692C23.546,324.793,22.268,326.072,20.69,326.072z M20.69,303.289
			c-1.578,0-2.854-1.278-2.854-2.854v-5.697c0-1.576,1.272-2.855,2.854-2.855s2.856,1.279,2.856,2.855v5.697
			C23.546,302.009,22.268,303.289,20.69,303.289z M20.69,280.504c-1.578,0-2.854-1.275-2.854-2.854v-5.695
			c0-1.577,1.272-2.855,2.854-2.855s2.856,1.278,2.856,2.855v5.695C23.546,279.229,22.268,280.504,20.69,280.504z M20.69,257.723
			c-1.578,0-2.854-1.279-2.854-2.854v-5.696c0-1.578,1.272-2.856,2.854-2.856s2.856,1.279,2.856,2.856v5.696
			C23.546,256.443,22.268,257.723,20.69,257.723z M21.282,462.746c-0.13,0.017-0.257,0.025-0.382,0.025
			c-1.407,0-2.638-1.055-2.824-2.48c-0.158-1.214-0.24-2.452-0.24-3.683v-2.39c0-1.566,1.272-2.854,2.854-2.854
			s2.856,1.275,2.856,2.854v2.39c0,0.979,0.062,1.966,0.188,2.931C23.946,461.103,22.846,462.539,21.282,462.746z M35.575,479.667
			c-0.528,0.907-1.484,1.413-2.472,1.413c-0.486,0-0.98-0.126-1.438-0.396c-1.821-1.062-3.524-2.343-5.063-3.793
			c-1.146-1.082-1.202-2.89-0.12-4.026c1.083-1.148,2.896-1.201,4.038-0.119c1.229,1.146,2.582,2.171,4.032,3.02
			C35.915,476.556,36.372,478.306,35.575,479.667z M55.283,484.49H49.59c-1.578,0-2.856-1.279-2.856-2.856s1.279-2.854,2.856-2.854
			h5.693c1.574,0,2.854,1.271,2.854,2.854S56.86,484.49,55.283,484.49z M78.067,484.49h-5.689c-1.578,0-2.856-1.279-2.856-2.856
			s1.279-2.854,2.856-2.854h5.689c1.578,0,2.856,1.271,2.856,2.854S79.645,484.49,78.067,484.49z M20.69,212.154
			c-1.578,0-2.854-1.279-2.854-2.856v-5.696c0-1.578,1.272-2.856,2.854-2.856s2.856,1.279,2.856,2.856v5.696
			C23.546,210.875,22.268,212.154,20.69,212.154z M23.546,226.386v5.696c0,1.577-1.278,2.856-2.856,2.856s-2.854-1.279-2.854-2.856
			v-5.696c0-1.578,1.272-2.854,2.854-2.854S23.546,224.809,23.546,226.386z M20.69,189.37c-1.578,0-2.854-1.279-2.854-2.856v-5.696
			c0-1.578,1.272-2.856,2.854-2.856s2.856,1.279,2.856,2.856v5.696C23.546,188.091,22.268,189.37,20.69,189.37z M20.69,166.585
			c-1.578,0-2.854-1.279-2.854-2.856v-5.696c0-1.578,1.272-2.856,2.854-2.856s2.856,1.279,2.856,2.856v5.696
			C23.546,165.306,22.268,166.585,20.69,166.585z M20.69,143.801c-1.578,0-2.854-1.279-2.854-2.856v-5.696
			c0-1.578,1.272-2.856,2.854-2.856s2.856,1.279,2.856,2.856v5.696C23.546,142.522,22.268,143.801,20.69,143.801z M20.69,121.017
			c-1.578,0-2.854-1.279-2.854-2.856v-5.696c0-1.578,1.272-2.856,2.854-2.856s2.856,1.279,2.856,2.856v5.696
			C23.546,119.738,22.268,121.017,20.69,121.017z M20.69,98.232c-1.578,0-2.854-1.279-2.854-2.856V89.68
			c0-1.578,1.272-2.856,2.854-2.856s2.856,1.279,2.856,2.856v5.696C23.546,96.954,22.268,98.232,20.69,98.232z M68.886,16.061h5.696
			c1.575,0,2.854,1.279,2.854,2.856s-1.275,2.856-2.854,2.856h-5.696c-1.578,0-2.856-1.279-2.856-2.856S67.309,16.061,68.886,16.061
			z M46.101,16.061h5.696c1.578,0,2.854,1.279,2.854,2.856s-1.271,2.856-2.854,2.856h-5.696c-1.578,0-2.854-1.279-2.854-2.856
			S44.524,16.061,46.101,16.061z M23.972,26.503c1.322-1.646,2.833-3.145,4.492-4.454c1.24-0.978,3.035-0.766,4.012,0.472
			c0.979,1.238,0.77,3.034-0.472,4.012c-1.321,1.043-2.525,2.237-3.578,3.548c-0.565,0.702-1.396,1.067-2.229,1.067
			c-0.627,0-1.259-0.206-1.783-0.629C23.18,29.531,22.984,27.733,23.972,26.503z M17.834,44.112c0-1.578,1.272-2.856,2.854-2.856
			s2.856,1.279,2.856,2.856v5.696c0,1.577-1.278,2.856-2.856,2.856s-2.854-1.279-2.854-2.856V44.112z M17.834,66.896
			c0-1.578,1.272-2.856,2.854-2.856s2.856,1.279,2.856,2.856v5.696c0,1.577-1.278,2.856-2.856,2.856s-2.854-1.279-2.854-2.856
			V66.896z"/>
	</g>
	<g id="change2">
		<path fill="#F1F1D9" d="M20.69,177.962c-1.577,0-2.854,1.278-2.854,2.856v5.696c0,1.577,1.271,2.856,2.854,2.856
			s2.856-1.279,2.856-2.856v-5.696C23.546,179.241,22.267,177.962,20.69,177.962z"/>
		<path fill="#F1F1D9" d="M20.69,155.177c-1.577,0-2.854,1.278-2.854,2.856v5.696c0,1.577,1.271,2.856,2.854,2.856
			s2.856-1.279,2.856-2.856v-5.696C23.546,156.456,22.267,155.177,20.69,155.177z"/>
		<path fill="#F1F1D9" d="M20.69,200.746c-1.577,0-2.854,1.278-2.854,2.856v5.696c0,1.577,1.271,2.856,2.854,2.856
			s2.856-1.279,2.856-2.856v-5.696C23.546,202.025,22.267,200.746,20.69,200.746z"/>
		<path fill="#F1F1D9" d="M20.69,132.393c-1.577,0-2.854,1.278-2.854,2.856v5.696c0,1.577,1.271,2.856,2.854,2.856
			s2.856-1.279,2.856-2.856v-5.696C23.546,133.672,22.267,132.393,20.69,132.393z"/>
		<path fill="#F1F1D9" d="M20.69,223.53c-1.577,0-2.854,1.278-2.854,2.854v5.696c0,1.577,1.271,2.856,2.854,2.856
			s2.856-1.279,2.856-2.856v-5.696C23.546,224.809,22.267,223.53,20.69,223.53z"/>
		<path fill="#F1F1D9" d="M20.69,109.609c-1.577,0-2.854,1.278-2.854,2.856v5.696c0,1.577,1.271,2.856,2.854,2.856
			s2.856-1.279,2.856-2.856v-5.696C23.546,110.888,22.267,109.609,20.69,109.609z"/>
		<path fill="#F1F1D9" d="M20.69,86.824c-1.577,0-2.854,1.278-2.854,2.856v5.696c0,1.577,1.271,2.856,2.854,2.856
			s2.856-1.278,2.856-2.856V89.68C23.546,88.103,22.267,86.824,20.69,86.824z"/>
		<path fill="#F1F1D9" d="M20.69,439.997c1.578,0,2.856-1.279,2.856-2.856v-5.688c0-1.577-1.279-2.856-2.856-2.856
			s-2.854,1.279-2.854,2.856v5.688C17.834,438.718,19.112,439.997,20.69,439.997z"/>
		<path fill="#F1F1D9" d="M20.69,394.428c1.578,0,2.856-1.279,2.856-2.854v-5.695c0-1.577-1.279-2.854-2.856-2.854
			s-2.854,1.271-2.854,2.854v5.695C17.834,393.148,19.112,394.428,20.69,394.428z"/>
		<path fill="#F1F1D9" d="M20.69,371.645c1.578,0,2.856-1.271,2.856-2.854v-5.695c0-1.574-1.279-2.854-2.856-2.854
			s-2.854,1.279-2.854,2.854v5.695C17.834,370.365,19.112,371.645,20.69,371.645z"/>
		<path fill="#F1F1D9" d="M20.69,417.213c1.578,0,2.856-1.279,2.856-2.854v-5.696c0-1.577-1.279-2.856-2.856-2.856
			s-2.854,1.279-2.854,2.856v5.696C17.834,415.934,19.112,417.213,20.69,417.213z"/>
		<path fill="#F1F1D9" d="M20.69,348.859c1.578,0,2.856-1.279,2.856-2.856v-5.696c0-1.576-1.279-2.854-2.856-2.854
			s-2.854,1.277-2.854,2.854v5.696C17.834,347.58,19.112,348.859,20.69,348.859z"/>
		<path fill="#F1F1D9" d="M20.69,280.507c1.578,0,2.856-1.278,2.856-2.856v-5.688c0-1.577-1.279-2.854-2.856-2.854
			s-2.854,1.271-2.854,2.854v5.688C17.834,279.229,19.112,280.507,20.69,280.507z"/>
		<path fill="#F1F1D9" d="M20.69,326.075c1.578,0,2.856-1.279,2.856-2.856v-5.695c0-1.578-1.279-2.854-2.856-2.854
			s-2.854,1.278-2.854,2.854v5.695C17.834,324.796,19.112,326.075,20.69,326.075z"/>
		<path fill="#F1F1D9" d="M20.69,257.723c1.578,0,2.856-1.279,2.856-2.854v-5.696c0-1.577-1.279-2.856-2.856-2.856
			s-2.854,1.278-2.854,2.856v5.696C17.834,256.443,19.112,257.723,20.69,257.723z"/>
		<path fill="#F1F1D9" d="M20.69,303.291c1.578,0,2.856-1.279,2.856-2.855v-5.689c0-1.574-1.279-2.854-2.856-2.854
			s-2.854,1.276-2.854,2.854v5.689C17.834,302.012,19.112,303.291,20.69,303.291z"/>
		<path fill="#F1F1D9" d="M78.067,478.778h-5.689c-1.577,0-2.856,1.271-2.856,2.854s1.278,2.856,2.856,2.856h5.689
			c1.578,0,2.856-1.279,2.856-2.856S79.645,478.778,78.067,478.778z"/>
		<path fill="#F1F1D9" d="M55.283,478.778H49.59c-1.577,0-2.856,1.271-2.856,2.854s1.278,2.856,2.856,2.856h5.693
			c1.573,0,2.854-1.279,2.854-2.856S56.861,478.778,55.283,478.778z"/>
		<path fill="#F1F1D9" d="M34.554,475.759c-1.45-0.849-2.806-1.866-4.032-3.02c-1.146-1.082-2.955-1.029-4.038,0.119
			c-1.082,1.146-1.021,2.954,0.12,4.026c1.539,1.45,3.242,2.729,5.063,3.796c0.453,0.271,0.943,0.396,1.438,0.396
			c0.981,0,1.938-0.506,2.472-1.413C36.372,478.306,35.915,476.556,34.554,475.759z"/>
		<path fill="#F1F1D9" d="M23.545,456.608v-2.39c0-1.566-1.279-2.854-2.856-2.854s-2.854,1.277-2.854,2.854v2.39
			c0,1.229,0.082,2.469,0.24,3.683c0.188,1.436,1.417,2.48,2.824,2.48c0.125,0,0.252-0.019,0.378-0.025
			c1.564-0.207,2.664-1.646,2.456-3.207C23.61,458.574,23.545,457.587,23.545,456.608z"/>
		<path fill="#F1F1D9" d="M20.69,41.256c-1.577,0-2.854,1.278-2.854,2.856v5.696c0,1.577,1.271,2.856,2.854,2.856
			s2.856-1.279,2.856-2.856v-5.696C23.546,42.535,22.267,41.256,20.69,41.256z"/>
		<path fill="#F1F1D9" d="M20.69,64.04c-1.577,0-2.854,1.278-2.854,2.856v5.696c0,1.577,1.271,2.856,2.854,2.856
			s2.856-1.279,2.856-2.856v-5.696C23.546,65.319,22.267,64.04,20.69,64.04z"/>
		<path fill="#F1F1D9" d="M28.464,22.049c-1.659,1.309-3.17,2.808-4.492,4.454c-0.988,1.23-0.792,3.028,0.438,4.016
			c0.524,0.423,1.156,0.629,1.783,0.629c0.84,0,1.664-0.365,2.229-1.067c1.053-1.311,2.257-2.505,3.578-3.548
			c1.231-0.978,1.45-2.774,0.472-4.012C31.499,21.283,29.704,21.071,28.464,22.049z"/>
		<path fill="#F1F1D9" d="M51.797,16.061h-5.696c-1.577,0-2.854,1.279-2.854,2.856s1.271,2.856,2.854,2.856h5.696
			c1.578,0,2.854-1.279,2.854-2.856S53.375,16.061,51.797,16.061z"/>
		<path fill="#F1F1D9" d="M74.582,16.061h-5.696c-1.577,0-2.856,1.279-2.856,2.856s1.278,2.856,2.856,2.856h5.696
			c1.57,0,2.854-1.279,2.854-2.856S76.16,16.061,74.582,16.061z"/>
	</g>
</g>
<g id="C_repeat">
	<g id="Change2_5_">
		<path fill="#F1F1D9" d="M305.91,478.778h-5.693c-1.577,0-2.855,1.271-2.855,2.854s1.278,2.856,2.855,2.856h5.693
			c1.573,0,2.854-1.279,2.854-2.856S307.487,478.778,305.91,478.778z"/>
		<path fill="#F1F1D9" d="M283.123,478.778h-5.693c-1.577,0-2.854,1.271-2.854,2.854s1.271,2.856,2.854,2.856h5.693
			c1.577,0,2.854-1.279,2.854-2.856S284.702,478.778,283.123,478.778z"/>
		<path fill="#F1F1D9" d="M260.341,478.778h-5.694c-1.578,0-2.854,1.271-2.854,2.854s1.271,2.856,2.854,2.856h5.694
			c1.577,0,2.854-1.279,2.854-2.856S261.918,478.778,260.341,478.778z"/>
		<path fill="#F1F1D9" d="M214.773,478.778h-5.692c-1.574,0-2.854,1.271-2.854,2.854s1.278,2.856,2.854,2.856h5.692
			c1.576,0,2.855-1.279,2.855-2.856S216.352,478.778,214.773,478.778z"/>
		<path fill="#F1F1D9" d="M237.557,478.778h-5.695c-1.566,0-2.854,1.271-2.854,2.854s1.279,2.856,2.854,2.856h5.695
			c1.577,0,2.856-1.279,2.856-2.856S239.134,478.778,237.557,478.778z"/>
		<path fill="#F1F1D9" d="M191.988,478.778h-5.689c-1.577,0-2.855,1.271-2.855,2.854s1.277,2.856,2.855,2.856h5.689
			c1.578,0,2.855-1.279,2.855-2.856S193.566,478.778,191.988,478.778z"/>
		<path fill="#F1F1D9" d="M146.42,478.778h-5.696c-1.577,0-2.854,1.271-2.854,2.854s1.274,2.856,2.854,2.856h5.696
			c1.578,0,2.854-1.279,2.854-2.856S147.998,478.778,146.42,478.778z"/>
		<path fill="#F1F1D9" d="M100.851,478.778h-5.696c-1.57,0-2.854,1.271-2.854,2.854s1.275,2.856,2.854,2.856h5.696
			c1.578,0,2.856-1.279,2.856-2.856S102.429,478.778,100.851,478.778z"/>
		<path fill="#F1F1D9" d="M123.635,478.778h-5.696c-1.577,0-2.854,1.271-2.854,2.854s1.271,2.856,2.854,2.856h5.696
			c1.578,0,2.854-1.279,2.854-2.856S125.213,478.778,123.635,478.778z"/>
		<path fill="#F1F1D9" d="M169.204,478.778h-5.696c-1.577,0-2.856,1.271-2.856,2.854s1.278,2.856,2.856,2.856h5.696
			c1.571,0,2.854-1.279,2.854-2.856S170.782,478.778,169.204,478.778z"/>
	</g>
	<g id="change1_1_">
		<path fill="#DE5947" d="M82.254,4.633V81.5v163v251.41h228V244.5v-163V4.633H82.254z M100.851,484.49h-5.696
			c-1.574,0-2.854-1.279-2.854-2.856s1.279-2.854,2.854-2.854h5.696c1.578,0,2.856,1.271,2.856,2.854S102.429,484.49,100.851,484.49
			z M123.635,484.49h-5.696c-1.578,0-2.854-1.279-2.854-2.856s1.272-2.854,2.854-2.854h5.696c1.578,0,2.854,1.271,2.854,2.854
			S125.213,484.49,123.635,484.49z M146.42,484.49h-5.696c-1.578,0-2.854-1.279-2.854-2.856s1.275-2.854,2.854-2.854h5.696
			c1.578,0,2.854,1.271,2.854,2.854S147.998,484.49,146.42,484.49z M169.204,484.49h-5.696c-1.578,0-2.856-1.279-2.856-2.856
			s1.279-2.854,2.856-2.854h5.696c1.571,0,2.854,1.271,2.854,2.854S170.782,484.49,169.204,484.49z M191.988,484.49h-5.689
			c-1.578,0-2.855-1.279-2.855-2.856s1.278-2.854,2.855-2.854h5.689c1.578,0,2.855,1.271,2.855,2.854S193.566,484.49,191.988,484.49
			z M214.773,484.49h-5.692c-1.575,0-2.854-1.279-2.854-2.856s1.279-2.854,2.854-2.854h5.692c1.578,0,2.855,1.271,2.855,2.854
			S216.35,484.49,214.773,484.49z M237.557,484.49h-5.695c-1.566,0-2.854-1.279-2.854-2.856s1.279-2.854,2.854-2.854h5.695
			c1.577,0,2.856,1.271,2.856,2.854S239.134,484.49,237.557,484.49z M260.341,484.49h-5.694c-1.578,0-2.854-1.279-2.854-2.856
			s1.271-2.854,2.854-2.854h5.694c1.577,0,2.854,1.271,2.854,2.854S261.918,484.49,260.341,484.49z M283.123,484.49h-5.693
			c-1.577,0-2.854-1.279-2.854-2.856s1.271-2.854,2.854-2.854h5.693c1.577,0,2.854,1.271,2.854,2.854S284.702,484.49,283.123,484.49
			z M305.91,484.49h-5.693c-1.577,0-2.855-1.279-2.855-2.856s1.278-2.854,2.855-2.854h5.693c1.573,0,2.854,1.271,2.854,2.854
			S307.487,484.49,305.91,484.49z M296.729,16.061h5.696c1.574,0,2.854,1.279,2.854,2.856s-1.275,2.856-2.854,2.856h-5.696
			c-1.573,0-2.854-1.279-2.854-2.856S295.152,16.061,296.729,16.061z M273.945,16.061h5.691c1.577,0,2.854,1.279,2.854,2.856
			s-1.276,2.856-2.854,2.856h-5.691c-1.573,0-2.854-1.279-2.854-2.856S272.368,16.061,273.945,16.061z M251.161,16.061h5.688
			c1.578,0,2.854,1.279,2.854,2.856s-1.276,2.856-2.854,2.856h-5.688c-1.577,0-2.856-1.279-2.856-2.856
			S249.584,16.061,251.161,16.061z M228.375,16.061h5.688c1.578,0,2.854,1.279,2.854,2.856s-1.276,2.856-2.854,2.856h-5.688
			c-1.577,0-2.855-1.279-2.855-2.856S226.798,16.061,228.375,16.061z M205.591,16.061h5.696c1.57,0,2.854,1.279,2.854,2.856
			s-1.277,2.856-2.854,2.856h-5.696c-1.578,0-2.856-1.279-2.856-2.856S204.014,16.061,205.591,16.061z M182.807,16.061h5.696
			c1.578,0,2.854,1.279,2.854,2.856s-1.271,2.856-2.854,2.856h-5.696c-1.578,0-2.854-1.279-2.854-2.856
			S181.23,16.061,182.807,16.061z M160.023,16.061h5.696c1.578,0,2.854,1.279,2.854,2.856s-1.272,2.856-2.854,2.856h-5.696
			c-1.578,0-2.854-1.279-2.854-2.856S158.446,16.061,160.023,16.061z M137.238,16.061h5.696c1.578,0,2.856,1.279,2.856,2.856
			s-1.278,2.856-2.856,2.856h-5.696c-1.574,0-2.854-1.279-2.854-2.856S135.661,16.061,137.238,16.061z M114.454,16.061h5.689
			c1.578,0,2.856,1.279,2.856,2.856s-1.278,2.856-2.856,2.856h-5.689c-1.578,0-2.856-1.279-2.856-2.856
			S112.877,16.061,114.454,16.061z M91.67,16.061h5.689c1.578,0,2.856,1.279,2.856,2.856s-1.279,2.856-2.856,2.856H91.67
			c-1.578,0-2.856-1.279-2.856-2.856S90.093,16.061,91.67,16.061z"/>
	</g>
	<g id="Change2_1_">
		<path fill="#F1F1D9" d="M91.67,21.773h5.689c1.577,0,2.856-1.279,2.856-2.856s-1.278-2.856-2.856-2.856H91.67
			c-1.577,0-2.856,1.279-2.856,2.856S90.092,21.773,91.67,21.773z"/>
		<path fill="#F1F1D9" d="M137.238,21.773h5.696c1.578,0,2.856-1.279,2.856-2.856s-1.278-2.856-2.856-2.856h-5.696
			c-1.57,0-2.854,1.279-2.854,2.856S135.66,21.773,137.238,21.773z"/>
		<path fill="#F1F1D9" d="M114.454,21.773h5.689c1.578,0,2.856-1.279,2.856-2.856s-1.278-2.856-2.856-2.856h-5.689
			c-1.577,0-2.856,1.279-2.856,2.856S112.876,21.773,114.454,21.773z"/>
		<path fill="#F1F1D9" d="M160.023,21.773h5.696c1.577,0,2.854-1.279,2.854-2.856s-1.271-2.856-2.854-2.856h-5.696
			c-1.577,0-2.854,1.279-2.854,2.856S158.445,21.773,160.023,21.773z"/>
		<path fill="#F1F1D9" d="M228.375,21.773h5.688c1.578,0,2.854-1.279,2.854-2.856s-1.276-2.856-2.854-2.856h-5.688
			c-1.577,0-2.855,1.279-2.855,2.856S226.798,21.773,228.375,21.773z"/>
		<path fill="#F1F1D9" d="M205.591,21.773h5.696c1.57,0,2.854-1.279,2.854-2.856s-1.277-2.856-2.854-2.856h-5.696
			c-1.577,0-2.856,1.279-2.856,2.856S204.013,21.773,205.591,21.773z"/>
		<path fill="#F1F1D9" d="M273.945,21.773h5.691c1.577,0,2.854-1.279,2.854-2.856s-1.276-2.856-2.854-2.856h-5.691
			c-1.573,0-2.854,1.279-2.854,2.856S272.368,21.773,273.945,21.773z"/>
		<path fill="#F1F1D9" d="M251.161,21.773h5.688c1.578,0,2.854-1.279,2.854-2.856s-1.276-2.856-2.854-2.856h-5.688
			c-1.577,0-2.856,1.279-2.856,2.856S249.584,21.773,251.161,21.773z"/>
		<path fill="#F1F1D9" d="M182.807,21.773h5.696c1.578,0,2.854-1.279,2.854-2.856s-1.271-2.856-2.854-2.856h-5.696
			c-1.576,0-2.854,1.279-2.854,2.856S181.229,21.773,182.807,21.773z"/>
		<path fill="#F1F1D9" d="M296.729,21.773h5.696c1.574,0,2.854-1.279,2.854-2.856s-1.275-2.856-2.854-2.856h-5.696
			c-1.573,0-2.854,1.279-2.854,2.856S295.152,21.773,296.729,21.773z"/>
	</g>
	<g id="T">
		<rect x="82.48" y="44.389" fill="none" width="227.772" height="419.371"/>
		
			<text transform="matrix(1.0277 0 0 1 103.7073 283.6406)" fill="#F1F1D9" font-family="'AbrilFatface-Regular'" font-size="63.0462">TEXT</text>
	</g>
</g>
</svg>
