<?xml version="1.0" encoding="utf-8"?>
<!-- Generator: Adobe Illustrator 16.0.0, SVG Export Plug-In . SVG Version: 6.00 Build 0)  -->
<!DOCTYPE svg PUBLIC "-//W3C//DTD SVG 1.1//EN" "http://www.w3.org/Graphics/SVG/1.1/DTD/svg11.dtd">
<svg version="1.1" id="Layer_1" xmlns="http://www.w3.org/2000/svg" xmlns:xlink="http://www.w3.org/1999/xlink" x="0px" y="0px"
	 width="500px" height="157.333px" viewBox="0 0 500 157.333" enable-background="new 0 0 500 157.333" xml:space="preserve">
<g id="C">
	<g id="T_3_">
		<rect x="42.187" y="79.604" fill="none" width="421.947" height="37.57"/>
		<text transform="matrix(1 0 0 1 61.03 106.4126)" fill="#55A4A5" font-family="'AlfaSlabOne-Regular'" font-size="21.5301">ACCOMPANY YOUR SUBTITLES</text>
	</g>
	<g id="T_2_">
		<rect x="42.187" y="102.823" fill="none" width="421.947" height="37.572"/>
		<text transform="matrix(1 0 0 1 83.4583 131.5317)" fill="#55A4A5" font-family="'AlfaSlabOne-Regular'" font-size="21.5301">FULL OF EXCITING WORDS</text>
	</g>
	<g id="T_1_">
		<rect x="42.187" y="6.833" fill="none" width="421.947" height="42.563"/>
		<text transform="matrix(1 0 0 1 61.03 40.6313)" fill="#085A5C" font-family="'AlfaSlabOne-Regular'" font-size="30.1495">HERE’S A NICE SET OF</text>
	</g>
	<g id="T">
		<rect x="42.187" y="40.629" fill="none" width="421.947" height="42.563"/>
		<text transform="matrix(1 0 0 1 70.0012 73.2192)" fill="#085A5C" font-family="'AlfaSlabOne-Regular'" font-size="30.1495">CURLY BRACKETS TO</text>
	</g>
</g>
<g id="E">
	<g id="change1_1_">
		<path fill="#873933" d="M474.62,1.726c4.251,0.913,3.884,5.086,3.881,9.137c-0.017,15.701-2.335,29.25-1.54,45.065
			c0.104,16.146,21.033,17.831,26.198,18.581c-1.216-0.506-11.673-3.89-11.864-14.346c-0.681-7.435-0.659-15.291-0.39-22.838
			c0.355-9.905,4.021-33.461-8.516-37.661c-7.271-2.431-15.412,1.837-17.879,11.081c-0.483,1.936-1.599,10.019,5.207,10.828
			c7.721,0.134,9.118-14.894-2.014-12.958C467.705,8.615,468.395,2.144,474.62,1.726 M474.62,147.299
			c4.251-0.914,3.884-5.088,3.881-9.139c-0.017-15.699-2.335-29.246-1.54-45.064c0.104-16.145,21.033-17.833,26.198-18.583
			c-1.216,0.508-11.673,3.89-11.864,14.346c-0.681,7.437-0.659,15.293-0.39,22.841c0.355,9.907,4.021,33.459-8.516,37.66
			c-7.271,2.434-15.412-1.836-17.879-11.084c-0.483-1.934-1.599-10.02,5.207-10.828c7.721-0.129,9.118,14.896-2.014,12.963
			C467.705,140.411,468.395,146.879,474.62,147.299"/>
	</g>
</g>
<g id="W">
	<g id="change1">
		<path fill="#873933" d="M31.692,1.726c-4.248,0.913-3.882,5.086-3.878,9.137c0.017,15.701,2.333,29.25,1.542,45.065
			C29.253,72.073,8.324,73.759,3.16,74.513c1.219-0.509,11.671-3.894,11.864-14.348c0.68-7.435,0.655-15.292,0.389-22.838
			c-0.355-9.909-4.021-33.465,8.517-37.663c7.269-2.431,15.41,1.837,17.879,11.081c0.486,1.936,1.602,10.019-5.205,10.828
			c-7.726,0.134-9.118-14.894,2.009-12.958C38.613,8.615,37.92,2.144,31.692,1.726 M31.692,147.299
			c-4.248-0.914-3.882-5.088-3.878-9.139c0.017-15.699,2.333-29.246,1.542-45.064C29.253,76.951,8.324,75.263,3.16,74.513
			c1.219,0.508,11.671,3.89,11.864,14.346c0.68,7.437,0.655,15.293,0.389,22.841c-0.355,9.907-4.021,33.459,8.517,37.66
			c7.269,2.434,15.41-1.836,17.879-11.084c0.486-1.934,1.602-10.02-5.205-10.828c-7.726-0.129-9.118,14.896,2.009,12.963
			C38.613,140.411,37.92,146.879,31.692,147.299"/>
	</g>
</g>
</svg>
