<?xml version="1.0" encoding="utf-8"?>
<!-- Generator: Adobe Illustrator 16.0.0, SVG Export Plug-In . SVG Version: 6.00 Build 0)  -->
<!DOCTYPE svg PUBLIC "-//W3C//DTD SVG 1.1//EN" "http://www.w3.org/Graphics/SVG/1.1/DTD/svg11.dtd">
<svg version="1.1" id="Layer_1" xmlns="http://www.w3.org/2000/svg" xmlns:xlink="http://www.w3.org/1999/xlink" x="0px" y="0px"
	 width="708.666px" height="384px" viewBox="0 0 708.666 384" enable-background="new 0 0 708.666 384" xml:space="preserve">
<g id="change1">
	<path fill="#F4BD38" d="M232.845,7.346c8.105-4.825,18.509-5.245,27.26-0.193c8.568,4.947,18.729,4.647,26.756,0.098l0.167-0.098
		c8.702-5.023,19.047-4.636,27.132,0.119c8.525,4.824,18.58,4.494,26.543-0.02l0.171-0.1c8.704-5.023,19.047-4.636,27.132,0.119
		c8.536,4.829,18.61,4.492,26.577-0.04l0.137-0.08c8.704-5.023,19.048-4.636,27.133,0.119c8.526,4.824,18.582,4.494,26.546-0.021
		l0.166-0.098c8.705-5.023,19.048-4.636,27.132,0.119c8.525,4.824,18.582,4.494,26.543-0.02l0.171-0.1
		c8.704-5.023,19.046-4.636,27.134,0.119c8.523,4.824,18.579,4.494,26.543-0.02l0.171-0.1c8.702-5.023,19.046-4.636,27.129,0.119
		c8.525,4.824,18.583,4.494,26.544-0.02l0.171-0.1c8.706-5.023,19.047-4.636,27.133,0.119c8.523,4.824,18.582,4.494,26.543-0.02
		l0.169-0.1c12.875-7.435,29.343-3.021,36.778,9.854c5.053,8.75,4.632,19.161-0.198,27.266c-4.419,7.936-4.708,17.91,0.08,26.371
		c4.754,8.086,5.143,18.428,0.118,27.132l-0.101,0.167c-4.51,7.964-4.842,18.02-0.019,26.547c4.754,8.084,5.144,18.428,0.118,27.13
		l-0.103,0.171c-4.51,7.964-4.84,18.02-0.017,26.543c4.754,8.084,5.143,18.428,0.118,27.132l-0.103,0.169
		c-4.51,7.963-4.84,18.021-0.017,26.545c4.754,8.084,5.143,18.429,0.118,27.13l-0.101,0.166c-4.549,8.031-4.846,18.188,0.101,26.76
		c5.051,8.748,4.632,19.153-0.194,27.26c-4.421,7.932-4.714,17.904,0.072,26.367c4.758,8.088,5.147,18.436,0.122,27.142
		c-7.435,12.877-23.901,17.288-36.778,9.854l-0.169-0.102c-7.963-4.512-18.02-4.842-26.543-0.02
		c-8.086,4.756-18.427,5.145-27.133,0.119l-0.171-0.101c-7.963-4.513-18.021-4.842-26.544-0.021
		c-8.083,4.758-18.428,5.146-27.129,0.121l-0.172-0.102c-7.965-4.512-18.019-4.842-26.543-0.02
		c-8.087,4.756-18.429,5.145-27.133,0.119l-0.171-0.101c-7.961-4.513-18.02-4.843-26.543-0.021
		c-8.084,4.758-18.427,5.146-27.13,0.121l-0.166-0.102c-7.966-4.51-18.021-4.842-26.548-0.02
		c-8.085,4.756-18.429,5.145-27.133,0.119l-0.137-0.08c-7.967-4.527-18.041-4.867-26.577-0.039
		c-8.084,4.756-18.428,5.145-27.132,0.119l-0.171-0.101c-7.961-4.513-18.018-4.843-26.543-0.021
		c-8.086,4.758-18.43,5.146-27.132,0.121l-0.167-0.102c-8.027-4.547-18.188-4.848-26.756,0.102
		c-8.749,5.051-19.154,4.633-27.26-0.193c-7.937-4.424-17.912-4.715-26.38,0.072c-8.084,4.758-18.427,5.146-27.131,0.121
		l-0.168-0.102c-7.966-4.512-18.021-4.842-26.545-0.02c-8.088,4.756-18.43,5.145-27.134,0.119l-0.168-0.101
		c-7.963-4.513-18.02-4.843-26.545-0.021c-8.083,4.758-18.427,5.146-27.129,0.12l-0.167-0.101
		c-8.022-4.543-18.173-4.846-26.737,0.09l-0.02,0.011c-12.875,7.435-29.342,3.022-36.776-9.854
		c-5.025-8.705-4.636-19.045,0.118-27.131c4.79-8.47,4.499-18.443,0.076-26.377c-4.824-8.105-5.244-18.512-0.192-27.261
		c4.947-8.569,4.646-18.728,0.098-26.759l-0.098-0.166c-5.025-8.702-4.636-19.046,0.118-27.13
		c4.823-8.524,4.493-18.582-0.018-26.545l-0.1-0.169c-5.025-8.704-4.636-19.048,0.118-27.132c4.823-8.523,4.493-18.581-0.018-26.543
		l-0.1-0.171c-5.025-8.702-4.636-19.046,0.118-27.131c4.825-8.526,4.493-18.582-0.02-26.546l-0.093-0.153
		C2.926,89.072,3.316,78.73,8.07,70.643c4.788-8.462,4.499-18.434,0.08-26.37C3.321,36.169,2.9,25.76,7.954,17.007
		C15.376,4.132,31.843-0.281,44.718,7.153c8.57,4.947,18.728,4.647,26.755,0.098l0.167-0.098c8.704-5.023,19.047-4.636,27.131,0.119
		c8.526,4.824,18.582,4.494,26.545-0.02l0.168-0.1c8.705-5.023,19.046-4.636,27.134,0.119c8.525,4.824,18.579,4.494,26.545-0.02
		l0.168-0.1c8.705-5.023,19.045-4.636,27.131,0.119C214.933,12.062,224.908,11.77,232.845,7.346"/>
</g>
<g id="change2">
	<path fill="#AB7253" d="M633.675,321.063c3.292,0,5.959-2.67,5.959-5.959c0-3.291-2.667-5.959-5.959-5.959
		c-3.29,0-5.958,2.668-5.958,5.959C627.717,318.394,630.384,321.063,633.675,321.063 M74.992,321.063
		c3.292,0,5.959-2.67,5.959-5.959c0-3.291-2.667-5.959-5.959-5.959s-5.959,2.668-5.959,5.959
		C69.033,318.394,71.7,321.063,74.992,321.063z M74.992,74.869c3.292,0,5.959-2.668,5.959-5.959c0-3.29-2.667-5.959-5.959-5.959
		s-5.959,2.669-5.959,5.959C69.033,72.201,71.7,74.869,74.992,74.869z M633.675,74.869c3.292,0,5.959-2.668,5.959-5.959
		c0-3.29-2.667-5.959-5.959-5.959c-3.29,0-5.958,2.669-5.958,5.959C627.717,72.201,630.384,74.869,633.675,74.869z"/>
	<path fill="#AB7253" d="M74.992,197.967c3.292,0,5.959-2.67,5.959-5.961c0-3.29-2.667-5.959-5.959-5.959s-5.959,2.669-5.959,5.959
		C69.033,195.297,71.7,197.967,74.992,197.967"/>
	<path fill="#AB7253" d="M633.675,197.967c3.292,0,5.959-2.67,5.959-5.961c0-3.29-2.667-5.959-5.959-5.959
		c-3.29,0-5.958,2.669-5.958,5.959C627.717,195.297,630.384,197.967,633.675,197.967"/>
</g>
<g id="change3">
	<path fill="#F1F1D9" d="M461.76,261.235h-78.116c-1.186,0-2.155,0.969-2.155,2.158c0,1.188,0.971,2.156,2.155,2.156h78.116
		c0.879,2.334,3.137,4.006,5.77,4.006h28.572v-2.464h-23.298v-2.466h23.298v-2.463h-23.298v-2.466h23.298v-2.464H467.53
		C464.897,257.229,462.641,258.903,461.76,261.235"/>
	<path fill="#F1F1D9" d="M246.906,261.235h78.116c1.186,0,2.154,0.969,2.154,2.158c0,1.188-0.97,2.156-2.154,2.156h-78.116
		c-0.88,2.334-3.14,4.006-5.771,4.006h-28.574v-2.464h23.3v-2.466h-23.3v-2.463h23.3v-2.466h-23.3v-2.464h28.574
		C243.769,257.229,246.027,258.903,246.906,261.235"/>
	<path fill="#F1F1D9" d="M356.933,270.923l4.93-4.929c1.433-1.431,1.433-3.771,0-5.199l-4.93-4.931c-1.43-1.432-3.77-1.432-5.2,0
		l-4.93,4.931c-1.43,1.431-1.43,3.771,0,5.199l4.93,4.929C353.162,272.353,355.504,272.353,356.933,270.923"/>
</g>
<g id="T_1_">
	<rect x="81.798" y="282.469" fill="none" width="545.072" height="55.162"/>
	<text transform="matrix(1 0 0 1 177.7976 324.7627)" fill="#AB7253" font-family="'AlfaSlabOne-Regular'" font-size="39.7158">A GREAT SNACK</text>
</g>
<g id="T">
	<rect x="82.029" y="47.346" fill="none" width="545" height="95.124"/>
	<text transform="matrix(1 0 0 1 260.4075 120.2842)" fill="#F1F1D9" font-family="'AlfaSlabOne-Regular'" font-size="68.489">TEXT</text>
</g>
<g id="T_2_">
	<rect x="82.029" y="142.47" fill="none" width="545" height="95.124"/>
	<text transform="matrix(1 0 0 1 173.4138 215.4072)" fill="#F1F1D9" font-family="'AlfaSlabOne-Regular'" font-size="68.489">CRACKER</text>
</g>
</svg>
