<?xml version="1.0" encoding="utf-8"?>
<!DOCTYPE svg PUBLIC "-//W3C//DTD SVG 1.1//EN"
  "http://www.w3.org/Graphics/SVG/1.1/DTD/svg11.dtd">
<!-- Generator: Adobe Illustrator 19.1.0, SVG Export Plug-In . SVG Version: 6.00 Build 0)  -->
<svg version="1.1" id="Layer_1" xmlns="http://www.w3.org/2000/svg" xmlns:xlink="http://www.w3.org/1999/xlink" x="0px" y="0px"
	 viewBox="-349.8 319.5 400 245.3" enable-background="new -349.8 319.5 400 245.3" xml:space="preserve">
<g id="t_center">

		<text transform="matrix(0.9698 0 0 1 -338.1503 525.8219)" fill="#FFFFFF" font-family="'PlayfairDisplaySC-Regular'" font-size="158.3477px">BEST</text>
	<rect x="-349.8" y="371.7" fill="none" width="400" height="193.1"/>
</g>
<g id="t_center_1_">
	<text transform="matrix(1 0 0 1 -335.127 369.5038)" fill="#FFFFFF" font-family="'PlayfairDisplay'" font-size="36.1446px">YOU ARE SIMPLY THE </text>
	<rect x="-349.8" y="339.8" fill="none" width="400" height="64.9"/>
</g>
<g id="change1">
	<path fill="#FFFFFF" d="M-76.7,326.9h-63.2c0-0.2,0-0.2,0-0.3c0-1-0.3-1.7-0.7-2.8c-0.3-0.7-1-1.5-1.5-2.1c-1.4-1.2-3.1-2.1-4.8-2.2
	c-1.7-0.2-3.4,0-5,1c-1.5,0.7-2.8,1.9-3.4,3.1c-0.7,1.2-1.4,2.2-1.5,3.4h-65.7v1.4h65.6c-0.2,2.1,0.2,4.1,0.7,5.2
	c0.3,0.7,0.5,1.2,0.7,1.5c0.2,0.3,0.3,0.5,0.3,0.5h0.2c0,0,0.2-0.2,0-0.2c0,0,0-0.2-0.2-0.5c-0.2-0.3-0.3-0.7-0.5-1.5
	c-0.2-0.5-0.3-1.5-0.3-2.6s0-1.9,0.3-3.1c0.5-2.1,2.2-4.5,4.8-5.9c1.2-0.5,2.8-0.7,4.1-0.5c1.4,0.2,2.8,0.7,3.8,1.9
	c0.5,0.5,1,1,1.4,1.7c0.3,0.5,0.5,1.4,0.5,1.9c0.2,1.4-0.2,2.8-1,3.8c-0.3,0.5-1,1-1.4,1.4c-0.2,0-0.3,0.2-0.3,0.2
	c-0.2,0-0.2,0.2-0.3,0.2c-0.2,0.2-0.5,0.2-0.7,0.2c-1.2,0.2-2.2,0-3.3-0.7c-1-0.5-1.5-1.5-1.7-2.2c-0.2-0.7-0.2-1.7,0.2-2.2
	c0.2-0.5,0.5-1,0.7-1.4c0.2-0.2,0.3-0.3,0.3-0.3v-0.2c0,0-0.2-0.2-0.2,0l0,0c0,0-0.2,0.2-0.5,0.3s-0.7,0.5-1.2,1.4
	c-0.3,0.5-0.5,1.5-0.3,2.8c0.2,1.2,0.7,2.2,1.9,3.1c1.2,0.7,2.6,1.4,4.3,1.2c0.3,0,0.7-0.2,1.2-0.2c0.2,0,0.3-0.2,0.5-0.2
	s0.3-0.2,0.5-0.2c0.7-0.3,1.4-1,1.9-1.7c0.7-1,1.2-2.1,1.4-3.4h63.2v-1.4h-0.5V326.9z"/>
</g>
</svg>
