<?xml version="1.0" encoding="utf-8"?>
<!-- Generator: Adobe Illustrator 16.0.0, SVG Export Plug-In . SVG Version: 6.00 Build 0)  -->
<!DOCTYPE svg PUBLIC "-//W3C//DTD SVG 1.1//EN" "http://www.w3.org/Graphics/SVG/1.1/DTD/svg11.dtd">
<svg version="1.1" id="Layer_1" xmlns="http://www.w3.org/2000/svg" xmlns:xlink="http://www.w3.org/1999/xlink" x="0px" y="0px"
	 width="500px" height="399.504px" viewBox="0 0 500 399.504" enable-background="new 0 0 500 399.504" xml:space="preserve">
<g id="Change1">
	<path fill="#55A4A5" d="M443.759,0H55.655C27.392,0,4.476,22.913,4.476,51.178v232.438c0,28.264,22.916,51.179,51.179,51.179
		h248.221c20.129,10.812,4.202,59.709,4.202,59.709s17.114-48.896,61.412-59.709h74.271c28.267,0,51.179-22.915,51.179-51.179
		V51.178C494.938,22.913,472.022,0,443.759,0z"/>
</g>
<g id="Change2">
	<path fill="#D3E460" d="M324.084,351.895c-0.221,0-0.438-0.027-0.648-0.103c-0.771-0.246-1.338-0.909-1.46-1.711
		c-0.104-0.679-0.22-1.353-0.348-2.019c-0.227-1.156,0.53-2.274,1.688-2.498c0.716-0.146,1.418,0.102,1.898,0.57
		c0.663-0.104,1.357,0.09,1.87,0.604c0.828,0.834,0.824,2.185-0.01,3.016c-0.494,0.494-0.981,0.991-1.468,1.489
		C325.209,351.665,324.652,351.895,324.084,351.895z"/>
	<path fill="#D3E460" d="M335.341,341.84c-0.646,0-1.273-0.288-1.696-0.838c-0.715-0.936-0.533-2.273,0.399-2.988
		c1.15-0.884,2.342-1.748,3.525-2.57c0.966-0.672,2.296-0.43,2.967,0.539c0.675,0.975,0.434,2.297-0.536,2.974
		c-1.135,0.778-2.268,1.604-3.366,2.446C336.244,341.695,335.788,341.84,335.341,341.84z M319.429,337.799
		c-0.733,0-1.452-0.381-1.852-1.062c-0.67-1.151-1.416-2.254-2.22-3.258c-0.734-0.92-0.586-2.262,0.334-2.998
		c0.919-0.729,2.261-0.586,2.998,0.334c0.938,1.17,1.803,2.442,2.577,3.783c0.592,1.021,0.241,2.323-0.774,2.914
		C320.156,337.706,319.788,337.799,319.429,337.799z M349.794,332.827c-0.786,0-1.542-0.437-1.914-1.188
		c-0.521-1.056-0.089-2.334,0.968-2.854c1.31-0.646,2.644-1.266,3.965-1.84c1.08-0.467,2.339,0.027,2.808,1.109
		c0.472,1.076-0.024,2.336-1.105,2.805c-1.259,0.545-2.526,1.135-3.771,1.748C350.433,332.756,350.11,332.827,349.794,332.827z
		 M365.74,326.874c-0.944,0-1.812-0.638-2.062-1.601c-0.295-1.146,0.394-2.309,1.531-2.604c0.409-0.104,0.825-0.212,1.242-0.312
		l1.244-0.305c0.166-0.041,0.336-0.062,0.507-0.062h1.729c1.181,0,2.136,0.952,2.136,2.133c0,1.183-0.955,2.133-2.136,2.133h-1.469
		l-0.995,0.243c-0.397,0.104-0.797,0.197-1.189,0.3C366.098,326.854,365.918,326.874,365.74,326.874z M307.004,326.506
		c-0.333,0-0.672-0.078-0.987-0.242h-3.214c-1.178,0-2.133-0.955-2.133-2.134c0-1.178,0.955-2.133,2.133-2.133h3.751
		c0.354,0,0.699,0.088,1.013,0.255l0.449,0.243c1.037,0.558,1.429,1.851,0.868,2.888C308.495,326.1,307.764,326.506,307.004,326.506
		z M438.158,326.264h-4.267c-1.179,0-2.134-0.955-2.134-2.134c0-1.178,0.955-2.133,2.134-2.133h4.267
		c1.182,0,2.137,0.955,2.137,2.133C440.295,325.309,439.34,326.264,438.158,326.264z M421.104,326.264h-4.264
		c-1.182,0-2.137-0.955-2.137-2.134c0-1.178,0.955-2.133,2.137-2.133h4.264c1.181,0,2.136,0.955,2.136,2.133
		C423.237,325.309,422.281,326.264,421.104,326.264z M404.048,326.264h-4.269c-1.179,0-2.133-0.955-2.133-2.134
		c0-1.178,0.954-2.133,2.133-2.133h4.269c1.178,0,2.133,0.955,2.133,2.133C406.181,325.309,405.226,326.264,404.048,326.264z
		 M386.99,326.264h-4.268c-1.178,0-2.133-0.955-2.133-2.134c0-1.178,0.955-2.133,2.133-2.133h4.268c1.182,0,2.133,0.955,2.133,2.133
		C389.119,325.309,388.168,326.264,386.99,326.264z M290.01,326.264h-4.265c-1.183,0-2.138-0.955-2.138-2.134
		c0-1.178,0.955-2.133,2.138-2.133h4.265c1.178,0,2.133,0.955,2.133,2.133C292.143,325.309,291.188,326.264,290.01,326.264z
		 M272.952,326.264h-4.269c-1.181,0-2.134-0.955-2.134-2.134c0-1.178,0.953-2.133,2.134-2.133h4.269
		c1.178,0,2.133,0.955,2.133,2.133C275.085,325.309,274.13,326.264,272.952,326.264z M255.895,326.264h-4.264
		c-1.178,0-2.132-0.955-2.132-2.134c0-1.178,0.955-2.133,2.132-2.133h4.264c1.185,0,2.133,0.955,2.133,2.133
		C258.027,325.309,257.072,326.264,255.895,326.264z M238.837,326.264h-4.268c-1.178,0-2.132-0.955-2.132-2.134
		c0-1.178,0.955-2.133,2.132-2.133h4.268c1.178,0,2.132,0.955,2.132,2.133C240.969,325.309,240.015,326.264,238.837,326.264z
		 M221.78,326.264h-4.264c-1.178,0-2.132-0.955-2.132-2.134c0-1.178,0.955-2.133,2.132-2.133h4.264c1.182,0,2.136,0.955,2.136,2.133
		C223.912,325.309,222.958,326.264,221.78,326.264z M204.723,326.264h-4.264c-1.178,0-2.132-0.955-2.132-2.134
		c0-1.178,0.955-2.133,2.132-2.133h4.264c1.178,0,2.132,0.955,2.132,2.133C206.855,325.309,205.9,326.264,204.723,326.264z
		 M187.665,326.264H183.4c-1.178,0-2.132-0.955-2.132-2.134c0-1.178,0.955-2.133,2.132-2.133h4.268c1.178,0,2.132,0.955,2.132,2.133
		C189.797,325.309,188.843,326.264,187.665,326.264z M170.608,326.264h-4.264c-1.178,0-2.132-0.955-2.132-2.134
		c0-1.178,0.955-2.133,2.132-2.133h4.264c1.182,0,2.136,0.955,2.136,2.133C172.74,325.309,171.786,326.264,170.608,326.264z
		 M153.55,326.264h-4.264c-1.182,0-2.136-0.955-2.136-2.134c0-1.178,0.955-2.133,2.136-2.133h4.264c1.178,0,2.132,0.955,2.132,2.133
		C155.682,325.309,154.728,326.264,153.55,326.264z M136.493,326.264h-4.268c-1.178,0-2.132-0.955-2.132-2.134
		c0-1.178,0.955-2.133,2.132-2.133h4.268c1.178,0,2.132,0.955,2.132,2.133C138.625,325.309,137.671,326.264,136.493,326.264z
		 M119.436,326.264h-4.264c-1.178,0-2.132-0.955-2.132-2.134c0-1.178,0.955-2.133,2.132-2.133h4.264
		c1.178,0,2.132,0.955,2.132,2.133C121.568,325.309,120.613,326.264,119.436,326.264z M102.378,326.264H98.11
		c-1.178,0-2.132-0.955-2.132-2.134c0-1.178,0.955-2.133,2.132-2.133h4.268c1.178,0,2.132,0.955,2.132,2.133
		C104.51,325.309,103.556,326.264,102.378,326.264z M85.321,326.264h-4.265c-1.178,0-2.132-0.955-2.132-2.134
		c0-1.178,0.955-2.133,2.132-2.133h4.265c1.182,0,2.136,0.955,2.136,2.133C87.453,325.309,86.499,326.264,85.321,326.264z
		 M68.264,326.264H64c-1.182,0-2.132-0.955-2.132-2.134c0-1.178,0.955-2.133,2.132-2.133h4.264c1.178,0,2.132,0.955,2.132,2.133
		C70.396,325.309,69.441,326.264,68.264,326.264z M51.219,326.021c-0.078,0-0.156-0.004-0.235-0.02
		c-1.479-0.161-2.969-0.398-4.426-0.725c-1.147-0.252-1.88-1.391-1.63-2.535s1.383-1.887,2.537-1.633
		c1.312,0.281,2.652,0.507,3.984,0.646c1.171,0.129,2.016,1.184,1.887,2.354C53.217,325.212,52.293,326.021,51.219,326.021z
		 M450.909,325.629c-1.013,0-1.909-0.725-2.097-1.758c-0.207-1.159,0.562-2.268,1.729-2.475c1.315-0.235,2.641-0.545,3.928-0.92
		c1.127-0.326,2.312,0.315,2.646,1.445c0.329,1.137-0.317,2.312-1.452,2.646c-1.432,0.416-2.897,0.763-4.365,1.021
		C451.16,325.618,451.034,325.629,450.909,325.629z M35.152,320.684c-0.364,0-0.736-0.096-1.08-0.295
		c-1.276-0.755-2.534-1.588-3.736-2.477c-0.947-0.701-1.146-2.036-0.446-2.982c0.7-0.947,2.036-1.146,2.982-0.445
		c1.083,0.807,2.216,1.557,3.364,2.229c1.019,0.599,1.354,1.905,0.759,2.92C36.594,320.307,35.882,320.684,35.152,320.684z
		 M466.575,319.209c-0.682,0-1.35-0.325-1.762-0.929c-0.665-0.972-0.416-2.3,0.556-2.964c1.104-0.758,2.188-1.582,3.215-2.451
		c0.896-0.764,2.238-0.654,3.005,0.244c0.763,0.896,0.649,2.244-0.244,3.006c-1.139,0.966-2.336,1.881-3.562,2.721
		C467.409,319.088,466.99,319.209,466.575,319.209z M22.67,309.248c-0.666,0-1.321-0.311-1.737-0.895
		c-0.869-1.223-1.68-2.487-2.412-3.779c-0.581-1.024-0.22-2.325,0.808-2.906c1.021-0.579,2.322-0.221,2.903,0.805
		c0.659,1.162,1.394,2.312,2.172,3.403c0.688,0.959,0.466,2.29-0.492,2.976C23.532,309.119,23.099,309.248,22.67,309.248z
		 M478.264,306.961c-0.382,0-0.771-0.104-1.115-0.318c-1.005-0.617-1.312-1.932-0.694-2.935c0.703-1.142,1.354-2.332,1.938-3.542
		c0.512-1.062,1.782-1.511,2.848-0.999c1.062,0.511,1.509,1.783,0.999,2.845c-0.646,1.346-1.369,2.67-2.147,3.938
		C479.678,306.602,478.979,306.961,478.264,306.961z M15.925,293.725c-0.995,0-1.885-0.701-2.088-1.715
		c-0.293-1.462-0.511-2.955-0.648-4.438c-0.104-1.174,0.755-2.211,1.931-2.319c1.177-0.121,2.211,0.755,2.316,1.927
		c0.123,1.336,0.319,2.68,0.583,3.993c0.231,1.155-0.517,2.278-1.672,2.511C16.205,293.71,16.064,293.725,15.925,293.725z
		 M483.938,291.012c-0.093,0-0.186-0.006-0.276-0.019c-1.168-0.152-1.987-1.224-1.838-2.392c0.173-1.324,0.274-2.684,0.312-4.022
		c0.025-1.179,1.026-2.095,2.187-2.08c1.178,0.028,2.105,1.007,2.078,2.185c-0.035,1.496-0.151,3-0.347,4.479
		C485.906,290.229,484.99,291.012,483.938,291.012z M15.139,276.721c-1.178,0-2.132-0.955-2.132-2.133v-4.265
		c0-1.179,0.955-2.134,2.132-2.134c1.177,0,2.132,0.955,2.132,2.134v4.265C17.271,275.766,16.316,276.721,15.139,276.721z
		 M484.275,273.971c-1.181,0-2.136-0.955-2.136-2.133v-4.265c0-1.179,0.955-2.134,2.136-2.134c1.178,0,2.133,0.955,2.133,2.134
		v4.265C486.406,273.016,485.449,273.971,484.275,273.971z M15.139,259.663c-1.178,0-2.132-0.955-2.132-2.134v-4.264
		c0-1.185,0.955-2.14,2.132-2.14c1.177,0,2.132,0.955,2.132,2.14v4.264C17.271,258.708,16.316,259.663,15.139,259.663z
		 M484.275,256.913c-1.181,0-2.136-0.955-2.136-2.134v-4.264c0-1.184,0.955-2.139,2.136-2.139c1.178,0,2.133,0.955,2.133,2.139
		v4.264C486.406,255.958,485.449,256.913,484.275,256.913z M15.139,242.605c-1.178,0-2.132-0.955-2.132-2.133v-4.271
		c0-1.184,0.955-2.135,2.132-2.135c1.177,0,2.132,0.951,2.132,2.135v4.271C17.271,241.65,16.316,242.605,15.139,242.605z
		 M484.275,239.855c-1.181,0-2.136-0.955-2.136-2.133v-4.271c0-1.185,0.955-2.136,2.136-2.136c1.178,0,2.133,0.951,2.133,2.136
		v4.271C486.406,238.9,485.449,239.855,484.275,239.855z M15.139,225.548c-1.178,0-2.132-0.955-2.132-2.133v-4.265
		c0-1.178,0.955-2.133,2.132-2.133c1.177,0,2.132,0.955,2.132,2.133v4.265C17.271,224.593,16.316,225.548,15.139,225.548z
		 M484.275,222.799c-1.181,0-2.136-0.955-2.136-2.133V216.4c0-1.178,0.955-2.133,2.136-2.133c1.178,0,2.133,0.955,2.133,2.133v4.266
		C486.406,221.844,485.449,222.799,484.275,222.799z M15.139,208.491c-1.178,0-2.132-0.955-2.132-2.134v-4.271
		c0-1.178,0.955-2.133,2.132-2.133c1.177,0,2.132,0.955,2.132,2.133v4.271C17.271,207.536,16.316,208.491,15.139,208.491z
		 M484.275,205.741c-1.181,0-2.136-0.955-2.136-2.134v-4.271c0-1.178,0.955-2.132,2.136-2.132c1.178,0,2.133,0.955,2.133,2.132
		v4.271C486.406,204.786,485.449,205.741,484.275,205.741z M15.139,191.434c-1.178,0-2.132-0.955-2.132-2.133v-4.265
		c0-1.179,0.955-2.132,2.132-2.132c1.177,0,2.132,0.955,2.132,2.132v4.265C17.271,190.479,16.316,191.434,15.139,191.434z
		 M484.275,188.684c-1.181,0-2.136-0.955-2.136-2.132v-4.265c0-1.178,0.955-2.132,2.136-2.132c1.178,0,2.133,0.954,2.133,2.132
		v4.265C486.406,187.729,485.449,188.684,484.275,188.684z M15.139,174.375c-1.178,0-2.132-0.955-2.132-2.132v-4.265
		c0-1.178,0.955-2.131,2.132-2.131c1.177,0,2.132,0.954,2.132,2.131v4.265C17.271,173.421,16.316,174.375,15.139,174.375z
		 M484.275,171.626c-1.181,0-2.136-0.955-2.136-2.132v-4.264c0-1.179,0.955-2.133,2.136-2.133c1.178,0,2.133,0.955,2.133,2.133
		v4.264C486.406,170.671,485.449,171.626,484.275,171.626z M15.139,157.318c-1.178,0-2.132-0.955-2.132-2.133v-4.264
		c0-1.178,0.955-2.132,2.132-2.132c1.177,0,2.132,0.955,2.132,2.132v4.264C17.271,156.364,16.316,157.318,15.139,157.318z
		 M484.275,154.568c-1.181,0-2.136-0.954-2.136-2.131v-4.266c0-1.178,0.955-2.132,2.136-2.132c1.178,0,2.133,0.955,2.133,2.132
		v4.266C486.406,153.614,485.449,154.568,484.275,154.568z M15.139,140.261c-1.178,0-2.132-0.955-2.132-2.132v-4.264
		c0-1.178,0.955-2.132,2.132-2.132c1.177,0,2.132,0.955,2.132,2.132v4.264C17.271,139.306,16.316,140.261,15.139,140.261z
		 M484.275,137.511c-1.181,0-2.136-0.955-2.136-2.132v-4.264c0-1.178,0.955-2.132,2.136-2.132c1.178,0,2.133,0.955,2.133,2.132
		v4.264C486.406,136.557,485.449,137.511,484.275,137.511z M15.139,123.204c-1.178,0-2.132-0.955-2.132-2.132v-4.265
		c0-1.178,0.955-2.132,2.132-2.132c1.177,0,2.132,0.955,2.132,2.132v4.265C17.271,122.249,16.316,123.204,15.139,123.204z
		 M484.275,120.454c-1.181,0-2.136-0.955-2.136-2.132v-4.265c0-1.178,0.955-2.132,2.136-2.132c1.178,0,2.133,0.955,2.133,2.132
		v4.265C486.406,119.5,485.449,120.454,484.275,120.454z M15.139,106.146c-1.178,0-2.132-0.955-2.132-2.132V99.75
		c0-1.178,0.955-2.132,2.132-2.132c1.177,0,2.132,0.955,2.132,2.132v4.264C17.271,105.191,16.316,106.146,15.139,106.146z
		 M484.275,103.396c-1.181,0-2.136-0.955-2.136-2.132V97c0-1.178,0.955-2.132,2.136-2.132c1.178,0,2.133,0.955,2.133,2.132v4.264
		C486.406,102.442,485.449,103.396,484.275,103.396z M15.139,89.089c-1.178,0-2.132-0.955-2.132-2.132v-4.265
		c0-1.178,0.955-2.132,2.132-2.132c1.177,0,2.132,0.955,2.132,2.132v4.265C17.271,88.134,16.316,89.089,15.139,89.089z
		 M484.275,86.339c-1.181,0-2.136-0.955-2.136-2.132v-4.265c0-1.178,0.955-2.132,2.136-2.132c1.178,0,2.133,0.955,2.133,2.132v4.265
		C486.406,85.385,485.449,86.339,484.275,86.339z M15.139,72.031c-1.178,0-2.132-0.955-2.132-2.132v-4.264
		c0-1.178,0.955-2.132,2.132-2.132c1.177,0,2.132,0.955,2.132,2.132v4.264C17.271,71.077,16.316,72.031,15.139,72.031z
		 M484.275,69.282c-1.181,0-2.136-0.955-2.136-2.132v-4.264c0-1.178,0.955-2.132,2.136-2.132c1.178,0,2.133,0.955,2.133,2.132v4.264
		C486.406,68.327,485.449,69.282,484.275,69.282z M15.139,54.974c-1.178,0-2.132-0.955-2.132-2.132v-1.664
		c0-0.906,0.029-1.825,0.086-2.729c0.075-1.175,1.08-2.067,2.263-1.994c1.175,0.074,2.068,1.087,1.994,2.262
		c-0.052,0.818-0.078,1.646-0.078,2.463v1.664C17.271,54.02,16.316,54.974,15.139,54.974z M484.26,52.225
		c-1.149,0-2.104-0.918-2.131-2.077c-0.034-1.34-0.146-2.693-0.316-4.022c-0.152-1.167,0.666-2.239,1.837-2.394
		c1.156-0.152,2.235,0.666,2.396,1.834c0.191,1.478,0.312,2.982,0.354,4.472c0.029,1.177-0.897,2.156-2.075,2.187
		C484.297,52.225,484.278,52.225,484.26,52.225z M18.025,38.289c-0.264,0-0.529-0.049-0.792-0.153
		c-1.093-0.438-1.625-1.679-1.187-2.771c0.555-1.384,1.188-2.754,1.887-4.072c0.552-1.041,1.842-1.439,2.882-0.887
		c1.041,0.551,1.438,1.841,0.891,2.882c-0.627,1.186-1.198,2.418-1.697,3.663C19.671,37.782,18.871,38.289,18.025,38.289z
		 M480.281,35.775c-0.794,0-1.558-0.444-1.923-1.207c-0.583-1.208-1.236-2.399-1.938-3.538c-0.62-1.001-0.312-2.316,0.688-2.938
		c1.002-0.62,2.313-0.31,2.938,0.69c0.78,1.266,1.511,2.589,2.154,3.932c0.516,1.061,0.063,2.335-0.993,2.847
		C480.906,35.707,480.594,35.775,480.281,35.775z M27.466,24.234c-0.557,0-1.113-0.216-1.531-0.648
		c-0.816-0.845-0.799-2.195,0.046-3.015c1.071-1.039,2.208-2.031,3.378-2.95c0.929-0.728,2.271-0.565,2.994,0.36
		c0.729,0.927,0.566,2.267-0.357,2.994c-1.058,0.827-2.077,1.721-3.042,2.657C28.537,24.034,28.001,24.234,27.466,24.234z
		 M469.91,22.392c-0.483,0-0.979-0.166-1.378-0.506c-1.021-0.867-2.104-1.688-3.213-2.446c-0.977-0.664-1.228-1.99-0.562-2.963
		s1.988-1.224,2.963-0.561c1.229,0.84,2.436,1.754,3.564,2.716c0.897,0.762,1.014,2.107,0.248,3.006
		C471.116,22.136,470.519,22.392,469.91,22.392z M41.803,15.233c-0.87,0-1.688-0.537-2.003-1.402
		c-0.403-1.106,0.166-2.331,1.271-2.734c1.403-0.512,2.851-0.953,4.292-1.312c1.146-0.285,2.303,0.413,2.583,1.555
		c0.284,1.143-0.408,2.3-1.555,2.583c-1.299,0.323-2.597,0.72-3.854,1.18C42.293,15.192,42.046,15.233,41.803,15.233z
		 M455.003,14.381c-0.196,0-0.396-0.027-0.598-0.084c-1.288-0.373-2.606-0.68-3.933-0.914c-1.157-0.206-1.937-1.312-1.729-2.472
		c0.206-1.16,1.318-1.931,2.476-1.728c1.471,0.26,2.938,0.602,4.371,1.017c1.131,0.327,1.779,1.51,1.456,2.641
		C456.78,13.774,455.928,14.381,455.003,14.381z M438.098,12.794h-4.269c-1.178,0-2.133-0.955-2.133-2.132
		c0-1.177,0.955-2.132,2.133-2.132h4.269c1.181,0,2.136,0.955,2.136,2.132C440.231,11.839,439.275,12.794,438.098,12.794z
		 M421.036,12.794h-4.264c-1.181,0-2.136-0.955-2.136-2.132c0-1.177,0.955-2.132,2.136-2.132h4.264c1.182,0,2.137,0.955,2.137,2.132
		C423.173,11.839,422.218,12.794,421.036,12.794z M403.983,12.794h-4.268c-1.182,0-2.137-0.955-2.137-2.132
		c0-1.177,0.955-2.132,2.137-2.132h4.268c1.178,0,2.133,0.955,2.133,2.132C406.115,11.839,405.157,12.794,403.983,12.794z
		 M386.926,12.794h-4.269c-1.179,0-2.133-0.955-2.133-2.132c0-1.177,0.954-2.132,2.133-2.132h4.269c1.178,0,2.133,0.955,2.133,2.132
		C389.059,11.839,388.104,12.794,386.926,12.794z M369.865,12.794H365.6c-1.178,0-2.133-0.955-2.133-2.132
		c0-1.177,0.955-2.132,2.133-2.132h4.268c1.182,0,2.137,0.955,2.137,2.132C372.001,11.839,371.046,12.794,369.865,12.794z
		 M352.811,12.794h-4.264c-1.182,0-2.137-0.955-2.137-2.132c0-1.177,0.955-2.132,2.137-2.132h4.264c1.181,0,2.136,0.955,2.136,2.132
		C354.944,11.839,353.988,12.794,352.811,12.794z M335.754,12.794h-4.269c-1.181,0-2.134-0.955-2.134-2.132
		c0-1.177,0.953-2.132,2.134-2.132h4.269c1.178,0,2.133,0.955,2.133,2.132C337.887,11.839,336.932,12.794,335.754,12.794z
		 M318.696,12.794h-4.268c-1.178,0-2.133-0.955-2.133-2.132c0-1.177,0.955-2.132,2.133-2.132h4.268c1.178,0,2.133,0.955,2.133,2.132
		C320.825,11.839,319.87,12.794,318.696,12.794z M301.639,12.794h-4.264c-1.182,0-2.133-0.955-2.133-2.132
		c0-1.177,0.951-2.132,2.133-2.132h4.264c1.178,0,2.133,0.955,2.133,2.132C303.771,11.839,302.816,12.794,301.639,12.794z
		 M284.581,12.794h-4.269c-1.179,0-2.133-0.955-2.133-2.132c0-1.177,0.954-2.132,2.133-2.132h4.269c1.178,0,2.133,0.955,2.133,2.132
		C286.714,11.839,285.759,12.794,284.581,12.794z M267.523,12.794h-4.267c-1.178,0-2.133-0.955-2.133-2.132
		c0-1.177,0.955-2.132,2.133-2.132h4.267c1.183,0,2.138,0.955,2.138,2.132C269.657,11.839,268.702,12.794,267.523,12.794z
		 M250.467,12.794h-4.264c-1.182,0-2.136-0.955-2.136-2.132c0-1.177,0.955-2.132,2.136-2.132h4.264c1.178,0,2.133,0.955,2.133,2.132
		C252.6,11.839,251.645,12.794,250.467,12.794z M233.409,12.794h-4.268c-1.178,0-2.132-0.955-2.132-2.132
		c0-1.177,0.955-2.132,2.132-2.132h4.268c1.178,0,2.132,0.955,2.132,2.132C235.541,11.839,234.587,12.794,233.409,12.794z
		 M216.352,12.794h-4.264c-1.178,0-2.132-0.955-2.132-2.132c0-1.177,0.955-2.132,2.132-2.132h4.264c1.178,0,2.132,0.955,2.132,2.132
		C218.484,11.839,217.53,12.794,216.352,12.794z M199.294,12.794h-4.268c-1.178,0-2.132-0.955-2.132-2.132
		c0-1.177,0.955-2.132,2.132-2.132h4.268c1.178,0,2.132,0.955,2.132,2.132C201.426,11.839,200.472,12.794,199.294,12.794z
		 M182.237,12.794h-4.264c-1.178,0-2.132-0.955-2.132-2.132c0-1.177,0.955-2.132,2.132-2.132h4.264c1.182,0,2.136,0.955,2.136,2.132
		C184.369,11.839,183.415,12.794,182.237,12.794z M165.18,12.794h-4.264c-1.182,0-2.132-0.955-2.132-2.132
		c0-1.177,0.951-2.132,2.132-2.132h4.264c1.178,0,2.132,0.955,2.132,2.132C167.312,11.839,166.357,12.794,165.18,12.794z
		 M148.123,12.794h-4.268c-1.178,0-2.132-0.955-2.132-2.132c0-1.177,0.955-2.132,2.132-2.132h4.268c1.178,0,2.132,0.955,2.132,2.132
		C150.255,11.839,149.3,12.794,148.123,12.794z M131.065,12.794H126.8c-1.178,0-2.132-0.955-2.132-2.132
		c0-1.177,0.955-2.132,2.132-2.132h4.265c1.182,0,2.132,0.955,2.132,2.132C133.197,11.839,132.243,12.794,131.065,12.794z
		 M114.008,12.794h-4.264c-1.182,0-2.136-0.955-2.136-2.132c0-1.177,0.955-2.132,2.136-2.132h4.264c1.178,0,2.132,0.955,2.132,2.132
		C116.14,11.839,115.186,12.794,114.008,12.794z M96.951,12.794h-4.269c-1.178,0-2.132-0.955-2.132-2.132
		c0-1.177,0.955-2.132,2.132-2.132h4.269c1.178,0,2.132,0.955,2.132,2.132C99.083,11.839,98.128,12.794,96.951,12.794z
		 M79.893,12.794h-4.264c-1.178,0-2.132-0.955-2.132-2.132c0-1.177,0.955-2.132,2.132-2.132h4.264c1.178,0,2.132,0.955,2.132,2.132
		C82.025,11.839,81.071,12.794,79.893,12.794z M62.836,12.794H58.57c-1.178,0-2.132-0.955-2.132-2.132
		c0-1.177,0.955-2.132,2.132-2.132h4.269c1.178,0,2.132,0.955,2.132,2.132C64.968,11.839,64.014,12.794,62.836,12.794z"/>
</g>
<g id="T">
	<rect x="42.5" y="37.5" fill="none" width="422" height="260"/>
	<text transform="matrix(1 0 0 1 113.6138 204.0752)" fill="#D3E460" font-family="'FredokaOne-Regular'" font-size="112">Hello</text>
</g>
</svg>
