<?xml version="1.0" encoding="utf-8"?>
<!-- Generator: Adobe Illustrator 16.0.0, SVG Export Plug-In . SVG Version: 6.00 Build 0)  -->
<!DOCTYPE svg PUBLIC "-//W3C//DTD SVG 1.1//EN" "http://www.w3.org/Graphics/SVG/1.1/DTD/svg11.dtd">
<svg version="1.1" id="Layer_1" xmlns="http://www.w3.org/2000/svg" xmlns:xlink="http://www.w3.org/1999/xlink" x="0px" y="0px"
	 width="384.094px" height="384.096px" viewBox="0 0 384.094 384.096" enable-background="new 0 0 384.094 384.096"
	 xml:space="preserve">
<g id="change1">
	<path fill="#58595B" d="M192.046,374.174c100.586,0,182.126-81.541,182.126-182.126S292.632,9.922,192.046,9.922
		C91.462,9.921,9.921,91.462,9.921,192.047C9.921,292.633,91.462,374.174,192.046,374.174"/>
</g>
<g id="change2">
	<path fill="#F47E5D" d="M192.046,384.095c-105.896,0-192.047-86.152-192.047-192.048C-0.001,86.151,86.151,0,192.046,0
		c105.895,0,192.048,86.15,192.048,192.047C384.094,297.942,297.942,384.095,192.046,384.095z M192.046,19.843
		c-94.954,0-172.205,77.25-172.205,172.205s77.25,172.204,172.205,172.204s172.204-77.25,172.204-172.204S287,19.843,192.046,19.843
		z"/>
</g>
<g id="T_2_">
	<rect x="19.214" y="224.215" fill="none" width="344" height="37.333"/>
	<text transform="matrix(1 0 0 1 53.1487 249.7493)" fill="#D9EEE7" font-family="'Ultra'" font-size="24">may travel to read</text>
</g>
<g id="T_3_">
	<rect x="19.214" y="188.852" fill="none" width="344" height="47.695"/>
	<text transform="matrix(1 0 0 1 55.6174 221.8342)" fill="#D9EEE7" font-family="'Ultra'" font-size="31.9422">here your eye</text>
</g>
<g id="T_1_">
	<rect x="19.214" y="115.214" fill="none" width="344" height="97.486"/>
	<text transform="matrix(1 0 0 1 53.1487 188.8528)" fill="#D9EEE7" font-family="'Ultra'" font-size="72">HARK!</text>
</g>
<g id="T">
	<rect x="19.214" y="254.283" fill="none" width="344" height="26.265"/>
	<text transform="matrix(1 0 0 1 57.7043 273.7092)" fill="#D9EEE7" font-family="'Ultra'" font-size="20.269">text inside this circle </text>
</g>
<g id="change3">
	<path fill="#D9EEE7" d="M209.536,92.732c5.822-8.13,3.136-21.75-2.462-26.469c-8.979-7.562-18.205-5.413-23.519,0.806
		c-9.716,11.38-3.889,40.09,7.207,59.307C193.199,104.976,196.72,112.647,209.536,92.732"/>
	<path fill="#D9EEE7" d="M173.935,124.592c-7.283-7.815,0.689-18.952-8.373-32.528c-8.401-10.239-28.127-5.136-22.978,10.053
		C145.657,111.169,166.745,122.167,173.935,124.592"/>
	<path fill="#D9EEE7" d="M227.852,120.084c6.776-0.091,15.104-0.55,19.073-5.978c2.965-4.025,2.143-8.822-2.673-12.486
		c-12.662-9.635-26.784-3.27-33.188,6.554c-2.065,3.156-6.119,10.896-5.44,17.16C208.392,119.144,222.488,120.162,227.852,120.084"
		/>
</g>
<g id="change3_1_">
	<line fill="none" stroke="#D9EEE7" stroke-width="1.894" x1="88.582" y1="292.08" x2="294.094" y2="292.08"/>
	<line fill="none" stroke="#D9EEE7" stroke-width="1.894" x1="88.582" y1="298.525" x2="294.094" y2="298.525"/>
</g>
</svg>
