<?xml version="1.0" encoding="utf-8"?>
<!-- Generator: Adobe Illustrator 16.0.0, SVG Export Plug-In . SVG Version: 6.00 Build 0)  -->
<!DOCTYPE svg PUBLIC "-//W3C//DTD SVG 1.1//EN" "http://www.w3.org/Graphics/SVG/1.1/DTD/svg11.dtd">
<svg version="1.1" id="Layer_1" xmlns="http://www.w3.org/2000/svg" xmlns:xlink="http://www.w3.org/1999/xlink" x="0px" y="0px"
	 width="461.898px" height="460.945px" viewBox="0 0 461.898 460.945" enable-background="new 0 0 461.898 460.945"
	 xml:space="preserve">
<g id="Layer_1_1_">
	<g id="Change1">
		<path fill="#EE826C" d="M231.427,1.989c-61.03,0-118.407,23.766-161.562,66.921C26.709,112.065,2.943,169.442,2.943,230.472
			c0,61.029,23.766,118.406,66.921,161.562c43.155,43.153,100.533,66.92,161.562,66.92c61.029,0,118.406-23.768,161.562-66.92
			c43.153-43.154,66.921-100.531,66.921-161.562c0-61.03-23.768-118.407-66.921-161.562C349.833,25.755,292.456,1.989,231.427,1.989
			z"/>
	</g>
</g>
<g id="Layer_3">
	<g id="Change2">
		<path fill="#F2F2DB" d="M231.427,460.945c-61.562,0-119.438-23.977-162.971-67.504C24.927,349.912,0.954,292.035,0.954,230.472
			c0-61.562,23.973-119.438,67.504-162.968C111.988,23.973,169.865,0,231.427,0c61.562,0,119.438,23.973,162.968,67.504
			c43.53,43.53,67.505,101.407,67.505,162.968s-23.975,119.438-67.505,162.969C350.865,436.972,292.986,460.945,231.427,460.945z
			 M231.427,5C171.201,5,114.58,28.453,71.993,71.039C29.407,113.625,5.954,170.246,5.954,230.472
			c0,60.227,23.453,116.846,66.039,159.432c42.586,42.588,99.208,66.041,159.436,66.041c60.226,0,116.848-23.453,159.434-66.041
			c42.586-42.586,66.039-99.205,66.039-159.432c0-60.226-23.453-116.847-66.039-159.433C348.272,28.453,291.652,5,231.427,5z"/>
		<path fill="#F2F2DB" d="M231.427,448.955c-58.359,0-113.227-22.729-154.491-63.99c-41.268-41.268-63.992-96.133-63.992-154.491
			c0-58.359,22.726-113.225,63.992-154.491c41.266-41.266,96.132-63.993,154.491-63.993c58.356,0,113.225,22.726,154.489,63.992
			c41.266,41.266,63.991,96.132,63.991,154.491c0,58.358-22.728,113.226-63.991,154.491
			C344.651,426.228,289.785,448.955,231.427,448.955z M231.427,13.989c-57.825,0-112.188,22.518-153.077,63.406
			c-40.89,40.889-63.406,95.252-63.406,153.077c0,57.824,22.518,112.188,63.406,153.076c40.889,40.889,95.252,63.406,153.077,63.406
			c57.822,0,112.188-22.521,153.076-63.406c40.888-40.889,63.404-95.252,63.404-153.076c0-57.825-22.52-112.188-63.404-153.077
			C343.614,36.507,289.251,13.989,231.427,13.989z"/>
		<path fill="#F2F2DB" d="M430.145,141.008L19.55,183.378c-0.591,2.681-1.131,5.381-1.624,8.1l415.312-43.248
			C432.243,145.804,431.223,143.391,430.145,141.008z"/>
		<path fill="#F2F2DB" d="M449.011,243.009c1.891-32.768-3.607-64.243-15.001-92.849L17.571,193.525
			c-1.373,7.996-2.326,16.145-2.805,24.436c-2.283,39.583,6.18,77.296,22.842,110.318l404.523-42.123
			C445.79,272.294,448.152,257.876,449.011,243.009z"/>
		<path fill="#F2F2DB" d="M38.578,330.189c1.102,2.129,2.232,4.24,3.401,6.328l397.488-41.021c0.751-2.404,1.45-4.832,2.121-7.271
			L38.578,330.189z"/>
		<path fill="#F2F2DB" d="M185.076,151.415c-56.182,0-99.062-1.354-127.443-4.024c-1.438-0.136-2.233-0.21-2.576-0.21
			c-2.673,0-4.844,2.173-4.844,4.844c0,2.67,2.171,4.844,4.844,4.844c0.343,0,1.133-0.075,2.564-0.209
			c28.267-2.671,71.149-4.025,127.455-4.025c0.338,0,0.609-0.273,0.609-0.609C185.685,151.688,185.414,151.415,185.076,151.415z"/>
		<path fill="#F2F2DB" d="M266.82,328.63c56.185,0,99.062,1.354,127.443,4.024c1.438,0.136,2.233,0.209,2.578,0.209
			c2.671,0,4.842-2.172,4.842-4.844c0-2.67-2.171-4.845-4.842-4.845c-0.345,0-1.135,0.074-2.565,0.209
			c-28.266,2.673-71.147,4.025-127.456,4.025c-0.338,0-0.608,0.271-0.608,0.606C266.212,328.359,266.482,328.63,266.82,328.63z"/>
	</g>
</g>
<g id="T_3_">
	<rect x="87.056" y="342.473" fill="none" width="284.893" height="28"/>
	<text transform="matrix(1 0 0 1 101.78 362.7051)" fill="#F2F2DB" font-family="'Niconne-Regular'" font-size="18">Lorem ipsum dolor sit amet consev ctetuer  </text>
</g>
<g id="T_5_">
	<rect x="87.056" y="362.705" fill="none" width="284.893" height="28"/>
	<text transform="matrix(1 0 0 1 117.5559 380.7051)" fill="#F2F2DB" font-family="'Niconne-Regular'" font-size="18">adipiscing elit sed diam onummy nibh  </text>
</g>
<g id="T_4_">
	<rect x="87.056" y="380.705" fill="none" width="284.893" height="28"/>
	<text transform="matrix(1 0 0 1 147.2019 398.7051)" fill="#F2F2DB" font-family="'Niconne-Regular'" font-size="18">euismod tincidunt ut laoreet</text>
</g>
<g id="T_2_">
	<rect x="0" y="161.869" fill="none" width="461.002" height="152.295"/>
	<text transform="matrix(1 0 0 1 146.7947 285.0586)" fill="#E05A47" font-family="'PinyonScript'" font-size="140">title</text>
</g>
<g id="T">
	<rect x="55.245" y="77.965" fill="none" width="350.511" height="64.224"/>
	<text transform="matrix(1 0 0 1 91.428 128.6152)" fill="#F2F2DB" font-family="'PlayfairDisplaySC-Regular'" font-size="51.9273">TEXT HERE</text>
</g>
<g id="T_1_">
	<rect x="28" y="23.973" fill="none" width="405.002" height="72"/>
	<text transform="matrix(1 0 0 1 172.7732 77.9648)" fill="#F2F2DB" font-family="'PinyonScript'" font-size="50">subtitle</text>
</g>
</svg>
