<?xml version="1.0" encoding="utf-8"?>
<!-- Generator: Adobe Illustrator 16.0.0, SVG Export Plug-In . SVG Version: 6.00 Build 0)  -->
<!DOCTYPE svg PUBLIC "-//W3C//DTD SVG 1.1//EN" "http://www.w3.org/Graphics/SVG/1.1/DTD/svg11.dtd">
<svg version="1.1" id="Layer_1" xmlns="http://www.w3.org/2000/svg" xmlns:xlink="http://www.w3.org/1999/xlink" x="0px" y="0px"
	 width="500px" height="330px" viewBox="0 0 500 330" enable-background="new 0 0 500 330" xml:space="preserve">
<g id="Change1">
	<path fill="#F1F1D9" d="M465.588,277.541c-2.709-2.157-5.194-4.374-7.486-6.637c-5.857-5.779-10.334-11.871-13.354-18.148
		c-2.775-5.77-4.343-11.691-4.598-17.673c-0.021-0.537,0.177-1.06,0.552-1.444c22.71-23.342,34.715-50.195,34.715-77.66
		c0-24.367-9.32-47.377-25.812-67.676C410.793,40.528,332.242,7.782,241.859,7.782C113.078,7.782,8.305,74.262,8.305,155.979
		c0,0.955,0.029,1.906,0.057,2.857c2.41,80.402,106.221,145.339,233.497,145.339c56.28,0,110.693-12.942,153.214-36.444
		c0.751-0.416,1.684-0.293,2.3,0.306c14.898,14.38,63.635,18.834,83.998,20.087C476.986,285.652,471.328,282.113,465.588,277.541z"
		/>
</g>
<g id="Change2">
	<path fill="#3589A1" d="M491.69,291.952c0.287-0.263,0.505-0.606,0.595-1.013c0.202-0.914-0.271-1.844-1.132-2.215
		c-0.399-0.175-35.146-15.479-44.719-41.933c21.365-23.086,36.135-55.47,36.135-83.794c0-14.122-3.115-27.609-8.904-40.284
		c-9.702-28.065-31.683-53.803-64.229-74.553C364.645,19.604,305.13,3.876,241.857,3.876c-63.271,0-122.784,15.728-167.575,44.285
		C29.217,76.894,4.4,115.184,4.4,155.979c0,9.787,1.443,19.428,4.237,28.828C19.343,261.9,117.739,321.062,241.789,321.062
		c59.609,0,114.053-14,155.816-37.082c19.883,19.188,95.375,21.306,95.375,21.306L491.69,291.952z M8.303,155.979
		c0-81.715,104.772-148.196,233.554-148.196c90.381,0,168.933,32.746,207.746,80.521c16.491,20.299,25.812,43.309,25.812,67.676
		c0,27.465-12.004,54.318-34.714,77.66c-0.375,0.387-0.573,0.907-0.552,1.444c0.255,5.981,1.819,11.903,4.598,17.673
		c3.021,6.277,7.496,12.369,13.354,18.148c2.292,2.263,4.777,4.479,7.486,6.637c5.74,4.572,11.397,8.111,15.78,10.579
		c-20.363-1.253-69.101-5.707-83.998-20.087c-0.616-0.596-1.549-0.721-2.3-0.305c-42.521,23.502-96.936,36.443-153.214,36.443
		c-127.275,0-231.087-64.938-233.497-145.339C8.332,157.884,8.303,156.934,8.303,155.979z"/>
</g>
<g id="T">
	<rect x="34" y="90.5" fill="none" width="413" height="138"/>
	<text transform="matrix(1 0 0 1 103.7031 194.5801)" fill="#3589A1" font-family="'Ultra'" font-size="103">Gee!</text>
</g>
</svg>
