<?xml version="1.0" encoding="utf-8"?>
<!-- Generator: Adobe Illustrator 16.0.0, SVG Export Plug-In . SVG Version: 6.00 Build 0)  -->
<!DOCTYPE svg PUBLIC "-//W3C//DTD SVG 1.1//EN" "http://www.w3.org/Graphics/SVG/1.1/DTD/svg11.dtd">
<svg version="1.1" id="Layer_1" xmlns="http://www.w3.org/2000/svg" xmlns:xlink="http://www.w3.org/1999/xlink" x="0px" y="0px"
	 width="566.93px" height="138.287px" viewBox="0 0 566.93 138.287" enable-background="new 0 0 566.93 138.287"
	 xml:space="preserve">
<g id="C">
	<g id="change2_2_">
		<rect x="138.286" fill="#3F3F3E" width="359.5" height="138.287"/>
	</g>
	<g id="T">
		<rect x="138.286" y="21.059" fill="none" width="359.5" height="96.165"/>
		<text transform="matrix(1 0 0 1 174.0876 91.168)" fill="#C4C1B5" font-family="'Helvetica'" font-size="73.4647">Text here</text>
	</g>
</g>
<g id="E_1_">
	<g id="change2_1_">
		<path fill="#3F3F3E" d="M497.785,0v138.287c38.192,0,69.144-30.959,69.144-69.143S535.977,0,497.785,0z"/>
	</g>
</g>
<g id="W">
	<g id="change2">
		<path fill="#3F3F3E" d="M69.142,0C30.954,0,0,30.959,0,69.144s30.954,69.143,69.143,69.143h69.144V0H69.142z"/>
	</g>
	<g id="change1">
		<path fill="#EBA537" d="M69.142,0C30.954,0,0,30.959,0,69.144s30.954,69.143,69.143,69.143h69.144V69.144
			C138.286,30.96,107.327,0,69.142,0z"/>
	</g>
	<g id="change3">
		<g>
			<g>
				<path fill="#FCF1DE" d="M74.672,32.645v73.007c18.568-1.785,33.137-17.472,33.137-36.504
					C107.808,50.117,93.24,34.424,74.672,32.645z"/>
			</g>
			<g>
				<path fill="#FCF1DE" d="M42.825,45.825c-5.415,6.556-8.355,14.714-8.355,23.319c0,19.033,14.567,34.719,33.137,36.503V70.608
					L42.825,45.825z"/>
			</g>
			<g>
				<path fill="#FCF1DE" d="M47.822,40.835l19.784,19.786V32.639C60.31,33.331,53.473,36.167,47.822,40.835z"/>
			</g>
		</g>
	</g>
</g>
</svg>
