<?xml version="1.0" encoding="utf-8"?>
<!-- Generator: Adobe Illustrator 16.0.0, SVG Export Plug-In . SVG Version: 6.00 Build 0)  -->
<!DOCTYPE svg PUBLIC "-//W3C//DTD SVG 1.1//EN" "http://www.w3.org/Graphics/SVG/1.1/DTD/svg11.dtd">
<svg version="1.1" id="Layer_1" xmlns="http://www.w3.org/2000/svg" xmlns:xlink="http://www.w3.org/1999/xlink" x="0px" y="0px"
	 width="466.961px" height="91.672px" viewBox="0 0 466.961 91.672" enable-background="new 0 0 466.961 91.672"
	 xml:space="preserve">
<g id="E">
	<g id="change2_1_">
		<path fill="#873933" d="M466.961,28.568c-1.225,0-2.209-0.989-2.209-2.209h-2.449c0,1.22-0.989,2.209-2.209,2.209
			c-1.225,0-2.209-0.989-2.209-2.209h-2.449c0,1.22-0.989,2.209-2.209,2.209s-2.209-0.989-2.209-2.209h-2.449
			c0,1.22-0.988,2.209-2.208,2.209s-2.209-0.989-2.209-2.209h-2.449c0,1.22-0.989,2.209-2.209,2.209s-2.209-0.989-2.209-2.209
			h-2.449c0,1.22-0.984,2.209-2.209,2.209c-1.221,0-2.209-0.989-2.209-2.209h-2.444c0,1.22-0.989,2.209-2.209,2.209
			c-1.225,0-2.209-0.989-2.209-2.209h-2.449c0,1.22-0.989,2.209-2.209,2.209c-1.225,0-2.209-0.989-2.209-2.209h-2.449
			c0,1.22-0.989,2.209-2.209,2.209s-2.208-0.989-2.208-2.209h-2.45c0,1.22-0.988,2.209-2.209,2.209c-1.22,0-2.208-0.989-2.208-2.209
			h-2.45c0,1.22-0.984,2.209-2.209,2.209c-1.22,0-2.209-0.989-2.209-2.209h-2.449c0,1.22-0.983,2.209-2.209,2.209
			c-1.22,0-2.208-0.989-2.208-2.209h-2.444c0,1.22-0.989,2.209-2.209,2.209c-1.226,0-2.21-0.989-2.21-2.209h-2.448
			c0,1.22-0.989,2.209-2.209,2.209c-1.226,0-2.209-0.989-2.209-2.209h-1.229v65.313h1.229c0-1.221,0.983-2.209,2.209-2.209
			c1.22,0,2.209,0.988,2.209,2.209h2.448c0-1.221,0.984-2.209,2.21-2.209c1.22,0,2.209,0.988,2.209,2.209h2.444
			c0-1.221,0.988-2.209,2.208-2.209c1.226,0,2.209,0.988,2.209,2.209h2.449c0-1.221,0.989-2.209,2.209-2.209
			c1.225,0,2.209,0.988,2.209,2.209h2.45c0-1.221,0.988-2.209,2.208-2.209c1.221,0,2.209,0.988,2.209,2.209h2.45
			c0-1.221,0.988-2.209,2.208-2.209s2.209,0.988,2.209,2.209h2.449c0-1.221,0.984-2.209,2.209-2.209c1.22,0,2.209,0.988,2.209,2.209
			h2.449c0-1.221,0.984-2.209,2.209-2.209c1.22,0,2.209,0.988,2.209,2.209h2.444c0-1.221,0.988-2.209,2.209-2.209
			c1.225,0,2.209,0.988,2.209,2.209h2.449c0-1.221,0.989-2.209,2.209-2.209s2.209,0.988,2.209,2.209h2.449
			c0-1.221,0.989-2.209,2.209-2.209s2.208,0.988,2.208,2.209h2.449c0-1.221,0.989-2.209,2.209-2.209s2.209,0.988,2.209,2.209h2.449
			c0-1.221,0.984-2.209,2.209-2.209c1.22,0,2.209,0.988,2.209,2.209h2.449c0-1.221,0.984-2.209,2.209-2.209L436.61,59.115v-0.201
			L466.961,28.568z"/>
	</g>
	<g id="change3_4_">
		<polygon fill="#F4BD38" points="464.287,86.795 374.256,86.795 374.256,83.958 461.449,83.958 		"/>
		<polygon fill="#F4BD38" points="461.448,34.076 374.256,34.076 374.256,31.238 464.286,31.238 		"/>
	</g>
	<g id="change1_4_">
		<polygon fill="#DE5947" points="422.323,65.312 374.256,91.672 374.256,14.29 		"/>
	</g>
	<g opacity="0.2">
		<polygon points="422.323,65.312 374.256,91.672 374.256,14.29 		"/>
	</g>
	<g id="change1_3_">
		<path fill="#DE5947" d="M374.259,65.312h1.223c0-1.224,0.989-2.209,2.209-2.209s2.209,0.985,2.209,2.209h2.45
			c0-1.224,0.986-2.209,2.209-2.209c1.22,0,2.208,0.985,2.208,2.209h2.45c0-1.224,0.983-2.209,2.209-2.209
			c1.22,0,2.208,0.985,2.208,2.209h2.447c0-1.224,0.986-2.209,2.209-2.209s2.208,0.985,2.208,2.209h2.448
			c0-1.224,0.988-2.209,2.209-2.209c1.222,0,2.208,0.985,2.208,2.209h2.449c0-1.224,0.989-2.209,2.209-2.209
			s2.209,0.985,2.209,2.209h2.449c0-1.224,0.989-2.209,2.209-2.209s2.209,0.985,2.209,2.209h1.227v-4.877h-48.065V65.312
			L374.259,65.312z"/>
		<path fill="#DE5947" d="M421.1,0c0,1.22-0.991,2.208-2.211,2.208S416.68,1.22,416.68,0h-2.449c0,1.22-0.99,2.208-2.21,2.208
			S409.812,1.22,409.812,0h-2.449c0,1.219-0.983,2.208-2.208,2.208c-1.221,0-2.209-0.988-2.209-2.208h-2.447
			c0,1.219-0.986,2.208-2.21,2.208c-1.222,0-2.21-0.988-2.21-2.208h-2.445c0,1.219-0.988,2.208-2.208,2.208
			c-1.226,0-2.209-0.988-2.209-2.208h-2.45c0,1.22-0.99,2.208-2.21,2.208s-2.21-0.988-2.21-2.208h-2.449
			c0,1.22-0.99,2.208-2.21,2.208s-2.21-0.988-2.21-2.208h-1.218v4.878h48.063V0H421.1z"/>
		<rect x="374.259" y="7.715" fill="#DE5947" width="48.063" height="49.883"/>
	</g>
	<g id="change3_3_">
		<rect x="374.259" y="57.598" fill="#F4BD38" width="48.063" height="2.838"/>
		<rect x="374.259" y="4.878" fill="#F4BD38" width="48.063" height="2.837"/>
	</g>
</g>
<g id="C_repeat">
	<g id="change1_1_">
		<path fill="#DE5947" d="M92.697,60.436v4.877h1.258c0-1.222,0.984-2.209,2.209-2.209c1.219,0,2.208,0.987,2.208,2.209h2.446
			c0-1.222,0.988-2.209,2.209-2.209c1.224,0,2.208,0.987,2.208,2.209h2.448c0-1.222,0.989-2.209,2.209-2.209
			c1.221,0,2.209,0.987,2.209,2.209h2.449c0-1.222,0.989-2.209,2.209-2.209s2.209,0.987,2.209,2.209h2.449
			c0-1.222,0.985-2.209,2.209-2.209c1.22,0,2.208,0.987,2.208,2.209h2.449c0-1.222,0.985-2.209,2.209-2.209
			c1.22,0,2.208,0.987,2.208,2.209h2.447c0-1.222,0.989-2.209,2.209-2.209c1.223,0,2.208,0.987,2.208,2.209h2.449
			c0-1.222,0.988-2.209,2.208-2.209c1.221,0,2.209,0.987,2.209,2.209h2.449c0-1.222,0.989-2.209,2.209-2.209
			s2.209,0.987,2.209,2.209h2.449c0-1.222,0.985-2.209,2.209-2.209c1.22,0,2.209,0.987,2.209,2.209h2.446
			c0-1.222,0.986-2.209,2.208-2.209c1.223,0,2.209,0.987,2.209,2.209h2.447c0-1.222,0.989-2.209,2.21-2.209
			c1.224,0,2.209,0.987,2.209,2.209h2.449c0-1.222,0.988-2.209,2.208-2.209c1.221,0,2.209,0.987,2.209,2.209h2.45
			c0-1.222,0.988-2.209,2.208-2.209s2.209,0.987,2.209,2.209h2.449c0-1.222,0.985-2.209,2.209-2.209c1.22,0,2.209,0.987,2.209,2.209
			h2.447c0-1.222,0.987-2.209,2.209-2.209c1.223,0,2.208,0.987,2.208,2.209h2.447c0-1.222,0.989-2.209,2.209-2.209
			c1.224,0,2.21,0.987,2.21,2.209h2.448c0-1.222,0.989-2.209,2.209-2.209s2.208,0.987,2.208,2.209h2.45
			c0-1.222,0.989-2.209,2.209-2.209c1.219,0,2.208,0.987,2.208,2.209h2.448c0-1.222,0.986-2.209,2.209-2.209
			c1.221,0,2.21,0.987,2.21,2.209h2.446c0-1.222,0.987-2.209,2.209-2.209c1.223,0,2.209,0.987,2.209,2.209h1.228h1.224
			c0-1.222,0.989-2.209,2.21-2.209c1.225,0,2.209,0.987,2.209,2.209h2.448c0-1.222,0.989-2.209,2.21-2.209s2.208,0.987,2.208,2.209
			h2.449c0-1.222,0.988-2.209,2.209-2.209c1.22,0,2.209,0.987,2.209,2.209h2.449c0-1.222,0.986-2.209,2.209-2.209
			c1.22,0,2.209,0.987,2.209,2.209h2.446c0-1.222,0.987-2.209,2.209-2.209c1.223,0,2.21,0.987,2.21,2.209h2.447
			c0-1.222,0.987-2.209,2.209-2.209c1.223,0,2.21,0.987,2.21,2.209h2.45c0-1.222,0.987-2.209,2.209-2.209s2.209,0.987,2.209,2.209
			h2.449c0-1.222,0.987-2.209,2.209-2.209c1.221,0,2.208,0.987,2.208,2.209h2.449c0-1.222,0.986-2.209,2.208-2.209
			s2.209,0.987,2.209,2.209h2.449c0-1.222,0.987-2.209,2.208-2.209c1.223,0,2.21,0.987,2.21,2.209h2.447
			c0-1.222,0.986-2.209,2.207-2.209c1.223,0,2.21,0.987,2.21,2.209h2.448c0-1.222,0.988-2.209,2.209-2.209
			c1.222,0,2.209,0.987,2.209,2.209h2.448c0-1.222,0.987-2.209,2.209-2.209c1.221,0,2.209,0.987,2.209,2.209h2.448
			c0-1.222,0.988-2.209,2.209-2.209c1.222,0,2.209,0.987,2.209,2.209h2.448c0-1.222,0.989-2.209,2.209-2.209
			c1.222,0,2.209,0.987,2.209,2.209h2.449c0-1.222,0.987-2.209,2.209-2.209c1.221,0,2.209,0.987,2.209,2.209h2.447
			c0-1.222,0.987-2.209,2.209-2.209c1.221,0,2.209,0.987,2.209,2.209h2.448c0-1.222,0.987-2.209,2.209-2.209
			s2.209,0.987,2.209,2.209h2.447c0-1.222,0.988-2.209,2.21-2.209c1.221,0,2.209,0.987,2.209,2.209h2.447
			c0-1.222,0.989-2.209,2.21-2.209s2.209,0.987,2.209,2.209h1.228v-4.877H92.697L92.697,60.436z"/>
		<path fill="#DE5947" d="M374.259,4.878V0h-1.231c0,1.22-0.984,2.208-2.209,2.208c-1.22,0-2.209-0.988-2.209-2.208h-2.449
			c0,1.22-0.984,2.208-2.209,2.208c-1.22,0-2.209-0.988-2.209-2.208h-2.444c0,1.22-0.989,2.208-2.209,2.208
			c-1.225,0-2.209-0.988-2.209-2.208h-2.449c0,1.22-0.99,2.208-2.21,2.208c-1.225,0-2.208-0.988-2.208-2.208h-2.449
			c0,1.22-0.99,2.208-2.21,2.208s-2.21-0.988-2.21-2.208h-2.449c0,1.22-0.988,2.208-2.21,2.208c-1.22,0-2.209-0.988-2.209-2.208
			h-2.449c0,1.22-0.984,2.208-2.209,2.208c-1.22,0-2.209-0.988-2.209-2.208h-2.445c0,1.22-0.988,2.208-2.21,2.208
			c-1.223,0-2.209-0.988-2.209-2.208h-2.447c0,1.22-0.996,2.208-2.216,2.208c-1.222,0-2.211-0.988-2.211-2.208h-2.448
			c0,1.219-0.988,2.208-2.209,2.208c-1.222,0-2.21-0.988-2.21-2.208h-2.45c0,1.219-0.983,2.208-2.209,2.208
			c-1.22,0-2.208-0.988-2.208-2.208h-2.447c0,1.219-0.986,2.208-2.209,2.208S293.072,1.22,293.072,0h-2.448
			c0,1.219-0.988,2.208-2.208,2.208c-1.226,0-2.209-0.988-2.209-2.208h-2.449c0,1.219-0.989,2.208-2.209,2.208
			c-1.223,0-2.209-0.988-2.209-2.208h-2.449c0,1.219-0.989,2.208-2.209,2.208c-1.221,0-2.209-0.988-2.209-2.208h-2.449
			c0,1.22-0.986,2.208-2.209,2.208c-1.22,0-2.209-0.988-2.209-2.208h-2.448c0,1.22-0.988,2.208-2.212,2.208
			c-1.221,0-2.21-0.988-2.21-2.208h-2.446c0,1.22-0.987,2.208-2.209,2.208c-1.223,0-2.209-0.988-2.209-2.208h-2.447
			c0,1.219-0.988,2.208-2.208,2.208c-1.224,0-2.21-0.988-2.21-2.208h-2.449c0,1.219-0.988,2.208-2.209,2.208
			c-1.22,0-2.209-0.988-2.209-2.208h-1.226h-1.228c0,1.22-0.988,2.208-2.209,2.208c-1.22,0-2.209-0.988-2.209-2.208h-2.449
			c0,1.22-0.985,2.208-2.209,2.208c-1.22,0-2.209-0.988-2.209-2.208h-2.446c0,1.22-0.987,2.208-2.209,2.208
			c-1.223,0-2.209-0.988-2.209-2.208h-2.448c0,1.219-0.988,2.208-2.208,2.208c-1.224,0-2.209-0.988-2.209-2.208h-2.449
			c0,1.219-0.989,2.208-2.209,2.208c-1.221,0-2.211-0.988-2.211-2.208h-2.449c0,1.219-0.987,2.208-2.208,2.208
			c-1.22,0-2.209-0.988-2.209-2.208h-2.45c0,1.219-0.984,2.208-2.209,2.208c-1.22,0-2.209-0.988-2.209-2.208h-2.445
			c0,1.219-0.988,2.208-2.209,2.208c-1.224,0-2.208-0.988-2.208-2.208h-2.449c0,1.22-0.992,2.208-2.211,2.208
			c-1.224,0-2.208-0.988-2.208-2.208h-2.45c0,1.219-0.989,2.208-2.209,2.208s-2.21-0.988-2.21-2.208h-2.449
			c0,1.219-0.989,2.208-2.209,2.208S162.598,1.22,162.598,0h-2.449c0,1.219-0.984,2.208-2.209,2.208
			c-1.22,0-2.209-0.988-2.209-2.208h-2.444c0,1.219-0.989,2.208-2.209,2.208c-1.225,0-2.209-0.988-2.209-2.208h-2.449
			c0,1.219-0.988,2.208-2.209,2.208C142.986,2.208,142,1.22,142,0h-2.45c0,1.22-0.994,2.208-2.214,2.208
			c-1.225,0-2.209-0.988-2.209-2.208h-2.45c0,1.219-0.989,2.208-2.208,2.208c-1.22,0-2.209-0.988-2.209-2.208h-2.45
			c0,1.219-0.99,2.208-2.21,2.208S121.391,1.22,121.391,0h-2.449c0,1.219-0.984,2.208-2.209,2.208c-1.22,0-2.209-0.988-2.209-2.208
			h-2.444c0,1.219-0.989,2.208-2.209,2.208c-1.225,0-2.209-0.988-2.209-2.208h-2.449c0,1.219-0.988,2.208-2.208,2.208
			c-1.225,0-2.209-0.988-2.209-2.208h-2.45c0,1.219-0.988,2.208-2.208,2.208S93.926,1.22,93.926,0h-1.229v4.878H374.259z"/>
		<rect x="92.697" y="7.715" fill="#DE5947" width="281.562" height="49.883"/>
	</g>
	<g id="change3">
		<rect x="92.697" y="57.598" fill="#F4BD38" width="281.562" height="2.838"/>
		<rect x="92.697" y="4.878" fill="#F4BD38" width="281.562" height="2.837"/>
	</g>
	<g id="T">
		<rect x="92.705" y="10.836" fill="none" width="281.551" height="43.689"/>
		<text transform="matrix(1 0 0 1 122.0291 45.7539)" fill="#F2E2BF" font-family="'AlfaSlabOne-Regular'" font-size="34.0158">TEXT HERE</text>
	</g>
</g>
<g id="W">
	<g id="change2">
		<path fill="#873933" d="M0,28.568c1.22,0,2.208-0.989,2.208-2.209h2.45c0,1.22,0.984,2.209,2.208,2.209
			c1.22,0,2.209-0.989,2.209-2.209h2.445c0,1.22,0.989,2.209,2.208,2.209c1.225,0,2.209-0.989,2.209-2.209h2.45
			c0,1.22,0.988,2.209,2.208,2.209s2.208-0.989,2.208-2.209h2.45c0,1.22,0.989,2.209,2.209,2.209s2.208-0.989,2.208-2.209h2.45
			c0,1.22,0.984,2.209,2.209,2.209c1.22,0,2.208-0.989,2.208-2.209h2.448c0,1.22,0.986,2.209,2.208,2.209
			c1.221,0,2.209-0.989,2.209-2.209h2.446c0,1.22,0.989,2.209,2.209,2.209c1.225,0,2.209-0.989,2.209-2.209h2.449
			c0,1.22,0.989,2.209,2.209,2.209s2.208-0.989,2.208-2.209h2.449c0,1.22,0.988,2.209,2.209,2.209c1.22,0,2.209-0.989,2.209-2.209
			h2.449c0,1.22,0.984,2.209,2.209,2.209c1.22,0,2.209-0.989,2.209-2.209h2.445c0,1.22,0.988,2.209,2.21,2.209
			c1.223,0,2.208-0.989,2.208-2.209h2.448c0,1.22,0.989,2.209,2.208,2.209c1.223,0,2.209-0.989,2.209-2.209h2.45
			c0,1.22,0.989,2.209,2.208,2.209c1.22,0,2.209-0.989,2.209-2.209h1.227v65.313h-1.22c0-1.221-0.987-2.209-2.209-2.209
			c-1.22,0-2.208,0.988-2.208,2.209h-2.45c0-1.221-0.984-2.209-2.209-2.209c-1.22,0-2.208,0.988-2.208,2.209h-2.445
			c0-1.221-0.988-2.209-2.208-2.209c-1.225,0-2.209,0.988-2.209,2.209h-2.45c0-1.221-0.989-2.209-2.209-2.209
			c-1.222,0-2.209,0.988-2.209,2.209h-2.449c0-1.221-0.989-2.209-2.209-2.209s-2.209,0.988-2.209,2.209H57.14
			c0-1.221-0.986-2.209-2.208-2.209c-1.219,0-2.209,0.988-2.209,2.209H50.28c0-1.221-0.984-2.209-2.209-2.209
			c-1.22,0-2.209,0.988-2.209,2.209h-2.444c0-1.221-0.989-2.209-2.209-2.209c-1.225,0-2.208,0.988-2.208,2.209h-2.45
			c0-1.221-0.989-2.209-2.208-2.209c-1.22,0-2.209,0.988-2.209,2.209h-2.45c0-1.221-0.989-2.209-2.208-2.209
			c-1.22,0-2.209,0.988-2.209,2.209h-2.45c0-1.221-0.984-2.209-2.208-2.209c-1.22,0-2.208,0.988-2.208,2.209H15.95
			c0-1.221-0.987-2.209-2.21-2.209c-1.222,0-2.208,0.988-2.208,2.209H9.081c0-1.221-0.989-2.209-2.209-2.209
			c-1.225,0-2.208,0.988-2.208,2.209h-2.45c0-1.221-0.989-2.209-2.208-2.209l30.348-30.348v-0.201L0,28.568z"/>
	</g>
	<g id="change3_2_">
		<polygon fill="#F4BD38" points="2.669,86.795 92.705,86.795 92.705,83.958 5.507,83.958 		"/>
		<polygon fill="#F4BD38" points="5.507,34.076 92.705,34.076 92.705,31.238 2.669,31.238 		"/>
	</g>
	<g id="change1_2_">
		<polygon fill="#DE5947" points="44.637,65.312 92.705,91.672 92.705,14.29 		"/>
	</g>
	<g opacity="0.2">
		<polygon points="44.637,65.312 92.705,91.672 92.705,14.29 		"/>
	</g>
	<g id="change1">
		<path fill="#DE5947" d="M44.639,60.436v4.877h1.224c0-1.222,0.988-2.209,2.208-2.209c1.225,0,2.209,0.987,2.209,2.209h2.466
			c0-1.222,0.985-2.209,2.209-2.209c1.22,0,2.208,0.987,2.208,2.209h2.447c0-1.222,0.988-2.209,2.209-2.209
			c1.222,0,2.208,0.987,2.208,2.209h2.449c0-1.222,0.988-2.209,2.208-2.209c1.221,0,2.209,0.987,2.209,2.209h2.46
			c0-1.222,0.988-2.209,2.208-2.209c1.223,0,2.209,0.987,2.209,2.209h2.449c0-1.222,0.989-2.209,2.209-2.209
			s2.209,0.987,2.209,2.209h2.449c0-1.222,0.984-2.209,2.208-2.209c1.219,0,2.208,0.987,2.208,2.209h1.192v-4.877H44.639
			L44.639,60.436z"/>
		<rect x="44.639" y="7.715" fill="#DE5947" width="48.058" height="49.883"/>
		<path fill="#DE5947" d="M92.697,0h-1.221c0,1.219-0.99,2.208-2.21,2.208S87.058,1.22,87.058,0h-2.449
			c0,1.219-0.984,2.208-2.209,2.208c-1.22,0-2.209-0.988-2.209-2.208h-2.444c0,1.219-0.989,2.208-2.209,2.208
			c-1.224,0-2.208-0.988-2.208-2.208H70.88c0,1.219-0.989,2.208-2.209,2.208S66.461,1.22,66.461,0h-2.45
			c0,1.219-0.989,2.208-2.208,2.208c-1.22,0-2.209-0.988-2.209-2.208h-2.45c0,1.219-0.989,2.208-2.208,2.208
			c-1.22,0-2.209-0.988-2.209-2.208h-2.449c0,1.22-0.985,2.208-2.209,2.208c-1.219,0-2.208-0.988-2.208-2.208h-1.222v4.878h48.058V0
			z"/>
	</g>
	<g id="change3_1_">
		<rect x="44.637" y="57.598" fill="#F4BD38" width="0.002" height="2.838"/>
		<rect x="44.639" y="57.598" fill="#F4BD38" width="48.058" height="2.838"/>
		<rect x="44.637" y="4.878" fill="#F4BD38" width="0.002" height="2.837"/>
		<rect x="44.639" y="4.878" fill="#F4BD38" width="48.058" height="2.837"/>
	</g>
</g>
</svg>
