<?xml version="1.0" encoding="utf-8"?>
<!DOCTYPE svg PUBLIC "-//W3C//DTD SVG 1.1//EN"
  "http://www.w3.org/Graphics/SVG/1.1/DTD/svg11.dtd">
<!-- Generator: Adobe Illustrator 18.1.1, SVG Export Plug-In . SVG Version: 6.00 Build 0)  -->
<svg version="1.1" id="Layer_1" xmlns="http://www.w3.org/2000/svg" xmlns:xlink="http://www.w3.org/1999/xlink" x="0px" y="0px"
	 viewBox="47 605.5 730 240.9" enable-background="new 47 605.5 730 240.9" xml:space="preserve">
<g id="T_Center_2_">
	<rect x="56.7" y="643" fill="none" width="715.8" height="125.6"/>
	<text transform="matrix(1 0 0 1 179.0815 699.0908)" fill="#FFFFFF" font-family="'LeagueSpartan-Bold'" font-size="65.346">MUSCARELLO</text>
	<rect x="47" y="634.7" fill="none" width="730" height="142"/>
</g>
<g id="T_Center_1_">
	<rect x="179.1" y="731.5" fill="none" width="470.7" height="82.7"/>
	<text transform="matrix(1 0 0 1 247.2056 768.3974)" fill="#FFFFFF" font-family="'LeagueSpartan-Bold'" font-size="42.9811">PEDAL WORKS</text>
	<rect x="175.3" y="726.9" fill="none" width="480" height="92"/>
</g>
<g id="T_Center">
	<rect x="260.2" y="794.3" fill="none" width="308.8" height="42.5"/>
	<text transform="matrix(1 0 0 1 319.0459 829.4824)" fill="#FFFFFF" font-family="'Pacifico-Regular'" font-size="37.4705">made in italy</text>
	<rect x="254.9" y="790.4" fill="none" width="319" height="56"/>
</g>
<g id="T_Right">
	<rect x="128.2" y="609.9" fill="none" width="214.6" height="52.6"/>

		<text transform="matrix(1 0 2.000000e-05 1 257.0475 633.3906)" fill="#FFFFFF" font-family="'LeagueSpartan-Bold'" font-size="27.3717">SINCE</text>
	<rect x="124" y="605.5" fill="none" width="223.6" height="65.5"/>
</g>
<g id="T_Left">
	<rect x="485.7" y="609.9" fill="none" width="214.6" height="52.6"/>

		<text transform="matrix(1 0 2.000000e-05 1 486.0065 633.3906)" fill="#FFFFFF" font-family="'LeagueSpartan-Bold'" font-size="27.3717">1964</text>
	<rect x="481.9" y="605.5" fill="none" width="222.3" height="65.5"/>
</g>
</svg>
