<?xml version="1.0" encoding="utf-8"?>
<!DOCTYPE svg PUBLIC "-//W3C//DTD SVG 1.1//EN"
  "http://www.w3.org/Graphics/SVG/1.1/DTD/svg11.dtd">
<!-- Generator: Adobe Illustrator 18.1.1, SVG Export Plug-In . SVG Version: 6.00 Build 0)  -->
<svg version="1.1" id="Layer_1" xmlns="http://www.w3.org/2000/svg" xmlns:xlink="http://www.w3.org/1999/xlink" x="0px" y="0px"
	 viewBox="97 553.5 700 545.1" enable-background="new 97 553.5 700 545.1" xml:space="preserve">
<g>
	<g id="T_Center">

			<rect x="130.7" y="643.3" transform="matrix(-0.9769 0.2139 -0.2139 -0.9769 1032.693 1390.1277)" fill="none" width="620.8" height="215.3"/>

			<text transform="matrix(0.9769 -0.2139 0.2139 0.9769 224.9854 788.2061)" fill="#FFFFFF" font-family="'GreatVibes-Regular'" font-size="156.5266">Happy</text>

			<rect x="116.3" y="620.3" transform="matrix(-0.9769 0.2139 -0.2139 -0.9769 1033.2897 1379.5491)" fill="none" width="651.5" height="250.7"/>
	</g>
	<g id="T_Center_2_">

			<rect x="140.9" y="804" transform="matrix(-0.9769 0.2139 -0.2139 -0.9769 1087.1201 1705.5729)" fill="none" width="620.8" height="215.3"/>

			<text transform="matrix(0.9769 -0.2139 0.2139 0.9769 156.8115 966.068)" fill="#FFFFFF" font-family="'GreatVibes-Regular'" font-size="156.5266">Holidays!</text>

			<rect x="126.2" y="781.1" transform="matrix(-0.9769 0.2139 -0.2139 -0.9769 1087.3032 1695.3008)" fill="none" width="651.5" height="250.7"/>
	</g>
	<g id="T_Center_1_">
		<rect x="218" y="985.6" fill="none" width="484.1" height="46.4"/>
		<text transform="matrix(1 0 0 1 265.2412 1000.3604)" fill="#FFFFFF" font-family="'Lustria-Regular'" font-size="18.2608">WARM WISHES FOR THE HOLIDAY SEASON</text>
		<rect x="212.4" y="977.5" fill="none" width="497.6" height="61"/>
	</g>
</g>
</svg>
