<?xml version="1.0" encoding="UTF-8" standalone="no"?>
<!DOCTYPE svg  PUBLIC '-//W3C//DTD SVG 1.1//EN'  'http://www.w3.org/Graphics/SVG/1.1/DTD/svg11.dtd'>
<!-- Generator: Adobe Illustrator 18.1.1, SVG Export Plug-In . SVG Version: 6.00 Build 0)  -->
<svg id="Layer_1" xmlns="http://www.w3.org/2000/svg" xml:space="preserve" viewBox="0 0 300 300" version="1.1" y="0px" x="0px" enable-background="new 0 0 300 300">
<g id="change1">
	<path d="m281.5 300h-263c-10.2 0-18.5-8.3-18.5-18.5v-263c0-10.2 8.3-18.5 18.5-18.5h263c10.2 0 18.5 8.3 18.5 18.5v263c0 10.2-8.3 18.5-18.5 18.5z" fill="#fff"/>
</g>
<g id="change2">
	<rect y="109.9" x="6.6" height="80.3" width="286.7" fill="#272c33"/>
</g>
<g id="T_Center_2_">
	<rect y="126.7" x="9.1" height="64" width="281.9" fill="none"/>
	<text id="T_center_4_" font-size="55.173" fill="#FFFFFF" font-family="&apos;VastShadow-Regular&apos;" transform="translate(17.702 164.29)">UNION</text>
	<rect y="123.7" x="9.1" height="67" width="281.9" fill="none"/>
</g>
<g id="T_Center_1_">
	<rect y="54.9" x="24.7" height="44" width="250.6" fill="none"/>
	<text font-size="18.742" font-family="&apos;Montserrat-Bold&apos;" transform="translate(29.923 68.847)" fill="#272c33">PREMIUM CLOTHING CO.</text>
	<rect y="49.6" x="19.4" height="54.6" width="261.1" fill="none"/>
</g>
<g id="T_Center_3_">
	<rect y="206" x="24.7" height="44" width="250.6" fill="none"/>
	<text font-size="18.742" font-family="&apos;Montserrat-Bold&apos;" transform="translate(38.609 219.86)" fill="#272c33">REGD. SAN FERNANDO</text>
	<rect y="200.6" x="19.4" height="54.6" width="261.1" fill="none"/>
</g>
<g id="T_Center_4_">
	<rect y="232.8" x="24.7" height="44" width="250.6" fill="none"/>
	<text font-size="18.742" font-family="&apos;Montserrat-Bold&apos;" transform="translate(55.402 246.7)" fill="#272c33">PAMPANGA,PH 1571</text>
	<rect y="227.5" x="19.4" height="54.6" width="261.1" fill="none"/>
</g>
</svg>
