<?xml version="1.0" encoding="utf-8"?>
<!DOCTYPE svg PUBLIC "-//W3C//DTD SVG 1.1//EN"
  "http://www.w3.org/Graphics/SVG/1.1/DTD/svg11.dtd">
<!-- Generator: Adobe Illustrator 19.1.0, SVG Export Plug-In . SVG Version: 6.00 Build 0)  -->
<svg version="1.1" id="Layer_1" xmlns="http://www.w3.org/2000/svg" xmlns:xlink="http://www.w3.org/1999/xlink" x="0px" y="0px"
	 viewBox="-455.2 1188.2 677.2 81.7" enable-background="new -455.2 1188.2 677.2 81.7" xml:space="preserve">
<g id="change1">
	<path fill="#FFFFFF" d="M-104.9,1201.7c-5,0-9.3,3.2-11,7.6c-1.7-4.4-6-7.6-11-7.6c-6.5,0-11.8,5.3-11.8,11.8
		c0,12.7,22.8,28.2,22.8,28.2s22.7-15.6,22.8-28.2C-93.1,1207-98.4,1201.7-104.9,1201.7z"/>
</g>
<g id="t_right">
	<rect x="-455.2" y="1192.9" fill="none" width="300" height="77"/>
	<rect x="-455.2" y="1188.2" fill="none" width="300" height="60.6"/>
	<text transform="matrix(1.0136 0 0 1 -291.1665 1235.3938)" fill="#FFFFFF" font-family="'JosefinSans'" font-size="55.5px">ALEX</text>
</g>
<g id="t_left">
	<rect x="-78" y="1192.9" fill="none" width="300" height="77"/>
	<rect x="-78" y="1188.2" fill="none" width="300" height="60.6"/>
	<text transform="matrix(1.0055 0 0 1 -78.0225 1235.3938)" fill="#FFFFFF" font-family="'JosefinSans'" font-size="55.5px">SARA</text>
</g>
</svg>
