<?xml version="1.0" encoding="UTF-8" standalone="no"?>
<!DOCTYPE svg  PUBLIC '-//W3C//DTD SVG 1.1//EN'  'http://www.w3.org/Graphics/SVG/1.1/DTD/svg11.dtd'>
<!-- Generator: Adobe Illustrator 18.1.1, SVG Export Plug-In . SVG Version: 6.00 Build 0)  -->
<svg id="Layer_1" xmlns="http://www.w3.org/2000/svg" xml:space="preserve" viewBox="0 111.8 500 276.4" version="1.1" y="0px" x="0px" enable-background="new 0 111.8 500 276.4">
<g id="change2">
	<rect y="114.8" x="3" height="270.3" width="494" fill="#272c33"/>
</g>
<g id="change1">
	<path d="m0 111.8v276.4h500v-276.4h-500zm494 6v184.9h-488v-184.9h488zm-488 190.9h125.1v73.5h-125.1v-73.5zm131 73.4v-73.5h357v73.5h-357z" fill="#fff"/>
</g>
<g id="t_center_2_">
	<rect y="131.6" x="24.5" height="170.3" width="444.5" fill="none"/>
	<text font-size="146.34" font-family="&apos;Yellowtail&apos;" transform="matrix(.9872 0 0 1 30.54 263.5)" fill="#FFFFFF">Kinetic</text>
</g>
<g id="t_center">
	<rect y="321.3" x="14.3" height="62.9" width="108.2" fill="none"/>
	<text font-size="57.823" font-family="&apos;Norwester-Regular&apos;" transform="matrix(.9872 0 0 1 39.209 376.28)" fill="#FFFFFF">07</text>
</g>
<g id="t_center_1_">
	<rect y="317.7" x="146.6" height="61.6" width="339.8" fill="none"/>
	<text font-size="46.026" font-family="&apos;Montserrat-Bold&apos;" transform="matrix(.9872 0 0 1 193.49 362.26)" fill="#FFFFFF">CYCLE CO.</text>
</g>
</svg>
