<?xml version="1.0" encoding="UTF-8" standalone="no"?>
<!DOCTYPE svg  PUBLIC '-//W3C//DTD SVG 1.1//EN'  'http://www.w3.org/Graphics/SVG/1.1/DTD/svg11.dtd'>
<!-- Generator: Adobe Illustrator 18.1.1, SVG Export Plug-In . SVG Version: 6.00 Build 0)  -->
<svg id="Layer_1" xmlns="http://www.w3.org/2000/svg" xml:space="preserve" viewBox="106 281 400 230" version="1.1" y="0px" x="0px" enable-background="new 106 281 400 230">
<g id="change1">
	<path d="m506 331.4v130.4c-15.2 0-27.5 12.3-27.5 27.5h-74.1c-24.7 13.3-59.3 21.7-97.6 21.7s-72.9-8.3-97.5-21.7h-74.5c0-15.2-12.3-27.5-27.5-27.5h-1.3v-130.5h1.3c15.2 0 27.5-12.3 27.5-27.5v-1h74.2c24.7-13.4 59.4-21.8 97.9-21.8s73.3 8.3 97.9 21.8h73.8v1c-0.1 15.2 12.2 27.6 27.4 27.6z" fill="#fff"/>
</g>
<g id="change2">
	<path d="m306.9 502.1c-35.2 0-69.2-7.5-93.3-20.6l-2-1h-68.5l-0.2-0.7c-3.5-12.8-13.7-22.7-26.7-25.9l-0.8-0.2v-114.3l0.8-0.2c13.2-3.2 23.8-13.7 26.9-26.8l0.2-0.8h67.9l2-1c24.2-13.2 58.3-20.8 93.7-20.8s69.4 7.5 93.7 20.7l2 1h68l0.2 0.8c3.2 12.8 13.1 23 25.8 26.6l0.7 0.2v114.9l-0.7 0.2c-12.4 3.4-22.1 13.1-25.5 25.5l-0.2 0.7h-68.4l-2 1c-24.5 13.2-58.5 20.7-93.6 20.7zm-162.4-23.5h67.5l2.4 1.3c23.9 13 57.6 20.4 92.5 20.4s68.6-7.4 92.5-20.4l2.4-1.3h67.5c3.6-12.5 13.5-22.3 26-26v-112c-12.8-3.8-22.9-14.1-26.3-27h-67l-2.4-1.3c-23.9-13.1-57.7-20.6-92.7-20.6s-68.8 7.6-92.7 20.6l-2.4 1.3h-66.8c-3.5 13.3-14.2 23.9-27.5 27.4v111.3c12.8 3.3 23.2 13.3 27 26.3z" fill="#272c33"/>
</g>
<g id="T_Center">
	<rect y="362.9" x="123.5" height="76.5" width="365.7" fill="none"/>
	<g>
		<rect y="366.1" x="123.5" height="68.9" width="365.7" fill="none"/>
		<text font-size="60.242" font-family="&apos;Sanchez-Regular&apos;" transform="translate(140.58 409.37)" fill="#272c33">MORGANS</text>
	</g>
</g>
<g id="T_Center_1_">
	<rect y="429.4" x="180.9" height="39" width="253.2" fill="none"/>
	<text font-size="24.234" font-family="&apos;Sanchez-Regular&apos;" transform="translate(205.29 446.86)" fill="#272c33">SWEET TREATS</text>
	<rect y="425.6" x="176.5" height="47.5" width="261.8" fill="none"/>
</g>
<g id="T_Center_2_">
	<rect y="330.6" x="176.7" height="39.6" width="257.3" fill="none"/>
	<rect y="339.4" x="178.9" height="26.8" width="252.9" fill="none"/>
	<text font-size="13.605" font-family="&apos;Sanchez-Regular&apos;" transform="translate(255.25 349.12)" fill="#272c33">WELCOME TO</text>
</g>
</svg>
