<?xml version="1.0" encoding="UTF-8" standalone="no"?>
<!DOCTYPE svg  PUBLIC '-//W3C//DTD SVG 1.1//EN'  'http://www.w3.org/Graphics/SVG/1.1/DTD/svg11.dtd'>
<!-- Generator: Adobe Illustrator 18.1.1, SVG Export Plug-In . SVG Version: 6.00 Build 0)  -->
<svg id="Layer_1" xmlns="http://www.w3.org/2000/svg" xml:space="preserve" viewBox="142.4 251 300 300" version="1.1" y="0px" x="0px" enable-background="new 142.4 251 300 300">
<g id="change1">
	<circle cy="401" cx="292.4" r="134" fill="#fff"/>
</g>
<g id="change2">
	<path d="m292.4 551c-82.7 0-150-67.3-150-150s67.3-150 150-150 150 67.3 150 150-67.3 150-150 150zm0-292.5c-78.5 0-142.5 64-142.5 142.5s64 142.5 142.5 142.5 142.5-64 142.5-142.5-64-142.5-142.5-142.5z" fill="#fff"/>
</g>
<g id="T_Center_5_">
	<rect y="377.9" x="164.3" height="59.1" width="256.1" fill="none"/>
		<text id="T_Center_1_" font-size="49.921" fill="#272c33" font-family="&apos;VastShadow-Regular&apos;" transform="translate(164.96 411.9)">FRISCO</text>
	<rect y="370.5" x="158.4" height="66.5" width="268" fill="none"/>
</g>
<g id="T_Center_6_">
	<rect y="433.4" x="185.8" height="39.7" width="214.5" fill="none"/>
		<text id="T_Center_2_" font-size="32.19" fill="#272c33" font-family="&apos;LeagueGothic-Regular&apos;" transform="translate(247.83 457.05)">PRODUCTS</text>
	<rect y="421.1" x="185.8" height="57.7" width="214.8" fill="none"/>
</g>
<g id="T_Center_7_">
	<rect y="488" x="220.6" height="30.1" width="143.8" fill="none"/>
		<text id="T_Center_3_" font-size="15.157" fill="#272c33" font-family="&apos;LeagueGothic-Regular&apos;" transform="translate(258.99 499.07)">CALIFORNIA,USA</text>
	<rect y="485.4" x="216.1" height="32.6" width="152.6" fill="none"/>
</g>
<g id="T_Center_4_">
	<rect y="344.1" x="240.7" height="35.5" width="103.8" fill="none"/>
		<text id="T_Center" font-size="23.215" fill="#272c33" font-family="&apos;LeagueGothic-Regular&apos;" transform="translate(253.6 361.18)">E S T . 1 9 6 1</text>
	<rect y="339.4" x="234.8" height="40.1" width="114.6" fill="none"/>
</g>
</svg>
