<?xml version="1.0" encoding="UTF-8" standalone="no"?>
<!DOCTYPE svg  PUBLIC '-//W3C//DTD SVG 1.1//EN'  'http://www.w3.org/Graphics/SVG/1.1/DTD/svg11.dtd'>
<!-- Generator: Adobe Illustrator 19.1.0, SVG Export Plug-In . SVG Version: 6.00 Build 0)  -->
<svg id="Layer_1" xmlns="http://www.w3.org/2000/svg" xml:space="preserve" viewBox="-677.4 571.1 380 380" version="1.1" y="0px" x="0px" enable-background="new -677.4 571.1 380 380">
<g id="change1_1_">
	<circle id="change1" cy="761.1" cx="-487.4" r="190" fill="#fff"/>
</g>
<g id="change2" fill="#272c33">
	<path d="m-487.2 927.5c-91.6 0-166.2-74.6-166.2-166.2s74.6-166.2 166.2-166.2 166.2 74.6 166.2 166.2-74.6 166.2-166.2 166.2zm0-330.4c-90.5 0-164.2 73.7-164.2 164.2s73.7 164.2 164.2 164.2 164.2-73.7 164.2-164.2-73.7-164.2-164.2-164.2z"/>
	<path d="m-322 761.1c0-13.9-2.5-27.9-5.6-40.6h-319.3c-2.1 9.6-5.6 26.7-5.6 40.6 0 15.3 3.1 29.1 6.3 44.4h317.8c3.6-14.7 6.4-29.1 6.4-44.4z"/>
</g>
<g id="change3" fill="#272c33">
	<polygon points="-485 676 -478.4 676.9 -483.1 681.6 -481.9 688.1 -487.8 685 -493.6 688.2 -492.5 681.7 -497.3 677.1 -490.8 676.1 -487.9 670.2"/>
	<circle cy="847.8" cx="-377.8" r="2.2"/>
	<circle cy="847.8" cx="-589.8" r="2.2"/>
</g>
<g id="t_center_3_">
	<g>
		<rect y="665.6" x="-570.7" height="35.7" width="60" fill="none"/>
		<text font-size="24.816px" font-family="&apos;Norwester-Regular&apos;" transform="translate(-561.69 683)" fill="#272c33">EST.</text>
	</g>
	<rect y="656" x="-576.3" height="53.2" width="71" fill="none"/>
</g>
<g id="t_center_2_">
	<rect y="666.1" x="-463.6" height="36.1" width="60" fill="none"/>
	<text font-size="25.084px" font-family="&apos;Norwester-Regular&apos;" transform="translate(-456.83 683.68)" fill="#272c33">1978</text>
	<rect y="656" x="-469.5" height="53.3" width="71" fill="none"/>
</g>
<g id="t_center">
	<rect y="727" x="-630.5" height="86.5" width="286" fill="none"/>
	<text font-size="50px" font-family="&apos;Norwester-Regular&apos;" transform="translate(-605.91 760.1)" fill="#FFFFFF">PADDINGTON</text>
</g>
<g id="t_center_1_">
	<rect y="827.5" x="-576.3" height="45" width="184.8" fill="none"/>
	<text font-size="29px" font-family="&apos;Norwester-Regular&apos;" transform="translate(-565.39 847.8)" fill="#272c33">handcrafted</text>
	<rect y="827.5" x="-576.3" height="45" width="184.8" fill="none"/>
</g>
</svg>
