<?xml version="1.0" encoding="UTF-8" standalone="no"?>
<!DOCTYPE svg  PUBLIC '-//W3C//DTD SVG 1.1//EN'  'http://www.w3.org/Graphics/SVG/1.1/DTD/svg11.dtd'>
<!-- Generator: Adobe Illustrator 19.1.0, SVG Export Plug-In . SVG Version: 6.00 Build 0)  -->
<svg id="Layer_1" xmlns="http://www.w3.org/2000/svg" xml:space="preserve" viewBox="-1046 617 393.8 393.8" version="1.1" y="0px" x="0px" enable-background="new -1046 617 393.8 393.8">
<g id="change2">
	<path d="m-652.2 816.9c0 14.6-13.7 27.5-16.7 41.1-3.2 14.1 3.5 31.6-2.7 44.3-6.2 12.9-24.1 18.7-32.9 29.8-9 11.2-10.5 29.9-21.7 38.7-11.1 8.8-29.6 6.4-42.7 12.6-12.8 6.1-22.3 22.3-36.3 25.5-13.7 3-29.1-7.3-43.9-7.3-14.7 0-30.2 10.3-43.9 7.3-14.1-3.2-23.7-19.4-36.3-25.5-12.9-6.2-31.4-3.6-42.7-12.6s-12.8-27.6-21.7-38.7c-8.8-11.1-26.7-16.9-32.9-29.8-6.1-12.8 0.5-30.2-2.7-44.3-3-13.6-16.7-26.5-16.7-41.1s13.7-27.5 16.7-41.1c3.2-14.1-3.5-31.6 2.7-44.3 6.2-12.9 24.1-18.7 32.9-29.8 9-11.2 10.5-29.9 21.7-38.7 11.1-8.8 29.6-6.4 42.7-12.6 12.8-6.1 22.3-22.3 36.3-25.5 13.7-3 29.1 7.3 43.9 7.3 14.6 0 30.2-10.3 43.9-7.3 14.1 3.2 23.7 19.4 36.3 25.5 12.9 6.2 31.4 3.6 42.7 12.6 11.2 9 12.8 27.6 21.7 38.7 8.8 11.1 26.7 16.9 32.9 29.8 6.1 12.8-0.5 30.2 2.7 44.3 3 13.6 16.7 26.6 16.7 41.1z" fill="#7d8693"/>
</g>
<g id="change1">
	<path d="m-657.4 858.7c-3.3 14.3-19.6 23.7-25.7 36.3-6.4 13.1-3.8 31.6-12.8 42.5-9 11.2-27.8 12.6-38.9 21.4-11.2 8.8-17 26.7-29.9 32.8s-30.4-0.6-44.3 2.6c-13.8 3-26.7 16.7-41.1 16.5-14-0.2-26.9-13.7-41-17-14.3-3.3-31.7 3.2-44.3-2.9-13.1-6.4-18.7-24.3-29.6-33.1-11.2-9-29.8-10.8-38.6-21.9-8.8-11.2-6.2-29.8-12.3-42.7-6-12.8-22.1-22.4-25.2-36.3-3-13.8 7.3-29.3 7.4-43.7 0.2-14-10.3-29.6-7-43.9 3.4-14.3 19.6-23.7 25.7-36.3 6.4-13.1 3.8-31.6 12.8-42.5 8.8-11.2 27.5-12.8 38.7-21.6s17-26.7 29.9-32.8 30.4 0.6 44.3-2.6c13.8-3 26.7-16.7 41.1-16.5 14 0.2 26.9 13.7 41 17 14.3 3.3 31.7-3.2 44.3 2.9 13.1 6.4 18.7 24.3 29.6 33.1 11.2 9 29.8 10.8 38.6 21.9 8.8 11.2 6.2 29.8 12.3 42.7s22.2 22.5 25.4 36.4c3 13.8-7.3 29.3-7.4 43.7-0.1 14.2 10.2 29.7 7 44z" fill="#fff"/>
</g>
<g id="t_center_2_">
	<rect y="726.5" x="-989" height="140.8" width="279" fill="none"/>
	<text font-size="94.327px" font-family="&apos;Voga-Medium&apos;" transform="translate(-958.82 806.68)" fill="#272c33">FRENCH</text>
	<rect y="726.5" x="-989" height="140.8" width="279" fill="none"/>
</g>
<g id="change4">
		<path d="m-849.1 648.4c44.5 0 86.3 17.3 117.7 48.8s48.8 73.3 48.8 117.7-17.3 86.3-48.8 117.7-73.3 48.8-117.7 48.8-86.3-17.3-117.7-48.8c-31.4-31.4-48.8-73.3-48.8-117.7s17.3-86.3 48.8-117.7c31.4-31.5 73.2-48.8 117.7-48.8m0-2c-93.1 0-168.5 75.4-168.5 168.5s75.4 168.5 168.5 168.5 168.5-75.4 168.5-168.5-75.4-168.5-168.5-168.5z" fill="#272c33"/>
</g>
<g id="t_center">
	<rect y="817.3" x="-970" height="120.7" width="239" fill="none"/>
	<rect y="829.3" x="-910.1" height="83.4" width="120.9" fill="none"/>
	<text font-size="83px" font-family="&apos;Voga-Medium&apos;" transform="translate(-910.06 899.82)" fill="#272c33">CAFE</text>
</g>
</svg>
