<?xml version="1.0" encoding="UTF-8" standalone="no"?>
<!DOCTYPE svg  PUBLIC '-//W3C//DTD SVG 1.1//EN'  'http://www.w3.org/Graphics/SVG/1.1/DTD/svg11.dtd'>
<!-- Generator: Adobe Illustrator 19.1.0, SVG Export Plug-In . SVG Version: 6.00 Build 0)  -->
<svg id="Layer_1" xmlns="http://www.w3.org/2000/svg" xml:space="preserve" viewBox="-36 37.7 426.3 426.3" version="1.1" y="0px" x="0px" enable-background="new -36 37.7 426.3 426.3">
<g id="change2" fill="#71767F">
	<polygon points="152.6 59.3 171 37.7 189.3 59.3"/>
	<polygon points="119.7 66.8 134.1 42.3 155.9 60.5"/>
	<polygon points="88.6 79.6 98.5 53 123.1 67"/>
	<polygon points="60.2 97.5 65.3 69.6 92 79.2"/>
	<polygon points="35.3 120.2 35.5 91.8 63.5 96.6"/>
	<polygon points="14.8 146.8 10 118.8 38.4 118.6"/>
	<polygon points="-0.9 176.5 -10.4 149.8 17.5 144.7"/>
	<polygon points="-11.1 208.5 -25.1 183.9 1.5 174"/>
	<polygon points="-15.6 241.9 -33.7 220 -9.2 205.7"/>
	<polygon points="-14.4 275.4 -36 257.1 -14.4 238.7"/>
	<polygon points="-6.9 308.3 -31.4 293.9 -13.2 272.1"/>
	<polygon points="5.9 339.3 -20.8 329.5 -6.7 304.8"/>
	<polygon points="23.8 367.7 -4.1 362.6 5.4 335.9"/>
	<polygon points="46.4 392.5 18 392.4 22.8 364.4"/>
	<polygon points="73 413.1 45 417.9 44.8 389.5"/>
	<polygon points="102.7 428.7 76 438.3 70.9 410.3"/>
	<polygon points="134.7 438.9 110 453 100.2 426.3"/>
	<polygon points="168 443.4 146.1 461.5 131.8 437"/>
	<polygon points="201.5 442.3 183.1 464 164.8 442.3"/>
	<polygon points="234.4 435.4 220.1 459.9 198.2 441.8"/>
	<polygon points="265.6 422.6 255.7 449.3 231 435.2"/>
	<polygon points="294 404.7 288.9 432.6 262.2 423"/>
	<polygon points="318.9 382 318.8 410.4 290.8 405.6"/>
	<polygon points="339.5 355.4 344.3 383.4 315.9 383.5"/>
	<polygon points="355.2 325.6 364.7 352.3 336.8 357.4"/>
	<polygon points="365.4 293.5 379.5 318.2 352.9 328"/>
	<polygon points="370 260.2 388.1 282 363.6 296.3"/>
	<polygon points="368.6 226.5 390.3 244.9 368.6 263.3"/>
	<polygon points="361.7 193.6 386.2 207.9 368.1 229.8"/>
	<polygon points="348.9 162.4 375.5 172.3 361.5 196.9"/>
	<polygon points="330.9 133.9 358.9 139 349.3 165.7"/>
	<polygon points="308.3 109 336.6 109.1 331.9 137.1"/>
	<polygon points="281.6 88.3 309.6 83.6 309.7 111.9"/>
	<polygon points="251.8 72.6 278.5 63.1 283.6 91"/>
	<polygon points="219.7 62.4 244.3 48.3 254.2 74.9"/>
	<polygon points="186.3 57.8 208.1 39.7 222.4 64.2"/>
</g>
<g id="change1">
	<circle cy="250.8" cx="178" r="193.7" fill="#fff"/>
</g>
<g id="change3">
	<path d="m177.3 429.6c0-0.7 0.5-1.2 1.2-1.2s1.3 0.6 1.3 1.2c0 0.7-0.6 1.2-1.2 1.2-0.8 0-1.3-0.5-1.3-1.2zm-8.8 0.7c-0.7 0-1.2-0.5-1.2-1.2s0.6-1.2 1.3-1.1c0.7 0 1.2 0.5 1.2 1.2-0.1 0.7-0.6 1.1-1.3 1.1zm18.8-1c0-0.7 0.5-1.2 1.2-1.3 0.7 0 1.3 0.4 1.3 1.1s-0.5 1.2-1.2 1.2h-0.1c-0.6 0-1.2-0.4-1.2-1zm-28.9 0.4c-0.7-0.1-1.2-0.7-1.1-1.4s0.7-1.2 1.4-1.1 1.2 0.7 1.1 1.4c-0.1 0.6-0.6 1.1-1.2 1.1-0.1 0.1-0.1 0.1-0.2 0zm38.9-1.1c-0.1-0.7 0.4-1.3 1.1-1.4s1.3 0.4 1.4 1.1-0.4 1.3-1.1 1.4h-0.1c-0.7 0-1.3-0.4-1.3-1.1zm-48.9-0.2c-0.7-0.1-1.1-0.8-1-1.4 0.1-0.7 0.8-1.1 1.4-1 0.7 0.1 1.1 0.8 1 1.4s-0.6 1-1.2 1h-0.2zm58.8-1.1c-0.1-0.7 0.3-1.3 1-1.4s1.3 0.3 1.4 1-0.3 1.3-1 1.4h-0.2c-0.6 0-1.1-0.4-1.2-1zm-68.6-0.9c-0.7-0.1-1.1-0.8-0.9-1.5 0.1-0.7 0.8-1.1 1.5-0.9s1.1 0.8 0.9 1.5c-0.1 0.6-0.6 1-1.2 1-0.2-0.1-0.3-0.1-0.3-0.1zm78.4-1c-0.1-0.7 0.3-1.3 1-1.5 0.7-0.1 1.3 0.3 1.5 0.9 0.2 0.7-0.3 1.3-0.9 1.5h-0.3c-0.6 0.1-1.2-0.3-1.3-0.9zm-88.2-1.5c-0.7-0.2-1.1-0.9-0.9-1.5 0.2-0.7 0.9-1 1.5-0.9 0.7 0.2 1 0.9 0.9 1.5-0.1 0.5-0.6 0.9-1.2 0.9-0.1 0.1-0.2 0-0.3 0zm97.9-0.9c-0.2-0.7 0.2-1.4 0.9-1.5 0.7-0.2 1.4 0.2 1.5 0.9 0.2 0.7-0.2 1.3-0.8 1.5h-0.4c-0.5 0-1-0.4-1.2-0.9zm-107.5-2.1c-0.7-0.2-1-0.9-0.8-1.6s0.9-1 1.6-0.8 1 0.9 0.8 1.6c-0.2 0.5-0.7 0.8-1.2 0.8h-0.4zm117.1-0.9c-0.2-0.7 0.1-1.4 0.8-1.6s1.4 0.1 1.6 0.8-0.1 1.4-0.8 1.6c-0.1 0-0.3 0.1-0.4 0.1-0.6-0.1-1-0.4-1.2-0.9zm-126.5-2.7c-0.6-0.3-1-1-0.7-1.6s0.6-0.9 1.6-0.7c1 0.3 1 1 0.7 1.6-0.2 0.5-0.6 0.8-1.1 0.8-0.2 0-0.4-0.1-0.5-0.1zm135.8-0.8c-0.3-0.6 0-1.4 0.7-1.6 0.6-0.3 1.4 0 1.6 0.7 0.3 0.6 0 1.4-0.7 1.6-0.2 0.1-0.3 0.1-0.5 0.1-0.4 0-0.9-0.3-1.1-0.8zm-145.1-3.4c-0.6-0.3-0.9-1-0.6-1.7 0.3-0.6 1-0.9 1.7-0.6 0.6 0.3 0.9 1 0.6 1.7-0.2 0.5-0.7 0.7-1.1 0.7-0.2 0.1-0.4 0-0.6-0.1zm154.3-0.6c-0.3-0.6 0-1.4 0.6-1.7s1.4 0 1.7 0.6 0 1.4-0.6 1.7c-0.2 0.1-0.4 0.1-0.5 0.1-0.6 0-1-0.3-1.2-0.7zm-163.2-4c-0.6-0.3-0.8-1.1-0.5-1.7s1.1-0.8 1.7-0.5 0.8 1.1 0.5 1.7c-0.2 0.4-0.6 0.6-1.1 0.6-0.2 0.1-0.4 0-0.6-0.1zm172.1-0.5c-0.3-0.6-0.1-1.4 0.5-1.7s1.4-0.1 1.7 0.5 0.1 1.4-0.5 1.7c-0.2 0.1-0.4 0.2-0.6 0.2-0.5-0.1-0.9-0.3-1.1-0.7zm-180.8-4.7c-0.6 0-0.8-1.1-0.4-1.7s1.1-0.7 1.7-0.4c0.6 0.4 0.8 1.1 0.4 1.7-0.2 0.4-0.6 0.6-1.1 0.6-0.2 0-0.4-0.2-0.6-0.2zm189.4-0.4c-0.4-0.6-0.2-1.4 0.4-1.7 0.6-0.4 1.4-0.2 1.7 0.4 0.4 0.6 0.2 1.3-0.4 1.7-0.2 0.1-0.4 0.2-0.7 0.2s-0.8-0.2-1-0.6zm-197.8-5.1c-0.6-0.4-0.7-1.2-0.3-1.7 0.4-0.6 1.2-0.7 1.7-0.3 0.6 0.4 0.7 1.2 0.3 1.7-0.2 0.3-0.6 0.5-1 0.5-0.2 0-0.5-0.1-0.7-0.2zm206.2-0.4c-0.4-0.6-0.3-1.4 0.3-1.8s1.3-0.3 1.7 0.3 0.3 1.3-0.3 1.7c-0.2 0.2-0.5 0.2-0.7 0.2-0.4 0.1-0.8 0-1-0.4zm-214.2-5.7c-0.5-0.4-0.6-1.2-0.2-1.8 0.4-0.5 1.2-0.6 1.8-0.2 0.5 0.4 0.6 1.2 0.2 1.8-0.2 0.3-0.6 0.5-1 0.5-0.3 0-0.6-0.1-0.8-0.3zm222.2-0.2c-0.4-0.5-0.3-1.3 0.2-1.8 0.5-0.4 1.3-0.3 1.8 0.2 0.4 0.5 0.3 1.3-0.2 1.8-0.2 0.2-0.5 0.3-0.8 0.3-0.4-0.1-0.8-0.2-1-0.5zm-229.9-6.2c-0.5 0-0.6-1.3-0.1-1.8s1.2-0.6 1.8-0.1c0.5 0.5 0.6 1.2 0.1 1.7-0.2 0.3-0.6 0.5-0.9 0.5-0.4 0-0.7-0.3-0.9-0.3zm237.6-0.2c-0.5-0.5-0.4-1.3 0.1-1.8s1.3-0.4 1.8 0.1 0.4 1.3-0.1 1.8c-0.2 0.2-0.5 0.3-0.8 0.3-0.4 0-0.8-0.2-1-0.4zm-245-6.8c-0.5-0.5-0.5-1.3 0-1.8s1.3-0.5 1.8 0 0.5 1.3 0 1.8c-0.2 0.2-0.6 0.4-0.9 0.4s-0.6-0.2-0.9-0.4zm252.3-0.1c-0.5-0.5-0.5-1.3 0-1.8s1.3-0.5 1.8 0 0.5 1.3 0 1.8c-0.2 0.2-0.6 0.4-0.9 0.4s-0.7-0.1-0.9-0.4zm-259.2-7.2c-0.5-0.5-0.4-1.3 0.1-1.8s1.3-0.4 1.8 0.1 0.4 1.3-0.1 1.8c-0.2 0.2-0.5 0.3-0.8 0.3-0.4 0-0.8-0.2-1-0.4zm266.1 0c-0.5-0.5-0.6-1.2-0.1-1.8 0.5-0.5 1.2-0.6 1.8-0.1 0.5 0.5 0.6 1.2 0.1 1.8-0.2 0.3-0.6 0.4-0.9 0.4s-0.6-0.1-0.9-0.3zm-272.6-7.7c-0.4-0.5-0.3-1.3 0.2-1.8 0.5-0.4 1.3-0.3 1.8 0.2 0.4 0.5 0.3 1.3-0.2 1.8-0.2 0.2-0.5 0.3-0.8 0.3-0.4-0.1-0.8-0.2-1-0.5zm279 0.1c-0.5-0.4-0.3-1.2-0.3-1.8 1-0.5 1.4-0.6 1.9-0.2s0.7 1.2 0.3 1.8c-0.2 0.3-0.6 0.5-1 0.5s-0.7-0.1-0.9-0.3zm-285.4-8.2c0-0.6-0.1-1.3 0.4-1.8 0.6-0.4 1.4-0.3 1.8 0.3s0.3 1.4-0.3 1.8c-0.2 0.2-0.6 0.2-0.8 0.2-0.3 0.1-0.1-0.1-1.1-0.5zm291.6 0.3c-0.6-0.4-0.7-1.2-0.3-1.8s1.2-0.7 1.7-0.3c0.6 0.4 0.7 1.2 0.3 1.7-0.2 0.4-0.6 0.5-1 0.5-0.2 0.1-0.5 0-0.7-0.1zm-296.9-8.6c-0.4-0.6-0.2-1.4 0.4-1.7 0.6-0.4 1.4-0.2 1.7 0.4 0.4 0.6 0.2 1.3-0.4 1.7-0.2 0.1-0.4 0.2-0.7 0.2s-0.7-0.2-1-0.6zm302.6 0.3c-0.6-0.4-0.8-1.1-0.4-1.7s1.2-0.8 1.8-0.4 0.4 1.1 0.4 1.7c0 0.4-0.7 0.6-1.1 0.6-0.3 0-0.5-0.1-0.7-0.2zm-307.7-9c-0.3-0.6-0.1-1.4 0.5-1.7s1.4-0.1 1.7 0.5 0.1 1.4-0.5 1.7c-0.2 0.1-0.4 0.2-0.6 0.2-0.5 0-0.9-0.3-1.1-0.7zm312.8 0.4c-0.6-0.3-0.8-1.1-0.5-1.7s1.1-0.8 1.7-0.5 0.8 1.1 0.5 1.7c-0.2 0.4-0.6 0.6-1.1 0.6-0.2 0-0.4 0-0.6-0.1zm-317.4-9.3c-0.3 0 0-1.3 0.6-1.6s1.4-0.4 1.7 0.6c0.3 0 0 1.3-0.6 1.6-0.2 0.1-0.4 0.1-0.5 0.1-0.6 0-1-0.7-1.2-0.7zm322.1 0.4c-0.6-0.3-0.9-1.1-0.6-1.7s1-0.9 1.7-0.6c0.6 0.3 0.9 1 0.6 1.7-0.2 0.5-0.7 0.7-1.1 0.7-0.3 0-0.4 0-0.6-0.1zm-326.3-9.6c-0.3-0.6 0-1.4 0.7-1.6 0.6-0.3 1.4 0 1.6 0.7 0.3 0.6 0 1.4-0.7 1.6-0.2 0.1-0.3 0.1-0.5 0.1-0.4 0-0.9-0.3-1.1-0.8zm330.4 0.5c-0.6-0.3-0.9-1-0.7-1.6 0.3-0.6 1-0.9 1.6-0.7 0.6 0.3 0.9 1 0.7 1.6-0.2 0.5-0.7 0.8-1.2 0.8 0 0-0.2 0-0.4-0.1zm-334-9.9c-0.2-0.7 0.1-1.4 0.8-1.6 0.6-0.2 1.4 0.1 1.6 0.8 0.2 0.6-0.1 1.4-0.8 1.6-0.1 0-0.3 0.1-0.4 0.1-0.5 0-1-0.4-1.2-0.9zm337.7 0.6c-0.7-0.2-1-0.9-0.8-1.6 0.2-0.6 0.9-1 1.6-0.8 0.6 0.2 1 0.9 0.8 1.6-0.2 0.5-0.7 0.8-1.2 0.8h-0.4zm-340.7-10.2c-0.2-0.7 0.2-1.3 0.9-1.5s1.4 0.2 1.6 0.9-0.2 1.4-0.9 1.5h-0.3c-0.7 0-1.2-0.3-1.3-0.9zm343.8 0.6c-0.7-0.2-1-0.9-0.9-1.5 0.2-0.7 0.9-1 1.5-0.8 0.7 0.2 1 0.9 0.9 1.5-0.2 0.5-0.7 0.9-1.2 0.9-0.1 0-0.2 0-0.3-0.1zm-346.4-10.3c-0.1-0.7 0.3-1.3 0.9-1.5 0.7-0.2 1.4 0.3 1.5 0.9 0.1 0.7-0.3 1.3-0.9 1.5h-0.3c-0.5 0-1-0.4-1.2-0.9zm348.9 0.7c-0.7-0.2-1.1-0.8-0.9-1.5s0.8-1.1 1.5-0.9c0.7 0.1 1.1 0.8 1 1.5-0.1 0.6-0.7 1-1.2 1-0.2-0.1-0.3-0.1-0.4-0.1zm-350.5-10.6c0-0.7 0.2-1.3 0.8-1.4 0.7-0.1 1.2 0.3 1.3 1s-0.4 1.3-1.1 1.4c-0.1 0 0 0 0 0-0.5 0-1-0.4-1-1zm352.6 0.5c-0.7-0.1-1.1-0.7-1-1.7 0.1 0 0.8-0.9 1.4-0.8 0.7 0.1 1.1 0.9 1 1.6-0.1 0.6-0.6 1-1.2 1-0.1 0-0.2-0.1-0.2-0.1zm-354.3-10.5c-0.1-0.7 0.4-1.3 1.1-1.4s1.3 0.4 1.4 1.1-0.4 1.3-1.1 1.4h-0.1c-0.7 0-1.3-0.5-1.3-1.1zm355.7 0.9c-0.7-0.1-1.2-0.7-1.1-1.4s0.7-1.2 1.4-1.1 1.2 0.7 1.1 1.4c-0.1 0.6-0.6 1.1-1.2 1.1h-0.2zm-356.6-11.1c0-0.7 0.5-1.2 1.2-1.2s1.3 0.4 1.3 1.1-0.5 1.2-1.2 1.2h-0.1c-0.6-0.1-1.1-0.4-1.2-1.1zm357.5 1c-0.7 0-1.2-0.6-1.2-1.3s0.6-1.2 1.3-1.2 1.2 0.6 1.2 1.3c0 0.8-0.6 1.2-1.3 1.2 0.1 0 0 0 0 0zm-357.8-10.9c0-0.7 0.6-1.3 1.2-1.3 0.7 0 1.2 0.6 1.2 1.2 0 0.7-0.6 1.2-1.2 1.2-0.6 0.1-1.2-0.4-1.2-1.1zm356.9-0.2v-0.2-0.2c0-0.7 0.6-1.2 1.2-1.2 0.7 0 1.2 0.6 1.2 1.2v0.2 0.2c0 0.7-0.6 1.2-1.2 1.2s-1.2-0.6-1.2-1.2zm-355.4-8.9c-0.7 0-1.2-0.5-1.2-1.2s0.6-1.1 1.3-1.1 1.2 0.5 1.2 1.2c-0.1 0.7-0.6 1.1-1.3 1.1zm355.1-1.3c0-0.7 0.5-1.4 1.2-1.4s1.3 0.6 1.3 1.3-0.5 1.5-1.2 1.5h-0.1c-0.6-0.1-1.2-0.8-1.2-1.4zm-354.4-8.3c-0.7-0.1-1.2-0.7-1.1-1.4s0.7-1.2 1.4-1.1 1.2 0.7 1.1 1.4c-0.1 0.6-0.6 1.1-1.2 1.1h-0.2zm353.6-1.8c-0.1-0.7 0.4-1.3 1.1-1.4s1.3 0.4 1.4 1.1-0.4 1.3-1.1 1.4h-0.1c-0.7 0-1.3-0.5-1.3-1.1zm-352.3-8.2c-0.7-0.1-1.1-0.8-1-1.4 0.1-0.7 0.8-1.1 1.4-1 0.7 0.1 1.1 0.8 1 1.4s-0.6 1-1.2 1c0 0.1-0.1 0-0.2 0zm350.9-1.7c-0.1-0.7 0.3-1.3 1-1.4s1.3 0.3 1.4 1-0.3 1.3-1 1.4h-0.2c-0.6 0.1-1.1-0.4-1.2-1zm-349-8.1c-0.7-0.2-1.1-0.8-0.9-1.5 0.1-0.7 0.8-1.1 1.5-0.9s1.1 0.8 0.9 1.5c-0.1 0.6-0.6 1-1.2 1-0.1-0.1-0.2-0.1-0.3-0.1zm347-1.6c-0.2-0.7 0.3-1.3 0.9-1.5 0.7-0.2 1.4 0.3 1.5 0.9 0.2 0.7-0.3 1.4-0.9 1.5h-0.3c-0.6 0-1.1-0.3-1.2-0.9zm-344.6-8.1c-0.7-0.2-1-0.9-0.9-1.5 0.2-0.7 0.9-1 1.5-0.9 0.7 0.2 1 0.9 0.9 1.5-0.2 0.6-0.7 0.9-1.2 0.9h-0.3zm342.1-1.5c-0.2-0.7 0.2-1.4 0.8-1.5 0.7-0.2 1.4 0.2 1.5 0.8 0.2 0.7-0.2 1.4-0.8 1.6h-0.4c-0.4 0-0.9-0.4-1.1-0.9zm-339.2-8.1c-0.6-0.2-1-0.9-0.8-1.6s0.9-1 1.6-0.8 1 0.9 0.8 1.6c-0.2 0.5-0.7 0.8-1.2 0.8-0.1 0.1-0.2 0.1-0.4 0zm336.2-1.4c-0.2-0.6 0.1-1.4 0.8-1.6s1.4-0.2 1.6 0.8c0.2 0-0.1 1.4-0.8 1.6-0.1 0.1-0.3 0.1-0.4 0.1-0.6-0.1-1.1-0.4-1.2-0.9zm-332.7-8c-0.6-0.3-0.9-1-0.7-1.6 0.3-0.6 1-0.9 1.6-0.7 0.6 0.3 0.9 1 0.7 1.6-0.2 0.5-0.7 0.8-1.2 0.8 0 0-0.2 0-0.4-0.1zm328.7-1.3c0-0.6 0.2-1.4 0.9-1.6 0.6-0.3 1.5 0 1.7 0.7 0.3 0.6 0 1.4-0.6 1.6-0.2 0.1-0.5 0.1-0.6 0.1-0.5 0-0.4-0.3-1.4-0.8zm-324.6-7.8c-0.6-0.3-0.9-1-0.6-1.7 0.3-0.6 1-0.9 1.7-0.6 0.6 0.3 0.9 1 0.6 1.7-0.2 0.4-0.7 0.7-1.1 0.7-0.3 0-0.5-0.1-0.6-0.1zm320.9-1.2c-0.3-0.6 0-1.4 0.6-1.7s1.4 0 1.7 0.6 0 1.4-0.6 1.7c-0.2 0.1-0.4 0.1-0.6 0.1-0.4 0-0.9-0.2-1.1-0.7zm-316.4-7.8c-0.6-0.3-0.8-1.1-0.5-1.7s1.1-0.8 1.7-0.5 0.8 1.1 0.5 1.7c-0.2 0.4-0.7 0.6-1.1 0.6-0.2 0.1-0.4 0-0.6-0.1zm311.8-1c-0.3-0.6-0.1-1.1 0.5-1.5 0.6-0.3 1.4-0.3 1.7 0.7 0.3 0 0.1 1.1-0.5 1.5-0.2 0.1-0.4 0-0.6 0-0.4 0.1-0.8-0.3-1.1-0.7zm-306.8-7.6c-0.6-0.4-0.8-1.1-0.4-1.7s1.1-0.8 1.7-0.4 0.8 1.1 0.4 1.7c-0.2 0.4-0.6 0.6-1.1 0.6-0.1-0.1-0.4-0.1-0.6-0.2zm301.8-0.9c-0.4-0.6-0.2-1.4 0.4-1.7 0.6-0.4 1.4-0.2 1.7 0.4 0.4 0.6 0.2 1.4-0.4 1.7-0.2 0.1-0.4 0.2-0.7 0.2-0.4 0-0.8-0.3-1-0.6zm-296.3-7.5c-0.6-0.4-0.7-1.2-0.3-1.7 0.4-0.6 1.2-0.7 1.7-0.3 0.6 0.4 0.7 1.2 0.3 1.7-0.2 0.4-0.6 0.5-1 0.5-0.2 0-0.5-0.1-0.7-0.2zm290.7-0.8c-0.4-0.6-0.3-1.3 0.3-1.7s1.3-0.3 1.7 0.3 0.3 1.4-0.3 1.8c-0.2 0.1-0.5 0.2-0.7 0.2-0.3 0-0.7-0.2-1-0.6zm-284.7-7.3c-0.5-0.4-0.6-1.2-0.2-1.8 0.4-0.5 1.2-0.6 1.8-0.2 0.5 0.4 0.6 1.2 0.2 1.8-0.2 0.3-0.6 0.5-1 0.5-0.3 0-0.6-0.1-0.8-0.3zm278.7-0.6c-0.4-0.5-0.3-1.3 0.2-1.8 0.5-0.4 1.3-0.4 1.8 0.2 0.4 0.5 0.3 1.3-0.2 1.8-0.2 0.2-0.5 0.3-0.8 0.3s-0.7-0.2-1-0.5zm-272.3-7.1c-0.5-0.5-0.6-1.2-0.1-1.8 0.5-0.5 1.2-0.6 1.8-0.1 0.5 0.5 0.6 1.2 0.1 1.8-0.2 0.3-0.6 0.4-0.9 0.4-0.4 0.1-0.7 0-0.9-0.3zm265.9-0.5c-0.5-0.5-0.4-1.3 0.1-1.8s1.3-0.4 1.8 0.1 0.4 1.3-0.1 1.8c-0.2 0.2-0.5 0.3-0.8 0.3-0.4 0.1-0.7-0.1-1-0.4zm-259.1-6.8c-0.5-0.5-0.5-1.3 0-1.8s1.3-0.5 1.8 0 0.5 1.3 0 1.8c-0.2 0.2-0.6 0.4-0.9 0.4s-0.7-0.1-0.9-0.4zm252.3-0.4c-0.5-0.5-0.5-1.3 0-1.8s1.3-0.5 1.8 0 0.5 1.3 0 1.8c-0.2 0.2-0.6 0.4-0.9 0.4-0.4 0-0.7-0.1-0.9-0.4zm-245.1-6.5c-0.5-0.5-0.4-1.3 0.1-1.8s1.3-0.4 1.8 0.1 0.4 1.3-0.1 1.8c-0.2 0.2-0.5 0.3-0.8 0.3-0.4 0-0.7-0.1-1-0.4zm237.8-0.3c-0.5-0.5-0.6-1.2-0.1-1.8 0.5-0.5 1.2-0.6 1.8-0.1 0.5 0.5 0.6 1.2 0.1 1.8-0.2 0.3-0.6 0.4-0.9 0.4s-0.6-0.1-0.9-0.3zm-230.2-6.2c-0.4-0.5-0.4-1.3 0.2-1.8 0.5-0.4 1.3-0.4 1.8 0.2 0.4 0.5 0.3 1.3-0.2 1.8-0.2 0.2-0.5 0.3-0.8 0.3-0.4-0.1-0.8-0.2-1-0.5zm222.6-0.2c-0.5-0.4-0.6-1.2-0.2-1.8 0.4-0.5 1.2-0.6 1.8-0.2 0.5 0.4 0.6 1.2 0.2 1.8-0.2 0.3-0.6 0.5-1 0.5-0.3 0-0.5-0.1-0.8-0.3zm-214.5-5.9c-0.4-0.6-0.5-1.3 0.5-1.8 0-0.4 1.1-0.3 1.5 0.3s0.2 1.3-0.4 1.7c-0.2 0.2-0.4 0.2-0.7 0.2-0.3 0.1-0.6-0.1-0.9-0.4zm206.6-0.1c-0.6-0.4-0.7-1.2-0.3-1.7 0.4-0.6 1.2-0.7 1.7-0.3 0.6 0.4 0.7 1.2 0.3 1.8-0.2 0.3-0.6 0.5-1 0.5-0.2 0-0.5-0.1-0.7-0.3zm-198.5-5.6c-0.4-0.6-0.2-1.4 0.4-1.7 0.6-0.4 1.4-0.2 1.7 0.4 0.4 0.6 0.2 1.4-0.4 1.7-0.2 0.1-0.4 0.2-0.7 0.2-0.4 0-0.8-0.2-1-0.6zm190.2 0.1c-0.6-0.4-0.8-1.1-0.4-1.7s1.1-0.8 1.7-0.4 0.8 1.1 0.4 1.7c-0.2 0.4-0.7 0.6-1.1 0.6-0.2 0-0.4 0-0.6-0.2zm-181.6-5.2c-0.3-0.6-0.1-1.4 0.5-1.7s1.4-0.1 1.7 0.5 0.1 1.4-0.5 1.7c-0.2 0.1-0.4 0.2-0.6 0.2-0.5-0.1-0.9-0.3-1.1-0.7zm173 0.2c-0.6-0.3-0.8-1.1-0.5-1.7s1.1-0.8 1.7-0.5 0.8 1.1 0.5 1.7c-0.2 0.4-0.6 0.6-1.1 0.6-0.2 0-0.4 0-0.6-0.1zm-164.2-4.9c-0.3-0.6-0.1-1.4 0.6-1.7 0.6-0.3 1.4 0 1.7 0.6s0 1.4-0.6 1.7c-0.2 0.1-0.4 0.1-0.6 0.1-0.4 0-0.9-0.2-1.1-0.7zm155.4 0.3c-0.6-0.3-0.9-1.1-0.6-1.7s1-0.9 1.7-0.6c0.6 0.3 0.9 1.1 0.6 1.7-0.2 0.5-0.7 0.7-1.1 0.7-0.2 0-0.4 0-0.6-0.1zm-146.3-4.5c-0.3-0.6 0-1.4 0.7-1.6 0.6-0.3 1.4 0 1.6 0.7 0.3 0.6 0 1.4-0.7 1.6-0.2 0.1-0.3 0.1-0.5 0.1-0.5 0-0.9-0.3-1.1-0.8zm136.9 0.5c0-0.3-0.8-1-0.5-1.6s1.1-0.9 1.7-0.7c0.6 0.3 1 1 0.7 1.6-0.2 0.5-0.8 0.8-1.3 0.8-0.1 0-0.6-0.1-0.6-0.1zm-127.6-4.1c-0.2-0.6 0.1-1.4 0.8-1.6s1.4 0.1 1.6 0.8c0.2 0.6-0.1 1.4-0.8 1.6-0.1 0.1-0.3 0.1-0.4 0.1-0.6-0.1-1-0.4-1.2-0.9zm118.6 0.5c-0.7-0.2-1-0.9-0.8-1.6 0.2-0.6 0.9-1 1.6-0.8s1 0.9 0.8 1.6c-0.2 0.5-0.7 0.8-1.2 0.8-0.1 0.1-0.3 0.1-0.4 0zm-109.1-3.6c-0.2-0.7 0.2-1.4 0.9-1.5 0.7-0.2 1.4 0.2 1.5 0.9 0.2 0.7-0.2 1.4-0.9 1.5h-0.3c-0.6 0-1.1-0.4-1.2-0.9zm99.6 0.6c-0.7-0.2-1-0.9-0.9-1.6 0.2-0.7 0.9-1 1.5-0.9 0.7 0.2 1 0.9 0.9 1.6-0.2 0.5-0.7 0.9-1.2 0.9 0 0.1-0.2 0.1-0.3 0zm-89.9-3.2c-0.2-0.7 0.3-1.3 0.9-1.5 0.7-0.1 1.3 0.3 1.5 0.9 0.1 0.7-0.3 1.3-0.9 1.5h-0.3c-0.6 0.1-1.1-0.3-1.2-0.9zm80.3 0.8c-0.7-0.1-1.1-0.8-1-1.5 0.2-0.7 0.8-1.1 1.5-0.9 0.7 0.1 1.1 0.8 0.9 1.5-0.1 0.6-0.6 1-1.2 1 0-0.1-0.1-0.1-0.2-0.1zm-70.5-2.8c-0.1-0.7 0.3-1.3 1-1.4s1.3 0.3 1.4 1-0.3 1.3-1 1.4h-0.2c-0.6 0-1.1-0.4-1.2-1zm60.7 0.9c-0.7-0.1-1.1-0.8-1-1.4 0.1-0.7 0.8-1.1 1.4-1 0.7 0.1 1.1 0.8 1 1.4s-0.6 1-1.2 1h-0.2zm-50.9-2.4c-0.1-0.7 0.4-1.3 1.1-1.4s1.3 0.4 1.4 1.1-0.4 1.3-1.1 1.4h-0.1c-0.6 0-1.2-0.5-1.3-1.1zm41.1 1.3c-0.7 0-1.2-0.9-1.1-1.5 0.1-0.7 0.7-1.3 1.4-1.2s1.2 0.8 1.1 1.5c-0.1 0.6-0.6 1.2-1.2 1.2h-0.2zm-31.1-2.2c0-0.7 0.5-1.3 1.2-1.3s1.3 0.5 1.3 1.2-0.5 1.4-1.2 1.4h-0.1c-0.6-0.1-1.2-0.6-1.2-1.3zm21.2 1.2c-0.7 0-1.2-0.7-1.2-1.4s0.6-1.3 1.3-1.2c0.7 0 1.2 0.7 1.2 1.4s-0.6 1.2-1.3 1.2zm-9.9-0.3zm-1.3-1.3c0-0.7 0.5-1.3 1.2-1.3s1.2 0.6 1.2 1.3-0.6 1.2-1.2 1.2-1.2-0.6-1.2-1.2z" fill="#272c33"/>
</g>
<g id="change4" fill="#272c33">
	<circle cy="165.4" cx="238.4" r="2.7"/>
	<circle cy="165.4" cx="115.4" r="2.7"/>
</g>
<g id="t_center">
	<rect y="223.5" x="17.5" height="90.6" width="324.1" fill="none"/>
	<text font-size="63px" font-family="&apos;Sacramento-Regular&apos;" transform="translate(29.517 264.72)" fill="#272c33">Little Things</text>
	<rect y="203.7" x="17.5" height="110.4" width="324.1" fill="none"/>
</g>
<g id="t_center_1_">
	<rect y="137.3" x="130.1" height="64.7" width="92.3" fill="none"/>
	<text font-size="34px" font-family="&apos;Oswald-Regular&apos;" transform="translate(151.6 167.06)" fill="#272c33">THE</text>
	<rect y="137.7" x="130.4" height="65" width="92.1" fill="none"/>
</g>
<g id="t_center_2_">
	<g>
		<rect y="302.8" x="64.4" height="74.1" width="226.5" fill="none"/>
		<text font-size="25px" font-family="&apos;Oswald&apos;" transform="translate(102.91 324.7)" fill="#272c33">ARTS &amp; CRAFTS </text>
	</g>
	<rect y="305.8" x="64.4" height="74.1" width="226.5" fill="none"/>
</g>
</svg>
