<?xml version="1.0" encoding="UTF-8" standalone="no"?>
<!DOCTYPE svg  PUBLIC '-//W3C//DTD SVG 1.1//EN'  'http://www.w3.org/Graphics/SVG/1.1/DTD/svg11.dtd'>
<!-- Generator: Adobe Illustrator 19.1.0, SVG Export Plug-In . SVG Version: 6.00 Build 0)  -->
<svg id="Layer_1" xmlns="http://www.w3.org/2000/svg" xml:space="preserve" viewBox="-316 202.1 439.3 439.3" version="1.1" y="0px" x="0px" enable-background="new -316 202.1 439.3 439.3">
<g id="change1">
	<path d="m123.3 421.8c0 28.4-24.9 51.7-35.1 76.4-10.6 25.6-9.9 59.6-29.2 78.9s-53.3 18.6-78.9 29.2c-24.7 10.3-48 35.1-76.4 35.1s-51.7-24.9-76.4-35.1c-25.6-10.6-59.6-9.9-78.9-29.2s-18.6-53.3-29.2-78.9c-10.3-24.7-35.2-48-35.2-76.4s24.9-51.7 35.1-76.4c10.6-25.6 9.9-59.6 29.2-78.9s53.3-18.6 78.9-29.2c24.8-10.3 48-35.2 76.5-35.2 28.4 0 51.7 24.9 76.4 35.1 25.6 10.6 59.6 9.9 78.9 29.2s18.6 53.3 29.2 78.9c10.2 24.8 35.1 48 35.1 76.5z" fill="#fff"/>
</g>
<g id="change2">
	<path d="m-96.2 627.8c-17.1 0-32-10-46.5-19.7-8.4-5.6-16.4-11-24.7-14.4-8.8-3.6-18.9-5.7-28.7-7.7-16.8-3.4-34.2-7-45.7-18.5s-15-28.9-18.5-45.7c-2-9.8-4.1-20-7.7-28.7-3.4-8.3-8.8-16.3-14.4-24.7-9.6-14.5-19.6-29.4-19.6-46.5s10-32 19.7-46.5c5.6-8.4 11-16.4 14.4-24.7 3.6-8.8 5.7-18.9 7.7-28.7 3.4-16.8 7-34.2 18.5-45.7s28.9-15 45.7-18.5c9.8-2 20-4.1 28.7-7.7 8.3-3.4 16.3-8.8 24.7-14.4 14.4-9.6 29.4-19.6 46.4-19.6s32 10 46.4 19.7c8.4 5.6 16.4 11 24.7 14.4 8.8 3.6 18.9 5.7 28.7 7.7 16.8 3.4 34.2 7 45.7 18.5s15 28.9 18.5 45.7c2 9.8 4.1 20 7.7 28.7 3.4 8.3 8.8 16.3 14.4 24.7 9.7 14.4 19.7 29.4 19.7 46.4 0 17.1-10 32-19.7 46.4-5.6 8.4-11 16.4-14.4 24.7-3.6 8.8-5.7 18.9-7.7 28.7-3.4 16.8-7 34.2-18.5 45.7s-28.9 15-45.7 18.5c-9.8 2-20 4.1-28.7 7.7-8.3 3.4-16.3 8.8-24.7 14.4-14.4 9.8-29.3 19.8-46.4 19.8zm0-409.7c-16.5 0-31.1 9.8-45.3 19.3-8.1 5.4-16.5 11.1-25 14.6-8.9 3.7-19.2 5.8-29.1 7.8-16.5 3.4-33.6 6.9-44.7 17.9-11.1 11.1-14.6 28.1-17.9 44.7-2 9.9-4.1 20.2-7.8 29.1-3.5 8.5-9.2 16.9-14.6 25-9.6 14.3-19.4 29-19.4 45.4s9.8 31.1 19.3 45.3c5.4 8.1 11.1 16.5 14.6 25 3.7 8.9 5.8 19.2 7.8 29.1 3.4 16.5 6.9 33.6 17.9 44.7 11.1 11.1 28.1 14.6 44.7 17.9 9.9 2 20.2 4.1 29.1 7.8 8.5 3.5 16.9 9.2 25 14.6 14.2 9.5 28.9 19.3 45.3 19.3s31.1-9.8 45.3-19.3c8.1-5.4 16.5-11.1 25-14.6 8.9-3.7 19.2-5.8 29.1-7.8 16.5-3.4 33.6-6.9 44.7-17.9 11.1-11.1 14.6-28.1 17.9-44.7 2-9.9 4.1-20.2 7.8-29.1 3.5-8.5 9.2-16.9 14.6-25 9.5-14.2 19.3-28.9 19.3-45.3 0-16.5-9.8-31.1-19.3-45.3-5.5-8.1-11.1-16.5-14.6-25-3.7-8.9-5.8-19.2-7.8-29.1-3.4-16.5-6.9-33.6-17.9-44.7-11.1-11.1-28.1-14.6-44.7-17.9-9.9-2-20.2-4.1-29.1-7.8-8.5-3.5-16.9-9.2-25-14.6-14-9.6-28.7-19.4-45.2-19.4z" fill="#272c33"/>
</g>
<g id="t_center">
	<rect y="500" x="-226.3" height="47.3" width="264" fill="none"/>
	<g>
		<rect y="500" x="-226.3" height="47.3" width="264" fill="none"/>
		<text font-size="19px" font-family="&apos;Gidole-Regular&apos;" transform="translate(-192.94 514.52)" fill="#272c33">BEST QUALITY APPAREL</text>
	</g>
</g>
<g id="t_center_1_">
	<rect y="370.2" x="-237.3" height="134.3" width="288" fill="none"/>
	<text font-size="93px" font-family="&apos;Granaina-limpia&apos;" transform="translate(-236.7 438.11)" fill="#272c33">SPIRITED</text>
	<rect y="342.2" x="-237.3" height="156" width="288" fill="none"/>
</g>
<g id="t_center_2_">
	<g>
		<rect y="303.6" x="-227.3" height="35.6" width="264" fill="none"/>
		<text font-size="19px" font-family="&apos;Gidole-Regular&apos;" transform="translate(-140.41 318.12)" fill="#272c33">SINCE 1991</text>
	</g>
	<rect y="291.9" x="-227.3" height="47.3" width="264" fill="none"/>
</g>
</svg>
