<?xml version="1.0" encoding="UTF-8" standalone="no"?>
<!DOCTYPE svg  PUBLIC '-//W3C//DTD SVG 1.1//EN'  'http://www.w3.org/Graphics/SVG/1.1/DTD/svg11.dtd'>
<!-- Generator: Adobe Illustrator 19.1.0, SVG Export Plug-In . SVG Version: 6.00 Build 0)  -->
<svg id="Layer_1" xmlns="http://www.w3.org/2000/svg" xml:space="preserve" viewBox="-434 320.6 393.8 393.8" version="1.1" y="0px" x="0px" enable-background="new -434 320.6 393.8 393.8">
<g id="change1">
	<path d="m-40.2 520.5c0-7.7-3.9-15-8-22.2 2.5-8.1 4.8-16.2 3.2-23.7-1.6-7.2-6.7-13.2-12.1-19.1 0.4-7.3 0.4-14.4-2.5-20.4-3.1-6.4-9.1-11.1-15.4-15.5-1.3-8.8-2.6-17.6-7.7-24.1-4.9-6.2-12.8-9.5-20.8-12.7-2.7-6.3-5.7-12.2-10.7-16.2-5.1-4.1-11.8-5.8-18.7-7-5.1-7.5-10.3-15.3-18-19.1-7.4-3.6-16.6-2.8-25.7-2.2-5.1-4.5-10.4-8.4-16.6-9.8-5.9-1.3-12.2-0.1-18.6 1.7-8.1-4.6-16-9.4-24.4-9.6-8.9-0.1-17.2 5.1-25.6 9.8-6.6-1.9-13.1-3.2-19.2-1.9-5.8 1.3-10.8 4.9-15.6 9-8.8-0.6-17.6-1.3-25 2.2-7.9 3.7-13.2 12-18.6 19.8-7.4 1.2-14.5 2.9-19.8 7.1-4.8 3.7-7.8 9.3-10.3 15.2-7.7 3.1-15.2 6.3-19.9 12.3-5.4 6.5-6.6 15.7-8.1 24.8-6.7 4.6-13.1 9.4-16.3 16.2-2.8 5.7-3 12.5-2.6 19.4-5.1 5.6-9.8 11.4-11.5 18.4-1.8 8 0.6 16.3 3.1 24.6-4.2 7.4-8.4 14.9-8.4 23 0 7.1 3.2 13.7 6.9 20.3-1.9 6.7-3.3 13.4-2 19.7 1.6 7.3 6.9 13.5 12.3 19.5-0.6 9.2-1.5 18.3 2.2 25.9 3.2 6.8 9.7 11.6 16.4 16.2 1.2 6.5 2.8 12.6 6.6 17.4 4.3 5.4 11 8.6 17.9 11.5 3.5 8.8 6.8 17.9 13.7 23.4 6.3 5 14.8 6.4 23.3 7.8 3.7 5.1 7.9 9.7 13.3 12.3 5.8 2.8 12.6 2.9 19.6 2.6 7.1 6.5 14.1 13.4 22.8 15.4 8.1 1.8 16.8-1.1 25.5-3.7 5.7 3.1 11.4 5.5 17.4 5.6 6.4 0.1 12.6-2.6 18.6-5.9 9 2.7 18 5.8 26.3 4 8.3-1.9 15.1-8.4 21.8-14.6 6.6 0.3 13.1 0.1 18.7-2.6s9.9-7.6 13.9-13c9-1.5 18.1-2.8 24.6-7.9 6.6-5.2 9.8-13.8 13.2-22.3 6.6-2.7 12.9-5.8 17.1-11 4.1-5 5.8-11.5 7-18.4 7-4.8 13.9-9.8 17.3-16.8 3.5-7.2 2.9-15.9 2.3-24.7 5.3-5.8 10.3-11.7 11.9-18.9 1.5-6.8 0-13.8-2-20.9 3.8-6.7 7.2-13.6 7.2-20.9z" fill="#fff"/>
</g>
<g id="change2">
	<circle cy="517.7" cx="-236.9" r="171.9" fill="#fff"/>
</g>
<g id="change3_1_">
	<path d="m-236.9 690.6c-95.4 0-172.9-77.6-172.9-172.9 0-95.4 77.6-172.9 172.9-172.9 95.4 0 172.9 77.6 172.9 172.9 0 95.4-77.6 172.9-172.9 172.9zm0-343.8c-94.3 0-170.9 76.7-170.9 170.9 0 94.3 76.7 170.9 170.9 170.9 94.3 0 170.9-76.7 170.9-170.9s-76.7-170.9-170.9-170.9z" fill="#272c33"/>
</g>
<g id="t_center">
	<rect y="446.2" x="-396" height="84.4" width="318" fill="none"/>
	<text font-size="55.5px" font-family="&apos;Montserrat-Light&apos;" transform="matrix(1.0489 0 0 1 -365.21 493.37)" fill="#272c33">CORNER</text>
</g>
<g id="t_center_1_">
	<text font-size="51px" font-family="&apos;Montserrat-Light&apos;" transform="translate(-359.99 549.65)" fill="#272c33">bakeshop</text>
	<rect y="506.3" x="-396" height="73.1" width="318" fill="none"/>
</g>
<g id="t_center_2_">
	<text font-size="22px" font-family="&apos;Montserrat-Light&apos;" transform="translate(-257.91 435.3)" fill="#272c33">THE</text>
	<rect y="416.6" x="-278.2" height="36.4" width="84.8" fill="none"/>
</g>
<g id="t_center_3_">
	<text font-size="14px" font-family="&apos;Montserrat-Light&apos;" transform="matrix(.9443 0 0 1 -324.99 617.5)" fill="#272c33">FRESHLY BAKED BREADS</text>
	<rect y="605.6" x="-333.1" height="30" width="185.6" fill="none"/>
</g>
<g id="change5" fill="#272c33">
	<circle cy="619.4" cx="-134" r="1.7"/>
	<circle cy="619.4" cx="-346.1" r="1.7"/>
</g>
<g id="change4" fill="#272c33">
	<rect y="432.2" x="-189.6" height="1.5" width="71.9"/>
	<rect y="432.2" x="-354" height="1.5" width="71.9"/>
	<rect y="585.9" x="-354" height="1.5" width="236.3"/>
</g>
</svg>
