<?xml version="1.0" encoding="UTF-8" standalone="no"?>
<!DOCTYPE svg  PUBLIC '-//W3C//DTD SVG 1.1//EN'  'http://www.w3.org/Graphics/SVG/1.1/DTD/svg11.dtd'>
<!-- Generator: Adobe Illustrator 18.1.1, SVG Export Plug-In . SVG Version: 6.00 Build 0)  -->
<svg id="Layer_1" xmlns="http://www.w3.org/2000/svg" xml:space="preserve" viewBox="155.6 325.8 612.4 625.9" version="1.1" y="0px" x="0px" enable-background="new 155.6 325.8 612.4 625.9">
<g id="change1">
	<g>
		<path d="m759.6 675.7c-15.1-20.4-15.1-53.9 0-74.1 15.1-20.4 9.2-46.7-13.5-58.8-22.4-11.8-36.9-42-32.2-66.9s-12.2-46.1-37.5-46.9c-25.3-1-51.4-21.8-57.9-46.3s-31-36.3-54.3-26.1-55.7 2.9-72.2-16.5c-16.5-19.2-43.7-19.2-60.2 0s-49 26.5-72.2 16.5c-23.3-10-47.7 1.6-54.5 26.1-6.7 24.5-32.6 45.3-57.9 46.3s-42.2 22-37.5 46.9-9.8 55.1-32.2 66.9-28.4 38.4-13.5 58.8c14.9 20.4 15.1 53.9 0 74.1-15.1 20.4-9.2 46.7 13.5 58.8s36.9 42 32.2 66.9c-4.9 24.9 12.2 46.1 37.5 46.9 25.3 1 51.4 21.8 57.9 46.3s31 36.3 54.3 26.1 55.7-2.9 72.2 16.5c16.5 19.2 43.7 19.2 60.2 0s49-26.5 72.2-16.5c23.3 10.2 47.5-1.6 54.3-26.1 6.5-24.5 32.6-45.3 57.9-46.3s42.2-22 37.5-46.9 9.8-55.1 32.2-66.9c22.9-12.1 28.8-38.4 13.7-58.8z" fill="#fff"/>
	</g>
</g>
<g id="T_Center_2_">
	<rect y="569.6" x="183.1" height="199.1" width="557.7" fill="none"/>
	<text font-size="199.65" font-family="&apos;LeagueGothic-Regular&apos;" transform="translate(202.1 716.24)" fill="#272c33">ATLANTIC</text>
	<rect y="564.8" x="177.4" height="208.3" width="569.3" fill="none"/>
</g>
<g id="T_Center">
	<rect y="736.3" x="221.7" height="98.7" width="480.2" fill="none"/>
	<text font-size="62.325" font-family="&apos;LeagueGothic-Regular&apos;" transform="translate(356.48 782.11)" fill="#272c33">TRADING CO.</text>
	<rect y="729.4" x="217" height="112.6" width="488" fill="none"/>
</g>
<g id="T_Center_1_">
	<rect y="507.6" x="323.3" height="81.4" width="277.4" fill="none"/>
	<text font-size="68.921" font-family="&apos;GreatVibes-Regular&apos;" transform="translate(410.49 550.9)" fill="#272c33">The</text>
	<rect y="500.9" x="318.6" height="95.9" width="287.2" fill="none"/>
</g>
</svg>
