<?xml version="1.0" encoding="UTF-8" standalone="no"?>
<!DOCTYPE svg  PUBLIC '-//W3C//DTD SVG 1.1//EN'  'http://www.w3.org/Graphics/SVG/1.1/DTD/svg11.dtd'>
<!-- Generator: Adobe Illustrator 19.1.0, SVG Export Plug-In . SVG Version: 6.00 Build 0)  -->
<svg id="Layer_1" xmlns="http://www.w3.org/2000/svg" xml:space="preserve" viewBox="-61 62.5 376.5 376.5" version="1.1" y="0px" x="0px" enable-background="new -61 62.5 376.5 376.5">
<g id="change1">
	<polygon points="315.5 250.7 298.7 267.6 311.9 287.5 292.1 300.8 301.2 322.8 279.2 332 283.8 355.3 260.4 360 260.4 383.9 236.5 383.9 231.8 407.3 208.5 402.7 199.3 424.7 177.3 415.6 164 435.4 144.1 422.2 127.2 439 110.4 422.2 90.5 435.4 77.2 415.6 55.2 424.7 46 402.7 22.6 407.3 18 383.9 -5.9 383.9 -5.9 360 -29.3 355.3 -24.7 332 -46.7 322.8 -37.6 300.8 -57.4 287.5 -44.2 267.6 -61 250.7 -44.2 233.9 -57.4 214 -37.6 200.7 -46.7 178.7 -24.7 169.5 -29.3 146.1 -5.9 141.5 -5.9 117.6 18 117.6 22.6 94.2 46 98.8 55.2 76.8 77.2 85.9 90.5 66.1 110.4 79.3 127.2 62.5 144.1 79.3 164 66.1 177.3 85.9 199.3 76.8 208.5 98.8 231.8 94.2 236.5 117.6 260.4 117.6 260.4 141.5 283.8 146.1 279.2 169.5 301.2 178.7 292.1 200.7 311.9 214 298.7 233.9" fill="#fff"/>
</g>
<g id="change2">
	<path d="m127 409.8c-87.5 0-158.7-71.2-158.7-158.7s71.3-158.6 158.7-158.6 158.7 71.2 158.7 158.7-71.2 158.6-158.7 158.6zm0-315.3c-86.4 0-156.7 70.3-156.7 156.7s70.4 156.6 156.7 156.6 156.7-70.3 156.7-156.6-70.3-156.7-156.7-156.7z" fill="#272c33"/>
</g>
<g id="change3">
	<rect y="259.4" x="-2.1" height="2" width="258" fill="#272c33"/>
</g>
<g id="t_center_1_">
	<g>
		<rect y="260.3" x="-7.1" height="63.6" width="268" fill="none"/>
		<text font-size="27.5px" font-family="&apos;TenorSans&apos;" transform="translate(-2.9218 279.51)" fill="#272c33">Swiss Ice Creamery </text>
	</g>
	<rect y="260.3" x="-2.1" height="63.6" width="258" fill="none"/>
</g>
<g id="t_center">
	<g>
		<rect y="197.4" x="-11.6" height="68.7" width="274.7" fill="none"/>
		<text font-size="38px" font-family="&apos;TenorSans&apos;" transform="translate(-5.4482 229.69)" fill="#272c33">SERENDIPITY</text>
	</g>
	<rect y="203.1" x="-11.6" height="63" width="274.7" fill="none"/>
</g>
</svg>
