<?xml version="1.0" encoding="UTF-8" standalone="no"?>
<!DOCTYPE svg  PUBLIC '-//W3C//DTD SVG 1.1//EN'  'http://www.w3.org/Graphics/SVG/1.1/DTD/svg11.dtd'>
<!-- Generator: Adobe Illustrator 18.1.1, SVG Export Plug-In . SVG Version: 6.00 Build 0)  -->
<svg id="Layer_1" xmlns="http://www.w3.org/2000/svg" xml:space="preserve" viewBox="164.7 -144 479.9 479.9" version="1.1" y="0px" x="0px" enable-background="new 164.7 -144 479.9 479.9">
<g id="Layer_1_1_">
	<g id="change1" fill="#fff">
		<path d="m404.6-109.6c-113.3 0-205.6 92.2-205.6 205.6s92.2 205.6 205.6 205.6 205.7-92.2 205.7-205.6c0-113.4-92.3-205.6-205.7-205.6z"/>
		<path d="m403.7 335.9h1.8v-22.2h-1.8v22.2z"/>
		<path d="m405.6-144h-1.8v22.2h1.8v-22.2z"/>
		<path d="m386.2-121h0.4l-1.9-22.1-1.8 0.2 1.9 22.1c0.4-0.1 0.9-0.2 1.4-0.2z"/>
		<path d="m423.1 312.9h-0.4l1.9 22.1 1.8-0.2-1.9-22.1c-0.4 0.2-0.9 0.2-1.4 0.2z"/>
		<path d="m367.7-118.6l-3.9-21.9-1.8 0.3 3.9 21.9 1.8-0.3z"/>
		<path d="m441.6 310.6l3.9 21.9 1.8-0.3-3.9-21.9-1.8 0.3z"/>
		<path d="m347.9-114.3c0.4-0.1 0.8-0.2 1.3-0.4l-5.7-21.4-1.8 0.5 5.7 21.4c0.2 0 0.3-0.1 0.5-0.1z"/>
		<path d="m461.4 306.2c-0.4 0.1-0.9 0.3-1.3 0.4l5.7 21.4 1.8-0.5-5.7-21.4c-0.2 0.1-0.3 0.1-0.5 0.1z"/>
		<path d="m478.3 301l7.6 20.8 1.7-0.6-7.6-20.8c-0.6 0.1-1.1 0.4-1.7 0.6z"/>
		<path d="m331-109l-7.6-20.8-1.7 0.6 7.6 20.8c0.6-0.2 1.1-0.4 1.7-0.6z"/>
		<path d="m496.2 293.6c-0.1 0.1-0.3 0.1-0.4 0.2l9.4 20.1 1.7-0.8-9.4-20.1c-0.4 0.2-0.8 0.4-1.3 0.6z"/>
		<path d="m313-101.6c0.1-0.1 0.3-0.1 0.4-0.2l-9.4-20.1-1.7 0.8 9.4 20.1c0.5-0.2 0.9-0.4 1.3-0.6z"/>
		<path d="m512.7 285l11.1 19.2 1.6-0.9-11.1-19.2c-0.5 0.3-1 0.6-1.6 0.9z"/>
		<path d="m296.6-93.1l-11.1-19.2-1.6 0.9 11.1 19.2c0.5-0.3 1-0.6 1.6-0.9z"/>
		<path d="m528.8 274.9l12.7 18.2 1.5-1.1-12.7-18.2c-0.5 0.4-1 0.7-1.5 1.1z"/>
		<path d="m280.5-82.9l-12.7-18.2-1.5 1.1 12.7 18.1c0.5-0.3 1-0.7 1.5-1z"/>
		<path d="m264.4-70.6c0.3-0.3 0.7-0.6 1-0.9l-14.3-17-1.4 1.2 14.3 17c0.1 0 0.2-0.2 0.4-0.3z"/>
		<path d="m544.9 262.5c-0.3 0.3-0.7 0.6-1 0.9l14.3 17 1.4-1.2-14.3-17c-0.1 0.1-0.2 0.2-0.4 0.3z"/>
		<path d="m235.6-74.4l-1.3 1.3 15.7 15.8 1.3-1.3-15.7-15.8z"/>
		<path d="m573.7 266.3l1.3-1.3-15.7-15.7-1.3 1.3 15.7 15.7z"/>
		<path d="m587.9 250.9l1.2-1.4-17-14.3c-0.3 0.3-0.6 0.6-0.9 1-0.1 0.1-0.2 0.3-0.4 0.4l17.1 14.3z"/>
		<path d="m221.4-59l-1.2 1.4 17 14.3c0.3-0.3 0.6-0.7 0.9-1 0.1-0.1 0.2-0.3 0.3-0.4l-17-14.3z"/>
		<path d="m600.7 234.4l1.1-1.5-18.2-12.7c-0.3 0.5-0.7 0.9-1 1.4l-0.1 0.1 18.2 12.7z"/>
		<path d="m208.6-42.4l-1.1 1.5 18.2 12.7c0.3-0.5 0.7-1 1.1-1.5l-18.2-12.7z"/>
		<path d="m197.3-24.8l-0.9 1.6 19.2 11.1c0.3-0.5 0.6-1.1 0.9-1.6l-19.2-11.1z"/>
		<path d="m612 216.8l0.9-1.6-19.2-11.1c-0.3 0.5-0.6 1.1-0.9 1.6l19.2 11.1z"/>
		<path d="m187.6-6.3l-0.8 1.7 20.1 9.4c0.1-0.1 0.1-0.3 0.2-0.4 0.2-0.4 0.4-0.9 0.6-1.3l-20.1-9.4z"/>
		<path d="m621.7 198.2l0.8-1.7-20.1-9.4c-0.1 0.1-0.1 0.3-0.2 0.4-0.2 0.4-0.4 0.9-0.6 1.3l20.1 9.4z"/>
		<path d="m179.5 13l-0.6 1.7 20.8 7.6c0.2-0.6 0.4-1.2 0.6-1.7l-20.8-7.6z"/>
		<path d="m629.8 178.9l0.6-1.7-20.8-7.6c-0.2 0.6-0.4 1.2-0.6 1.7l20.8 7.6z"/>
		<path d="m172.6 34.8l21.4 5.7c0.1-0.4 0.2-0.8 0.4-1.3 0.1-0.2 0.1-0.3 0.2-0.5l-21.5-5.7-0.5 1.8z"/>
		<path d="m636.7 157.2l-21.4-5.7c-0.1 0.4-0.2 0.9-0.4 1.3 0 0.2-0.1 0.3-0.1 0.5l21.4 5.7 0.5-1.8z"/>
		<path d="m618.9 134.7l21.9 3.9 0.3-1.8-21.9-3.9c0 0.6-0.1 1.2-0.3 1.8z"/>
		<path d="m190.4 57.3l-21.9-3.9-0.3 1.8 21.9 3.9c0-0.6 0.1-1.2 0.3-1.8z"/>
		<path d="m621.6 114.3c0 0.5-0.1 1-0.1 1.5l22.1 1.9 0.2-1.8-22.1-1.9-0.1 0.3z"/>
		<path d="m187.7 77.6c0-0.5 0.1-1 0.1-1.5l-22.1-1.9-0.2 1.8 22.1 1.9c0.1-0.1 0.1-0.2 0.1-0.3z"/>
		<path d="m644.6 96.9v-1.8h-22.2v0.9 0.9h22.2z"/>
		<path d="m186.9 95.1h-22.2v1.8h22.2v-0.9-0.9z"/>
		<path d="m187.7 114l-22.1 1.9 0.2 1.8 22.1-1.9c0-0.5-0.1-1-0.1-1.4-0.1-0.1-0.1-0.2-0.1-0.4z"/>
		<path d="m621.6 77.9l22.1-1.9-0.2-1.8-22.1 1.9c0 0.5 0.1 1 0.1 1.5l0.1 0.3z"/>
		<path d="m168.2 136.7l0.3 1.8 21.9-3.9-0.3-1.8-21.9 3.9z"/>
		<path d="m641.1 55.2l-0.3-1.8-21.9 3.9 0.3 1.8 21.9-3.9z"/>
		<path d="m615.3 40.5l21.4-5.7-0.5-1.8-21.4 5.7c0 0.2 0.1 0.3 0.1 0.5 0.1 0.4 0.3 0.9 0.4 1.3z"/>
		<path d="m194 151.5l-21.4 5.7 0.5 1.8 21.4-5.7c-0.1-0.2-0.1-0.4-0.2-0.5-0.1-0.5-0.2-0.9-0.3-1.3z"/>
		<path d="m178.9 177.2l0.6 1.7 20.8-7.6c-0.2-0.6-0.4-1.1-0.6-1.7l-20.8 7.6z"/>
		<path d="m630.5 14.8l-0.6-1.7-20.9 7.5c0.2 0.6 0.4 1.2 0.6 1.7l20.9-7.5z"/>
		<path d="m206.9 187.2l-20.1 9.4 0.8 1.7 20.1-9.4c-0.2-0.4-0.4-0.9-0.6-1.3-0.1-0.2-0.2-0.3-0.2-0.4z"/>
		<path d="m602.4 4.8l20.1-9.4-0.8-1.7-20.1 9.4c0.2 0.4 0.4 0.8 0.6 1.3 0.1 0.1 0.2 0.2 0.2 0.4z"/>
		<path d="m196.4 215.2l0.9 1.6 19.2-11.1c-0.3-0.5-0.6-1.1-0.9-1.6l-19.2 11.1z"/>
		<path d="m612.9-23.2l-0.9-1.6-19.2 11.1c0.3 0.5 0.6 1.1 0.9 1.6l19.2-11.1z"/>
		<path d="m207.6 232.9l1.1 1.5 18.2-12.7c-0.4-0.5-0.7-1-1.1-1.5l-18.2 12.7z"/>
		<path d="m601.7-40.9l-1.1-1.5-18.2 12.7 0.1 0.1c0.3 0.5 0.7 0.9 1 1.4l18.2-12.7z"/>
		<path d="m589.1-57.6l-1.2-1.4-17 14.3c0.1 0.1 0.2 0.3 0.4 0.4 0.3 0.3 0.6 0.7 0.9 1l16.9-14.3z"/>
		<path d="m220.2 249.5l1.2 1.4 17-14.3c-0.1-0.1-0.2-0.3-0.4-0.4-0.3-0.3-0.6-0.6-0.9-1l-16.9 14.3z"/>
		<path d="m575-73l-1.3-1.3-15.7 15.7 1.3 1.3 15.7-15.7z"/>
		<path d="m234.3 265l1.3 1.3 15.7-15.7-1.3-1.3-15.7 15.7z"/>
		<path d="m558.2-88.4l-14.3 17c0.3 0.3 0.7 0.6 1 0.9 0.1 0.1 0.3 0.2 0.4 0.3l14.3-17-1.4-1.2z"/>
		<path d="m251.1 280.4l14.3-17c-0.3-0.3-0.7-0.6-1-0.9-0.1-0.1-0.3-0.2-0.4-0.3l-14.3 17 1.4 1.2z"/>
		<path d="m541.5-101.1l-12.7 18.2c0.5 0.3 1 0.7 1.4 1h0.1l12.7-18.2-1.5-1z"/>
		<path d="m267.8 293.1l12.7-18.2c-0.5-0.3-0.9-0.7-1.4-1l-0.1-0.1-12.7 18.2 1.5 1.1z"/>
		<path d="m523.8-112.3l-11.1 19.2c0.5 0.3 1.1 0.6 1.6 0.9l11.1-19.2-1.6-0.9z"/>
		<path d="m285.5 304.2l11.1-19.2c-0.5-0.3-1.1-0.6-1.6-0.9l-11.1 19.2 1.6 0.9z"/>
		<path d="m505.2-121.9l-9.4 20.1c0.1 0.1 0.3 0.1 0.4 0.2 0.4 0.2 0.9 0.4 1.3 0.6l9.4-20.1-1.7-0.8z"/>
		<path d="m304.1 313.8l9.4-20.1c-0.1-0.1-0.3-0.1-0.4-0.2-0.4-0.2-0.8-0.4-1.3-0.6l-9.4 20.1 1.7 0.8z"/>
		<path d="m485.9-129.8l-7.6 20.8c0.6 0.2 1.2 0.4 1.7 0.6l7.6-20.8-1.7-0.6z"/>
		<path d="m323.4 321.8l7.6-20.8c-0.6-0.2-1.2-0.4-1.7-0.6l-7.6 20.8 1.7 0.6z"/>
		<path d="m343.4 328l5.7-21.4c-0.4-0.1-0.9-0.2-1.3-0.4-0.2 0-0.3-0.1-0.5-0.1l-5.7 21.4 1.8 0.5z"/>
		<path d="m465.9-136l-5.7 21.4c0.4 0.1 0.9 0.2 1.3 0.4 0.2 0 0.3 0.1 0.5 0.1l5.7-21.4-1.8-0.5z"/>
		<path d="m363.9 332.4l3.9-21.9-1.8-0.3-3.9 21.9 1.8 0.3z"/>
		<path d="m445.4-140.5l-3.9 21.8 1.8 0.3 3.9-21.9-1.8-0.2z"/>
		<path d="m424.6-143.1l-1.9 22.1h0.4c0.5 0 1 0.1 1.4 0.1l1.9-22.1-1.8-0.1z"/>
		<path d="m384.7 335.1l1.9-22.1h-0.2c-0.5 0-1.1-0.1-1.6-0.1l-1.9 22.1 1.8 0.1z"/>
	</g>
</g>
<g id="Layer_2">
	<g id="change2" fill="#272c33">
		<path d="m408.4 175.1l-0.5-0.8h-8.8l-0.5 0.8c-1.3 0.5-2.2 1.7-2.2 3.1v7.6c0 1.4 0.9 2.6 2.2 3.1l0.5 0.8h8.8l0.5-0.8c1.3-0.5 2.2-1.7 2.2-3.1v-7.6c0-1.4-0.9-2.6-2.2-3.1z"/>
		<rect y="178.9" x="414.1" height="1.6" width="144.9"/>
		<rect y="183.9" x="414.1" height="1.6" width="91"/>
		<rect y="178.9" x="248.8" height="1.6" width="144.9"/>
		<rect y="183.9" x="302.8" height="1.6" width="91"/>
	</g>
</g>
<g id="T_Center_3_">
	<rect y="13" x="231" height="95" width="348" fill="none"/>
	<text font-size="80" font-family="&apos;AlfaSlabOne-Regular&apos;" transform="translate(253.88 88.784)" fill="#272c33">GUEST </text>
</g>
<g id="T_Center_2_">
	<rect y="88.2" x="231" height="95" width="348" fill="none"/>
	<text font-size="80" font-family="&apos;AlfaSlabOne-Regular&apos;" transform="translate(253.88 163.98)" fill="#272c33">HOUSE</text>
</g>
<g id="T_Center_1_">
	<rect y="-38.5" x="261" height="55" width="288" fill="none"/>
	<text font-size="57" font-family="&apos;MrDafoe-Regular&apos;" transform="translate(299.44 -.3242)" fill="#272c33">La maison</text>
</g>
<g id="T_Center">
	<rect y="198.2" x="279" height="30.3" width="252" fill="none"/>
	<text font-size="20" font-family="&apos;Nunito-Regular&apos;" transform="translate(347.76 219.58)" fill="#272c33">SINCE 1972</text>
</g>
</svg>
