<?xml version="1.0" encoding="UTF-8" standalone="no"?>
<!DOCTYPE svg  PUBLIC '-//W3C//DTD SVG 1.1//EN'  'http://www.w3.org/Graphics/SVG/1.1/DTD/svg11.dtd'>
<!-- Generator: Adobe Illustrator 19.1.0, SVG Export Plug-In . SVG Version: 6.00 Build 0)  -->
<svg id="Layer_1" xmlns="http://www.w3.org/2000/svg" xml:space="preserve" viewBox="-15 16.8 468.2 468.2" version="1.1" y="0px" x="0px" enable-background="new -15 16.8 468.2 468.2">
<g id="change1">
	<circle cy="250.9" cx="219.1" r="234.1" fill="#fff"/>
</g>
<g id="change2">
	<path d="m219.1 473.8h-0.1c-3.9 0-7.9 0.1-11.9-0.1-0.7 0-1.2-0.5-1.2-1.2s0.6-1.1 1.3-1.1c3.9 0.2 7.8 0.4 11.7 0.4h0.1c0.7 0 1.2 0.3 1.2 1s-0.4 1-1.1 1zm14.9-0.1c-0.7 0-1.2-0.5-1.2-1.2s0.5-1.3 1.2-1.3c3.9-0.3 7.9-0.6 11.8-1.1 0.7-0.1 1.3 0.4 1.4 1.1s-0.4 1.3-1.1 1.4c-4 0.5-8 0.9-12.1 1.1 0.1 0 0 0 0 0zm-41.6-1.1h-0.1c-4-0.5-7.9-1.1-11.9-1.7-0.7-0.1-1.1-0.8-1-1.4s0.8-1.1 1.4-1c3.9 0.7 7.8 1.3 11.7 1.7 0.7 0.1 1.2 0.7 1.1 1.4-0.1 0.6-0.6 1-1.2 1zm68.2-2.3c-0.6 0-1.1-0.4-1.2-1-0.1-0.7 0.3-1.3 1-1.5 3.9-0.7 7.8-1.6 11.6-2.5 0.7-0.2 1.3 0.2 1.5 0.9s-0.2 1.3-0.9 1.5c-3.9 0.9-7.8 1.8-11.7 2.5-0.2 0.1-0.2 0.1-0.3 0.1zm-94.6-2.4h-0.3c-3.9-0.9-7.7-2-11.6-3.2-0.7-0.2-1-0.9-0.8-1.6s0.9-1 1.6-0.8c3.8 1.1 7.6 2.2 11.4 3.1 0.7 0.2 1.1 0.8 0.9 1.5-0.1 0.6-0.7 1-1.2 1zm120.6-4.1c-0.5 0-1-0.3-1.2-0.9-0.2-0.7 0.2-1.4 0.8-1.6 3.8-1.2 7.5-2.5 11.2-3.9 0.6-0.2 1.4 0.1 1.6 0.7s-0.1 1.4-0.7 1.6c-3.7 1.4-7.5 2.7-11.3 4-0.2 0-0.3 0.1-0.4 0.1zm-146.2-3.9c-0.1 0-0.3 0-0.4-0.1-3.7-1.4-7.5-2.9-11.1-4.6-0.6-0.3-0.9-1-0.6-1.6s1-0.9 1.6-0.6c3.6 1.6 7.3 3.1 11 4.5 0.6 0.2 1 1 0.7 1.6-0.3 0.5-0.7 0.8-1.2 0.8zm171.1-5.8c-0.5 0-0.9-0.3-1.1-0.7-0.3-0.6 0-1.4 0.6-1.7 3.6-1.6 7.1-3.4 10.6-5.2 0.6-0.3 1.4-0.1 1.7 0.5s0.1 1.4-0.5 1.7c-3.5 1.8-7.1 3.6-10.7 5.3-0.2 0-0.4 0.1-0.6 0.1zm-195.6-5.2c-0.2 0-0.4 0-0.6-0.1-3.5-1.9-7.1-3.8-10.5-5.9-0.6-0.4-0.8-1.1-0.4-1.7s1.1-0.8 1.7-0.4c3.4 2 6.9 4 10.4 5.8 0.6 0.3 0.8 1.1 0.5 1.7-0.2 0.3-0.7 0.6-1.1 0.6zm219.3-7.4c-0.4 0-0.8-0.2-1.1-0.6-0.4-0.6-0.2-1.4 0.4-1.7 3.3-2.1 6.7-4.2 9.9-6.5 0.6-0.4 1.3-0.2 1.7 0.3 0.4 0.6 0.3 1.3-0.3 1.7-3.3 2.3-6.6 4.5-10 6.5-0.2 0.2-0.4 0.3-0.6 0.3zm-242.3-6.5c-0.2 0-0.5-0.1-0.7-0.2-3.3-2.3-6.5-4.7-9.7-7.1-0.5-0.4-0.6-1.2-0.2-1.8 0.4-0.5 1.2-0.6 1.8-0.2 3.1 2.4 6.3 4.8 9.6 7 0.6 0.4 0.7 1.2 0.3 1.7-0.3 0.4-0.7 0.6-1.1 0.6zm264.2-8.9c-0.4 0-0.7-0.2-1-0.5-0.4-0.5-0.3-1.3 0.2-1.8 3.1-2.4 6.1-5 9.1-7.6 0.5-0.5 1.3-0.4 1.8 0.1s0.4 1.3-0.1 1.8c-3 2.6-6.1 5.2-9.2 7.7-0.3 0.2-0.5 0.3-0.8 0.3zm-285.3-7.6c-0.3 0-0.6-0.1-0.8-0.3-3-2.6-5.9-5.4-8.8-8.2-0.5-0.5-0.5-1.3 0-1.8s1.3-0.5 1.8 0c2.8 2.8 5.7 5.5 8.7 8.1 0.5 0.5 0.6 1.2 0.1 1.8-0.3 0.2-0.6 0.4-1 0.4zm305.2-10.3c-0.3 0-0.6-0.1-0.9-0.4-0.5-0.5-0.5-1.3 0-1.8 2.8-2.8 5.5-5.7 8.1-8.7 0.5-0.5 1.2-0.6 1.8-0.1 0.5 0.5 0.6 1.2 0.1 1.8-2.6 3-5.4 5.9-8.2 8.8-0.2 0.2-0.5 0.4-0.9 0.4zm-324.1-8.7c-0.3 0-0.7-0.1-0.9-0.4-2.6-3-5.2-6.1-7.7-9.2-0.4-0.5-0.3-1.3 0.2-1.8 0.5-0.4 1.3-0.3 1.8 0.2 2.4 3.1 5 6.1 7.6 9.1 0.5 0.5 0.4 1.3-0.1 1.8-0.4 0.2-0.7 0.3-0.9 0.3zm341.8-11.5c-0.3 0-0.5-0.1-0.8-0.3-0.5-0.4-0.6-1.2-0.2-1.8 2.4-3.1 4.8-6.3 7-9.6 0.4-0.6 1.2-0.7 1.7-0.3s0.7 1.2 0.3 1.7c-2.3 3.3-4.6 6.5-7.1 9.7-0.2 0.4-0.5 0.6-0.9 0.6zm-358.4-9.6c-0.4 0-0.8-0.2-1-0.5-2.3-3.3-4.5-6.6-6.6-10-0.4-0.6-0.2-1.4 0.4-1.7 0.6-0.4 1.4-0.2 1.7 0.4 2.1 3.3 4.2 6.7 6.5 9.9 0.4 0.6 0.3 1.3-0.3 1.7-0.2 0.2-0.4 0.2-0.7 0.2zm373.5-12.6c-0.2 0-0.4-0.1-0.6-0.2-0.6-0.4-0.8-1.1-0.4-1.7 2-3.4 4-6.9 5.8-10.4 0.3-0.6 1.1-0.8 1.7-0.5s0.8 1.1 0.5 1.7c-1.9 3.5-3.8 7-5.9 10.5-0.3 0.4-0.7 0.6-1.1 0.6zm-387.4-10.3c-0.4 0-0.9-0.2-1.1-0.7-1.9-3.5-3.6-7.1-5.3-10.7-0.3-0.6 0-1.4 0.6-1.7s1.4 0 1.7 0.6c1.6 3.6 3.4 7.1 5.2 10.6 0.3 0.6 0.1 1.4-0.5 1.7-0.2 0.2-0.4 0.2-0.6 0.2zm399.7-13.5c-0.2 0-0.3 0-0.5-0.1-0.6-0.3-0.9-1-0.6-1.6 1.6-3.6 3.1-7.3 4.5-11 0.2-0.6 1-1 1.6-0.7 0.6 0.2 1 1 0.7 1.6-1.4 3.7-2.9 7.5-4.6 11.1-0.1 0.4-0.6 0.7-1.1 0.7zm-410.7-10.9c-0.5 0-1-0.3-1.2-0.8-1.4-3.7-2.7-7.5-4-11.3-0.2-0.7 0.2-1.4 0.8-1.6 0.7-0.2 1.4 0.2 1.6 0.8 1.2 3.7 2.5 7.5 3.9 11.2 0.2 0.6-0.1 1.4-0.7 1.6-0.1 0.1-0.3 0.1-0.4 0.1zm420.1-14.3c-0.1 0-0.2 0-0.4-0.1-0.7-0.2-1-0.9-0.8-1.6 1.1-3.8 2.2-7.6 3.1-11.4 0.2-0.7 0.8-1.1 1.5-0.9s1.1 0.8 0.9 1.5c-0.9 3.9-2 7.8-3.2 11.6-0.1 0.6-0.6 0.9-1.1 0.9zm-428.1-11.3c-0.6 0-1.1-0.4-1.2-1-1-3.9-1.8-7.8-2.6-11.7-0.1-0.7 0.3-1.3 1-1.5 0.7-0.1 1.3 0.3 1.5 1 0.7 3.9 1.6 7.8 2.5 11.6 0.2 0.7-0.2 1.3-0.9 1.5-0.1 0.1-0.2 0.1-0.3 0.1zm434.3-14.8h-0.2c-0.7-0.1-1.1-0.8-1-1.4 0.7-3.9 1.3-7.8 1.7-11.7 0.1-0.7 0.7-1.2 1.4-1.1s1.2 0.7 1.1 1.4c-0.5 4-1.1 8-1.7 11.9-0.2 0.5-0.7 0.9-1.3 0.9zm-439.1-11.5c-0.6 0-1.2-0.5-1.2-1.1-0.5-3.9-0.9-8-1.1-11.9 0-0.7 0.5-1.3 1.2-1.3s1.3 0.5 1.3 1.2c0.3 3.9 0.6 7.9 1.1 11.8 0.1 0.7-0.4 1.3-1.1 1.4-0.1-0.1-0.2-0.1-0.2-0.1zm442.1-15.1c-0.8 0-1-0.6-1-1.3 0.2-3.9 0.6-7.9 0.6-11.8v-0.5c0-0.7 0.3-1.2 1-1.2s1 0.6 1 1.2v0.5c0 4-0.1 8-0.3 12-0.1 0.6-0.6 1.1-1.3 1.1zm-443.9-11.7c-0.7 0-1.5-0.6-1.5-1.2v-0.2c0-3.9 0.3-7.9 0.5-11.8 0-0.7 0.7-1.2 1.4-1.2s1.3 0.6 1.3 1.3c-0.2 3.8-0.2 7.8-0.2 11.6v0.2c0 0.8-0.8 1.3-1.5 1.3zm443.7-15.6c-0.7 0-1.2-0.5-1.2-1.2-0.3-3.9-0.6-7.9-1.1-11.8-0.1-0.7 0.4-1.3 1.1-1.4s1.3 0.4 1.4 1.1c0.5 3.9 0.9 8 1.1 11.9 0 0.8-0.5 1.4-1.3 1.4 0.1 0 0 0 0 0zm-442-11.1h-0.1c-0.7-0.1-1.2-0.7-1.1-1.4 0.5-4 1.1-7.9 1.7-11.9 0.1-0.7 0.8-1.1 1.4-1 0.7 0.1 1.1 0.8 1 1.4-0.7 3.9-1.3 7.8-1.7 11.7 0 0.7-0.6 1.2-1.2 1.2zm438.6-15.4c-0.6 0-1.1-0.4-1.2-1-0.7-3.9-1.6-7.8-2.5-11.6-0.2-0.7 0.2-1.3 0.9-1.5s1.3 0.2 1.5 0.9c1 3.9 1.8 7.8 2.6 11.7 0.1 0.7-0.3 1.3-1 1.5h-0.3zm-433.8-11h-0.3c-0.7-0.2-1.1-0.8-0.9-1.5 0.9-3.9 2-7.8 3.2-11.6 0.2-0.7 0.9-1 1.6-0.8s1 0.9 0.8 1.6c-1.1 3.8-2.2 7.6-3.1 11.4-0.2 0.5-0.7 0.9-1.3 0.9zm427.2-15c-0.5 0-1-0.3-1.2-0.9-1.2-3.8-2.5-7.5-3.9-11.2-0.2-0.6 0.1-1.4 0.7-1.6s1.4 0.1 1.6 0.7c1.4 3.7 2.8 7.5 4 11.3 0.2 0.7-0.2 1.4-0.8 1.6-0.2 0.1-0.3 0.1-0.4 0.1zm-419.3-10.6c-0.1 0-0.3 0-0.4-0.1-0.6-0.2-1-1-0.7-1.6 1.4-3.7 2.9-7.5 4.6-11.1 0.3-0.6 1-0.9 1.6-0.6s0.9 1 0.6 1.6c-1.6 3.6-3.1 7.3-4.5 11-0.2 0.5-0.7 0.8-1.2 0.8zm409.5-14.4c-0.5 0-0.9-0.3-1.1-0.7-1.6-3.6-3.4-7.1-5.2-10.6-0.3-0.6-0.1-1.4 0.5-1.7s1.4-0.1 1.7 0.5c1.9 3.5 3.6 7.1 5.3 10.7 0.3 0.6 0 1.4-0.6 1.7-0.2 0.1-0.4 0.1-0.6 0.1zm-398.5-10.1c-0.2 0-0.4 0-0.6-0.1-0.6-0.3-0.8-1.1-0.5-1.7 1.9-3.5 3.8-7.1 5.9-10.5 0.4-0.6 1.1-0.8 1.7-0.4s0.8 1.1 0.4 1.7c-2 3.4-4 6.9-5.8 10.4-0.2 0.3-0.6 0.6-1.1 0.6zm385.9-13.5c-0.4 0-0.8-0.2-1.1-0.6-2.1-3.3-4.2-6.7-6.5-9.9-0.4-0.6-0.3-1.3 0.3-1.7s1.3-0.3 1.7 0.3c2.3 3.3 4.5 6.6 6.6 10 0.4 0.6 0.2 1.4-0.4 1.7-0.2 0.2-0.4 0.2-0.6 0.2zm-372-9.5c-0.2 0-0.5-0.1-0.7-0.2-0.6-0.4-0.7-1.2-0.3-1.7 2.3-3.3 4.6-6.5 7.1-9.7 0.4-0.5 1.2-0.6 1.8-0.2s0.6 1.2 0.2 1.8c-2.4 3.1-4.8 6.3-7 9.6-0.3 0.2-0.7 0.4-1.1 0.4zm356.6-12.4c-0.4 0-0.7-0.2-1-0.5-2.5-3.1-5-6.1-7.6-9.1-0.5-0.5-0.4-1.3 0.1-1.8s1.3-0.4 1.8 0.1c2.6 3 5.2 6.1 7.7 9.2 0.4 0.5 0.3 1.3-0.2 1.8-0.3 0.2-0.6 0.3-0.8 0.3zm-340-8.7c-0.3 0-0.6-0.1-0.8-0.3-0.5-0.5-0.6-1.2-0.1-1.8 2.6-3 5.4-5.9 8.2-8.8 0.5-0.5 1.3-0.5 1.8 0s0.5 1.3 0 1.8c-2.8 2.8-5.5 5.7-8.1 8.7-0.4 0.3-0.7 0.4-1 0.4zm322-11.2c-0.3 0-0.6-0.1-0.9-0.4-2.8-2.8-5.7-5.5-8.7-8.1-0.5-0.5-0.6-1.2-0.1-1.8 0.5-0.5 1.2-0.6 1.8-0.1 3 2.6 5.9 5.4 8.8 8.2 0.5 0.5 0.5 1.3 0 1.8-0.2 0.3-0.6 0.4-0.9 0.4zm-303.1-7.8c-0.3 0-0.7-0.1-0.9-0.4-0.5-0.5-0.4-1.3 0.1-1.8 3-2.6 6.1-5.2 9.2-7.7 0.5-0.4 1.3-0.3 1.8 0.2 0.4 0.5 0.3 1.3-0.2 1.8-3.1 2.5-6.1 5-9.1 7.6-0.3 0.2-0.6 0.3-0.9 0.3zm282.9-9.8c-0.3 0-0.5-0.1-0.8-0.3-3.1-2.4-6.3-4.8-9.6-7-0.6-0.4-0.7-1.2-0.3-1.7 0.4-0.6 1.2-0.7 1.7-0.3 3.3 2.3 6.5 4.6 9.7 7.1 0.5 0.4 0.6 1.2 0.2 1.8-0.1 0.2-0.5 0.4-0.9 0.4zm-261.8-6.7c-0.4 0-0.8-0.2-1-0.5-0.4-0.6-0.3-1.3 0.3-1.7 3.3-2.3 6.6-4.5 10-6.6 0.6-0.4 1.4-0.2 1.7 0.4 0.4 0.6 0.2 1.4-0.4 1.7-3.3 2.1-6.7 4.2-9.9 6.5-0.2 0.1-0.5 0.2-0.7 0.2zm239.6-8.4c-0.2 0-0.4-0.1-0.6-0.2-3.4-2-6.9-4-10.4-5.8-0.6-0.3-0.8-1.1-0.5-1.7s1.1-0.8 1.7-0.5c3.5 1.8 7.1 3.8 10.5 5.9 0.6 0.4 0.8 1.1 0.4 1.7-0.2 0.4-0.7 0.6-1.1 0.6zm-216.7-5.5c-0.4 0-0.9-0.2-1.1-0.7-0.3-0.6-0.1-1.4 0.5-1.7 3.5-1.9 7.1-3.6 10.7-5.3 0.6-0.3 1.4 0 1.7 0.6s0 1.4-0.6 1.7c-3.6 1.6-7.1 3.4-10.6 5.2-0.2 0.1-0.4 0.2-0.6 0.2zm192.9-6.8c-0.2 0-0.3 0-0.5-0.1-3.6-1.6-7.3-3.1-11-4.5-0.6-0.2-1-1-0.7-1.6 0.2-0.6 1-1 1.6-0.7 3.7 1.4 7.5 2.9 11.1 4.5 0.6 0.3 0.9 1 0.6 1.6-0.2 0.5-0.7 0.8-1.1 0.8zm-168.6-4.3c-0.5 0-1-0.3-1.2-0.8-0.2-0.6 0.1-1.4 0.7-1.6 3.7-1.4 7.5-2.8 11.3-4 0.7-0.2 1.4 0.2 1.6 0.8s-0.2 1.4-0.8 1.6c-3.7 1.2-7.5 2.5-11.2 3.9-0.1 0.1-0.2 0.1-0.4 0.1zm143.4-5c-0.1 0-0.2 0-0.4-0.1-3.8-1.1-7.6-2.2-11.4-3.1-0.7-0.2-1.1-0.8-0.9-1.5s0.8-1.1 1.5-0.9c3.9 0.9 7.8 2 11.6 3.2 0.7 0.2 1 0.9 0.8 1.6-0.2 0.5-0.7 0.8-1.2 0.8zm-117.8-3c-0.6 0-1.1-0.4-1.2-1-0.2-0.7 0.2-1.3 0.9-1.5 3.9-1 7.8-1.8 11.7-2.6 0.7-0.1 1.3 0.3 1.5 1 0.1 0.7-0.3 1.3-1 1.5-3.9 0.7-7.8 1.6-11.6 2.5-0.1 0.1-0.2 0.1-0.3 0.1zm91.7-3.2h-0.2c-3.9-0.7-7.8-1.2-11.7-1.7-0.7-0.1-1.2-0.7-1.1-1.4s0.7-1.2 1.4-1.1c4 0.5 7.9 1.1 11.9 1.7 0.7 0.1 1.1 0.8 1 1.4-0.2 0.7-0.7 1.1-1.3 1.1zm-65.3-1.6c-0.6 0-1.2-0.5-1.2-1.1-0.1-0.7 0.4-1.3 1.1-1.4 3.9-0.5 8-0.9 11.9-1.1 0.7 0 1.3 0.5 1.3 1.2s-0.5 1.3-1.2 1.3c-3.9 0.3-7.9 0.6-11.8 1.1h-0.1zm38.7-1.4s0-0.2-0.1-0.2c-3.8-0.2-7.7-0.5-11.5-0.5h-0.3c-0.7 0-1.2-0.3-1.2-1s0.6-1 1.2-1h0.3c3.9 0 7.8 0 11.6 0.2 0.7 0 1.2 0.6 1.2 1.3 0 0.8-0.6 1.2-1.2 1.2z" fill="#272c33"/>
</g>
<g id="t_center">
	<g>
		<rect y="203.5" x="23.4" height="91.4" width="390.8" fill="none"/>
		<text font-size="68px" font-family="&apos;Quicksand-Regular&apos;" transform="translate(23.934 251.1)" fill="#272c33">WILDBERRY</text>
	</g>
	<rect y="191.8" x="14.3" height="144" width="410.8" fill="none"/>
</g>
<g id="t_center_1_">
	<g>
		<rect y="278.8" x="52" height="64.8" width="334.1" fill="none"/>
		<text font-size="28px" font-family="&apos;Quicksand-Regular&apos;" transform="translate(94.395 298.4)" fill="#272c33">TEA SHOP &amp; CAFE</text>
	</g>
	<rect y="269.8" x="80.3" height="64" width="278" fill="none"/>
</g>
</svg>
