<?xml version="1.0" encoding="UTF-8" standalone="no"?>
<!DOCTYPE svg  PUBLIC '-//W3C//DTD SVG 1.1//EN'  'http://www.w3.org/Graphics/SVG/1.1/DTD/svg11.dtd'>
<!-- Generator: Adobe Illustrator 18.1.1, SVG Export Plug-In . SVG Version: 6.00 Build 0)  -->
<svg id="Layer_1" xmlns="http://www.w3.org/2000/svg" xml:space="preserve" viewBox="131 516.2 612 350.9" version="1.1" y="0px" x="0px" enable-background="new 131 516.2 612 350.9">
<g id="change2">
	<path d="m160.7 592.8l244-71.8c21.2-6.3 43.5-6.3 64.7 0l243.9 71.9c17.7 5.2 29.7 21.3 29.7 39.9v118.2c0 18.4-12.1 34.6-29.7 39.9l-243.3 71.5c-21.5 6.3-44.4 6.3-65.9 0l-243.4-71.9c-17.7-5.2-29.7-21.3-29.7-39.9v-118.1c0-18.3 12.1-34.6 29.7-39.7z" fill="#fff"/>
</g>
<g id="change1">
	<path d="m437 848.3c-9.4 0-18.7-1.4-27.6-4l-243.2-71.7c-9.6-2.8-16.3-11.9-16.3-21.9v-118.2c0-10 6.6-19.1 16.3-21.9l243.9-71.9c17.5-5.2 36.5-5.2 54.2 0l243.6 71.9c9.6 2.8 16.4 11.9 16.4 21.9v118.2c0 10-6.6 19.1-16.4 21.9l-243.2 71.7c-9 2.8-18.3 4-27.7 4zm0-309.2c-8.7 0-17.5 1.2-25.9 3.7l-243.9 71.9c-7.9 2.3-13.5 9.6-13.5 17.8v118.2c0 8.2 5.4 15.6 13.5 17.8l243.2 71.7c17.1 5.1 35.8 5.1 53 0l243.2-71.7c7.9-2.3 13.5-9.6 13.5-17.8v-118.2c0-8.2-5.4-15.6-13.5-17.8l-243.8-71.9c-8.3-2.4-17.1-3.7-25.8-3.7z" fill="#272c33"/>
</g>
<g id="T_Center">
	<rect y="636.9" x="172.3" height="153.3" width="529.5" fill="none"/>
	<text font-size="130.75" font-family="&apos;LeagueGothic-Regular&apos;" transform="translate(201.2 732.96)" fill="#272c33">ROADRUNNER</text>
	<rect y="629.4" x="164.7" height="160.7" width="545.4" fill="none"/>
</g>
<g id="T_Center_1_">
	<rect y="747.7" x="336.6" height="67.8" width="205.9" fill="none"/>
	<text font-size="45.859" font-family="&apos;Pacifico-Regular&apos;" transform="translate(351.12 790.78)" fill="#272c33">supply co.</text>
	<rect y="740.7" x="323.3" height="74.8" width="233.5" fill="none"/>
</g>
<g id="T_Right">
	<rect y="593.3" x="260.6" height="51.6" width="82.4" fill="none"/>
	<text font-size="32.524" font-family="&apos;LeagueGothic-Regular&apos;" transform="translate(298.74 617.37)" fill="#272c33">T R D</text>
	<rect y="589.7" x="253.6" height="55.3" width="98.6" fill="none"/>
</g>
<g id="T_Left_1_">
	<rect y="593.3" x="529.8" height="51.6" width="82.4" fill="none"/>
	<text font-size="32.524" font-family="&apos;LeagueGothic-Regular&apos;" transform="translate(529.93 617.37)" fill="#272c33">M R K</text>
	<rect y="589.7" x="521.8" height="55.3" width="98.6" fill="none"/>
</g>
</svg>
