<?xml version="1.0" encoding="UTF-8" standalone="no"?>
<!DOCTYPE svg  PUBLIC '-//W3C//DTD SVG 1.1//EN'  'http://www.w3.org/Graphics/SVG/1.1/DTD/svg11.dtd'>
<!-- Generator: Adobe Illustrator 18.1.1, SVG Export Plug-In . SVG Version: 6.00 Build 0)  -->
<svg id="Layer_1" xmlns="http://www.w3.org/2000/svg" xml:space="preserve" viewBox="0 0 200 122.9" version="1.1" y="0px" x="0px" enable-background="new 0 0 200 122.9">
<g id="change2_1_">
	<path d="m100 122.9c-5.6 0-11-0.6-15-1.8l-68.9-19.4c-9-2.5-16.1-10.8-16.1-18.9v-30.5c0-8.1 7.1-16.4 16.1-19l68.9-19.4c3.9-1.1 9.4-1.8 15-1.8s11 0.6 15 1.8l68.9 19.4c9 2.6 16.1 10.9 16.1 19v30.5c0 8.1-7.1 16.4-16.1 19l-68.9 19.4c-4 1.1-9.5 1.7-15 1.7z" fill="#fff"/>
</g>
<g id="change3">
	<path d="m100 117.6c-5.1 0-10-0.6-13.5-1.5l-68.9-19.5c-6.6-1.9-12.3-8.2-12.3-13.9v-30.4c0-5.6 5.6-12 12.2-13.8l69-19.5c3.5-1 8.4-1.5 13.5-1.5s10 0.6 13.5 1.5l68.9 19.4c6.6 1.9 12.2 8.2 12.2 13.8v30.5c0 5.6-5.6 12-12.2 13.8l-68.9 19.5c-3.5 1-8.4 1.6-13.5 1.6z" fill="#272c33"/>
</g>
<g id="change1">
	<circle cy="20" cx="100" r="20" fill="#fff"/>
</g>
<g id="change3_1_">
	<circle cy="20" cx="100" r="17.7" fill="#272c33"/>
</g>
<g id="change1_1_">
	<circle cy="20" cx="100" r="15.3" fill="#fff"/>
</g>
<g id="T_center_2_">
	<rect y="59.1" x="8.5" height="36.3" width="182.9" fill="none"/>
	<g>
		<text font-size="30.388" font-family="&apos;Norwester-Regular&apos;" transform="translate(12.929 89.894)" fill="#FFFFFF">MACHINE SHOP</text>
	</g>
</g>
<g id="T_center_1_">
	<rect y="37.4" x="40.5" height="26" width="119" fill="none"/>
	<text font-size="20.544" font-family="&apos;Yellowtail&apos;" transform="translate(57.815 55.631)" fill="#FFFFFF">Springsteen</text>
</g>
<g id="T_center">
	<rect y="9.8" x="84.1" height="26.6" width="31.6" fill="none"/>
	<g>
		<text font-size="24.678" font-family="&apos;Norwester-Regular&apos;" transform="translate(93.81 32.502)" fill="#272c33">S</text>
	</g>
</g>
<g id="T_center_3_">
	<text font-size="8.9511" font-family="&apos;LeagueSpartan-Bold&apos;" transform="translate(73.571 98.194)" fill="#FFFFFF">SINCE 1932</text>
	<rect y="86.5" x="53.5" height="16" width="92.9" fill="none"/>
</g>
</svg>
