<?xml version="1.0" encoding="utf-8"?>
<!DOCTYPE svg PUBLIC "-//W3C//DTD SVG 1.1//EN"
  "http://www.w3.org/Graphics/SVG/1.1/DTD/svg11.dtd">
<!-- Generator: Adobe Illustrator 19.1.0, SVG Export Plug-In . SVG Version: 6.00 Build 0)  -->
<svg version="1.1" id="Layer_1" xmlns="http://www.w3.org/2000/svg" xmlns:xlink="http://www.w3.org/1999/xlink" x="0px" y="0px"
	 viewBox="-72 27.6 353.7 447.4" enable-background="new -72 27.6 353.7 447.4" xml:space="preserve">
<g id="change1">
	<path fill="#FFFFFF" d="M96.2,473.8L-72,250.7L96.2,27.6l168.2,223.1L96.2,473.8z M-68.9,250.7L96.2,469.6l165.1-218.9L96.2,31.8
		L-68.9,250.7z"/>
</g>
<g id="change2_1_">
	<path fill="#FFFFFF" d="M113.5,475L-54.8,251.9l168.3-223L281.7,252L113.5,475z M-51.6,251.9l165.1,218.9l165.1-218.9L113.5,33
		L-51.6,251.9z"/>
</g>
<g id="change3">
	<g>
		<rect x="72.2" y="146.7" fill="#FFFFFF" width="66" height="3"/>
	</g>
	<g>
		<rect x="72.2" y="358.7" fill="#FFFFFF" width="66" height="3"/>
	</g>
</g>
<g id="t_center">
	<rect x="7.3" y="183.7" fill="none" width="195.9" height="50.2"/>
	<text transform="matrix(1 0 0 1 38.0926 206.678)" fill="#FFFFFF" font-family="'Montserrat-Light'" font-size="31px">SHINING</text>
	<rect x="7.3" y="172.6" fill="none" width="195.9" height="61.3"/>
</g>
<g id="t_center_1_">
	<g>
		<rect x="-17" y="234.8" fill="none" width="244.1" height="51.8"/>
		<text transform="matrix(1 0 0 1 46.8055 257.8479)" fill="#FFFFFF" font-family="'Montserrat-Light'" font-size="31px">CASTLE</text>
	</g>
	<rect x="-17" y="234.8" fill="none" width="244.1" height="51.8"/>
</g>
<g id="t_center_2_">
	<g>
		<rect x="21.5" y="285.7" fill="none" width="166" height="60"/>
		<text transform="matrix(1 0 0 1 35.6249 308.678)" fill="#FFFFFF" font-family="'Montserrat-Light'" font-size="31px">STUDIOS</text>
	</g>
	<rect x="21.5" y="285.7" fill="none" width="166" height="60"/>
</g>
</svg>
