<?xml version="1.0" encoding="UTF-8" standalone="no"?>
<!DOCTYPE svg  PUBLIC '-//W3C//DTD SVG 1.1//EN'  'http://www.w3.org/Graphics/SVG/1.1/DTD/svg11.dtd'>
<!-- Generator: Adobe Illustrator 18.1.1, SVG Export Plug-In . SVG Version: 6.00 Build 0)  -->
<svg id="Layer_1" xmlns="http://www.w3.org/2000/svg" xml:space="preserve" viewBox="0 0 465.9 500" version="1.1" y="0px" x="0px" enable-background="new 0 0 465.9 500">
<g id="change2">
	<polygon points="232.9 500 0 250 232.9 0 465.9 250" fill="#fff"/>
</g>
<g id="change1">
	<path d="m232.9 31.7l-203.4 218.3 203.5 218.3 203.4-218.3-203.5-218.3zm144.4 164.9h-288.7l144.3-154.8 144.4 154.8zm-295.4 7.2h302l43 46.2-41.3 44.4h-305.3l-41.4-44.4 43-46.2zm5 97.7h292.1l-146.1 156.7-146-156.7z" fill="#272c33"/>
</g>
<g id="T_Center_2_">
	<text font-size="64.528" font-family="&apos;RobotoCondensed-Bold&apos;" transform="translate(109.22 271.06)" fill="#272c33">BREWERY</text>
	<rect y="196.1" x="85.3" height="112.6" width="295.4" fill="none"/>
</g>
<g id="T_Center_1_">
	<text font-size="21.509" font-family="&apos;NixieOne-Regular&apos;" transform="translate(183.98 366.06)" fill="#272c33">EST. 1950</text>
	<rect y="344" x="165.9" height="31.9" width="134.1" fill="none"/>
</g>
<g id="T_Center">
	<text font-size="21.509" font-family="&apos;NixieOne-Regular&apos;" transform="translate(178.29 150.07)" fill="#272c33">ALABAMA</text>
	<rect y="126.4" x="165.9" height="31.9" width="134.1" fill="none"/>
</g>
</svg>
