<?xml version="1.0" encoding="utf-8"?>
<!DOCTYPE svg PUBLIC "-//W3C//DTD SVG 1.1//EN"
  "http://www.w3.org/Graphics/SVG/1.1/DTD/svg11.dtd">
<!-- Generator: Adobe Illustrator 19.1.0, SVG Export Plug-In . SVG Version: 6.00 Build 0)  -->
<svg version="1.1" id="Layer_1" xmlns="http://www.w3.org/2000/svg" xmlns:xlink="http://www.w3.org/1999/xlink" x="0px" y="0px"
	 viewBox="-217.3 113.3 499.3 419.7" enable-background="new -217.3 113.3 499.3 419.7" xml:space="preserve">
<g id="t_center">
	<text transform="matrix(1 0 0 1 -181.2134 359.4158)" fill="#FFFFFF" font-family="'Oswald'" font-size="70px">WOLF &amp; HOUND</text>
	<rect x="-217.3" y="280.2" fill="none" width="499.3" height="95.4"/>
</g>
<g id="t_center_1_">
	<g>
		<rect x="-17.7" y="227.2" fill="none" width="99" height="27.5"/>
		<text transform="matrix(1 0 0 1 -13.6818 238.4002)" fill="#FFFFFF" font-family="'TenorSans'" font-size="16px">SINCE 1980</text>
	</g>
	<rect x="-26" y="218.5" fill="none" width="114.7" height="44"/>
</g>
<g id="t_center_2_">
	<g>
		<g>
			<rect x="-19.1" y="398.1" fill="none" width="99" height="27.5"/>
			<text transform="matrix(1 0 0 1 -7.7593 409.3374)" fill="#FFFFFF" font-family="'TenorSans'" font-size="16px">VINTAGE</text>
		</g>
	</g>
	<rect x="-27.3" y="389.5" fill="none" width="114.7" height="44"/>
</g>
<g id="change1">
	<g>

			<rect x="41.3" y="210" transform="matrix(-0.7126 -0.7016 0.7016 -0.7126 72.6959 453.8133)" fill="#FFFFFF" width="176" height="4"/>
	</g>
	<g>

			<rect x="-67.6" y="124.5" transform="matrix(-0.7016 -0.7126 0.7126 -0.7016 -263.0578 314.8765)" fill="#FFFFFF" width="4" height="176"/>
	</g>
	<g>

			<rect x="126.8" y="345.8" transform="matrix(-0.7017 -0.7125 0.7125 -0.7017 -89.8332 830.0366)" fill="#FFFFFF" width="4" height="176"/>
	</g>
	<g>

			<rect x="-154.1" y="431.3" transform="matrix(-0.7126 -0.7016 0.7016 -0.7126 -417.2025 695.6124)" fill="#FFFFFF" width="176" height="4"/>
	</g>
	<g>
		<polygon fill="#FFFFFF" points="-97.4,269.1 -100.2,266.3 31.8,136.2 163.5,266.3 160.7,269.1 31.8,141.8 		"/>
	</g>
	<g>
		<polygon fill="#FFFFFF" points="31,507.2 29.6,505.8 -95.9,382 -93.1,379.2 31,501.6 155.1,379.2 158,382 		"/>
	</g>
	<g>
		<path fill="#FFFFFF" d="M31.8,168L4.5,140.6l27.3-27.3l27.3,27.3L31.8,168z M10.1,140.6l21.7,21.7l21.7-21.7l-21.7-21.7
			L10.1,140.6z"/>
	</g>
	<g>
		<path fill="#FFFFFF" d="M32,533L4.7,505.7L32,478.4l27.3,27.3L32,533z M10.3,505.7L32,527.4l21.7-21.7L32,484L10.3,505.7z"/>
	</g>
</g>
</svg>
