<?xml version="1.0" encoding="utf-8"?><!DOCTYPE svg PUBLIC "-//W3C//DTD SVG 1.1//EN" "http://www.w3.org/Graphics/SVG/1.1/DTD/svg11.dtd">
<svg version="1.1" id="Layer_1" xmlns="http://www.w3.org/2000/svg" xmlns:xlink="http://www.w3.org/1999/xlink" x="0px" y="0px" viewBox="0 0 300.3 271.3" enable-background="new 0 0 300.3 271.3" xml:space="preserve">
<g>
	<g id="change1_1"><polygon fill="#7AD3AB" points="32.5,190.6 32.5,186.4 32.5,162.3 0,162.3 15.2,180.8 0,199.2 64,199.2 64,190.6 36.7,190.6 	"></polygon></g>
	<g id="change1_2"><polygon fill="#7AD3AB" points="300.3,162.3 267.8,162.3 267.8,186.4 267.8,190.6 263.6,190.6 236.3,190.6 236.3,199.2 
		300.3,199.2 285.1,180.8 	"></polygon></g>
	<g id="change1_3"><polygon fill="#7AD3AB" points="263.6,186.4 263.6,162.3 263.6,143.2 36.7,143.2 36.7,162.3 36.7,186.4 74,186.4 226.3,186.4 	"></polygon></g>
</g>
<g id="change1_4"><polygon fill="#7AD3AB" points="120.9,45.9 187.3,45.9 166.6,10.2 160.4,19.9 167,32.1 165.7,32.8 165.7,32.8 165.7,32.8 
	164.3,33.5 146,0 "></polygon></g>
<g id="T_3_">
	<g id="change1_5"><text transform="matrix(1 0 0 1 88.177 253.9058)" fill="#7AD3AB" font-family="'LibreBaskerville-Italic'" font-size="49.5821">climb</text></g>
	<rect x="60.5" y="204.7" fill="none" width="179.4" height="66.6"></rect>
</g>
<g id="T_2_">
	<g id="change2_1"><text transform="matrix(1 0 0 1 56.7773 174.9162)" fill="#FFFFFF" font-family="'Raleway-Bold'" font-size="27.2257">THE HARDEST</text></g>
	<rect x="46.8" y="147.5" fill="none" width="206.6" height="39"></rect>
</g>
<g id="T_1_">
	<g id="change1_6"><text transform="matrix(1 0 0 1 95.1326 120.222)" fill="#7AD3AB" font-family="'LibreBaskerville-Italic'" font-size="21.6765">comes after</text></g>
	<rect x="64" y="99.3" fill="none" width="172.2" height="28.9"></rect>
</g>
<g id="T">
	<g id="change1_7"><text transform="matrix(1 0 0 1 47.8069 87.586)" fill="#7AD3AB" font-family="'Raleway-Bold'" font-size="27.0107">THE BEST VIEW</text></g>
	<rect x="22.4" y="58.2" fill="none" width="248.4" height="38.1"></rect>
</g>
</svg>