<?xml version="1.0" encoding="utf-8"?><!DOCTYPE svg PUBLIC "-//W3C//DTD SVG 1.1//EN" "http://www.w3.org/Graphics/SVG/1.1/DTD/svg11.dtd">
<svg version="1.1" id="Layer_1" xmlns="http://www.w3.org/2000/svg" xmlns:xlink="http://www.w3.org/1999/xlink" x="0px" y="0px" viewBox="0 0 232.4 137" enable-background="new 0 0 232.4 137" xml:space="preserve">
<g id="T">
	
		<g id="change1_1"><text transform="matrix(0.9698 0 0 1 3.5256 111.3569)" fill="#C2AE83" font-family="'PlayfairDisplaySC-Regular'" font-size="94.3719">BEST</text></g>
	<rect y="24.8" fill="none" width="232.4" height="112.2"></rect>
</g>
<g id="T_1_">
	<g id="change1_2"><text transform="matrix(1 0 0 1 27.6685 40.535)" fill="#C2AE83" font-family="'Raleway-Regular'" font-size="16">YOU ARE SIMPLY THE </text></g>
	<rect x="18.9" y="21.3" fill="none" width="190.9" height="25.2"></rect>
</g>
<g id="change1_3"><path fill="#C2AE83" d="M150.3,13.4h-32.6c0-0.1,0-0.1,0-0.2c0-0.5-0.2-0.9-0.4-1.4c-0.2-0.4-0.5-0.8-0.8-1.1
	c-0.7-0.6-1.6-1.1-2.5-1.2c-0.9-0.1-1.8,0-2.6,0.5c-0.8,0.4-1.4,1-1.8,1.6c-0.4,0.6-0.7,1.2-0.8,1.8h-34v0.7h33.9
	c-0.1,1.1,0.1,2.1,0.4,2.7c0.2,0.4,0.3,0.6,0.4,0.8c0.1,0.2,0.2,0.3,0.2,0.3c0,0,0.1,0,0.1,0c0,0,0.1-0.1,0-0.1c0,0,0-0.1-0.1-0.3
	c-0.1-0.2-0.2-0.4-0.3-0.8c-0.1-0.3-0.2-0.8-0.2-1.3c0-0.5,0-1,0.2-1.6c0.3-1.1,1.2-2.3,2.5-3c0.6-0.3,1.4-0.4,2.1-0.3
	c0.7,0.1,1.4,0.4,2,1c0.3,0.3,0.5,0.5,0.7,0.9c0.2,0.3,0.3,0.7,0.3,1c0.1,0.7-0.1,1.4-0.5,2c-0.2,0.3-0.5,0.5-0.7,0.7
	c-0.1,0-0.2,0.1-0.2,0.1c-0.1,0-0.1,0.1-0.2,0.1c-0.1,0.1-0.3,0.1-0.4,0.1c-0.6,0.1-1.2,0-1.7-0.4c-0.5-0.3-0.8-0.8-0.9-1.2
	c-0.1-0.4-0.1-0.9,0.1-1.2c0.1-0.3,0.3-0.5,0.4-0.7c0.1-0.1,0.2-0.2,0.2-0.2c0,0,0-0.1,0-0.1c0,0-0.1-0.1-0.1,0l0,0
	c0,0-0.1,0.1-0.3,0.2c-0.2,0.1-0.4,0.3-0.6,0.7c-0.2,0.3-0.3,0.8-0.2,1.4c0.1,0.6,0.4,1.2,1,1.6c0.6,0.4,1.3,0.7,2.2,0.6
	c0.2,0,0.4-0.1,0.6-0.1c0.1,0,0.2-0.1,0.3-0.1c0.1,0,0.2-0.1,0.3-0.1c0.4-0.2,0.7-0.5,1-0.9c0.4-0.5,0.6-1.1,0.7-1.8h32.6V13.4z"></path></g>
</svg>