<?xml version="1.0" encoding="utf-8"?>
<!-- Generator: Adobe Illustrator 15.0.0, SVG Export Plug-In . SVG Version: 6.00 Build 0)  -->
<!DOCTYPE svg PUBLIC "-//W3C//DTD SVG 1.1//EN" "http://www.w3.org/Graphics/SVG/1.1/DTD/svg11.dtd">
<svg version="1.1" id="Layer_1" xmlns="http://www.w3.org/2000/svg" xmlns:xlink="http://www.w3.org/1999/xlink" x="0px" y="0px"
	 width="356px" height="126.387px" viewBox="0 0 356 126.387" enable-background="new 0 0 356 126.387" xml:space="preserve">
<g id="t_center_1_">
	<rect y="12.693" fill="none" width="356" height="51"/>
	<text transform="matrix(1 0 0 1 10.8862 50.1414)" fill="#8C236C" font-family="'Quicksand'" font-size="36">TODAY&#x2019;S SPECIAL:</text>
</g>
<g id="change1_1_">
	<path fill="#8C236C" d="M17.928,126.387c-2.124,0-3.848-1.723-3.848-3.846c0-2.125,1.724-3.848,3.848-3.848
		s3.846,1.723,3.846,3.848C21.772,124.664,20.052,126.387,17.928,126.387"/>
	<path fill="#8C236C" d="M33.935,126.387c-2.124,0-3.847-1.723-3.847-3.846c0-2.125,1.723-3.848,3.847-3.848
		s3.847,1.723,3.847,3.848C37.78,124.664,36.059,126.387,33.935,126.387"/>
	<path fill="#8C236C" d="M49.941,126.387c-2.124,0-3.847-1.723-3.847-3.846c0-2.125,1.723-3.848,3.847-3.848
		s3.846,1.723,3.846,3.848C53.787,124.664,52.065,126.387,49.941,126.387"/>
	<path fill="#8C236C" d="M65.948,126.387c-2.124,0-3.846-1.723-3.846-3.846c0-2.125,1.722-3.848,3.846-3.848
		s3.847,1.723,3.847,3.848C69.795,124.664,68.072,126.387,65.948,126.387"/>
	<path fill="#8C236C" d="M81.956,126.387c-2.124,0-3.847-1.723-3.847-3.846c0-2.125,1.723-3.848,3.847-3.848
		s3.847,1.723,3.847,3.848C85.803,124.664,84.08,126.387,81.956,126.387"/>
	<path fill="#8C236C" d="M97.963,126.387c-2.124,0-3.846-1.723-3.846-3.846c0-2.125,1.722-3.848,3.846-3.848
		s3.848,1.723,3.848,3.848C101.811,124.664,100.087,126.387,97.963,126.387"/>
	<path fill="#8C236C" d="M113.972,126.387c-2.124,0-3.848-1.723-3.848-3.846c0-2.125,1.724-3.846,3.848-3.846
		s3.846,1.721,3.846,3.846C117.816,124.664,116.096,126.387,113.972,126.387"/>
	<path fill="#8C236C" d="M129.979,126.387c-2.125,0-3.848-1.723-3.848-3.846c0-2.125,1.723-3.848,3.848-3.848
		c2.123,0,3.846,1.723,3.846,3.848C133.824,124.664,132.102,126.387,129.979,126.387"/>
	<path fill="#8C236C" d="M145.985,126.387c-2.124,0-3.847-1.723-3.847-3.846c0-2.125,1.723-3.848,3.847-3.848
		s3.847,1.723,3.847,3.848C149.832,124.664,148.109,126.387,145.985,126.387"/>
	<path fill="#8C236C" d="M161.993,126.387c-2.125,0-3.847-1.723-3.847-3.846c0-2.125,1.722-3.848,3.847-3.848
		c2.123,0,3.846,1.723,3.846,3.848C165.839,124.664,164.116,126.387,161.993,126.387"/>
	<path fill="#8C236C" d="M178,126.387c-2.124,0-3.847-1.723-3.847-3.846c0-2.125,1.723-3.848,3.847-3.848s3.847,1.723,3.847,3.848
		C181.847,124.664,180.124,126.387,178,126.387"/>
	<path fill="#8C236C" d="M194.008,126.387c-2.125,0-3.847-1.723-3.847-3.846c0-2.125,1.722-3.848,3.847-3.848
		c2.123,0,3.846,1.723,3.846,3.848C197.854,124.664,196.131,126.387,194.008,126.387"/>
	<path fill="#8C236C" d="M210.016,126.387c-2.125,0-3.847-1.723-3.847-3.846c0-2.125,1.722-3.848,3.847-3.848
		c2.123,0,3.846,1.723,3.846,3.848C213.859,124.664,212.139,126.387,210.016,126.387"/>
	<path fill="#8C236C" d="M226.021,126.387c-2.125,0-3.846-1.723-3.846-3.846c0-2.125,1.721-3.848,3.846-3.848
		c2.123,0,3.847,1.723,3.847,3.848C229.868,124.664,228.145,126.387,226.021,126.387"/>
	<path fill="#8C236C" d="M242.03,126.387c-2.125,0-3.847-1.723-3.847-3.846c0-2.125,1.722-3.848,3.847-3.848
		c2.122,0,3.845,1.723,3.845,3.848C245.875,124.664,244.152,126.387,242.03,126.387"/>
	<path fill="#8C236C" d="M258.037,126.387c-2.125,0-3.848-1.723-3.848-3.846c0-2.125,1.723-3.846,3.848-3.846
		c2.123,0,3.846,1.721,3.846,3.846C261.883,124.664,260.16,126.387,258.037,126.387"/>
	<path fill="#8C236C" d="M274.044,126.387c-2.124,0-3.846-1.723-3.846-3.846c0-2.125,1.722-3.848,3.846-3.848
		s3.847,1.723,3.847,3.848C277.891,124.664,276.168,126.387,274.044,126.387"/>
	<path fill="#8C236C" d="M290.053,126.387c-2.125,0-3.848-1.723-3.848-3.846c0-2.125,1.723-3.848,3.848-3.848
		c2.122,0,3.846,1.723,3.846,3.848C293.896,124.664,292.175,126.387,290.053,126.387"/>
	<path fill="#8C236C" d="M306.059,126.387c-2.123,0-3.846-1.723-3.846-3.846c0-2.125,1.723-3.848,3.846-3.848
		c2.125,0,3.848,1.723,3.848,3.848C309.905,124.664,308.184,126.387,306.059,126.387"/>
	<path fill="#8C236C" d="M322.066,126.387c-2.125,0-3.848-1.723-3.848-3.846c0-2.125,1.723-3.848,3.848-3.848
		c2.123,0,3.846,1.723,3.846,3.848C325.912,124.664,324.189,126.387,322.066,126.387"/>
	<path fill="#8C236C" d="M338.073,126.387c-2.124,0-3.847-1.723-3.847-3.846c0-2.125,1.723-3.848,3.847-3.848
		c2.123,0,3.846,1.723,3.846,3.848C341.919,124.664,340.196,126.387,338.073,126.387"/>
</g>
<g id="change1">
	<path fill="#8C236C" d="M17.928,7.693c-2.124,0-3.848-1.723-3.848-3.846c0-2.125,1.724-3.847,3.848-3.847s3.846,1.722,3.846,3.847
		C21.772,5.971,20.052,7.693,17.928,7.693"/>
	<path fill="#8C236C" d="M33.935,7.693c-2.124,0-3.847-1.723-3.847-3.846c0-2.124,1.723-3.847,3.847-3.847s3.847,1.723,3.847,3.848
		C37.78,5.971,36.059,7.693,33.935,7.693"/>
	<path fill="#8C236C" d="M49.941,7.693c-2.124,0-3.847-1.723-3.847-3.846c0-2.125,1.723-3.847,3.847-3.847s3.846,1.722,3.846,3.847
		C53.787,5.971,52.065,7.693,49.941,7.693"/>
	<path fill="#8C236C" d="M65.948,7.693c-2.124,0-3.846-1.723-3.846-3.846c0-2.125,1.722-3.847,3.846-3.847s3.847,1.722,3.847,3.847
		C69.795,5.971,68.072,7.693,65.948,7.693"/>
	<path fill="#8C236C" d="M81.956,7.693c-2.124,0-3.847-1.723-3.847-3.846c0-2.125,1.723-3.847,3.847-3.847s3.847,1.722,3.847,3.847
		C85.803,5.971,84.08,7.693,81.956,7.693"/>
	<path fill="#8C236C" d="M97.963,7.693c-2.124,0-3.846-1.723-3.846-3.846c0-2.125,1.722-3.847,3.846-3.847s3.848,1.722,3.848,3.847
		C101.811,5.971,100.087,7.693,97.963,7.693"/>
	<path fill="#8C236C" d="M113.972,7.693c-2.124,0-3.848-1.723-3.848-3.846c0-2.125,1.724-3.846,3.848-3.846s3.846,1.721,3.846,3.846
		C117.816,5.971,116.096,7.693,113.972,7.693"/>
	<path fill="#8C236C" d="M129.979,7.693c-2.125,0-3.848-1.723-3.848-3.846c0-2.125,1.723-3.847,3.848-3.847
		c2.123,0,3.846,1.722,3.846,3.847C133.824,5.971,132.102,7.693,129.979,7.693"/>
	<path fill="#8C236C" d="M145.985,7.693c-2.124,0-3.847-1.723-3.847-3.846c0-2.125,1.723-3.848,3.847-3.848s3.847,1.723,3.847,3.848
		C149.832,5.971,148.109,7.693,145.985,7.693"/>
	<path fill="#8C236C" d="M161.993,7.693c-2.125,0-3.847-1.723-3.847-3.846c0-2.125,1.722-3.847,3.847-3.847
		c2.123,0,3.846,1.722,3.846,3.847C165.839,5.971,164.116,7.693,161.993,7.693"/>
	<path fill="#8C236C" d="M178,7.693c-2.124,0-3.847-1.723-3.847-3.846C174.153,1.722,175.876,0,178,0s3.847,1.723,3.847,3.848
		C181.847,5.971,180.124,7.693,178,7.693"/>
	<path fill="#8C236C" d="M194.008,7.693c-2.125,0-3.847-1.723-3.847-3.846c0-2.125,1.722-3.848,3.847-3.848
		c2.123,0,3.846,1.723,3.846,3.848C197.854,5.971,196.131,7.693,194.008,7.693"/>
	<path fill="#8C236C" d="M210.016,7.693c-2.125,0-3.847-1.723-3.847-3.846c0-2.125,1.722-3.847,3.847-3.847
		c2.123,0,3.846,1.722,3.846,3.847C213.859,5.971,212.139,7.693,210.016,7.693"/>
	<path fill="#8C236C" d="M226.021,7.693c-2.125,0-3.846-1.723-3.846-3.846c0-2.125,1.721-3.848,3.846-3.848
		c2.123,0,3.847,1.723,3.847,3.848C229.868,5.971,228.145,7.693,226.021,7.693"/>
	<path fill="#8C236C" d="M242.03,7.693c-2.125,0-3.847-1.723-3.847-3.846c0-2.125,1.722-3.847,3.847-3.847
		c2.122,0,3.845,1.722,3.845,3.847C245.875,5.971,244.152,7.693,242.03,7.693"/>
	<path fill="#8C236C" d="M258.037,7.693c-2.125,0-3.848-1.723-3.848-3.846c0-2.125,1.723-3.846,3.848-3.846
		c2.123,0,3.846,1.721,3.846,3.846C261.883,5.971,260.16,7.693,258.037,7.693"/>
	<path fill="#8C236C" d="M274.044,7.693c-2.124,0-3.846-1.723-3.846-3.846c0-2.125,1.722-3.847,3.846-3.847s3.847,1.722,3.847,3.847
		C277.891,5.971,276.168,7.693,274.044,7.693"/>
	<path fill="#8C236C" d="M290.053,7.693c-2.125,0-3.848-1.723-3.848-3.846c0-2.125,1.723-3.847,3.848-3.847
		c2.122,0,3.846,1.722,3.846,3.847C293.896,5.971,292.175,7.693,290.053,7.693"/>
	<path fill="#8C236C" d="M306.059,7.693c-2.123,0-3.846-1.723-3.846-3.846c0-2.125,1.723-3.847,3.846-3.847
		c2.125,0,3.848,1.722,3.848,3.847C309.905,5.971,308.184,7.693,306.059,7.693"/>
	<path fill="#8C236C" d="M322.066,7.693c-2.125,0-3.848-1.723-3.848-3.846c0-2.125,1.723-3.847,3.848-3.847
		c2.123,0,3.846,1.722,3.846,3.847C325.912,5.971,324.189,7.693,322.066,7.693"/>
	<path fill="#8C236C" d="M338.073,7.693c-2.124,0-3.847-1.723-3.847-3.846c0-2.125,1.723-3.847,3.847-3.847
		c2.123,0,3.846,1.722,3.846,3.847C341.919,5.971,340.196,7.693,338.073,7.693"/>
</g>
<g id="t_center">
	<rect y="57.693" fill="none" width="356" height="51"/>
	<text transform="matrix(1 0 0 1 9.5405 98.2307)" fill="#8C236C" font-family="'Quicksand'" font-size="44">SOUP &amp; SALAD</text>
</g>
</svg>
