<?xml version="1.0" encoding="utf-8"?>
<!-- Generator: Adobe Illustrator 17.1.0, SVG Export Plug-In . SVG Version: 6.00 Build 0)  -->
<!DOCTYPE svg PUBLIC "-//W3C//DTD SVG 1.1//EN" "http://www.w3.org/Graphics/SVG/1.1/DTD/svg11.dtd">
<svg version="1.1" id="Layer_1" xmlns="http://www.w3.org/2000/svg" xmlns:xlink="http://www.w3.org/1999/xlink" x="0px" y="0px"
	 width="487px" height="161px" viewBox="0 0 487 161" enable-background="new 0 0 487 161" xml:space="preserve">
<g id="change1">
	<g>
		<path fill="#3EBE85" d="M109.4,145.7c0.5-0.2-0.2-0.4-0.7-0.6l-0.5,0.6L109.4,145.7z"/>
		<path fill="#3EBE85" d="M106.7,145.6l-1.4,0.7l1-0.3c1.1,0.3-0.1,0.7-0.6,0.8C107.6,146.6,106.4,145.9,106.7,145.6z"/>
		<path fill="#3EBE85" d="M104,146.1c-0.9,0-0.6,0.4-0.3,0.5C103.8,146.4,104.4,146.2,104,146.1z"/>
		<path fill="#3EBE85" d="M49,144.2c0.2,0.1,0.5,0.2,0.5,0.3C49.8,144.3,49.9,144.2,49,144.2z"/>
		<path fill="#3EBE85" d="M49.5,144.4c-0.1,0-0.1,0-0.2,0.1C49.4,144.5,49.4,144.5,49.5,144.4C49.5,144.5,49.5,144.5,49.5,144.4z"/>
		<path fill="#3EBE85" d="M67.4,149.6c1-0.3,1.6-0.1,2.5-0.3l0.5,0.5c1-0.2,0.5-0.4,1.2-0.7c0.9,0.3,2.9,0,3.3,0
			c0.3,0.2-0.4,0.3-0.5,0.5c1.2-0.2,1.1-0.7,2.6-0.7l0,0.1c3.6-0.7,8.1-0.6,12-1c-0.3,0-0.2-0.1-0.3-0.2c4.2-0.2,9-0.2,12.3-1.5
			c-2.3,0.1-6.1-0.7-8.4,0.2c-0.8-0.4-2.2,0.2-2.5-0.4c-3.3-0.2-4.6,0.7-7.8,0.7c-0.5-0.1-0.2-0.4-0.4-0.6l2.5-0.3L83,146
			c0.7-0.2,2.3-0.1,2.4-0.5c-2.2,0.6-5.7,0.1-7.6,0.8c0.9,0.1,2,0,3.1,0c0.5,0.2,1.2,0.3,1.1,0.5c-3,0.7-5.5,0.4-8.7,0.6
			c-0.8,0.1-1.8,0-2-0.2c0.5-0.1,0.1-0.3,0.5-0.4c-1.1,0.2-0.1,0.9-1.7,0.8l0.2-0.9c-0.6,0.9-2-0.2-3.1,0.4
			c-0.4-0.3,0.3-0.6,1.2-0.6c-1-0.2-1.1,0.4-1.9,0.3l0.8-0.7c-0.8,0.7-1.5-0.1-2-0.4c-0.1,0.2,0.4,0.7-0.7,0.7
			c-0.5-0.1-0.2-0.3-0.3-0.4c-0.1,0.2-0.4,0.5-1.1,0.5c-0.1-0.2,0.5-0.4,0.5-0.6c-0.5,0-1,0.1-1.3-0.1c-0.9,0.2,0.1,0.4-0.5,0.6
			c-1.4-0.2-0.1-0.9-0.7-1.4c1.1-0.4,2.5-0.5,3-0.7l-2.1,0.2c0.1-0.3-1.4-0.5-0.3-0.8c-2.1-0.3-4.5,0.1-6.5,0.3
			c0.3,0.1,0.6,0.2,0.6,0.3c-1,0.2-0.9-0.2-1.1-0.4c-0.8,0.2-0.7,0.7-1.1,1.1c-1.6-0.4-1.8-0.2-3.1-0.8l0.1,0.5
			c-0.9-0.4-1.1,0.4-2.1,0.1c-0.1-0.1,0.3-0.2,0.6-0.4c-0.9,0.2-0.8-0.4-1.7-0.2l0.7-0.6c-0.7,0-1.7,0.2-1.4-0.3
			c-1.2,0.6-3.4,0.3-4.9,0.7l0.1-0.4c-0.8,0.5-2.9,0-3.6,0.6l-0.1-0.2l-1.6,0.6c-0.7-0.1-0.5-0.7-0.5-0.5c-1.6,0.1-2.8,0.2-3.8-0.1
			c-0.3,0.6-1.9,0.7-3.2,0.8c-6.3-0.4-13,0.2-18.9,0.9c-0.9,0-2.1,0.7-3.2,1c1.3,0.1,1.5-0.1,2.8-0.2c1,0.2,1.4,0.8,2.2,1.1
			l-0.4-0.5c1.3-0.4,0.9,0.3,2-0.2l0,0.8c0.4-0.4,1.3-0.1,1.7,0.1l0.3-0.5c0.8,0.3,1.4,0.4,1.6,0.9l-0.1-0.5
			c0.3,0.3,3.2-0.1,2.2,0.8c0.2-0.1,0.5-0.4,1-0.3l0.1,0.5c0.8-0.1,1.6-0.2,1.9,0.1c-0.4,0.1-0.6,0.3-0.7,0.6
			c3.3,0.1,0.7-1.6,3.6-1.7l0,0.3l0.7-0.3l0.8,0.4c1-1.1,4,0.1,5.8-0.5c0.7-0.1,1.6,0.6,2.9,0.5l-0.1-0.5c1,0.5,5,0.8,5.9,2
			c1-0.4-0.1-0.1-0.1-0.5c1.9-0.5,2.1,0.3,3.1,0.6c1.2-0.3-0.9-0.2-0.3-0.6c1.8,0.4,1.5-0.6,3.7-0.3c0.2,0.3-0.6,0.2-0.8,0.4
			c1.6-0.5,4.5-0.2,6.9-0.3c2.7,0.4,6.7,0.5,9.8,0.9l0.1-0.2c1.3,0.5,2.7,0,4.2,0.2L67.4,149.6z"/>
		<path fill="#3EBE85" d="M86.1,144.9l-0.2-0.4l-1.4,0.3C85,145.1,85.3,144.8,86.1,144.9z"/>
		<polygon fill="#3EBE85" points="85.8,146.2 86.5,146 85.3,146 		"/>
		<polygon fill="#3EBE85" points="67.5,145.5 67.7,145.6 70.5,145.2 		"/>
		<path fill="#3EBE85" d="M49.1,143.7c0.3-0.2,0.8-0.1,1.1-0.3l-1.3,0.2L49.1,143.7z"/>
		<path fill="#3EBE85" d="M36.8,142c-0.5,0.8-1,0-0.3,0.7C37.2,142.6,36.5,142.3,36.8,142z"/>
		<path fill="#3EBE85" d="M33.9,143.1c0.4,0,0.7-0.1,0.9-0.2C34.2,142.6,34.2,143,33.9,143.1z"/>
	</g>
	<g>
		<path fill="#3EBE85" d="M379.7,146.1c-0.5,0.2,0.2,0.4,0.7,0.6l0.5-0.6L379.7,146.1z"/>
		<path fill="#3EBE85" d="M382.5,146.3l1.4-0.7l-1,0.3c-1.1-0.3,0.1-0.7,0.6-0.8C381.6,145.3,382.8,145.9,382.5,146.3z"/>
		<path fill="#3EBE85" d="M385.2,145.8c0.9,0,0.6-0.4,0.3-0.5C385.4,145.5,384.8,145.7,385.2,145.8z"/>
		<path fill="#3EBE85" d="M440.1,147.7c-0.2-0.1-0.5-0.2-0.5-0.3C439.4,147.6,439.3,147.7,440.1,147.7z"/>
		<path fill="#3EBE85" d="M439.6,147.4c0.1,0,0.1,0,0.2-0.1C439.8,147.4,439.7,147.4,439.6,147.4
			C439.6,147.4,439.6,147.4,439.6,147.4z"/>
		<path fill="#3EBE85" d="M421.8,142.3c-1,0.3-1.6,0.1-2.5,0.3l-0.5-0.5c-1,0.2-0.5,0.4-1.2,0.7c-0.9-0.3-2.9,0-3.3,0
			c-0.3-0.2,0.4-0.3,0.5-0.5c-1.2,0.2-1.1,0.7-2.6,0.7l0-0.1c-3.6,0.7-8.1,0.6-12,1c0.3,0,0.2,0.1,0.3,0.2c-4.2,0.2-9,0.2-12.3,1.5
			c2.3-0.1,6.1,0.7,8.4-0.2c0.8,0.4,2.2-0.2,2.5,0.4c3.3,0.2,4.6-0.7,7.8-0.7c0.5,0.1,0.2,0.4,0.4,0.6l-2.5,0.3l1.5,0.2
			c-0.7,0.2-2.3,0.1-2.4,0.5c2.2-0.6,5.7-0.1,7.6-0.8c-0.9-0.1-2,0-3.1,0c-0.5-0.2-1.2-0.3-1.1-0.5c3-0.7,5.5-0.4,8.7-0.6
			c0.8-0.1,1.8,0,2,0.2c-0.5,0.1-0.1,0.3-0.5,0.4c1.1-0.2,0.1-0.9,1.7-0.8l-0.2,0.9c0.6-0.9,2,0.2,3.1-0.4c0.4,0.3-0.3,0.6-1.2,0.6
			c1,0.2,1.1-0.4,1.9-0.3l-0.8,0.7c0.8-0.7,1.5,0.1,2,0.4c0.1-0.2-0.4-0.7,0.7-0.7c0.5,0.1,0.2,0.3,0.3,0.4c0.1-0.2,0.4-0.5,1.1-0.5
			c0.1,0.2-0.5,0.4-0.5,0.6c0.5,0,1-0.1,1.3,0.1c0.9-0.2-0.1-0.4,0.5-0.6c1.4,0.2,0.1,0.9,0.7,1.4c-1.1,0.4-2.5,0.5-3,0.7l2.1-0.2
			c-0.1,0.3,1.4,0.5,0.3,0.8c2.1,0.3,4.5-0.1,6.5-0.3c-0.3-0.1-0.6-0.2-0.6-0.3c1-0.2,0.9,0.2,1.1,0.4c0.8-0.2,0.7-0.7,1.1-1.1
			c1.6,0.4,1.8,0.2,3.1,0.8l-0.1-0.5c0.9,0.4,1.1-0.4,2.1-0.1c0.1,0.1-0.3,0.2-0.6,0.4c0.9-0.2,0.8,0.4,1.7,0.2l-0.7,0.6
			c0.7,0,1.7-0.2,1.4,0.3c1.2-0.6,3.4-0.3,4.9-0.7l-0.1,0.4c0.8-0.5,2.9,0,3.6-0.6l0.1,0.2l1.6-0.6c0.7,0.1,0.5,0.7,0.5,0.5
			c1.6-0.1,2.8-0.2,3.8,0.1c0.3-0.6,1.9-0.7,3.2-0.8c6.3,0.4,13-0.2,18.9-0.9c0.9,0,2.1-0.7,3.2-1c-1.3-0.1-1.5,0.1-2.8,0.2
			c-1-0.2-1.4-0.8-2.2-1.1l0.4,0.5c-1.3,0.4-0.9-0.3-2,0.2l0-0.8c-0.4,0.4-1.3,0.1-1.7-0.1l-0.3,0.5c-0.8-0.3-1.4-0.4-1.6-0.9
			l0.1,0.5c-0.3-0.3-3.2,0.1-2.2-0.8c-0.2,0.1-0.5,0.4-1,0.3l-0.1-0.5c-0.8,0.1-1.6,0.2-1.9-0.1c0.4-0.1,0.6-0.3,0.7-0.6
			c-3.3-0.1-0.7,1.6-3.6,1.7l0-0.3l-0.7,0.3l-0.8-0.4c-1,1.1-4-0.1-5.8,0.5c-0.7,0.1-1.6-0.6-2.9-0.5l0.1,0.5c-1-0.5-5-0.8-5.9-2
			c-1,0.4,0.1,0.1,0.1,0.5c-1.9,0.5-2.1-0.3-3.1-0.6c-1.2,0.3,0.9,0.2,0.3,0.6c-1.8-0.4-1.5,0.6-3.7,0.3c-0.2-0.3,0.6-0.2,0.8-0.4
			c-1.6,0.5-4.5,0.2-6.9,0.3c-2.7-0.4-6.7-0.5-9.8-0.9l-0.1,0.2c-1.3-0.5-2.7,0-4.2-0.2L421.8,142.3z"/>
		<path fill="#3EBE85" d="M403.1,147l0.2,0.4l1.4-0.3C404.2,146.8,403.9,147.1,403.1,147z"/>
		<polygon fill="#3EBE85" points="403.4,145.7 402.6,145.9 403.8,145.9 		"/>
		<polygon fill="#3EBE85" points="421.6,146.4 421.4,146.3 418.7,146.7 		"/>
		<path fill="#3EBE85" d="M440,148.1c-0.3,0.2-0.8,0.1-1.1,0.3l1.3-0.2L440,148.1z"/>
		<path fill="#3EBE85" d="M452.4,149.9c0.5-0.8,1,0,0.3-0.7C452,149.3,452.6,149.6,452.4,149.9z"/>
		<path fill="#3EBE85" d="M455.3,148.7c-0.4,0-0.7,0.1-0.9,0.2C454.9,149.3,455,148.9,455.3,148.7z"/>
	</g>
</g>
<g id="T">
	<text transform="matrix(1 0 0 1 2.541 107.0405)" fill="#22B573" font-family="'FredokaOne-Regular'" font-size="121.3776">MEXICO</text>
	<rect fill="none" width="487" height="140"/>
</g>
<g id="T_1_">
	<text transform="matrix(1 0 0 1 148.6626 150.9043)" fill="#22B573" font-family="'SpecialElite-Regular'" font-size="18.6207">T H E&#160; L O W - D O W N</text>
	<rect x="117" y="132" fill="none" width="253" height="29"/>
</g>
</svg>
