<?xml version="1.0" encoding="utf-8"?>
<!-- Generator: Adobe Illustrator 17.1.0, SVG Export Plug-In . SVG Version: 6.00 Build 0)  -->
<!DOCTYPE svg PUBLIC "-//W3C//DTD SVG 1.1//EN" "http://www.w3.org/Graphics/SVG/1.1/DTD/svg11.dtd">
<svg version="1.1" id="Layer_1" xmlns="http://www.w3.org/2000/svg" xmlns:xlink="http://www.w3.org/1999/xlink" x="0px" y="0px"
	 width="481px" height="239px" viewBox="0 0 481 239" enable-background="new 0 0 481 239" xml:space="preserve">
<g id="change1_1_">
	<path fill="#FB7F84" d="M151.4,159.4c0,0,0.1,1.9,1.4,3.2c1.3,1.3,3.2,1.4,3.2,1.4s-0.1-1.9-1.4-3.2
		C153.3,159.5,151.4,159.4,151.4,159.4z"/>
	<path fill="#FB7F84" d="M151.4,168.5c0,0,1.9-0.1,3.2-1.4c1.3-1.3,1.4-3.2,1.4-3.2s-1.9,0.1-3.2,1.4
		C151.5,166.6,151.4,168.5,151.4,168.5z"/>
	<path fill="#FB7F84" d="M145.7,159.4c0,0,0.1,1.9,1.4,3.2c1.3,1.3,3.2,1.4,3.2,1.4s-0.1-1.9-1.4-3.2S145.7,159.4,145.7,159.4z"/>
	<path fill="#FB7F84" d="M145.7,168.5c0,0,1.9-0.1,3.2-1.4c1.3-1.3,1.4-3.2,1.4-3.2s-1.9,0.1-3.2,1.4S145.7,168.5,145.7,168.5z"/>
	<path fill="#FB7F84" d="M140.1,159.4c0,0,0.1,1.9,1.4,3.2c1.3,1.3,3.2,1.4,3.2,1.4s-0.1-1.9-1.4-3.2
		C142,159.5,140.1,159.4,140.1,159.4z"/>
	<path fill="#FB7F84" d="M140.1,168.5c0,0,1.9-0.1,3.2-1.4c1.3-1.3,1.4-3.2,1.4-3.2s-1.9,0.1-3.2,1.4
		C140.2,166.6,140.1,168.5,140.1,168.5z"/>
	<path fill="#FB7F84" d="M134.5,159.4c0,0,0.1,1.9,1.4,3.2c1.3,1.3,3.2,1.4,3.2,1.4s-0.1-1.9-1.4-3.2S134.5,159.4,134.5,159.4z"/>
	<path fill="#FB7F84" d="M134.5,168.5c0,0,1.9-0.1,3.2-1.4c1.3-1.3,1.4-3.2,1.4-3.2s-1.9,0.1-3.2,1.4S134.5,168.5,134.5,168.5z"/>
	<path fill="#FB7F84" d="M128.8,159.4c0,0,0.1,1.9,1.4,3.2c1.3,1.3,3.2,1.4,3.2,1.4s-0.1-1.9-1.4-3.2
		C130.7,159.5,128.8,159.4,128.8,159.4z"/>
	<path fill="#FB7F84" d="M128.8,168.5c0,0,1.9-0.1,3.2-1.4c1.3-1.3,1.4-3.2,1.4-3.2s-1.9,0.1-3.2,1.4
		C129,166.6,128.8,168.5,128.8,168.5z"/>
	<path fill="#FB7F84" d="M123.2,159.4c0,0,0.1,1.9,1.4,3.2c1.3,1.3,3.2,1.4,3.2,1.4s-0.1-1.9-1.4-3.2
		C125.1,159.5,123.2,159.4,123.2,159.4z"/>
	<path fill="#FB7F84" d="M123.2,168.5c0,0,1.9-0.1,3.2-1.4c1.3-1.3,1.4-3.2,1.4-3.2s-1.9,0.1-3.2,1.4
		C123.3,166.6,123.2,168.5,123.2,168.5z"/>
	<path fill="#FB7F84" d="M117.5,159.4c0,0,0.1,1.9,1.4,3.2c1.3,1.3,3.2,1.4,3.2,1.4s-0.1-1.9-1.4-3.2
		C119.5,159.5,117.5,159.4,117.5,159.4z"/>
	<path fill="#FB7F84" d="M117.5,168.5c0,0,1.9-0.1,3.2-1.4c1.3-1.3,1.4-3.2,1.4-3.2s-1.9,0.1-3.2,1.4
		C117.7,166.6,117.5,168.5,117.5,168.5z"/>
	<path fill="#FB7F84" d="M111.9,159.4c0,0,0.1,1.9,1.4,3.2c1.3,1.3,3.2,1.4,3.2,1.4s-0.1-1.9-1.4-3.2
		C113.8,159.5,111.9,159.4,111.9,159.4z"/>
	<path fill="#FB7F84" d="M111.9,168.5c0,0,1.9-0.1,3.2-1.4c1.3-1.3,1.4-3.2,1.4-3.2s-1.9,0.1-3.2,1.4
		C112,166.6,111.9,168.5,111.9,168.5z"/>
	<path fill="#FB7F84" d="M106.3,159.4c0,0,0.1,1.9,1.4,3.2c1.3,1.3,3.2,1.4,3.2,1.4s-0.1-1.9-1.4-3.2
		C108.2,159.5,106.3,159.4,106.3,159.4z"/>
	<path fill="#FB7F84" d="M106.3,168.5c0,0,1.9-0.1,3.2-1.4c1.3-1.3,1.4-3.2,1.4-3.2s-1.9,0.1-3.2,1.4S106.3,168.5,106.3,168.5z"/>
	<path fill="#FB7F84" d="M100.6,159.4c0,0,0.1,1.9,1.4,3.2c1.3,1.3,3.2,1.4,3.2,1.4s-0.1-1.9-1.4-3.2
		C102.5,159.5,100.6,159.4,100.6,159.4z"/>
	<path fill="#FB7F84" d="M100.6,168.5c0,0,1.9-0.1,3.2-1.4c1.3-1.3,1.4-3.2,1.4-3.2s-1.9,0.1-3.2,1.4S100.6,168.5,100.6,168.5z"/>
	<path fill="#FB7F84" d="M95,159.4c0,0,0.1,1.9,1.4,3.2c1.3,1.3,3.2,1.4,3.2,1.4s-0.1-1.9-1.4-3.2C96.9,159.5,95,159.4,95,159.4z"/>
	<path fill="#FB7F84" d="M95,168.5c0,0,1.9-0.1,3.2-1.4c1.3-1.3,1.4-3.2,1.4-3.2s-1.9,0.1-3.2,1.4S95,168.5,95,168.5z"/>
	<path fill="#FB7F84" d="M89.4,159.4c0,0,0.1,1.9,1.4,3.2c1.3,1.3,3.2,1.4,3.2,1.4s-0.1-1.9-1.4-3.2
		C91.3,159.5,89.4,159.4,89.4,159.4z"/>
	<path fill="#FB7F84" d="M89.4,168.5c0,0,1.9-0.1,3.2-1.4c1.3-1.3,1.4-3.2,1.4-3.2s-1.9,0.1-3.2,1.4S89.4,168.5,89.4,168.5z"/>
	<path fill="#FB7F84" d="M83.7,159.4c0,0,0.1,1.9,1.4,3.2c1.3,1.3,3.2,1.4,3.2,1.4s-0.1-1.9-1.4-3.2
		C85.6,159.5,83.7,159.4,83.7,159.4z"/>
	<path fill="#FB7F84" d="M83.7,168.5c0,0,1.9-0.1,3.2-1.4c1.3-1.3,1.4-3.2,1.4-3.2s-1.9,0.1-3.2,1.4S83.7,168.5,83.7,168.5z"/>
	<path fill="#FB7F84" d="M78.1,159.4c0,0,0.1,1.9,1.4,3.2c1.3,1.3,3.2,1.4,3.2,1.4s-0.1-1.9-1.4-3.2C80,159.5,78.1,159.4,78.1,159.4
		z"/>
	<path fill="#FB7F84" d="M78.3,168.6c0,0,1.9-0.3,3-1.6c1.2-1.3,1.1-3.3,1.1-3.3s-1.9,0.3-3,1.6S78.3,168.6,78.3,168.6z"/>
	<path fill="#FB7F84" d="M72.4,159.4c0,0,0.1,1.9,1.4,3.2c1.3,1.3,3.2,1.4,3.2,1.4s-0.1-1.9-1.4-3.2
		C74.3,159.5,72.4,159.4,72.4,159.4z"/>
	<path fill="#FB7F84" d="M72.4,168.5c0,0,1.9-0.1,3.2-1.4c1.3-1.3,1.4-3.2,1.4-3.2s-1.9,0.1-3.2,1.4S72.4,168.5,72.4,168.5z"/>
	<path fill="#FB7F84" d="M66.8,159.4c0,0,0.1,1.9,1.4,3.2c1.3,1.3,3.2,1.4,3.2,1.4s-0.1-1.9-1.4-3.2
		C68.7,159.5,66.8,159.4,66.8,159.4z"/>
	<path fill="#FB7F84" d="M66.8,168.5c0,0,1.9-0.1,3.2-1.4c1.3-1.3,1.4-3.2,1.4-3.2s-1.9,0.1-3.2,1.4S66.8,168.5,66.8,168.5z"/>
	<path fill="#FB7F84" d="M61.2,159.4c0,0,0.1,1.9,1.4,3.2c1.3,1.3,3.2,1.4,3.2,1.4s-0.1-1.9-1.4-3.2
		C63.1,159.5,61.2,159.4,61.2,159.4z"/>
	<path fill="#FB7F84" d="M61.2,168.5c0,0,1.9-0.1,3.2-1.4c1.3-1.3,1.4-3.2,1.4-3.2s-1.9,0.1-3.2,1.4S61.2,168.5,61.2,168.5z"/>
	<path fill="#FB7F84" d="M55.5,159.4c0,0,0.1,1.9,1.4,3.2c1.3,1.3,3.2,1.4,3.2,1.4s-0.1-1.9-1.4-3.2S55.5,159.4,55.5,159.4z"/>
	<path fill="#FB7F84" d="M55.5,168.5c0,0,1.9-0.1,3.2-1.4c1.3-1.3,1.4-3.2,1.4-3.2s-1.9,0.1-3.2,1.4S55.5,168.5,55.5,168.5z"/>
	<path fill="#FB7F84" d="M49.9,159.4c0,0,0.1,1.9,1.4,3.2c1.3,1.3,3.2,1.4,3.2,1.4s-0.1-1.9-1.4-3.2S49.9,159.4,49.9,159.4z"/>
	<path fill="#FB7F84" d="M49.9,168.5c0,0,1.9-0.1,3.2-1.4c1.3-1.3,1.4-3.2,1.4-3.2s-1.9,0.1-3.2,1.4S49.9,168.5,49.9,168.5z"/>
</g>
<g id="change1">
	<path fill="#FB7F84" d="M330.6,159.4c0,0-0.1,1.9-1.4,3.2c-1.3,1.3-3.2,1.4-3.2,1.4s0.1-1.9,1.4-3.2S330.6,159.4,330.6,159.4z"/>
	<path fill="#FB7F84" d="M330.6,168.5c0,0-1.9-0.1-3.2-1.4c-1.3-1.3-1.4-3.2-1.4-3.2s1.9,0.1,3.2,1.4S330.6,168.5,330.6,168.5z"/>
	<path fill="#FB7F84" d="M336.3,159.4c0,0-0.1,1.9-1.4,3.2c-1.3,1.3-3.2,1.4-3.2,1.4s0.1-1.9,1.4-3.2S336.3,159.4,336.3,159.4z"/>
	<path fill="#FB7F84" d="M336.3,168.5c0,0-1.9-0.1-3.2-1.4c-1.3-1.3-1.4-3.2-1.4-3.2s1.9,0.1,3.2,1.4S336.3,168.5,336.3,168.5z"/>
	<path fill="#FB7F84" d="M341.9,159.4c0,0-0.1,1.9-1.4,3.2c-1.3,1.3-3.2,1.4-3.2,1.4s0.1-1.9,1.4-3.2S341.9,159.4,341.9,159.4z"/>
	<path fill="#FB7F84" d="M341.9,168.5c0,0-1.9-0.1-3.2-1.4c-1.3-1.3-1.4-3.2-1.4-3.2s1.9,0.1,3.2,1.4S341.9,168.5,341.9,168.5z"/>
	<path fill="#FB7F84" d="M347.5,159.4c0,0-0.1,1.9-1.4,3.2c-1.3,1.3-3.2,1.4-3.2,1.4s0.1-1.9,1.4-3.2
		C345.6,159.5,347.5,159.4,347.5,159.4z"/>
	<path fill="#FB7F84" d="M347.5,168.5c0,0-1.9-0.1-3.2-1.4c-1.3-1.3-1.4-3.2-1.4-3.2s1.9,0.1,3.2,1.4
		C347.4,166.6,347.5,168.5,347.5,168.5z"/>
	<path fill="#FB7F84" d="M353.2,159.4c0,0-0.1,1.9-1.4,3.2c-1.3,1.3-3.2,1.4-3.2,1.4s0.1-1.9,1.4-3.2S353.2,159.4,353.2,159.4z"/>
	<path fill="#FB7F84" d="M353.2,168.5c0,0-1.9-0.1-3.2-1.4c-1.3-1.3-1.4-3.2-1.4-3.2s1.9,0.1,3.2,1.4S353.2,168.5,353.2,168.5z"/>
	<path fill="#FB7F84" d="M358.8,159.4c0,0-0.1,1.9-1.4,3.2c-1.3,1.3-3.2,1.4-3.2,1.4s0.1-1.9,1.4-3.2S358.8,159.4,358.8,159.4z"/>
	<path fill="#FB7F84" d="M358.8,168.5c0,0-1.9-0.1-3.2-1.4c-1.3-1.3-1.4-3.2-1.4-3.2s1.9,0.1,3.2,1.4S358.8,168.5,358.8,168.5z"/>
	<path fill="#FB7F84" d="M364.5,159.4c0,0-0.1,1.9-1.4,3.2c-1.3,1.3-3.2,1.4-3.2,1.4s0.1-1.9,1.4-3.2S364.5,159.4,364.5,159.4z"/>
	<path fill="#FB7F84" d="M364.5,168.5c0,0-1.9-0.1-3.2-1.4c-1.3-1.3-1.4-3.2-1.4-3.2s1.9,0.1,3.2,1.4S364.5,168.5,364.5,168.5z"/>
	<path fill="#FB7F84" d="M370.1,159.4c0,0-0.1,1.9-1.4,3.2c-1.3,1.3-3.2,1.4-3.2,1.4s0.1-1.9,1.4-3.2
		C368.2,159.5,370.1,159.4,370.1,159.4z"/>
	<path fill="#FB7F84" d="M370.1,168.5c0,0-1.9-0.1-3.2-1.4c-1.3-1.3-1.4-3.2-1.4-3.2s1.9,0.1,3.2,1.4
		C370,166.6,370.1,168.5,370.1,168.5z"/>
	<path fill="#FB7F84" d="M375.7,159.4c0,0-0.1,1.9-1.4,3.2c-1.3,1.3-3.2,1.4-3.2,1.4s0.1-1.9,1.4-3.2S375.7,159.4,375.7,159.4z"/>
	<path fill="#FB7F84" d="M375.7,168.5c0,0-1.9-0.1-3.2-1.4c-1.3-1.3-1.4-3.2-1.4-3.2s1.9,0.1,3.2,1.4S375.7,168.5,375.7,168.5z"/>
	<path fill="#FB7F84" d="M381.4,159.4c0,0-0.1,1.9-1.4,3.2c-1.3,1.3-3.2,1.4-3.2,1.4s0.1-1.9,1.4-3.2S381.4,159.4,381.4,159.4z"/>
	<path fill="#FB7F84" d="M381.4,168.5c0,0-1.9-0.1-3.2-1.4c-1.3-1.3-1.4-3.2-1.4-3.2s1.9,0.1,3.2,1.4S381.4,168.5,381.4,168.5z"/>
	<path fill="#FB7F84" d="M387,159.4c0,0-0.1,1.9-1.4,3.2c-1.3,1.3-3.2,1.4-3.2,1.4s0.1-1.9,1.4-3.2S387,159.4,387,159.4z"/>
	<path fill="#FB7F84" d="M387,168.5c0,0-1.9-0.1-3.2-1.4c-1.3-1.3-1.4-3.2-1.4-3.2s1.9,0.1,3.2,1.4S387,168.5,387,168.5z"/>
	<path fill="#FB7F84" d="M392.6,159.4c0,0-0.1,1.9-1.4,3.2c-1.3,1.3-3.2,1.4-3.2,1.4s0.1-1.9,1.4-3.2
		C390.7,159.5,392.6,159.4,392.6,159.4z"/>
	<path fill="#FB7F84" d="M392.6,168.5c0,0-1.9-0.1-3.2-1.4c-1.3-1.3-1.4-3.2-1.4-3.2s1.9,0.1,3.2,1.4
		C392.5,166.6,392.6,168.5,392.6,168.5z"/>
	<path fill="#FB7F84" d="M398.3,159.4c0,0-0.1,1.9-1.4,3.2c-1.3,1.3-3.2,1.4-3.2,1.4s0.1-1.9,1.4-3.2S398.3,159.4,398.3,159.4z"/>
	<path fill="#FB7F84" d="M398.3,168.5c0,0-1.9-0.1-3.2-1.4c-1.3-1.3-1.4-3.2-1.4-3.2s1.9,0.1,3.2,1.4S398.3,168.5,398.3,168.5z"/>
	<path fill="#FB7F84" d="M403.9,159.4c0,0-0.1,1.9-1.4,3.2c-1.3,1.3-3.2,1.4-3.2,1.4s0.1-1.9,1.4-3.2S403.9,159.4,403.9,159.4z"/>
	<path fill="#FB7F84" d="M403.7,168.6c0,0-1.9-0.3-3-1.6c-1.2-1.3-1.1-3.3-1.1-3.3s1.9,0.3,3,1.6
		C403.8,166.7,403.7,168.6,403.7,168.6z"/>
	<path fill="#FB7F84" d="M409.6,159.4c0,0-0.1,1.9-1.4,3.2c-1.3,1.3-3.2,1.4-3.2,1.4s0.1-1.9,1.4-3.2S409.6,159.4,409.6,159.4z"/>
	<path fill="#FB7F84" d="M409.6,168.5c0,0-1.9-0.1-3.2-1.4c-1.3-1.3-1.4-3.2-1.4-3.2s1.9,0.1,3.2,1.4S409.6,168.5,409.6,168.5z"/>
	<path fill="#FB7F84" d="M415.2,159.4c0,0-0.1,1.9-1.4,3.2c-1.3,1.3-3.2,1.4-3.2,1.4s0.1-1.9,1.4-3.2S415.2,159.4,415.2,159.4z"/>
	<path fill="#FB7F84" d="M415.2,168.5c0,0-1.9-0.1-3.2-1.4c-1.3-1.3-1.4-3.2-1.4-3.2s1.9,0.1,3.2,1.4
		C415.1,166.6,415.2,168.5,415.2,168.5z"/>
	<path fill="#FB7F84" d="M420.8,159.4c0,0-0.1,1.9-1.4,3.2c-1.3,1.3-3.2,1.4-3.2,1.4s0.1-1.9,1.4-3.2S420.8,159.4,420.8,159.4z"/>
	<path fill="#FB7F84" d="M420.8,168.5c0,0-1.9-0.1-3.2-1.4c-1.3-1.3-1.4-3.2-1.4-3.2s1.9,0.1,3.2,1.4S420.8,168.5,420.8,168.5z"/>
	<path fill="#FB7F84" d="M426.5,159.4c0,0-0.1,1.9-1.4,3.2c-1.3,1.3-3.2,1.4-3.2,1.4s0.1-1.9,1.4-3.2S426.5,159.4,426.5,159.4z"/>
	<path fill="#FB7F84" d="M426.5,168.5c0,0-1.9-0.1-3.2-1.4c-1.3-1.3-1.4-3.2-1.4-3.2s1.9,0.1,3.2,1.4S426.5,168.5,426.5,168.5z"/>
	<path fill="#FB7F84" d="M432.1,159.4c0,0-0.1,1.9-1.4,3.2c-1.3,1.3-3.2,1.4-3.2,1.4s0.1-1.9,1.4-3.2S432.1,159.4,432.1,159.4z"/>
	<path fill="#FB7F84" d="M432.1,168.5c0,0-1.9-0.1-3.2-1.4c-1.3-1.3-1.4-3.2-1.4-3.2s1.9,0.1,3.2,1.4S432.1,168.5,432.1,168.5z"/>
</g>
<g id="T_2_">
	<rect y="39" fill="none" width="481" height="102"/>
	<text transform="matrix(1 0 0 1 49.2249 110.8902)" fill="#FB7F84" font-family="'Coustard'" font-size="86.5863">QUINOA</text>
</g>
<g id="T_1_">
	<rect x="49" fill="none" width="383" height="41"/>
	<g>
		<text transform="matrix(1 0 0 1 204.931 28.1156)" fill="#FB7F84" font-family="'Coustard'" font-size="30.0954">THE </text>
	</g>
</g>
<g id="T">
	<rect x="163" y="141" fill="none" width="156" height="46"/>
	<g>
		<text transform="matrix(1 0 0 1 184.7608 180.182)" fill="#FB7F84" font-family="'Coustard'" font-size="43.1134">WAY</text>
	</g>
</g>
<g id="T_3_">
	<rect x="47" y="204" fill="none" width="387" height="35"/>
	<g>
		<text transform="matrix(1 0 0 1 98.1882 223.5888)" fill="#FB7F84" font-family="'Arvo'" font-size="21.2164">Your guide to healthy living</text>
	</g>
</g>
</svg>
