<?xml version="1.0" encoding="utf-8"?>
<!-- Generator: Adobe Illustrator 17.1.0, SVG Export Plug-In . SVG Version: 6.00 Build 0)  -->
<!DOCTYPE svg PUBLIC "-//W3C//DTD SVG 1.1//EN" "http://www.w3.org/Graphics/SVG/1.1/DTD/svg11.dtd">
<svg version="1.1" id="Layer_1" xmlns="http://www.w3.org/2000/svg" xmlns:xlink="http://www.w3.org/1999/xlink" x="0px" y="0px"
	 width="384.8px" height="164px" viewBox="63.8 0 384.8 164" enable-background="new 63.8 0 384.8 164" xml:space="preserve">
<g id="change1">
	<path fill="#FBB03B" d="M254.1,105.5c0,0-0.1,0.2-0.3,0.7c-0.3,0.5-0.6,1.1-1.3,1.9c-1.2,1.6-3.3,3.8-6.5,5.7
		c-3.2,1.9-7.5,3.6-12.6,4.5s-11,1.1-17.3-0.4c-3.1-0.7-6.3-1.9-9.3-3.5c-3-1.7-5.9-3.9-8.3-6.8c-0.3-0.4-0.6-0.7-0.9-1.1
		c-0.3-0.4-0.5-0.8-0.8-1.3c-0.4-0.9-0.8-1.9-0.8-3c-0.1-1,0.1-2.3,1-3.3s2.2-1.2,3.2-1.2c0.1,0,0.3,0,0.4,0h0.2h0.1
		c0,0,0.1,0,0.2,0c0.1,0,0.7,0.1,0.9,0.3c0.6,0.3,1,0.7,1.4,1.1c0.7,0.9,1,2.2,0.7,3.4c-0.3,1.2-1.1,2-1.9,2.7
		c-0.8,0.7-1.7,1.2-2.6,1.6c-3.6,1.7-7.6,2.4-11.5,3.1c-2,0.3-4,0.6-6,0.7c-2,0.2-4.1,0.2-6.1,0.3c-8.2,0.1-16.5-0.7-24.6-2
		c-4.1-0.6-8.1-1.5-12.1-2.3c-4-0.9-7.9-1.7-11.9-2.6c-7.8-1.7-15.5-3.4-23-4.7C97,98,89.7,97,83.2,97.7c-3.3,0.4-6.3,1.2-8.6,2.8
		c-2.3,1.6-3.6,4.1-4.1,6.9c-0.1,0.7-0.2,1.4-0.2,2.1c0,0.6,0,1.4,0,2c0.1,1.3,0.4,2.6,0.9,3.8c0.9,2.3,2.6,4.2,4.5,5.5s4,2,6,2.4
		c2,0.3,3.9,0.3,5.6,0c3.4-0.6,5.7-2.1,7-3.3c0.7-0.6,1.1-1.2,1.4-1.6s0.4-0.6,0.4-0.6l0,0c0.2-0.3,0.5-0.3,0.8-0.1
		c0.2,0.2,0.3,0.5,0.2,0.8c0,0-0.1,0.2-0.4,0.7c-0.3,0.4-0.7,1.1-1.4,1.8c-1.4,1.5-3.9,3.3-7.6,4.2c-1.8,0.4-3.9,0.6-6.2,0.3
		c-2.3-0.3-4.7-1-7-2.4s-4.4-3.6-5.7-6.4c-0.6-1.4-1.1-2.9-1.3-4.5c-0.1-0.8-0.2-1.6-0.1-2.4c0-0.8,0-1.6,0.1-2.4
		c0.2-1.7,0.6-3.4,1.4-5s2-3.2,3.5-4.4c3-2.4,6.7-3.6,10.3-4.2c3.7-0.6,7.4-0.6,11.2-0.5c3.8,0.1,7.6,0.6,11.4,1.1
		c7.7,1.1,15.5,2.6,23.4,4.2c3.9,0.8,7.9,1.6,11.9,2.5s7.9,1.6,11.9,2.5c7.9,1.7,15.8,3.4,23.7,4.2c2,0.2,3.9,0.3,5.9,0.4
		c2,0,3.9,0,5.8-0.2c3.9-0.4,7.7-0.9,11.1-2.4c0.8-0.4,1.6-0.8,2.3-1.4c0.7-0.5,1.2-1.2,1.3-1.9c0.4-1.3-0.9-2.9-2.2-2.6
		c-0.8,0-1.5,0.3-1.8,0.7c-0.3,0.4-0.4,1.1-0.3,1.8c0.1,0.7,0.4,1.5,0.8,2.1c0.4,0.7,0.8,1.3,1.4,1.9c2.3,2.4,5,4.3,7.8,5.7
		c2.8,1.4,5.8,2.2,8.7,2.7c5.8,1,11.2,0.9,16,0.3c4.7-0.7,8.8-1.8,11.9-3.3c3.1-1.4,5.3-3,6.6-4.3c0.7-0.6,1.1-1.2,1.4-1.5
		c0.3-0.4,0.5-0.6,0.5-0.6c0.2-0.2,0.5-0.3,0.7-0.1C254.2,105,254.2,105.3,254.1,105.5z"/>
</g>
<g id="T">
	<text transform="matrix(1 0 0 1 63.8022 75.1294)" fill="#FBB03B" font-family="'LibreBaskerville-Regular'" font-size="60.4206">Honeycomb</text>
	<rect x="67" fill="none" width="380" height="95"/>
</g>
<g id="T_2_">
	<text transform="matrix(1 0 0 1 65.4453 155.3027)" fill="#FBB03B" font-family="'LibreBaskerville-Regular'" font-size="16.047">T H E  U L T I M A T E  D I N N E R  T R E A T </text>
	<rect x="65.4" y="137" fill="none" width="383.1" height="27"/>
</g>
<g id="T_1_">
	<text transform="matrix(1 0 0 1 267.7939 118.8418)" fill="#FBB03B" font-family="'Sacramento-Regular'" font-size="67.1779">icecream</text>
	<rect x="263" y="57" fill="none" width="184" height="107"/>
</g>
</svg>
