<?xml version="1.0" encoding="utf-8"?>
<!DOCTYPE svg PUBLIC "-//W3C//DTD SVG 1.1//EN"
  "http://www.w3.org/Graphics/SVG/1.1/DTD/svg11.dtd">
<!-- Generator: Adobe Illustrator 18.1.1, SVG Export Plug-In . SVG Version: 6.00 Build 0)  -->
<svg version="1.1" id="Layer_1" xmlns="http://www.w3.org/2000/svg" xmlns:xlink="http://www.w3.org/1999/xlink" x="0px" y="0px"
	 viewBox="0 0 550 196.8" enable-background="new 0 0 550 196.8" xml:space="preserve">
<g id="change1">
	<g>
		<g>
			<path fill="#FFFFFF" d="M77.7,167.4c0.3,0.1,0.6,0.3,0.6,0.4C78.8,167.5,78.9,167.4,77.7,167.4z"/>
			<path fill="#FFFFFF" d="M78.4,167.7c-0.1,0-0.1,0-0.3,0.1C78.3,167.8,78.3,167.8,78.4,167.7C78.4,167.8,78.4,167.8,78.4,167.7z"
				/>
			<path fill="#FFFFFF" d="M101.4,174.3c1.3-0.4,2.1-0.1,3.2-0.4l0.6,0.6c1.3-0.3,0.6-0.5,1.5-0.9c1.2,0.4,3.7,0,4.2,0
				c0.4,0.3-0.5,0.4-0.6,0.6c1.5-0.3,1.4-0.9,3.3-0.9v0.1c4.6-0.9,10.4-0.8,15.4-1.3c-0.4,0-0.3-0.1-0.4-0.3
				c5.4-0.3,11.6-0.3,15.8-1.9c-3,0.1-7.8-0.9-10.8,0.3c-1-0.5-2.8,0.3-3.2-0.5c-4.2-0.3-5.9,0.9-10,0.9c-0.6-0.1-0.3-0.5-0.5-0.8
				l3.2-0.4l-1.8,0.1c0.9-0.3,3-0.1,3.1-0.6c-2.8,0.8-7.3,0.1-9.8,1c1.2,0.1,2.6,0,4,0c0.6,0.3,1.5,0.4,1.4,0.6
				c-3.9,0.9-7.1,0.5-11.2,0.8c-1,0.1-2.3,0-2.6-0.3c0.6-0.1,0.1-0.4,0.6-0.5c-1.4,0.3-0.1,1.2-2.2,1l0.3-1.2
				c-0.8,1.2-2.6-0.3-4,0.5c-0.5-0.4,0.4-0.8,1.5-0.8c-1.3-0.3-1.4,0.5-2.4,0.4l1-0.9c-1,0.9-1.9-0.1-2.6-0.5
				c-0.1,0.3,0.5,0.9-0.9,0.9c-0.6-0.1-0.3-0.4-0.4-0.5c-0.1,0.3-0.5,0.6-1.4,0.6c-0.1-0.3,0.6-0.5,0.6-0.8c-0.6,0-1.3,0.1-1.7-0.1
				c-1.2,0.3,0.1,0.5-0.6,0.8c-1.8-0.3-0.1-1.2-0.9-1.8c1.4-0.5,3.2-0.6,3.9-0.9l-2.7,0.3c0.1-0.4-1.8-0.6-0.4-1
				c-2.7-0.4-5.8,0.1-8.4,0.4c0.4,0.1,0.8,0.3,0.8,0.4c-1.3,0.3-1.2-0.3-1.4-0.5c-1,0.3-0.9,0.9-1.4,1.4c-2.1-0.5-2.3-0.3-4-1
				l0.1,0.6c-1.2-0.5-1.4,0.5-2.7,0.1c-0.1-0.1,0.4-0.3,0.8-0.5c-1.2,0.3-1-0.5-2.2-0.3l0.9-0.8c-0.9,0-2.2,0.3-1.8-0.4
				c-1.5,0.8-4.4,0.4-6.3,0.9l0.1-0.5c-1,0.6-3.7,0-4.6,0.8l-0.1-0.3l-2.1,0.8c-0.9-0.1-0.6-0.9-0.6-0.6c-2.1,0.1-3.6,0.3-4.9-0.1
				c-0.4,0.8-2.4,0.9-4.1,1c-8.1-0.5-16.7,0.3-24.3,1.2c-1.2,0-2.7,0.9-4.1,1.3c1.7,0.1,1.9-0.1,3.6-0.3c1.3,0.3,1.8,1,2.8,1.4
				l-0.5-0.6c1.7-0.5,1.2,0.4,2.6-0.3v1c0.5-0.5,1.7-0.1,2.2,0.1l0.4-0.6c1,0.4,1.8,0.5,2.1,1.2l-0.1-0.6c0.4,0.4,4.1-0.1,2.8,1
				c0.3-0.1,0.6-0.5,1.3-0.4l0.1,0.6c1-0.1,2.1-0.3,2.4,0.1c-0.5,0.1-0.8,0.4-0.9,0.8c4.2,0.1,0.9-2.1,4.6-2.2v0.4l0.9-0.4l1,0.5
				c1.3-1.4,5.1,0.1,7.5-0.6c0.9-0.1,2.1,0.8,3.7,0.6l-0.1-0.6c1.3,0.6,6.4,1,7.6,2.6c1.3-0.5-0.1-0.1-0.1-0.6
				c2.4-0.6,2.7,0.4,4,0.8c1.5-0.4-1.2-0.3-0.4-0.8c2.3,0.5,1.9-0.8,4.8-0.4c0.3,0.4-0.8,0.3-1,0.5c2.1-0.6,5.8-0.3,8.9-0.4
				c3.5,0.5,8.6,0.6,12.6,1.2l0.1-0.3c1.7,0.6,3.5,0,5.4,0.3L101.4,174.3z"/>
			<path fill="#FFFFFF" d="M125.5,168.3l-0.3-0.5l-1.8,0.4C124.1,168.6,124.4,168.2,125.5,168.3z"/>
			<polygon fill="#FFFFFF" points="125.1,170 126,169.7 124.4,169.7 			"/>
			<polygon fill="#FFFFFF" points="101.5,169.1 101.8,169.2 105.4,168.7 			"/>
			<path fill="#FFFFFF" d="M77.9,166.8c0.4-0.3,1-0.1,1.4-0.4l-1.7,0.3L77.9,166.8z"/>
			<path fill="#FFFFFF" d="M62.1,164.6c-0.6,1-1.3,0-0.4,0.9C62.6,165.3,61.7,165,62.1,164.6z"/>
			<path fill="#FFFFFF" d="M58.3,166c0.5,0,0.9-0.1,1.2-0.3C58.7,165.3,58.7,165.9,58.3,166z"/>
			<path fill="#FFFFFF" d="M465.1,171.9c-0.3-0.1-0.6-0.3-0.6-0.4C464.2,171.8,464.1,171.9,465.1,171.9z"/>
			<path fill="#FFFFFF" d="M464.5,171.5c0.1,0,0.1,0,0.3-0.1C464.7,171.5,464.6,171.5,464.5,171.5z"/>
			<path fill="#FFFFFF" d="M441.6,165c-1.3,0.4-2.1,0.1-3.2,0.4l-0.6-0.6c-1.3,0.3-0.6,0.5-1.5,0.9c-1.2-0.4-3.7,0-4.2,0
				c-0.4-0.3,0.5-0.4,0.6-0.6c-1.5,0.3-1.4,0.9-3.3,0.9v-0.1c-4.6,0.9-10.4,0.8-15.4,1.3c0.4,0,0.3,0.1,0.4,0.3
				c-5.4,0.3-11.6,0.3-15.8,1.9c3-0.1,7.8,0.9,10.8-0.3c1,0.5,2.8-0.3,3.2,0.5c4.2,0.3,5.9-0.9,10-0.9c0.6,0.1,0.3,0.5,0.5,0.8
				l-3.2,0.4l1.9,0.3c-0.9,0.3-3,0.1-3.1,0.6c2.8-0.8,7.3-0.1,9.8-1c-1.2-0.1-2.6,0-4,0c-0.6-0.3-1.5-0.4-1.4-0.6
				c3.9-0.9,7.1-0.5,11.2-0.8c1-0.1,2.3,0,2.6,0.3c-0.6,0.1-0.1,0.4-0.6,0.5c1.4-0.3,0.1-1.2,2.2-1l-0.3,1.2c0.8-1.2,2.6,0.3,4-0.5
				c0.5,0.4-0.4,0.8-1.5,0.8c1.3,0.3,1.4-0.5,2.4-0.4l-1,0.9c1-0.9,1.9,0.1,2.6,0.5c0.1-0.3-0.5-0.9,0.9-0.9
				c0.6,0.1,0.3,0.4,0.4,0.5c0.1-0.3,0.5-0.6,1.4-0.6c0.1,0.3-0.6,0.5-0.6,0.8c0.6,0,1.3-0.1,1.7,0.1c1.2-0.3-0.1-0.5,0.6-0.8
				c1.8,0.3,0.1,1.2,0.9,1.8c-1.4,0.5-3.2,0.6-3.9,0.9l2.7-0.3c-0.1,0.4,1.8,0.6,0.4,1c2.7,0.4,5.8-0.1,8.4-0.4
				c-0.4-0.1-0.8-0.3-0.8-0.4c1.3-0.3,1.2,0.3,1.4,0.5c1-0.3,0.9-0.9,1.4-1.4c2.1,0.5,2.3,0.3,4,1l-0.1-0.6c1.2,0.5,1.4-0.5,2.7-0.1
				c0.1,0.1-0.4,0.3-0.8,0.5c1.2-0.3,1,0.5,2.2,0.3l-0.9,0.8c0.9,0,2.2-0.3,1.8,0.4c1.5-0.8,4.4-0.4,6.3-0.9l-0.1,0.5
				c1-0.6,3.7,0,4.6-0.8l0.1,0.3l2.1-0.8c0.9,0.1,0.6,0.9,0.6,0.6c2.1-0.1,3.6-0.3,4.9,0.1c0.4-0.8,2.4-0.9,4.1-1
				c8.1,0.5,16.7-0.3,24.3-1.2c1.2,0,2.7-0.9,4.1-1.3c-1.7-0.1-1.9,0.1-3.6,0.3c-1.3-0.3-1.8-1-2.8-1.4l0.5,0.6
				c-1.7,0.5-1.2-0.4-2.6,0.3v-1c-0.5,0.5-1.7,0.1-2.2-0.1l-0.4,0.6c-1-0.4-1.8-0.5-2.1-1.2l0.1,0.6c-0.4-0.4-4.1,0.1-2.8-1
				c-0.3,0.1-0.6,0.5-1.3,0.4l-0.1-0.6c-1,0.1-2.1,0.3-2.4-0.1c0.5-0.1,0.8-0.4,0.9-0.8c-4.2-0.1-0.9,2.1-4.6,2.2v-0.4l-0.9,0.4
				l-1-0.5c-1.3,1.4-5.1-0.1-7.5,0.6c-0.9,0.1-2.1-0.8-3.7-0.6l0.1,0.6c-1.3-0.6-6.4-1-7.6-2.6c-1.3,0.5,0.1,0.1,0.1,0.6
				c-2.4,0.6-2.7-0.4-4-0.8c-1.5,0.4,1.2,0.3,0.4,0.8c-2.3-0.5-1.9,0.8-4.8,0.4c-0.3-0.4,0.8-0.3,1-0.5c-2.1,0.6-5.8,0.3-8.9,0.4
				c-3.5-0.5-8.6-0.6-12.6-1.2l-0.1,0.3c-1.7-0.6-3.5,0-5.4-0.3L441.6,165z"/>
			<path fill="#FFFFFF" d="M417.5,171l0.3,0.5l1.8-0.4C418.9,170.7,418.5,171.1,417.5,171z"/>
			<polygon fill="#FFFFFF" points="417.9,169.3 416.9,169.6 418.4,169.6 			"/>
			<polygon fill="#FFFFFF" points="441.3,170.2 441.1,170.1 437.6,170.6 			"/>
			<path fill="#FFFFFF" d="M465,172.4c-0.4,0.3-1,0.1-1.4,0.4l1.7-0.3L465,172.4z"/>
			<path fill="#FFFFFF" d="M480.9,174.7c0.6-1,1.3,0,0.4-0.9C480.4,174,481.2,174.3,480.9,174.7z"/>
			<path fill="#FFFFFF" d="M484.7,173.2c-0.5,0-0.9,0.1-1.2,0.3C484.2,174,484.3,173.4,484.7,173.2z"/>
		</g>
	</g>
</g>
<g id="t_center">
	<rect fill="none" width="550" height="179.7"/>
	<text transform="matrix(1 0 0 1 26.5059 138.5851)" fill="#FFFFFF" font-family="'FredokaOne-Regular'" font-size="125.5039">MEXICO</text>
</g>
<g id="t_center_1_">
	<text transform="matrix(1 0 0 1 169.9297 183.0275)" fill="#FFFFFF" font-family="'SpecialElite-Regular'" font-size="29.233">THE LOW-DOWN</text>
	<rect x="155.9" y="148.6" fill="none" width="238.2" height="48.2"/>
</g>
</svg>
