<?xml version="1.0" encoding="utf-8"?>
<!-- Generator: Adobe Illustrator 16.0.0, SVG Export Plug-In . SVG Version: 6.00 Build 0)  -->
<!DOCTYPE svg PUBLIC "-//W3C//DTD SVG 1.1//EN" "http://www.w3.org/Graphics/SVG/1.1/DTD/svg11.dtd">
<svg version="1.1" id="Layer_1" xmlns="http://www.w3.org/2000/svg" xmlns:xlink="http://www.w3.org/1999/xlink" x="0px" y="0px"
	 width="500px" height="625.004px" viewBox="0 0 500 625.004" enable-background="new 0 0 500 625.004" xml:space="preserve">
<g id="change1">
	<path fill="#F4BD38" d="M0,606.763V580.74c10.068,0,18.231-8.166,18.231-18.232c0-10.079-8.164-18.24-18.231-18.24V518.24
		c10.068,0,18.231-8.166,18.231-18.241c0-10.07-8.164-18.231-18.231-18.231V455.74c10.068,0,18.231-8.17,18.231-18.241
		c0-10.07-8.164-18.24-18.231-18.24v-26.022c10.068,0,18.231-8.162,18.231-18.233c0-10.067-8.164-18.237-18.231-18.237V330.74
		c10.068,0,18.231-8.166,18.231-18.239c0-10.07-8.164-18.24-18.231-18.24v-26.02c10.068,0,18.231-8.168,18.231-18.239
		c0-10.07-8.164-18.24-18.231-18.24v-26.02c10.068,0,18.231-8.168,18.231-18.238c0-10.075-8.164-18.241-18.231-18.241v-26.018
		c10.068,0,18.231-8.17,18.231-18.245c0-10.07-8.164-18.236-18.231-18.236V80.74c10.068,0,18.231-8.166,18.231-18.241
		c0-10.071-8.164-18.24-18.231-18.24V18.24c10.068,0,18.231-8.169,18.231-18.24h26.024c0,10.071,8.165,18.24,18.236,18.24
		c10.072,0,18.239-8.169,18.239-18.24h26.021c0,10.071,8.169,18.24,18.24,18.24c10.072,0,18.235-8.169,18.235-18.24h26.024
		c0,10.071,8.165,18.24,18.24,18.24c10.068,0,18.231-8.169,18.231-18.24h26.024c0,10.071,8.165,18.24,18.239,18.24
		c10.073,0,18.241-8.169,18.241-18.24h26.022c0,10.071,8.165,18.24,18.233,18.24c10.071,0,18.24-8.169,18.24-18.24h26.021
		c0,10.071,8.165,18.24,18.238,18.24c10.067,0,18.236-8.169,18.236-18.24h26.021c0,10.071,8.169,18.24,18.238,18.24
		c10.075,0,18.236-8.169,18.236-18.24h26.025c0,10.071,8.165,18.24,18.234,18.24v26.019c-10.07,0-18.234,8.169-18.234,18.24
		c0,10.075,8.165,18.241,18.234,18.241v26.021c-10.07,0-18.234,8.166-18.234,18.236c0,10.075,8.165,18.245,18.234,18.245v26.018
		c-10.07,0-18.234,8.166-18.234,18.241c0,10.07,8.165,18.238,18.234,18.238v26.02c-10.07,0-18.234,8.17-18.234,18.24
		c0,10.071,8.165,18.239,18.234,18.239v26.02c-10.07,0-18.234,8.17-18.234,18.24c0,10.072,8.165,18.238,18.234,18.238v26.021
		c-10.07,0-18.234,8.171-18.234,18.24s8.165,18.235,18.234,18.235v26.021c-10.07,0-18.234,8.17-18.234,18.24
		c0,10.071,8.165,18.241,18.234,18.241v26.023c-10.07,0-18.234,8.161-18.234,18.231c0,10.075,8.165,18.241,18.234,18.241v26.023
		c-10.07,0-18.234,8.161-18.234,18.24c0,10.064,8.165,18.23,18.234,18.23v26.024c-10.07,0-18.234,8.162-18.234,18.241h-26.025
		c0-10.079-8.161-18.241-18.236-18.241c-10.069,0-18.238,8.162-18.238,18.241h-26.021c0-10.079-8.169-18.241-18.236-18.241
		c-10.073,0-18.238,8.162-18.238,18.241h-26.021c0-10.079-8.169-18.241-18.24-18.241c-10.068,0-18.233,8.162-18.233,18.241H268.24
		c0-10.079-8.162-18.241-18.237-18.241c-10.071,0-18.24,8.162-18.24,18.241h-26.024c0-10.079-8.161-18.241-18.231-18.241
		c-10.075,0-18.24,8.162-18.24,18.241H143.24c0-10.079-8.161-18.241-18.236-18.241c-10.071,0-18.24,8.162-18.24,18.241H80.737
		c0-10.079-8.167-18.241-18.239-18.241c-10.071,0-18.236,8.162-18.236,18.241H18.234C18.234,614.925,10.071,606.763,0,606.763"/>
</g>
<g id="change2">
	<path fill="#BE8431" d="M42.041,371.523V42.041h415.925v329.482H42.041L42.041,371.523z M42.041,582.965V378.477h415.925v204.488
		H42.041L42.041,582.965z M35.079,589.918c143.28,0,286.561,0,429.848,0V35.079H35.079V589.918z"/>
</g>
<g id="T">
	<rect x="42.041" y="42.041" fill="none" width="415.925" height="329.482"/>
	<text transform="matrix(1 0 0 1 108.7302 294.0518)" fill="#F1F1D9" font-family="'Vidaloka-Regular'" font-size="250.7141">50</text>
</g>
<g id="T_2_">
	<rect x="42.041" y="396.002" fill="none" width="415.925" height="75.392"/>
	<text transform="matrix(1 0 0 1 118.3914 455.3184)" fill="#F1F1D9" font-family="'DroidSerif'" font-size="58.4689">POSTAGE</text>
</g>
<g id="T_3_">
	<rect x="42.041" y="471.394" fill="none" width="415.925" height="75.394"/>
	<text transform="matrix(1 0 0 1 151.7498 526.4805)" fill="#F1F1D9" font-family="'DroidSerif'" font-size="58.4689">STAMP</text>
</g>
</svg>
