<?xml version="1.0" encoding="utf-8"?>
<!-- Generator: Adobe Illustrator 16.0.0, SVG Export Plug-In . SVG Version: 6.00 Build 0)  -->
<!DOCTYPE svg PUBLIC "-//W3C//DTD SVG 1.1//EN" "http://www.w3.org/Graphics/SVG/1.1/DTD/svg11.dtd">
<svg version="1.1" id="Layer_1" xmlns="http://www.w3.org/2000/svg" xmlns:xlink="http://www.w3.org/1999/xlink" x="0px" y="0px"
	 width="600px" height="181.771px" viewBox="0 0 600 181.771" enable-background="new 0 0 600 181.771" xml:space="preserve">
<g id="c_repeat">
	<g id="change1_1_">
		<path fill="#9E427A" d="M553.562,164.954V12.959v-2.812V0H33.76v10.146h11.996v2.812H33.76v151.995h11.996v2.815H33.76v9.205
			h519.803v-9.205L553.562,164.954L553.562,164.954z M65.747,167.77H53.751v-2.815h11.996V167.77z M65.747,12.959H53.751v-2.812
			h11.996V12.959z M85.74,167.77H73.745v-2.815H85.74V167.77z M85.74,12.959H73.745v-2.812H85.74V12.959z M105.733,167.77H93.737
			v-2.815h11.996V167.77z M105.733,12.959H93.737v-2.812h11.996V12.959z M125.725,167.77H113.73v-2.815h11.995V167.77z
			 M125.725,12.959H113.73v-2.812h11.995V12.959z M145.718,167.77h-11.996v-2.815h11.996V167.77z M145.718,12.959h-11.996v-2.812
			h11.996V12.959z M165.71,167.77h-11.995v-2.815h11.995V167.77z M165.71,12.959h-11.995v-2.812h11.995V12.959z M185.702,167.77
			h-11.996v-2.815h11.996V167.77z M185.702,12.959h-11.996v-2.812h11.996V12.959z M205.695,167.77H193.7v-2.815h11.993
			L205.695,167.77L205.695,167.77z M205.695,12.959H193.7v-2.812h11.993L205.695,12.959L205.695,12.959z M225.688,167.77h-11.995
			v-2.815h11.995V167.77z M225.688,12.959h-11.995v-2.812h11.995V12.959z M245.68,167.77h-11.996v-2.815h11.996V167.77z
			 M245.68,12.959h-11.996v-2.812h11.996V12.959z M265.673,167.77h-11.996v-2.815h11.996V167.77z M265.673,12.959h-11.996v-2.812
			h11.996V12.959z M285.665,167.77H273.67v-2.815h11.995V167.77z M285.665,12.959H273.67v-2.812h11.995V12.959z M305.657,167.77
			h-11.996v-2.815h11.996V167.77z M305.657,12.959h-11.996v-2.812h11.996V12.959z M325.648,167.77h-11.995v-2.815h11.995V167.77z
			 M325.648,12.959h-11.995v-2.812h11.995V12.959z M345.643,167.77h-11.995v-2.815h11.995V167.77z M345.643,12.959h-11.995v-2.812
			h11.995V12.959z M365.635,167.77h-11.996v-2.815h11.996V167.77z M365.635,12.959h-11.996v-2.812h11.996V12.959z M385.626,167.77
			h-11.995v-2.815h11.995V167.77z M385.626,12.959h-11.995v-2.812h11.995V12.959z M405.617,167.77h-11.992v-2.815h11.992V167.77z
			 M405.617,12.959h-11.992v-2.812h11.992V12.959z M425.612,167.77h-11.996v-2.815h11.996V167.77z M425.612,12.959h-11.996v-2.812
			h11.996V12.959z M445.604,167.77h-11.996v-2.815h11.996V167.77z M445.604,12.959h-11.996v-2.812h11.996V12.959z M465.598,167.77
			h-11.995v-2.815h11.995V167.77z M465.598,12.959h-11.995v-2.812h11.995V12.959z M485.589,167.77h-11.995v-2.815h11.995V167.77z
			 M485.589,12.959h-11.995v-2.812h11.995V12.959z M505.578,167.77h-11.993v-2.815h11.993V167.77z M505.578,12.959h-11.993v-2.812
			h11.993V12.959z M525.573,167.77h-11.995v-2.815h11.995V167.77z M525.573,12.959h-11.995v-2.812h11.995V12.959z M545.566,167.77
			h-11.995v-2.815h11.995V167.77z M545.566,12.959h-11.995v-2.812h11.995V12.959z"/>
	</g>
	<g id="change2">
		<path fill="#F4BD38" d="M233.684,10.144h11.996v2.812h-11.996V10.144z M193.699,12.959h11.993v-2.812h-11.993V12.959z
			 M213.692,12.959h11.995v-2.812h-11.995V12.959z M253.677,12.959h11.996v-2.812h-11.996V12.959z M293.661,12.959h11.996v-2.812
			h-11.996V12.959z M313.653,12.959h11.995v-2.812h-11.995V12.959z M173.706,12.959h11.996v-2.812h-11.996V12.959z M273.67,12.959
			h11.995v-2.812H273.67V12.959z M93.737,12.959h11.996v-2.812H93.737V12.959z M53.751,12.959h11.996v-2.812H53.751V12.959z
			 M153.715,12.959h11.995v-2.812h-11.995V12.959z M45.755,12.959v-2.812H33.76v2.812H45.755z M333.647,12.959h11.995v-2.812
			h-11.995V12.959z M113.729,12.959h11.995v-2.812h-11.995V12.959z M73.745,12.959H85.74v-2.812H73.745V12.959z M133.722,12.959
			h11.996v-2.812h-11.996V12.959z M533.571,12.959h11.995v-2.812h-11.995V12.959z M393.625,12.959h11.992v-2.812h-11.992V12.959z
			 M473.594,12.959h11.995v-2.812h-11.995V12.959z M513.577,12.959h11.995v-2.812h-11.995V12.959z M493.585,12.959h11.993v-2.812
			h-11.993V12.959z M453.603,12.959h11.995v-2.812h-11.995V12.959z M413.615,12.959h11.996v-2.812h-11.996V12.959z M433.607,12.959
			h11.996v-2.812h-11.996V12.959z M353.639,12.959h11.996v-2.812h-11.996V12.959z M373.631,12.959h11.995v-2.812h-11.995V12.959z
			 M493.585,167.77h11.993v-2.815h-11.993V167.77z M73.745,167.77H85.74v-2.815H73.745V167.77z M93.737,167.77h11.996v-2.815H93.737
			V167.77z M53.751,167.77h11.996v-2.815H53.751V167.77z M353.639,167.77h11.996v-2.815h-11.996V167.77z M513.577,167.77h11.995
			v-2.815h-11.995V167.77z M45.755,167.77v-2.815H33.76v2.815H45.755z M533.571,167.77h11.995v-2.815h-11.995V167.77z
			 M273.67,167.77h11.995v-2.815H273.67V167.77z M393.625,167.77h11.992v-2.815h-11.992V167.77z M233.684,167.77h11.996v-2.815
			h-11.996V167.77z M413.615,167.77h11.996v-2.815h-11.996V167.77z M253.677,167.77h11.996v-2.815h-11.996V167.77z M373.631,167.77
			h11.995v-2.815h-11.995V167.77z M333.647,167.77h11.995v-2.815h-11.995V167.77z M313.653,167.77h11.995v-2.815h-11.995V167.77z
			 M293.661,167.77h11.996v-2.815h-11.996V167.77z M153.715,167.77h11.995v-2.815h-11.995V167.77z M113.729,167.77h11.995v-2.815
			h-11.995V167.77z M133.722,167.77h11.996v-2.815h-11.996V167.77z M213.692,167.77h11.995v-2.815h-11.995V167.77z M473.594,167.77
			h11.995v-2.815h-11.995V167.77z M453.603,167.77h11.995v-2.815h-11.995V167.77z M193.699,167.77h11.993v-2.815h-11.993V167.77z
			 M173.706,167.77h11.996v-2.815h-11.996V167.77z M433.607,167.77h11.996v-2.815h-11.996V167.77z"/>
	</g>
	<g id="t">
		<rect x="33.76" y="17.388" fill="none" width="519.801" height="144.392"/>
		
			<text transform="matrix(1.0363 0 0 1 83.3777 117.9714)" fill="#F4BC33" font-family="'ClickerScript-Regular'" font-size="128.9248">a title here</text>
	</g>
</g>
<g id="e">
	<g id="change1_2_">
		<path fill="#9E427A" d="M598.005,167.77h-4.456v-2.815h3.846l-16.583-76.467l16.379-75.528h-3.642v-2.812h4.252L600,0h-46.438
			v10.146h11.996v2.812h-11.996v151.995h11.996v2.815h-11.996v9.205H600L598.005,167.77z M573.558,10.144h11.995v2.812h-11.995
			V10.144z M585.553,167.77h-11.995v-2.815h11.995V167.77z"/>
	</g>
	<g id="change2_2_">
		<path fill="#F4BD38" d="M553.562,12.959v-2.812h11.996v2.812H553.562z M585.553,10.144h-11.995v2.812h11.995V10.144z
			 M593.549,12.959h3.642l0.61-2.812h-4.252V12.959z M573.558,167.77h11.995v-2.815h-11.995V167.77z M565.559,167.77v-2.815h-11.996
			v2.815H565.559z M593.549,167.77h4.456l-0.61-2.815h-3.846V167.77z"/>
	</g>
</g>
<g id="w">
	<g id="change1">
		<path fill="#9E427A" d="M33.76,164.954V12.959v-2.812V0H0l2.199,10.146h3.567v2.812H2.811l16.377,75.528L2.606,164.954H5.77v2.815
			H1.996L0,176.975h33.76v-9.205V164.954z M25.763,167.77H13.767v-2.815h11.996V167.77z M25.763,12.959H13.767v-2.812h11.996V12.959
			z"/>
	</g>
	<g id="change2_1_">
		<path fill="#F4BD38" d="M5.77,12.959H2.811L2.2,10.144H5.77V12.959z M13.767,12.959h11.996v-2.812H13.767V12.959z M5.77,164.954
			H2.606l-0.607,2.815H5.77V164.954z M13.767,167.77h11.996v-2.815H13.767V167.77z"/>
	</g>
</g>
</svg>
