<?xml version="1.0" encoding="utf-8"?>
<!-- Generator: Adobe Illustrator 16.0.0, SVG Export Plug-In . SVG Version: 6.00 Build 0)  -->
<!DOCTYPE svg PUBLIC "-//W3C//DTD SVG 1.1//EN" "http://www.w3.org/Graphics/SVG/1.1/DTD/svg11.dtd">
<svg version="1.1" id="Layer_1" xmlns="http://www.w3.org/2000/svg" xmlns:xlink="http://www.w3.org/1999/xlink" x="0px" y="0px"
	 width="440px" height="87px" viewBox="0 0 440 87" enable-background="new 0 0 440 87" xml:space="preserve">
<g id="change1">
	<rect fill="#FF6666" width="440" height="1"/>
	<rect y="86" fill="#FF6666" width="440" height="1"/>
	<rect x="135" y="4" fill="#FF6666" width="1" height="77"/>
	<rect x="297" y="4" fill="#FF6666" width="1" height="77"/>
</g>
<g id="T_5_">
	<rect x="165" y="26" fill="none" width="110" height="50"/>
	<rect x="170" y="31.782" fill="none" width="100" height="49.39"/>
	<text transform="matrix(1 0 0 1 180.0405 39.0811)" fill="#FF6666" font-family="'Raleway'" font-size="10">St Mark’s Church,  </text>
	<text transform="matrix(1 0 0 1 182.8403 51.0811)" fill="#FF6666" font-family="'Raleway'" font-size="10">25 Garden Road</text>
</g>
<g id="T">
	<rect x="13" y="26" fill="none" width="100" height="50"/>
	<rect x="12.951" y="30.001" fill="none" width="100" height="41.463"/>
	<text transform="matrix(1 0 0 1 27.2666 39.3008)" fill="#FF6666" font-family="'Raleway'" font-size="10">Celebrating the </text>
	<text transform="matrix(1 0 0 1 22.2168 51.3008)" fill="#FF6666" font-family="'Raleway'" font-size="10">wedding of Sarah </text>
	<text transform="matrix(1 0 0 1 37.8018 63.3008)" fill="#FF6666" font-family="'Raleway'" font-size="10">and James</text>
</g>
<g id="T_1_">
	<rect x="15" y="7" fill="none" width="103" height="16"/>
	<text transform="matrix(1 0 0 1 20.394 17.9707)" fill="#FF6666" font-family="'Raleway-Bold'" font-size="10">SAT 20 NOVEMBER</text>
</g>
<g id="T_2_">
	<rect x="167" y="7" fill="none" width="103" height="16"/>
	<text transform="matrix(1 0 0 1 189.7412 17.9707)" fill="#FF6666" font-family="'Raleway-Bold'" font-size="10">CEREMONY</text>
</g>
<g id="T_4_">
	<rect x="320" y="7" fill="none" width="103" height="16"/>
	<text transform="matrix(1 0 0 1 343.4082 17.9707)" fill="#FF6666" font-family="'Raleway-Bold'" font-size="10">RECEPTION</text>
</g>
<g id="T_3_">
	<rect x="316" y="26" fill="none" width="111" height="45"/>
	<rect x="321.318" y="28.782" fill="none" width="100" height="47.218"/>
	<text transform="matrix(1 0 0 1 327.2842 39.0811)" fill="#FF6666" font-family="'Raleway'" font-size="10">The Northern Club,</text>
	<text transform="matrix(1 0 0 1 335.2383 51.0811)" fill="#FF6666" font-family="'Raleway'" font-size="10">16 Peach Grove</text>
</g>
</svg>
