<?xml version="1.0" encoding="utf-8"?>
<!-- Generator: Adobe Illustrator 16.0.0, SVG Export Plug-In . SVG Version: 6.00 Build 0)  -->
<!DOCTYPE svg PUBLIC "-//W3C//DTD SVG 1.1//EN" "http://www.w3.org/Graphics/SVG/1.1/DTD/svg11.dtd">
<svg version="1.1" id="Layer_1" xmlns="http://www.w3.org/2000/svg" xmlns:xlink="http://www.w3.org/1999/xlink" x="0px" y="0px"
	 width="563.1px" height="65.688px" viewBox="0 0 563.1 65.688" enable-background="new 0 0 563.1 65.688" xml:space="preserve">
<g id="e">
	<g id="change1_1_">
		<path fill="#F2F2DB" d="M563.103,2.209h-1.226C561.873,0.989,560.885,0,559.666,0c-1.222,0-2.211,0.989-2.211,2.209h-2.447
			c0-1.22-0.989-2.209-2.209-2.209c-1.222,0-2.208,0.989-2.208,2.209h-2.45c0-1.22-0.988-2.209-2.208-2.209
			c-1.221,0-2.209,0.989-2.209,2.209h-2.449c0-1.22-0.989-2.209-2.209-2.209s-2.209,0.989-2.209,2.209h-2.449
			c0-1.22-0.987-2.209-2.209-2.209c-1.22,0-2.209,0.989-2.209,2.209h-2.448c0-1.22-0.988-2.209-2.208-2.209
			c-1.222,0-2.209,0.989-2.209,2.209h-2.449c0-1.22-0.989-2.209-2.209-2.209s-2.209,0.989-2.209,2.209h-2.449
			c0-1.22-0.989-2.209-2.209-2.209s-2.208,0.989-2.208,2.209h-2.45c0-1.22-0.986-2.209-2.209-2.209c-1.22,0-2.208,0.989-2.208,2.209
			h-2.45c0-1.22-0.986-2.209-2.209-2.209c-1.22,0-2.208,0.989-2.208,2.209h-2.448c0-1.22-0.989-2.209-2.209-2.209
			c-1.222,0-2.209,0.989-2.209,2.209h-2.448c0-1.22-0.989-2.209-2.209-2.209c-1.222,0-2.209,0.989-2.209,2.209h-2.449
			c0-1.22-0.989-2.209-2.209-2.209s-2.209,0.989-2.209,2.209h-2.449c0-1.22-0.989-2.209-2.209-2.209s-2.209,0.989-2.209,2.209
			h-2.449c0-1.22-0.988-2.209-2.209-2.209c-1.22,0-2.209,0.989-2.209,2.209h-2.449c0-1.22-0.987-2.209-2.209-2.209
			c-1.22,0-2.209,0.989-2.209,2.209h-2.447c0-1.22-0.988-2.209-2.209-2.209s-2.209,0.989-2.209,2.209h-2.449
			c0-1.22-0.988-2.209-2.208-2.209c-1.223,0-2.209,0.989-2.209,2.209h-2.45c0-1.22-0.988-2.209-2.209-2.209
			s-2.208,0.989-2.208,2.209h-2.45c0-1.22-0.988-2.209-2.208-2.209s-2.209,0.989-2.209,2.209h-2.449c0-1.22-0.988-2.209-2.209-2.209
			c-1.22,0-2.209,0.989-2.209,2.209h-2.449c0-1.22-0.987-2.209-2.209-2.209c-1.221,0-2.209,0.989-2.209,2.209h-2.448
			c0-0.982-0.646-1.806-1.532-2.093v27.146h-0.004v35.999c0.887-0.287,1.532-1.109,1.532-2.093h2.448
			c0,1.22,0.989,2.209,2.209,2.209c1.222,0,2.21-0.989,2.21-2.209h2.448c0,1.22,0.989,2.209,2.209,2.209
			c1.221,0,2.209-0.989,2.209-2.209h2.449c0,1.22,0.989,2.209,2.209,2.209s2.208-0.989,2.208-2.209h2.45
			c0,1.22,0.987,2.209,2.209,2.209c1.22,0,2.208-0.989,2.208-2.209h2.45c0,1.22,0.987,2.209,2.209,2.209
			c1.22,0,2.208-0.989,2.208-2.209h2.449c0,1.22,0.987,2.209,2.209,2.209c1.221,0,2.208-0.989,2.208-2.209h2.448
			c0,1.22,0.989,2.209,2.21,2.209s2.209-0.989,2.209-2.209h2.448c0,1.22,0.989,2.209,2.209,2.209c1.221,0,2.209-0.989,2.209-2.209
			h2.449c0,1.22,0.989,2.209,2.209,2.209s2.209-0.989,2.209-2.209h2.449c0,1.22,0.988,2.209,2.209,2.209
			c1.22,0,2.209-0.989,2.209-2.209h2.449c0,1.22,0.988,2.209,2.209,2.209c1.22,0,2.209-0.989,2.209-2.209h2.448
			c0,1.22,0.987,2.209,2.208,2.209s2.209-0.989,2.209-2.209h2.45c0,1.22,0.987,2.209,2.208,2.209c1.222,0,2.209-0.989,2.209-2.209
			h2.449c0,1.22,0.988,2.209,2.208,2.209c1.222,0,2.209-0.989,2.209-2.209h2.45c0,1.22,0.988,2.209,2.208,2.209
			s2.209-0.989,2.209-2.209h2.449c0,1.22,0.988,2.209,2.209,2.209c1.22,0,2.209-0.989,2.209-2.209h2.448
			c0,1.22,0.989,2.209,2.209,2.209c1.221,0,2.208-0.989,2.208-2.209h2.45c0,1.22,0.988,2.209,2.209,2.209s2.209-0.989,2.209-2.209
			h2.448c0,1.22,0.989,2.209,2.209,2.209c1.221,0,2.209-0.989,2.209-2.209h2.449c0,1.22,0.989,2.209,2.209,2.209
			s2.208-0.989,2.208-2.209h2.449c0,1.22,0.988,2.209,2.21,2.209c1.219,0,2.208-0.989,2.208-2.209h2.448
			c0,1.22,0.988,2.209,2.21,2.209c1.22,0,2.208-0.989,2.208-2.209h1.226v-29.48h0.008L563.103,2.209L563.103,2.209z"/>
	</g>
	<path opacity="0.1" enable-background="new    " d="M409.27,31.688v-4.426h-0.004v35.999c0.887-0.287,1.533-1.109,1.533-2.093
		h2.447c0,1.22,0.989,2.209,2.209,2.209c1.222,0,2.21-0.989,2.21-2.209h2.448c0,1.22,0.989,2.209,2.209,2.209
		c1.222,0,2.209-0.989,2.209-2.209h2.449c0,1.22,0.989,2.209,2.209,2.209s2.208-0.989,2.208-2.209h2.45
		c0,1.22,0.988,2.209,2.209,2.209c1.22,0,2.208-0.989,2.208-2.209h2.45c0,1.22,0.987,2.209,2.209,2.209
		c1.22,0,2.208-0.989,2.208-2.209h2.45c0,1.22,0.986,2.209,2.209,2.209c1.22,0,2.208-0.989,2.208-2.209h2.447
		c0,1.22,0.989,2.209,2.21,2.209s2.209-0.989,2.209-2.209h2.448c0,1.22,0.989,2.209,2.209,2.209c1.222,0,2.209-0.989,2.209-2.209
		h2.449c0,1.22,0.989,2.209,2.209,2.209s2.209-0.989,2.209-2.209h2.449c0,1.22,0.989,2.209,2.209,2.209s2.209-0.989,2.209-2.209
		h2.449c0,1.22,0.988,2.209,2.209,2.209c1.22,0,2.209-0.989,2.209-2.209h2.449c0,1.22,0.986,2.209,2.208,2.209
		c1.22,0,2.209-0.989,2.209-2.209h2.449c0,1.22,0.987,2.209,2.208,2.209c1.222,0,2.209-0.989,2.209-2.209h2.449
		c0,1.22,0.988,2.209,2.208,2.209c1.223,0,2.209-0.989,2.209-2.209h2.45c0,1.22,0.988,2.209,2.208,2.209s2.209-0.989,2.209-2.209
		h2.449c0,1.22,0.989,2.209,2.209,2.209s2.209-0.989,2.209-2.209h2.449c0,1.22,0.988,2.209,2.209,2.209
		c1.22,0,2.208-0.989,2.208-2.209h2.449c0,1.22,0.988,2.209,2.209,2.209s2.209-0.989,2.209-2.209h2.448
		c0,1.22,0.989,2.209,2.209,2.209c1.221,0,2.209-0.989,2.209-2.209h2.449c0,1.22,0.989,2.209,2.209,2.209s2.208-0.989,2.208-2.209
		h2.449c0,1.22,0.988,2.209,2.21,2.209c1.219,0,2.208-0.989,2.208-2.209h2.448c0,1.22,0.988,2.209,2.211,2.209
		c1.219,0,2.207-0.989,2.207-2.209h1.226v-29.48H409.27z"/>
	<rect x="421.383" y="18.689" fill="none" width="135.668" height="26"/>
	<text transform="matrix(1 0 0 1 459.8225 37.6934)" fill="#1A1A1A" font-family="'AlfaSlabOne-Regular'" font-size="18">TEXT</text>
	<g id="change2_1_">
		<rect x="400.216" fill="#EC6433" width="14.414" height="63.377"/>
	</g>
	<polygon opacity="0.1" enable-background="new    " points="414.63,0 400.216,0 400.216,5.362 409.266,5.362 409.266,58.015 
		400.216,58.015 400.216,63.377 414.63,63.377 	"/>
</g>
<g id="c">
	<g id="change2_2_">
		<rect x="162.883" fill="#EC6433" width="237.333" height="63.377"/>
	</g>
	<rect x="162.883" opacity="0.1" enable-background="new    " width="237.333" height="5.362"/>
	<rect x="162.883" y="58.015" opacity="0.1" enable-background="new    " width="237.333" height="5.362"/>
	<g id="t">
		<rect x="168.218" y="9.022" fill="none" width="226.666" height="45.334"/>
		
			<text transform="matrix(1 0 0 1 214.6633 45.0303)" fill="#F2E2BF" font-family="'AlfaSlabOne-Regular'" font-size="36" letter-spacing="1">TITLE</text>
	</g>
</g>
<g id="w">
	<g id="change1">
		<path fill="#F2F2DB" d="M153.833,0.117c-0.888,0.286-1.533,1.11-1.533,2.092h-2.448c0-1.22-0.988-2.209-2.208-2.209
			c-1.221,0-2.209,0.989-2.209,2.209h-2.45c0-1.22-0.988-2.209-2.208-2.209s-2.209,0.989-2.209,2.209h-2.449
			c0-1.22-0.988-2.209-2.208-2.209c-1.221,0-2.208,0.989-2.208,2.209h-2.449c0-1.22-0.988-2.209-2.209-2.209
			c-1.22,0-2.209,0.989-2.209,2.209h-2.448c0-1.22-0.989-2.209-2.209-2.209c-1.221,0-2.208,0.989-2.208,2.209h-2.45
			c0-1.22-0.988-2.209-2.209-2.209s-2.208,0.989-2.208,2.209h-2.45c0-1.22-0.988-2.209-2.208-2.209s-2.209,0.989-2.209,2.209h-2.448
			c0-1.22-0.99-2.209-2.209-2.209c-1.22,0-2.209,0.989-2.209,2.209H94.92C94.92,0.989,93.932,0,92.711,0
			c-1.22,0-2.208,0.989-2.208,2.209h-2.449c0-1.22-0.989-2.209-2.209-2.209c-1.221,0-2.21,0.989-2.21,2.209H81.18
			C81.18,0.989,80.191,0,78.971,0c-1.221,0-2.209,0.989-2.209,2.209h-2.449c0-1.22-0.988-2.209-2.208-2.209
			c-1.219,0-2.209,0.989-2.209,2.209h-2.45c0-1.22-0.987-2.209-2.208-2.209c-1.22,0-2.209,0.989-2.209,2.209H60.58
			C60.579,0.989,59.59,0,58.37,0c-1.221,0-2.209,0.989-2.209,2.209h-2.45c0-1.22-0.987-2.209-2.208-2.209
			c-1.22,0-2.209,0.989-2.209,2.209h-2.449c0-1.22-0.989-2.209-2.21-2.209c-1.22,0-2.208,0.989-2.208,2.209h-2.449
			C39.978,0.989,38.989,0,37.77,0c-1.221,0-2.208,0.989-2.208,2.209h-2.45C33.11,0.989,32.122,0,30.902,0
			c-1.22,0-2.209,0.989-2.209,2.209h-2.448c0-1.22-0.989-2.209-2.209-2.209c-1.221,0-2.208,0.989-2.208,2.209h-2.45
			c0-1.22-0.988-2.209-2.209-2.209c-1.22,0-2.208,0.989-2.208,2.209h-2.45C12.51,0.989,11.521,0,10.301,0S8.092,0.989,8.092,2.209
			H5.643C5.643,0.989,4.653,0,3.434,0c-1.22,0-2.209,0.989-2.209,2.209H0v25.053v4.426v29.48h1.226c0,1.22,0.988,2.209,2.209,2.209
			c1.22,0,2.209-0.989,2.209-2.209h2.448c0,1.22,0.989,2.209,2.209,2.209c1.221,0,2.209-0.989,2.209-2.209h2.449
			c0,1.22,0.989,2.209,2.208,2.209c1.22,0,2.209-0.989,2.209-2.209h2.45c0,1.22,0.988,2.209,2.208,2.209
			c1.219,0,2.209-0.989,2.209-2.209h2.449c0,1.22,0.989,2.209,2.208,2.209c1.221,0,2.208-0.989,2.208-2.209h2.45
			c0,1.22,0.987,2.209,2.208,2.209c1.22,0,2.209-0.989,2.209-2.209h2.449c0,1.22,0.989,2.209,2.208,2.209
			c1.221,0,2.209-0.989,2.209-2.209h2.45c0,1.22,0.988,2.209,2.209,2.209s2.208-0.989,2.208-2.209h2.45
			c0,1.22,0.988,2.209,2.209,2.209c1.22,0,2.208-0.989,2.208-2.209h2.449c0,1.22,0.989,2.209,2.209,2.209
			c1.221,0,2.208-0.989,2.208-2.209h2.45c0,1.22,0.988,2.209,2.209,2.209c1.22,0,2.208-0.989,2.208-2.209h2.448
			c0,1.22,0.989,2.209,2.21,2.209c1.22,0,2.209-0.989,2.209-2.209h2.448c0,1.22,0.988,2.209,2.209,2.209s2.209-0.989,2.209-2.209
			h2.449c0,1.22,0.988,2.209,2.208,2.209c1.219,0,2.209-0.989,2.209-2.209h2.448c0,1.22,0.989,2.209,2.209,2.209
			c1.221,0,2.209-0.989,2.209-2.209h2.45c0,1.22,0.988,2.209,2.209,2.209c1.219,0,2.208-0.989,2.208-2.209h2.45
			c0,1.22,0.987,2.209,2.208,2.209c1.22,0,2.209-0.989,2.209-2.209h2.449c0,1.22,0.988,2.209,2.208,2.209
			c1.221,0,2.209-0.989,2.209-2.209h2.449c0,1.22,0.988,2.209,2.209,2.209c1.22,0,2.209-0.989,2.209-2.209h2.448
			c0,1.22,0.988,2.209,2.208,2.209c1.221,0,2.208-0.989,2.208-2.209h2.45c0,1.22,0.988,2.209,2.209,2.209
			c1.22,0,2.208-0.989,2.208-2.209h2.449c0,1.22,0.989,2.209,2.21,2.209c1.22,0,2.207-0.989,2.207-2.209h2.449
			c0,0.981,0.646,1.806,1.532,2.093V31.688h0.007V0.117H153.833z"/>
	</g>
	<path opacity="0.1" enable-background="new    " d="M0,31.688v29.48h1.226c0,1.22,0.988,2.209,2.209,2.209
		c1.22,0,2.209-0.989,2.209-2.209h2.448c0,1.22,0.989,2.209,2.209,2.209c1.221,0,2.209-0.989,2.209-2.209h2.449
		c0,1.22,0.989,2.209,2.208,2.209c1.22,0,2.209-0.989,2.209-2.209h2.45c0,1.22,0.988,2.209,2.208,2.209
		c1.219,0,2.209-0.989,2.209-2.209h2.449c0,1.22,0.989,2.209,2.208,2.209c1.221,0,2.208-0.989,2.208-2.209h2.45
		c0,1.22,0.987,2.209,2.208,2.209c1.22,0,2.209-0.989,2.209-2.209h2.449c0,1.22,0.989,2.209,2.208,2.209
		c1.221,0,2.209-0.989,2.209-2.209h2.45c0,1.22,0.988,2.209,2.209,2.209s2.208-0.989,2.208-2.209h2.45
		c0,1.22,0.988,2.209,2.209,2.209c1.22,0,2.208-0.989,2.208-2.209h2.449c0,1.22,0.989,2.209,2.209,2.209
		c1.221,0,2.208-0.989,2.208-2.209h2.45c0,1.22,0.988,2.209,2.209,2.209c1.22,0,2.208-0.989,2.208-2.209h2.448
		c0,1.22,0.989,2.209,2.21,2.209c1.22,0,2.209-0.989,2.209-2.209h2.448c0,1.22,0.988,2.209,2.209,2.209s2.209-0.989,2.209-2.209
		h2.449c0,1.22,0.988,2.209,2.208,2.209c1.219,0,2.209-0.989,2.209-2.209h2.448c0,1.22,0.989,2.209,2.209,2.209
		c1.221,0,2.209-0.989,2.209-2.209h2.45c0,1.22,0.988,2.209,2.209,2.209c1.219,0,2.208-0.989,2.208-2.209h2.45
		c0,1.22,0.987,2.209,2.208,2.209c1.22,0,2.209-0.989,2.209-2.209h2.449c0,1.22,0.988,2.209,2.208,2.209
		c1.221,0,2.209-0.989,2.209-2.209h2.449c0,1.22,0.988,2.209,2.209,2.209c1.22,0,2.209-0.989,2.209-2.209h2.448
		c0,1.22,0.988,2.209,2.208,2.209c1.221,0,2.208-0.989,2.208-2.209h2.45c0,1.22,0.988,2.209,2.209,2.209
		c1.22,0,2.208-0.989,2.208-2.209h2.449c0,1.22,0.989,2.209,2.21,2.209c1.22,0,2.207-0.989,2.207-2.209h2.449
		c0,0.981,0.646,1.806,1.532,2.093V31.688H0z"/>
	<rect x="7.05" y="18.689" fill="none" width="135.668" height="26"/>
	<text transform="matrix(1 0 0 1 45.49 37.6934)" fill="#1A1A1A" font-family="'AlfaSlabOne-Regular'" font-size="18">TEXT</text>
	<g id="change2">
		<rect x="148.471" fill="#EC6433" width="14.411" height="63.377"/>
	</g>
	<polygon opacity="0.1" enable-background="new    " points="153.833,58.015 153.833,5.362 162.883,5.362 162.883,0 148.471,0 
		148.471,63.377 162.883,63.377 162.883,58.015 	"/>
</g>
</svg>
