<?xml version="1.0" encoding="utf-8"?>
<!-- Generator: Adobe Illustrator 16.0.0, SVG Export Plug-In . SVG Version: 6.00 Build 0)  -->
<!DOCTYPE svg PUBLIC "-//W3C//DTD SVG 1.1//EN" "http://www.w3.org/Graphics/SVG/1.1/DTD/svg11.dtd">
<svg version="1.1" id="Layer_1" xmlns="http://www.w3.org/2000/svg" xmlns:xlink="http://www.w3.org/1999/xlink" x="0px" y="0px"
	 width="461.732px" height="399.941px" viewBox="0 0 461.732 399.941" enable-background="new 0 0 461.732 399.941"
	 xml:space="preserve">
<g id="change3">
	<polygon fill="#991272" points="346.246,399.941 115.377,399.873 0,199.905 115.489,0 346.355,0.066 461.732,200.035 	"/>
</g>
<g id="change2">
	<polygon fill="#61E6B4" points="339.637,385.148 124.584,385.087 17.11,198.815 124.688,12.604 339.741,12.665 447.217,198.937 	
		"/>
</g>
<g id="T">
	<rect x="126.831" y="23.667" fill="none" width="212" height="96"/>
	<text transform="matrix(1 0 0 1 142.4609 105.9146)" fill="#991272" font-family="'AlfaSlabOne-Regular'" font-size="88.9942">BIG</text>
</g>
<g id="T_4_">
	<text transform="matrix(1 0 0 1 86.8047 158.9663)" fill="#FFFFFF" font-family="'MrDafoe-Regular'" font-size="70.8425">New project</text>
	<rect x="34.777" y="91.667" fill="none" width="394.816" height="104.803"/>
</g>
<g id="T_3_">
	<rect x="136.831" y="179.667" fill="none" width="176" height="39.803"/>
	<text transform="matrix(1 0 0 1 167.7466 206.9028)" fill="#FFFFFF" font-family="'ArchivoNarrow-Regular'" font-size="22.9149">enquire today</text>
</g>
<g id="T_2_">
	<rect x="67.831" y="211.667" fill="none" width="334" height="71.803"/>
	<text transform="matrix(1 0 0 1 81.4663 270.2739)" fill="#991272" font-family="'AlfaSlabOne-Regular'" font-size="55.5007">SO MANY </text>
</g>
<g id="T_1_">
	<rect x="122.831" y="337.667" fill="none" width="216" height="41"/>
	<g>
		<text transform="matrix(1 0 0 1 143.7983 366.3716)" fill="#991272" font-family="'ArchivoNarrow-Bold'" font-size="22.9149">newproject.com</text>
	</g>
</g>
<g id="T_5_">
	<rect x="148.831" y="281.667" fill="none" width="164" height="63"/>
	<g>
		<text transform="matrix(1 0 0 1 167.7466 321.7778)" fill="#FFFFFF" font-family="'MrDafoe-Regular'" font-size="55.54">things</text>
	</g>
</g>
<g id="change1">
	<rect x="45.831" y="196.667" fill="#FFFFFF" width="90" height="2"/>
	<rect x="312.831" y="196.667" fill="#FFFFFF" width="107" height="2"/>
	<rect x="106.831" y="307.667" fill="#FFFFFF" width="42" height="2"/>
	<rect x="312.831" y="307.667" fill="#FFFFFF" width="42" height="2"/>
</g>
</svg>
