<svg version="1.1" id="Layer_1" xmlns="http://www.w3.org/2000/svg" xmlns:xlink="http://www.w3.org/1999/xlink" x="0px" y="0px"
	 width="476.139px" height="412.353px" viewBox="19.83 -2.834 476.139 412.353"
	 style="enable-background:new 19.83 -2.834 476.139 412.353;" xml:space="preserve">
<style type="text/css">

</style>
<g id="change1">
	<path style="fill:#F4BC33;" d="M448.106,120.445V103.29c0-37.475-23.513-71.25-58.623-84.378L376.927-2.834H138.85L126.291,18.92
		c-35.098,13.13-58.605,46.903-58.605,84.371v17.152l-47.855,82.9l47.855,82.9v17.167c0,37.466,23.511,71.234,58.612,84.363
		l12.554,21.745h238.077l12.554-21.741c35.107-13.123,58.624-46.896,58.624-84.367v-17.171l47.862-82.897L448.106,120.445z"/>
</g>
<g id="change2">
	<circle style="fill:#E05A47;" cx="55.868" cy="204.422" r="5.415"/>
	<circle style="fill:#E05A47;" cx="461.091" cy="204.422" r="5.415"/>
	<path style="fill:#E05A47;" d="M370.961,399.182H144.818l-11.865-20.557c-33.306-12.261-55.64-44.195-55.64-79.646V282.25
		L31.76,203.342l45.553-78.907v-16.716c0-35.451,22.333-67.391,55.633-79.654L144.818,7.5h226.146l11.869,20.558
		c33.311,12.262,55.646,44.204,55.646,79.661v16.72l45.56,78.903l-0.437,0.75l-45.123,78.153v16.731
		c0,35.455-22.34,67.396-55.647,79.646L370.961,399.182z M146.551,396.184h222.678l11.552-20l0.519-0.188
		c32.407-11.688,54.188-42.643,54.188-77.02v-17.537l0.198-0.352l44.894-77.75l-45.092-78.1v-17.524
		c0-34.379-21.771-65.334-54.184-77.027l-0.519-0.186L369.229,10.5H146.551l-11.553,20.011l-0.519,0.188
		c-32.397,11.695-54.168,42.646-54.168,77.021v17.521l-45.089,78.104l45.089,78.104v17.532c0,34.373,21.771,65.319,54.173,77.017
		l0.519,0.188L146.551,396.184z"/>
</g>
<g id="change3">
	<path style="fill:#F2F2DB;" d="M134.804,65.349c2.678,0.69,4.366,3.298,3.748,5.829c-0.475,1.916-0.946,3.833-1.419,5.75
		c-0.624,2.529-1.646,6.667-2.271,9.195c-0.472,1.914-0.942,3.831-1.417,5.745c-0.616,2.532-3.467,4.027-6.319,3.291
		c-25.326-6.524-50.28-14.974-74.646-25.35c-2.745-1.174-2.936-3.103-0.46-4.281c3.148-1.504,6.271-3.038,9.362-4.6
		c2.431-1.229,3.702-4.359,2.878-6.936c-1.047-3.279-2.059-6.56-3.033-9.841c-0.762-2.581,0.738-3.764,3.314-2.664
		C87.476,51.253,110.966,59.208,134.804,65.349z"/>
	<path style="fill:#F2F2DB;" d="M380.99,65.349c-2.676,0.69-4.364,3.298-3.747,5.829c0.476,1.916,0.941,3.833,1.418,5.75
		c0.625,2.529,1.646,6.667,2.271,9.195c0.475,1.914,0.946,3.831,1.417,5.745c0.619,2.532,3.469,4.027,6.32,3.291
		c25.324-6.524,50.277-14.974,74.646-25.35c2.741-1.171,2.938-3.103,0.459-4.278c-3.148-1.507-6.271-3.041-9.364-4.604
		c-2.437-1.229-3.697-4.357-2.879-6.934c1.047-3.281,2.062-6.562,3.036-9.843c0.761-2.583-0.738-3.764-3.312-2.664
		C428.32,51.253,404.826,59.208,380.99,65.349z"/>
	<path style="fill:#F2F2DB;" d="M110.773,69.244c-0.766,2.49,0.191,6.181,2.155,8.186c5.179,5.295,10.517,10.507,16.009,15.633
		c2.083,1.941,4.319,1.44,4.938-1.088c1.693-6.9,3.391-13.798,5.088-20.698c0.617-2.531-0.483-6.143-2.414-8.043
		c-5.116-5.028-10.081-10.138-14.885-15.321c-1.816-1.959-3.9-1.538-4.667,0.953C114.92,55.658,112.847,62.451,110.773,69.244z"/>
	<path style="fill:#F2F2DB;" d="M405.021,69.246c0.764,2.488-0.191,6.179-2.156,8.184c-5.181,5.295-10.519,10.509-16.009,15.633
		c-2.083,1.941-4.319,1.443-4.938-1.088c-1.695-6.9-3.396-13.798-5.091-20.695c-0.613-2.531,0.48-6.143,2.414-8.045
		c5.116-5.028,10.079-10.138,14.889-15.321c1.813-1.959,3.897-1.538,4.664,0.953C400.869,55.658,402.946,62.451,405.021,69.246z"/>
</g>
<g style="opacity:0.2;">
	<path d="M110.773,69.244c-0.766,2.49,0.191,6.181,2.155,8.186c5.179,5.295,10.517,10.507,16.009,15.633
		c2.083,1.941,4.319,1.44,4.938-1.088c1.693-6.9,3.391-13.798,5.088-20.698c0.617-2.531-0.483-6.143-2.414-8.043
		c-5.116-5.028-10.081-10.138-14.885-15.321c-1.816-1.959-3.9-1.538-4.667,0.953C114.92,55.658,112.847,62.451,110.773,69.244z"/>
	<path d="M405.021,69.246c0.764,2.488-0.191,6.179-2.156,8.184c-5.181,5.295-10.519,10.509-16.009,15.633
		c-2.083,1.941-4.319,1.443-4.938-1.088c-1.695-6.9-3.396-13.798-5.091-20.695c-0.613-2.531,0.48-6.143,2.414-8.045
		c5.116-5.028,10.079-10.138,14.889-15.321c1.813-1.959,3.897-1.538,4.664,0.953C400.869,55.658,402.946,62.451,405.021,69.246z"/>
</g>
<g id="Change3_2_">
	<path style="fill:#F2F2DB;" d="M405.021,69.246c0.765,2.488-0.854,5.215-3.602,6.021c-93.681,27.567-193.374,27.567-287.051,0
		c-2.748-0.81-4.364-3.533-3.601-6.023c2.074-6.793,4.147-13.586,6.225-20.378c0.766-2.491,3.49-3.884,6.063-3.126
		c88.004,25.895,181.667,25.896,269.672,0c2.569-0.757,5.3,0.636,6.062,3.126C400.869,55.658,402.946,62.451,405.021,69.246z"/>
</g>
<g id="T_1_">
	<rect x="65.396" y="160.48" style="fill:none;" width="385.002" height="83.977"/>
	<text transform="matrix(1 0 0 1 73.3733 234.4443)" style="fill:#E05A47; font-family:'Quando-Regular'; font-size:81;">BAKERY</text>
</g>
<g id="T_2_">
	<rect x="176.396" y="108.839" style="fill:none;" width="163.002" height="48.079"/>
	<text transform="matrix(1 0 0 1 180.6379 145.6025)" style="fill:#E05A47; font-family:'Parisienne-Regular'; font-size:50;">Original</text>
</g>
<g id="T">
	<rect x="110.511" y="327.659" style="fill:none;" width="294.772" height="27.563"/>
	<text transform="matrix(1 0 0 1 122.9612 349.7979)" style="fill:#E05A47; font-family:'Quando-Regular'; font-size:21;">PASTRIES &amp; CUPCAKES</text>
</g>
<g id="T_3_">
	<rect x="190.398" y="65.872" style="fill:none;" width="135" height="29.704"/>
	<text transform="matrix(1 0 0 1 202.5315 86.998)" style="fill:#E05A47; font-family:'Quando-Regular'; font-size:18.035;">Since 1931</text>
</g>
<g id="T_4_">
	
	<text transform="matrix(1 0 0 1 175.7249 275.416)" style="fill:#E05A47; font-family:'Quando-Regular'; font-size:30;">PREMIUM</text>
</g>
<g id="change2_1_">
	<path style="fill:#E05A47;" d="M167.728,141.271c-1.193,1.146-2.667,2.043-4.256,2.594c-0.735,0.263-1.562,0.452-2.531,0.577
		c-0.29,0.034-0.58,0.046-0.872,0.058c-0.142,0.006-0.283,0.012-0.443,0.021l-21.792-0.107l-57.047-0.392v-0.57l56.755-0.39
		l20.842-0.109l1.22-0.002c0.146-0.01,0.294-0.017,0.44-0.023c0.24-0.011,0.479-0.021,0.714-0.05
		c0.847-0.112,1.562-0.278,2.192-0.507c1.35-0.472,2.626-1.248,3.692-2.246c1.979-1.841,3.154-4.425,3.227-7.094
		c0.103-2.25-0.569-4.583-1.849-6.406c-1.261-1.861-2.836-2.914-3.938-3.47c-1.048-0.54-2.119-0.896-3.267-1.089
		c-0.709-0.097-1.113-0.134-1.211-0.142l0.007,0.114l-0.562,0.035c-0.279,0.016-0.626,0.035-1.069,0.13
		c-0.229,0.037-0.514,0.083-0.812,0.185l-0.146,0.042c-0.258,0.075-0.523,0.152-0.817,0.289c-0.58,0.207-1.23,0.584-2.032,1.176
		c-0.914,0.743-2.542,2.368-3.198,4.894c-0.137,0.518-0.229,1.056-0.28,1.595c-0.013,0.18-0.016,0.366-0.019,0.552l-0.009,0.268
		c0.01,0.101,0.016,0.208,0.021,0.319c0.012,0.167,0.021,0.342,0.05,0.521c0.156,1.164,0.557,2.218,1.159,3.056
		c0.475,0.7,1.221,1.276,2.142,1.653c-0.307-0.617-0.468-1.295-0.468-1.981c0-2.52,2.052-4.568,4.569-4.568
		c2.521,0,4.568,2.049,4.568,4.568c0,1.486-0.731,2.885-1.911,3.704c-0.862,0.819-2.119,1.318-3.353,1.335
		c-0.029,0.005-0.057,0.008-0.196,0.009l-0.764-0.034c-0.226-0.011-0.479-0.056-0.729-0.102l-0.317-0.056
		c-0.271-0.062-0.534-0.147-0.796-0.233l-0.415-0.16c-0.248-0.108-0.504-0.22-0.745-0.365c-1.188-0.676-2.205-1.676-2.934-2.884
		c-0.683-1.081-1.104-2.393-1.21-3.783c-0.024-0.229-0.026-0.445-0.026-0.672l-0.001-0.349l0.023-0.305
		c0.014-0.2,0.026-0.4,0.055-0.61c0.088-0.621,0.229-1.233,0.421-1.824c0.382-1.152,0.918-2.192,1.592-3.094
		c0.608-0.822,1.346-1.562,2.216-2.221c0.118-0.075,0.233-0.153,0.349-0.23c0.262-0.175,0.531-0.356,0.806-0.484l0.364-0.191
		l0.742-0.319c0.325-0.145,0.644-0.229,0.925-0.304l0.117-0.03c0.327-0.104,0.629-0.151,0.914-0.191
		c0.483-0.094,0.883-0.108,1.173-0.119l0.562-0.024l0.015,0.231l0.003-0.116l0.336-0.001l0.074,0.001l0.418-0.005
		c0.141,0,0.299,0.004,0.476,0.017c0.839,0.073,2.127,0.244,3.623,0.885c1.272,0.559,3.098,1.639,4.576,3.615
		c0.786,1.076,1.341,2.13,1.699,3.224c0.422,1.305,0.618,2.656,0.584,4.011C171.318,136.115,169.955,139.172,167.728,141.271z"/>
	<path style="fill:#E05A47;" d="M347.211,141.271c1.195,1.146,2.668,2.043,4.256,2.594c0.734,0.263,1.562,0.452,2.529,0.577
		c0.289,0.034,0.58,0.046,0.871,0.058c0.145,0.006,0.285,0.012,0.447,0.021l21.791-0.107l57.047-0.392v-0.57l-56.754-0.39
		l-20.844-0.109l-1.219-0.002c-0.146-0.01-0.297-0.017-0.441-0.023c-0.238-0.011-0.48-0.021-0.713-0.05
		c-0.848-0.112-1.564-0.278-2.193-0.507c-1.35-0.472-2.625-1.248-3.691-2.246c-1.98-1.841-3.154-4.425-3.229-7.094
		c-0.102-2.25,0.57-4.583,1.852-6.406c1.26-1.861,2.836-2.914,3.938-3.47c1.047-0.54,2.117-0.896,3.264-1.089
		c0.709-0.097,1.115-0.134,1.212-0.142l-0.007,0.114l0.562,0.035c0.279,0.016,0.627,0.035,1.07,0.13
		c0.227,0.037,0.514,0.083,0.812,0.185l0.145,0.042c0.258,0.075,0.523,0.152,0.818,0.289c0.578,0.207,1.23,0.584,2.031,1.176
		c0.912,0.743,2.541,2.368,3.197,4.894c0.137,0.518,0.229,1.056,0.277,1.595c0.016,0.18,0.02,0.366,0.021,0.552l0.01,0.268
		c-0.012,0.101-0.018,0.208-0.021,0.319c-0.012,0.167-0.021,0.342-0.051,0.521c-0.154,1.164-0.557,2.218-1.159,3.056
		c-0.474,0.7-1.22,1.276-2.142,1.653c0.308-0.617,0.467-1.295,0.467-1.981c0-2.52-2.049-4.568-4.566-4.568
		c-2.521,0-4.568,2.049-4.568,4.568c0,1.486,0.73,2.885,1.912,3.704c0.861,0.819,2.119,1.318,3.35,1.335
		c0.031,0.005,0.061,0.008,0.197,0.009l0.764-0.034c0.227-0.011,0.479-0.056,0.73-0.102l0.316-0.056
		c0.271-0.062,0.533-0.147,0.797-0.233l0.414-0.16c0.25-0.108,0.506-0.22,0.746-0.365c1.188-0.676,2.203-1.676,2.934-2.884
		c0.684-1.081,1.104-2.393,1.211-3.783c0.025-0.229,0.027-0.445,0.027-0.672v-0.349l-0.023-0.305c-0.014-0.2-0.027-0.4-0.055-0.61
		c-0.088-0.621-0.229-1.233-0.42-1.824c-0.384-1.152-0.92-2.192-1.596-3.094c-0.607-0.822-1.344-1.562-2.213-2.221
		c-0.121-0.075-0.234-0.153-0.352-0.23c-0.26-0.175-0.529-0.356-0.805-0.484l-0.363-0.191l-0.744-0.319
		c-0.322-0.145-0.643-0.229-0.924-0.304l-0.117-0.03c-0.328-0.104-0.629-0.151-0.914-0.191c-0.484-0.094-0.883-0.108-1.172-0.119
		l-0.564-0.024l-0.014,0.231l-0.004-0.116l-0.334-0.001l-0.074,0.001l-0.418-0.005c-0.141,0-0.299,0.004-0.477,0.017
		c-0.841,0.073-2.127,0.244-3.623,0.885c-1.271,0.559-3.1,1.639-4.576,3.615c-0.785,1.076-1.342,2.13-1.699,3.224
		c-0.422,1.305-0.619,2.656-0.584,4.011C343.619,136.115,344.985,139.172,347.211,141.271z"/>
	<path style="fill:#E05A47;" d="M405.209,296.393c0,0-0.462-0.502-1.32-1.44c-0.444-0.445-0.939-1.113-1.617-1.675
		c-0.681-0.524-1.466-1.129-2.345-1.805c-0.882-0.641-1.964-1.08-3.075-1.703c-1.128-0.582-2.433-0.858-3.771-1.351
		c-1.367-0.317-2.841-0.562-4.384-0.786c-1.562-0.029-3.186-0.339-4.902-0.234c-3.425,0.011-7.138,0.401-11.038,1.131
		c-3.911,0.693-8.005,1.765-12.239,2.892c-8.463,2.374-17.445,5.358-26.456,8.335c-4.516,1.436-9.029,2.878-13.505,4.169
		c-4.465,1.349-8.905,2.406-13.211,3.364c-4.315,0.893-8.512,1.597-12.522,1.834c-4.002,0.368-7.812,0.214-11.311-0.102
		c-1.747-0.352-3.431-0.494-4.999-0.979c-1.562-0.562-3.072-0.848-4.416-1.604c-1.353-0.674-2.643-1.172-3.735-2.028
		c-1.103-0.812-2.18-1.349-3.003-2.252c-0.847-0.815-1.604-1.543-2.261-2.177c-0.579-0.771-1.075-1.43-1.473-1.961
		c-0.79-1.06-1.214-1.629-1.214-1.629s0.457,0.508,1.315,1.457c0.43,0.469,0.953,1.047,1.573,1.725
		c0.68,0.547,1.463,1.17,2.337,1.869c0.837,0.799,1.929,1.217,3.027,1.894c1.094,0.726,2.387,1.077,3.722,1.599
		c2.691,0.961,5.822,1.396,9.225,1.727c3.427,0.089,7.136,0.012,11.052-0.594c3.919-0.479,8.023-1.474,12.271-2.435
		c4.246-1.054,8.607-2.344,13.044-3.686c4.439-1.323,8.934-2.821,13.437-4.29c4.518-1.426,9.034-2.85,13.479-4.256
		c4.453-1.396,8.876-2.553,13.167-3.616c4.293-1.058,8.479-1.825,12.474-2.29c3.988-0.496,7.79-0.662,11.3-0.455
		c1.747,0.023,3.43,0.391,5.021,0.591c1.579,0.396,3.077,0.8,4.466,1.271c1.361,0.645,2.67,1.063,3.808,1.779
		c1.115,0.762,2.187,1.317,3.067,2.073c0.86,0.799,1.629,1.515,2.298,2.134c0.643,0.656,1.084,1.387,1.497,1.891
		C404.782,295.831,405.209,296.393,405.209,296.393z"/>
	<path style="fill:#E05A47;" d="M119.616,296.393c0,0,0.459-0.502,1.322-1.44c0.44-0.445,0.938-1.113,1.613-1.675
		c0.683-0.524,1.467-1.129,2.347-1.805c0.886-0.641,1.965-1.08,3.075-1.703c1.13-0.582,2.434-0.858,3.771-1.351
		c1.366-0.317,2.842-0.562,4.381-0.786c1.564-0.029,3.188-0.339,4.903-0.234c3.424,0.011,7.138,0.401,11.041,1.131
		c3.908,0.693,8.006,1.765,12.24,2.892c8.459,2.374,17.444,5.358,26.452,8.335c4.515,1.436,9.03,2.878,13.508,4.169
		c4.465,1.349,8.905,2.406,13.21,3.364c4.315,0.893,8.512,1.597,12.524,1.834c4,0.368,7.809,0.214,11.309-0.102
		c1.746-0.352,3.431-0.494,5.001-0.979c1.561-0.562,3.07-0.848,4.412-1.604c1.354-0.674,2.645-1.172,3.738-2.028
		c1.1-0.812,2.179-1.349,3.001-2.252c0.845-0.815,1.604-1.543,2.263-2.177c0.579-0.771,1.072-1.43,1.474-1.961
		c0.791-1.06,1.211-1.629,1.211-1.629s-0.455,0.508-1.316,1.457c-0.428,0.469-0.953,1.047-1.574,1.725
		c-0.679,0.547-1.462,1.17-2.336,1.869c-0.834,0.799-1.926,1.217-3.026,1.894c-1.096,0.726-2.386,1.077-3.723,1.599
		c-2.689,0.961-5.82,1.396-9.224,1.727c-3.425,0.089-7.136,0.012-11.051-0.594c-3.919-0.479-8.026-1.474-12.272-2.435
		c-4.245-1.054-8.606-2.344-13.043-3.686c-4.436-1.323-8.936-2.821-13.435-4.29c-4.518-1.426-9.035-2.85-13.48-4.256
		c-4.453-1.396-8.876-2.553-13.166-3.616c-4.293-1.058-8.479-1.825-12.474-2.29c-3.989-0.496-7.789-0.662-11.294-0.455
		c-1.752,0.023-3.437,0.391-5.022,0.591c-1.58,0.396-3.08,0.8-4.467,1.271c-1.363,0.645-2.669,1.063-3.804,1.779
		c-1.121,0.762-2.188,1.317-3.071,2.073c-0.862,0.799-1.629,1.515-2.298,2.134c-0.64,0.656-1.087,1.387-1.497,1.891
		C120.043,295.831,119.616,296.393,119.616,296.393z"/>
</g>
</svg>
