<?xml version="1.0" encoding="UTF-8"?><!DOCTYPE svg PUBLIC "-//W3C//DTD SVG 1.1//EN" "http://www.w3.org/Graphics/SVG/1.1/DTD/svg11.dtd"><svg xmlns="http://www.w3.org/2000/svg" xmlns:xlink="http://www.w3.org/1999/xlink" version="1.1" width="24" height="24" viewBox="0 0 24 24"><path d="M10,21C10,22.11 10.9,23 12,23A2,2 0 0,0 14,21M18.88,16.82V11C18.88,7.75 16.63,5.03 13.59,4.31V3.59A1.59,1.59 0 0,0 12,2A1.59,1.59 0 0,0 10.41,3.59V4.31C7.37,5.03 5.12,7.75 5.12,11V16.82L3,18.94V20H21V18.94M16,13H13V16H11V13H8V11H11V8H13V11H16" /></svg>