<?xml version="1.0" encoding="iso-8859-1"?>
<!-- Generator: Adobe Illustrator 19.1.0, SVG Export Plug-In . SVG Version: 6.00 Build 0)  -->
<svg version="1.1" id="Capa_1" xmlns="http://www.w3.org/2000/svg" xmlns:xlink="http://www.w3.org/1999/xlink" x="0px" y="0px"
	 viewBox="0 0 50.68 50.68" style="enable-background:new 0 0 50.68 50.68;" xml:space="preserve">
<path style="fill:#1E201D;" d="M36.093,37.639c0.429-0.444,0.429-1.159,0-1.587c-0.444-0.444-1.159-0.444-1.587,0l-8.047,8.032
	V17.544c0-0.619-0.492-1.127-1.111-1.127c-0.619,0-1.127,0.508-1.127,1.127v26.539l-8.031-8.032c-0.444-0.444-1.143-0.444-1.587,0
	c-0.429,0.429-0.429,1.143,0,1.587l9.952,9.952c0.429,0.429,1.143,0.429,1.587,0L36.093,37.639z M21.951,29.655
	c0.603,0,1.111,0.492,1.111,1.111c0,0.619-0.508,1.127-1.111,1.127H11.237c-3.095,0-5.904-1.254-7.936-3.301
	C1.254,26.56,0,23.751,0,20.656c0-3.095,1.254-5.905,3.301-7.936c2.032-2.032,4.841-3.302,7.936-3.302
	c0.746,0,1.492,0.079,2.222,0.238c0.413,0.079,0.809,0.175,1.19,0.302c1.19-2.048,2.889-3.762,4.905-5.016
	c2.222-1.381,4.841-2.175,7.65-2.175c3.841,0,7.349,1.508,9.952,3.952c2.349,2.206,3.952,5.159,4.444,8.492
	c0.238-0.032,0.492-0.032,0.73-0.032c2.301,0,4.397,0.936,5.904,2.444c1.524,1.508,2.444,3.603,2.444,5.905
	c0,2.317-0.921,4.397-2.444,5.92c-1.508,1.508-3.603,2.444-5.904,2.444H28.744c-0.619,0-1.111-0.508-1.111-1.127
	c0-0.619,0.492-1.111,1.111-1.111h13.587c1.682,0,3.222-0.683,4.317-1.794c1.111-1.111,1.794-2.635,1.794-4.333
	c0-1.682-0.683-3.222-1.794-4.317c-1.095-1.111-2.635-1.794-4.317-1.794c-0.254,0-0.508,0.016-0.73,0.048
	c-0.238,0.016-0.476,0.063-0.683,0.111c-0.079,0.016-0.159,0.032-0.238,0.048c-0.619,0.032-1.143-0.444-1.19-1.063
	c-0.19-3.222-1.635-6.127-3.857-8.206c-2.206-2.079-5.174-3.349-8.428-3.349c-2.381,0-4.603,0.683-6.476,1.841
	c-1.952,1.19-3.524,2.921-4.555,4.984l0,0c-0.27,0.524-0.889,0.762-1.444,0.54c-0.54-0.238-1.111-0.413-1.698-0.54
	c-0.571-0.111-1.159-0.175-1.794-0.175c-2.492,0-4.73,1.016-6.365,2.635c-1.619,1.635-2.635,3.889-2.635,6.365
	c0,2.492,1.016,4.73,2.635,6.365c1.635,1.619,3.873,2.635,6.365,2.635H21.951z"/>
<g>
</g>
<g>
</g>
<g>
</g>
<g>
</g>
<g>
</g>
<g>
</g>
<g>
</g>
<g>
</g>
<g>
</g>
<g>
</g>
<g>
</g>
<g>
</g>
<g>
</g>
<g>
</g>
<g>
</g>
</svg>
