<svg version="1.1" xmlns="http://www.w3.org/2000/svg" width="31" height="32" viewBox="0 0 31 32">
<title>grid</title>
<path d="M28.5 11c0.276 0 0.5-0.224 0.5-0.5s-0.224-0.5-0.5-0.5h-7.5v-7.5c0-0.276-0.224-0.5-0.5-0.5s-0.5 0.224-0.5 0.5v7.5h-9v-7.5c0-0.276-0.224-0.5-0.5-0.5s-0.5 0.224-0.5 0.5v7.5h-7.5c-0.276 0-0.5 0.224-0.5 0.5s0.224 0.5 0.5 0.5h7.5v9h-7.5c-0.276 0-0.5 0.224-0.5 0.5s0.224 0.5 0.5 0.5h7.5v8.5c0 0.276 0.224 0.5 0.5 0.5s0.5-0.224 0.5-0.5v-8.5h9v8.5c0 0.276 0.224 0.5 0.5 0.5s0.5-0.224 0.5-0.5v-8.5h7.5c0.276 0 0.5-0.224 0.5-0.5s-0.224-0.5-0.5-0.5h-7.5v-9h7.5zM20 20h-9v-9h9v9zM31 30.5v-29c0-0.827-0.673-1.5-1.5-1.5h-28c-0.827 0-1.5 0.673-1.5 1.5v29c0 0.827 0.673 1.5 1.5 1.5h28c0.827 0 1.5-0.673 1.5-1.5zM1 30.5v-29c0-0.276 0.225-0.5 0.5-0.5h28c0.275 0 0.5 0.224 0.5 0.5v29c0 0.276-0.225 0.5-0.5 0.5h-28c-0.275 0-0.5-0.224-0.5-0.5z"></path>
</svg>
