<svg>
    <defs>
        <g id="upload">
            <path d="M18.521,8.833c-0.225-3.406-3.068-6.109-6.531-6.109c-3.463,0-6.307,2.704-6.53,6.112C2.364,9.225,0,11.862,0,15.027
				c0,3.445,2.803,6.25,6.25,6.25h9.503c0.271,0,0.489-0.22,0.489-0.49c0-0.27-0.219-0.489-0.489-0.489H6.25
				c-2.906,0-5.271-2.364-5.271-5.271c0-2.796,2.189-5.105,4.984-5.255c0.26-0.014,0.463-0.229,0.463-0.489c0-0.01,0-0.019,0-0.029
				c0.007-3.063,2.501-5.552,5.565-5.552c3.065,0,5.559,2.49,5.566,5.553c-0.001,0.01-0.001,0.02-0.001,0.027
				c0,0.261,0.204,0.476,0.464,0.489c2.805,0.142,5.002,2.451,5.002,5.256c0,1.594-0.711,3.084-1.947,4.091
				c-0.21,0.171-0.242,0.479-0.071,0.688c0.171,0.21,0.479,0.242,0.688,0.07C23.158,18.684,24,16.916,24,15.027
				C24,11.853,21.628,9.213,18.521,8.833z"/>
            <path d="M11.501,11.51v6.243c0,0.271,0.219,0.489,0.489,0.489c0.271,0,0.49-0.219,0.49-0.489V11.51c0-0.27-0.219-0.489-0.49-0.489
				C11.721,11.021,11.501,11.24,11.501,11.51z"/>
            <path d="M14.791,12.418c0.125,0,0.25-0.047,0.346-0.143c0.191-0.191,0.191-0.501,0-0.692l-2.8-2.8
				c-0.191-0.191-0.501-0.191-0.692,0l-2.8,2.8c-0.191,0.191-0.191,0.501,0,0.692c0.191,0.191,0.501,0.191,0.692,0l2.454-2.454
				l2.454,2.454C14.54,12.371,14.666,12.418,14.791,12.418z"/>
        </g>
        <g id="delete">
            <path d="M19 6.41L17.59 5 12 10.59 6.41 5 5 6.41 10.59 12 5 17.59 6.41 19 12 13.41 17.59 19 19 17.59 13.41 12z"></path>
        </g>
        <g id="download">
            <path fill="#1E201D" d="M17.092,17.824c0.203-0.21,0.203-0.549,0-0.752c-0.21-0.21-0.549-0.21-0.751,0l-3.812,3.805V8.308
				c0-0.293-0.232-0.534-0.525-0.534c-0.293,0-0.534,0.241-0.534,0.534v12.568l-3.803-3.804c-0.21-0.211-0.542-0.211-0.751,0
				c-0.203,0.203-0.203,0.541,0,0.752l4.713,4.713c0.203,0.203,0.541,0.203,0.751,0L17.092,17.824z M10.395,14.043
				c0.286,0,0.526,0.233,0.526,0.526c0,0.294-0.241,0.534-0.526,0.534H5.321c-1.466,0-2.796-0.594-3.758-1.563
				C0.594,12.578,0,11.248,0,9.782c0-1.465,0.594-2.796,1.563-3.758C2.525,5.062,3.855,4.46,5.321,4.46
				c0.354,0,0.707,0.038,1.052,0.113C6.569,4.61,6.757,4.656,6.937,4.716C7.5,3.746,8.305,2.934,9.26,2.34
				c1.052-0.654,2.293-1.03,3.623-1.03c1.818,0,3.48,0.714,4.713,1.871c1.112,1.045,1.871,2.443,2.104,4.021
				c0.112-0.015,0.233-0.015,0.346-0.015c1.089,0,2.082,0.443,2.796,1.158c0.722,0.714,1.157,1.706,1.157,2.796
				c0,1.097-0.437,2.083-1.157,2.803c-0.715,0.715-1.707,1.157-2.796,1.157h-6.435c-0.293,0-0.525-0.24-0.525-0.534
				c0-0.293,0.232-0.525,0.525-0.525h6.436c0.796,0,1.525-0.323,2.044-0.85c0.526-0.526,0.85-1.248,0.85-2.052
				c0-0.797-0.323-1.526-0.85-2.044c-0.519-0.526-1.248-0.85-2.044-0.85c-0.121,0-0.241,0.007-0.346,0.022
				c-0.113,0.008-0.227,0.03-0.324,0.053c-0.037,0.008-0.075,0.015-0.112,0.023c-0.294,0.015-0.542-0.21-0.563-0.503
				c-0.09-1.526-0.774-2.902-1.826-3.886C15.83,2.972,14.424,2.37,12.883,2.37c-1.127,0-2.179,0.323-3.066,0.872
				c-0.924,0.563-1.669,1.383-2.157,2.36l0,0C7.531,5.851,7.238,5.963,6.976,5.858C6.72,5.745,6.449,5.662,6.171,5.602
				C5.901,5.55,5.623,5.52,5.322,5.52c-1.18,0-2.24,0.481-3.014,1.248C1.541,7.542,1.06,8.609,1.06,9.781
				c0,1.18,0.481,2.24,1.248,3.014c0.774,0.768,1.834,1.248,3.014,1.248H10.395z"/>			
        </g>	
        <g id="cart">
            <circle fill="none" stroke="#000000" stroke-width="1" stroke-miterlimit="10" cx="7.5" cy="21.375" r="2.25"/>
            <circle fill="none" stroke="#000000" stroke-width="1" stroke-miterlimit="10" cx="16.5" cy="21.375" r="2.25"/>
            <line fill="none" stroke="#000000" stroke-width="1" stroke-miterlimit="10" x1="9.75" y1="21.375" x2="14.25" y2="21.375"/>
            <polyline fill="none" stroke="#000000" stroke-width="1" stroke-miterlimit="10" points="5.25,21.375 3.75,0.75 0,0.75 "/>
            <polyline fill="none" stroke="#000000" stroke-width="1" stroke-miterlimit="10" points="4.875,16.125 21,15 23.625,3.75 4.125,3.75 "/>
        </g>	
        <g id="share">
            <path d="M16.242,17.057c-0.213,0.214-0.396,0.448-0.555,0.695l-7.03-4.267c0.186-0.466,0.292-0.972,0.292-1.502
				s-0.105-1.037-0.291-1.502l7.031-4.235c0.723,1.134,1.988,1.89,3.43,1.89c2.244,0,4.068-1.825,4.068-4.068S21.363,0,19.119,0
				c-2.242,0-4.068,1.825-4.068,4.068c0,0.511,0.1,0.998,0.271,1.449l-7.041,4.24C7.555,8.649,6.302,7.915,4.88,7.915
				c-2.243,0-4.068,1.825-4.068,4.068c0,2.244,1.825,4.068,4.068,4.068c1.422,0,2.674-0.734,3.401-1.842l7.039,4.272
				c-0.174,0.458-0.27,0.948-0.27,1.452c0,1.087,0.424,2.109,1.191,2.877C17.035,23.604,18.077,24,19.119,24s2.084-0.396,2.877-1.189
				c0.768-0.769,1.191-1.79,1.191-2.877c0-1.086-0.424-2.108-1.191-2.877C20.41,15.471,17.829,15.471,16.242,17.057z M19.119,0.813
				c1.795,0,3.255,1.46,3.255,3.255c0,1.794-1.46,3.254-3.255,3.254c-1.794,0-3.254-1.46-3.254-3.254
				C15.865,2.273,17.324,0.813,19.119,0.813z M4.881,15.238c-1.794,0-3.254-1.461-3.254-3.255s1.46-3.254,3.254-3.254
				s3.254,1.46,3.254,3.254S6.675,15.238,4.881,15.238z M21.42,22.235c-1.269,1.269-3.333,1.269-4.602,0
				c-0.615-0.614-0.953-1.433-0.953-2.302s0.338-1.687,0.953-2.301c0.635-0.635,1.468-0.951,2.301-0.951
				c0.834,0,1.667,0.316,2.302,0.951c0.614,0.614,0.953,1.432,0.953,2.301S22.035,21.621,21.42,22.235z"/>		
        </g>
        <g id="save">	
            <path d="M13.225,2.266h-3v3.75h3V2.266z M12.514,5.304h-1.577V2.977h1.577V5.304z"/>
            <path d="M15.375,17.641h-7.5c-0.208,0-0.375,0.168-0.375,0.375s0.167,0.375,0.375,0.375h7.5c0.207,0,0.375-0.168,0.375-0.375
				S15.582,17.641,15.375,17.641z"/>
            <path d="M15.375,14.641h-7.5c-0.208,0-0.375,0.168-0.375,0.375s0.167,0.375,0.375,0.375h7.5c0.207,0,0.375-0.168,0.375-0.375
				S15.582,14.641,15.375,14.641z"/>
            <path d="M4.5,21.016h14.25v-9.75H4.5V21.016z M5.25,12.016H18v8.25H5.25V12.016z"/>
            <path d="M18.518,0.016L18.51,0H2.625c-0.829,0-1.5,0.671-1.5,1.5v21c0,0.828,0.671,1.5,1.5,1.5h18.75c0.828,0,1.5-0.672,1.5-1.5
				V4.386L18.518,0.016z M14.985,0.78V7.5H5.265V0.78H14.985z M22.125,22.5c0,0.414-0.336,0.75-0.75,0.75H2.625
				c-0.414,0-0.75-0.336-0.75-0.75v-21c0-0.414,0.336-0.75,0.75-0.75H4.5v7.516h11.25V0.75h2.441l3.934,3.946V22.5z"/>
        </g>
        <g id="language">	
            <path d="M20.119,3.881C17.953,1.711,15.065,0.516,12,0.516S6.047,1.711,3.881,3.881S0.516,8.935,0.516,12
					s1.195,5.953,3.366,8.119c2.17,2.165,5.053,3.365,8.119,3.365s5.953-1.195,8.119-3.365c2.165-2.171,3.365-5.054,3.365-8.119
					S22.289,6.047,20.119,3.881z M22.443,11.484H17.99c-0.042-1.772-0.29-3.478-0.727-4.992c0.849-0.436,1.641-0.984,2.367-1.631
					C21.271,6.614,22.317,8.93,22.443,11.484z M12.516,12.516h4.448c-0.037,1.631-0.263,3.192-0.651,4.589
					c-1.2-0.482-2.479-0.764-3.797-0.825V12.516z M18.891,4.144c-0.6,0.53-1.256,0.98-1.95,1.355c-0.178-0.497-0.38-0.966-0.604-1.406
					c-0.445-0.881-0.951-1.603-1.51-2.156C16.35,2.362,17.732,3.126,18.891,4.144z M12.516,1.706c1.073,0.239,2.086,1.229,2.901,2.841
					c0.221,0.436,0.417,0.9,0.591,1.392c-1.102,0.455-2.278,0.722-3.492,0.783V1.706z M16.317,6.928
					c0.384,1.387,0.604,2.939,0.642,4.561h-4.443V7.758C13.838,7.697,15.117,7.411,16.317,6.928z M11.484,11.484H7.036
					c0.037-1.622,0.258-3.173,0.642-4.561c1.2,0.488,2.484,0.769,3.801,0.825v3.736H11.484z M11.489,1.706v5.016
					c-1.214-0.061-2.396-0.328-3.492-0.783c0.173-0.492,0.37-0.956,0.59-1.392C9.403,2.935,10.416,1.945,11.489,1.706z M9.178,1.936
					C8.62,2.489,8.114,3.216,7.669,4.092c-0.221,0.44-0.422,0.909-0.605,1.406C6.37,5.124,5.719,4.673,5.114,4.144
					C6.272,3.126,7.655,2.362,9.178,1.936z M4.374,4.861C5.1,5.508,5.892,6.052,6.741,6.492c-0.436,1.519-0.689,3.22-0.727,4.992H1.561
					C1.688,8.93,2.733,6.614,4.374,4.861z M1.561,12.516h4.453c0.042,1.786,0.295,3.497,0.736,5.021
					c-0.844,0.436-1.636,0.975-2.358,1.622C2.737,17.4,1.688,15.08,1.561,12.516z M5.133,19.875c0.6-0.525,1.251-0.975,1.94-1.346
					c0.178,0.483,0.375,0.947,0.596,1.379c0.445,0.881,0.951,1.603,1.509,2.16C7.664,21.643,6.286,20.883,5.133,19.875z M11.489,22.294
					c-1.074-0.239-2.086-1.229-2.902-2.841c-0.215-0.427-0.408-0.881-0.581-1.364c1.097-0.454,2.273-0.722,3.483-0.778V22.294z
					 M7.692,17.104c-0.389-1.396-0.614-2.958-0.652-4.589h4.449v3.764C10.172,16.336,8.892,16.617,7.692,17.104z M12.521,22.294v-4.983
					c1.209,0.062,2.386,0.324,3.482,0.778c-0.173,0.483-0.365,0.938-0.581,1.364C14.606,21.065,13.594,22.055,12.521,22.294z
					 M14.831,22.064c0.558-0.554,1.064-1.28,1.51-2.161c0.22-0.432,0.417-0.896,0.595-1.378c0.689,0.37,1.341,0.82,1.941,1.345
					C17.724,20.883,16.346,21.643,14.831,22.064z M19.622,19.158c-0.722-0.643-1.515-1.187-2.358-1.622
					c0.441-1.523,0.694-3.239,0.736-5.021h4.453C22.322,15.08,21.271,17.4,19.622,19.158z"/>
        </g>
        <g id="menu">
            <path d="M3 18h18v-2H3v2zm0-5h18v-2H3v2zm0-7v2h18V6H3z" class="style-scope yt-icon"></path>		
        </g>
        <g id="product">
            <path d="M1,5l11-5l11,5v14l-11,5L1,19V5z M11,10.641L3,7.008v10.703l8,3.641V10.641z M21,17.711V7.008l-8,3.633v10.71L21,17.711z
				 M19.375,5.547L12,2.195L4.625,5.547L12,8.899L19.375,5.547z"/>		
        </g>	
        <g id="text">
            <path d="M20,3V1h-6v2h2v18h-2v2h6v-2h-2V3H20z M14,5.342c0-0.104-0.195-0.229-0.32-0.318c-0.551-0.411-1.16-0.679-1.836-0.803
				c-0.676-0.125-1.465-0.187-2.373-0.187c-0.658,0-1.334,0.104-2.025,0.316C6.754,4.561,6.166,4.817,5.68,5.121
				C5.117,5.477,4.661,5.883,4.31,6.336C3.959,6.79,3.783,7.266,3.783,7.763c0,0.476,0.127,0.905,0.381,1.289
				c0.254,0.384,0.651,0.575,1.191,0.575c0.605,0,1.078-0.156,1.419-0.471c0.341-0.313,0.511-0.658,0.511-1.037
				c0-0.356-0.052-0.745-0.154-1.167c-0.104-0.421-0.154-0.74-0.154-0.956c0.173-0.184,0.473-0.359,0.9-0.527
				c0.426-0.168,0.889-0.251,1.386-0.251c0.724,0,1.283,0.148,1.678,0.445c0.395,0.298,0.7,0.646,0.916,1.046
				C12.051,7.066,12,7.875,12,7.875v2.385c0,0.281-1.357,0.67-2.844,1.167c-1.487,0.497-2.391,0.837-2.878,1.021
				C5.89,12.6,5.516,12.803,5.072,13.057c-0.443,0.254-0.78,0.543-1.051,0.867c-0.346,0.389-0.595,0.826-0.768,1.313S3,16.273,3,16.891
				c0,1.188,0.389,2.15,1.162,2.885c0.772,0.734,1.76,1.104,2.959,1.104c1.135,0,2.105-0.445,2.91-0.855
				C10.838,19.611,11.592,19,12.294,18h0.098c0.141,1,0.454,1.57,0.956,1.966L14,20V5.342z M12.262,17.227
				c-0.4,0.51-0.892,0.949-1.475,1.324c-0.584,0.373-1.26,0.561-2.027,0.561c-0.725,0-1.321-0.211-1.791-0.635
				c-0.471-0.422-0.705-1.082-0.705-1.979c0-0.692,0.156-1.293,0.471-1.796c0.312-0.506,0.74-0.94,1.279-1.309
				c0.596-0.391,1.238-0.715,1.93-0.976c0.691-0.26,1.398-0.498,2.318-0.767V17.227z"/>		
        </g>
        <g id="clipart">
            <path d="M1.125 24h21.75c0.62 0 1.125-0.505 1.125-1.125v-21.75c0-0.62-0.505-1.125-1.125-1.125h-21.75c-0.62 0-1.125 0.505-1.125 1.125v21.75c0 0.62 0.505 1.125 1.125 1.125zM0.75 1.125c0-0.207 0.169-0.375 0.375-0.375h21.75c0.206 0 0.375 0.168 0.375 0.375v21.75c0 0.207-0.169 0.375-0.375 0.375h-21.75c-0.206 0-0.375-0.168-0.375-0.375v-21.75zM15.375 9.375c0.827 0 1.5-0.673 1.5-1.5s-0.673-1.5-1.5-1.5-1.5 0.673-1.5 1.5 0.673 1.5 1.5 1.5zM15.375 7.125c0.414 0 0.75 0.337 0.75 0.75s-0.336 0.75-0.75 0.75-0.75-0.337-0.75-0.75 0.336-0.75 0.75-0.75zM3.375 18.75h17.25c0.207 0 0.375-0.168 0.375-0.375v-15c0-0.207-0.168-0.375-0.375-0.375h-17.25c-0.207 0-0.375 0.168-0.375 0.375v15c0 0.207 0.168 0.375 0.375 0.375zM3.75 18v-4.228c0.017-0.012 0.035-0.019 0.050-0.034l3.837-3.837c0.195-0.195 0.534-0.194 0.729 0l5.641 5.641c0.073 0.073 0.169 0.11 0.265 0.11 0.093 0 0.186-0.034 0.259-0.104l2.899-2.754c0.098-0.097 0.227-0.152 0.364-0.152s0.266 0.054 0.353 0.14l2.101 2.289c0 0 0.001 0 0.001 0.001v2.928h-16.501zM20.25 3.75v10.214l-1.561-1.699c-0.238-0.239-0.556-0.371-0.893-0.371-0.001 0-0.001 0-0.001 0-0.338 0-0.656 0.132-0.889 0.364l-2.628 2.496-5.382-5.383c-0.479-0.479-1.312-0.478-1.79 0l-3.357 3.358v-8.978h16.5z"/>		
        </g>	
        <g id="upload">
            <path d="M18.521,8.833c-0.225-3.406-3.068-6.109-6.531-6.109c-3.463,0-6.307,2.704-6.53,6.112C2.364,9.225,0,11.862,0,15.027
				c0,3.445,2.803,6.25,6.25,6.25h9.503c0.271,0,0.489-0.22,0.489-0.49c0-0.27-0.219-0.489-0.489-0.489H6.25
				c-2.906,0-5.271-2.364-5.271-5.271c0-2.796,2.189-5.105,4.984-5.255c0.26-0.014,0.463-0.229,0.463-0.489c0-0.01,0-0.019,0-0.029
				c0.007-3.063,2.501-5.552,5.565-5.552c3.065,0,5.559,2.49,5.566,5.553c-0.001,0.01-0.001,0.02-0.001,0.027
				c0,0.261,0.204,0.476,0.464,0.489c2.805,0.142,5.002,2.451,5.002,5.256c0,1.594-0.711,3.084-1.947,4.091
				c-0.21,0.171-0.242,0.479-0.071,0.688c0.171,0.21,0.479,0.242,0.688,0.07C23.158,18.684,24,16.916,24,15.027
				C24,11.853,21.628,9.213,18.521,8.833z"/>
            <path d="M11.501,11.51v6.243c0,0.271,0.219,0.489,0.489,0.489c0.271,0,0.49-0.219,0.49-0.489V11.51c0-0.27-0.219-0.489-0.49-0.489
				C11.721,11.021,11.501,11.24,11.501,11.51z"/>
            <path d="M14.791,12.418c0.125,0,0.25-0.047,0.346-0.143c0.191-0.191,0.191-0.501,0-0.692l-2.8-2.8
				c-0.191-0.191-0.501-0.191-0.692,0l-2.8,2.8c-0.191,0.191-0.191,0.501,0,0.692c0.191,0.191,0.501,0.191,0.692,0l2.454-2.454
				l2.454,2.454C14.54,12.371,14.666,12.418,14.791,12.418z"/>		
        </g>
        <g id="draw">
            <path d="M0 23.609c0 0.207 0.168 0.375 0.375 0.375h23.333c0.050 0 0.099-0.010 0.145-0.029s0.087-0.047 0.121-0.082c0.001-0.001 0.002-0.001 0.002-0.002 0.002-0.002 0.002-0.007 0.005-0.009 0.038-0.041 0.063-0.091 0.080-0.146 0.005-0.017 0.007-0.034 0.011-0.052s0.011-0.035 0.011-0.055c0-0.030-0.011-0.056-0.017-0.084-0.002-0.011 0.002-0.021-0.002-0.032l-2.37-7.286c-0.018-0.056-0.049-0.108-0.091-0.149l-12.838-12.838c-0.014-0.021-0.023-0.043-0.041-0.062l-2.804-2.804c-0.455-0.455-1.196-0.455-1.652 0l-3.926 3.926c-0.22 0.22-0.342 0.514-0.342 0.826s0.122 0.606 0.342 0.827l2.742 2.742c0.013 0.020 0.022 0.043 0.041 0.062l12.817 12.904c0.044 0.045 0.098 0.077 0.159 0.095l5.035 1.5h-20.761c-0.207-0.001-0.375 0.167-0.375 0.374zM4.771 7.621l11.765 11.615-0.433 1.501-12.184-12.265 0.851-0.851zM17.112 18.75l-11.811-11.659 1.828-1.828 11.705 11.736v1.75h-1.722zM19.301 16.406l-11.642-11.673 0.779-0.779 12.158 12.158-1.295 0.294zM17.241 19.5h1.968c0.207 0 0.375-0.168 0.375-0.375v-2.014l1.505-0.342 2.042 6.277-6.366-1.897 0.476-1.65zM0.75 5.106c0-0.112 0.044-0.216 0.122-0.296l3.926-3.926c0.163-0.163 0.428-0.163 0.592 0l2.529 2.529-4.517 4.517-2.529-2.529c-0.080-0.079-0.123-0.184-0.123-0.296z"/>		
        </g>	
        <g id="qrcode">
            <path d="M7.5 1.5h-6v6h6v-6zM9 0v0 9h-9v-9h9zM3 3h3v3h-3zM22.5 1.5h-6v6h6v-6zM24 0v0 9h-9v-9h9zM18 3h3v3h-3zM7.5 16.5h-6v6h6v-6zM9 15v0 9h-9v-9h9zM3 18h3v3h-3zM10.5 0h1.5v1.5h-1.5zM12 1.5h1.5v1.5h-1.5zM10.5 3h1.5v1.5h-1.5zM12 4.5h1.5v1.5h-1.5zM10.5 6h1.5v1.5h-1.5zM12 7.5h1.5v1.5h-1.5zM10.5 9h1.5v1.5h-1.5zM10.5 12h1.5v1.5h-1.5zM12 13.5h1.5v1.5h-1.5zM10.5 15h1.5v1.5h-1.5zM12 16.5h1.5v1.5h-1.5zM10.5 18h1.5v1.5h-1.5zM12 19.5h1.5v1.5h-1.5zM10.5 21h1.5v1.5h-1.5zM12 22.5h1.5v1.5h-1.5zM22.5 12h1.5v1.5h-1.5zM1.5 12h1.5v1.5h-1.5zM3 10.5h1.5v1.5h-1.5zM0 10.5h1.5v1.5h-1.5zM6 10.5h1.5v1.5h-1.5zM7.5 12h1.5v1.5h-1.5zM9 10.5h1.5v1.5h-1.5zM13.5 12h1.5v1.5h-1.5zM15 10.5h1.5v1.5h-1.5zM16.5 12h1.5v1.5h-1.5zM18 10.5h1.5v1.5h-1.5zM19.5 12h1.5v1.5h-1.5zM21 10.5h1.5v1.5h-1.5zM22.5 15h1.5v1.5h-1.5zM13.5 15h1.5v1.5h-1.5zM15 13.5h1.5v1.5h-1.5zM16.5 15h1.5v1.5h-1.5zM19.5 15h1.5v1.5h-1.5zM21 13.5h1.5v1.5h-1.5zM22.5 18h1.5v1.5h-1.5zM13.5 18h1.5v1.5h-1.5zM15 16.5h1.5v1.5h-1.5zM18 16.5h1.5v1.5h-1.5zM19.5 18h1.5v1.5h-1.5zM21 16.5h1.5v1.5h-1.5zM22.5 21h1.5v1.5h-1.5zM15 19.5h1.5v1.5h-1.5zM16.5 21h1.5v1.5h-1.5zM18 19.5h1.5v1.5h-1.5zM19.5 21h1.5v1.5h-1.5zM15 22.5h1.5v1.5h-1.5zM18 22.5h1.5v1.5h-1.5zM21 22.5h1.5v1.5h-1.5z"/>		
        </g>
        <g id="layer">
            <path d="M23.074 5.446l-8.657-4.886c-1.178-0.665-3.203-0.666-4.384 0l-8.657 4.886c-0.662 0.374-1.026 0.898-1.026 1.475s0.364 1.101 1.026 1.474l8.657 4.887c0.589 0.333 1.368 0.516 2.191 0.516s1.603-0.184 2.192-0.516l8.657-4.887c0.662-0.373 1.027-0.897 1.027-1.474s-0.365-1.101-1.027-1.475zM22.679 7.699l-8.657 4.887c-0.928 0.524-2.667 0.525-3.596 0l-8.657-4.887c-0.393-0.222-0.618-0.505-0.618-0.777s0.225-0.555 0.618-0.778l8.657-4.887c0.464-0.263 1.12-0.413 1.797-0.413s1.333 0.151 1.798 0.413l8.657 4.887c0.393 0.222 0.619 0.505 0.619 0.778s-0.224 0.555-0.618 0.777zM23.074 10.574c-0.192-0.109-0.436-0.041-0.547 0.152-0.109 0.193-0.040 0.437 0.152 0.546 0.393 0.222 0.619 0.505 0.619 0.777s-0.226 0.555-0.619 0.777l-8.657 4.887c-0.973 0.55-2.62 0.55-3.596 0l-8.657-4.887c-0.393-0.222-0.618-0.505-0.618-0.777s0.225-0.555 0.618-0.777c0.193-0.109 0.261-0.353 0.152-0.546s-0.355-0.262-0.547-0.152c-0.662 0.373-1.026 0.898-1.026 1.475s0.364 1.102 1.026 1.475l8.657 4.887c0.614 0.347 1.403 0.521 2.192 0.521s1.578-0.173 2.192-0.521l8.657-4.887c0.662-0.373 1.027-0.898 1.027-1.475s-0.364-1.102-1.026-1.475zM23.074 15.603c-0.192-0.109-0.436-0.041-0.547 0.152-0.109 0.193-0.040 0.437 0.152 0.546 0.393 0.222 0.619 0.506 0.619 0.777s-0.226 0.555-0.619 0.778l-8.657 4.887c-0.973 0.55-2.62 0.551-3.596 0l-8.657-4.888c-0.393-0.222-0.618-0.505-0.618-0.778s0.225-0.555 0.618-0.777c0.193-0.109 0.261-0.353 0.152-0.546s-0.355-0.262-0.547-0.152c-0.661 0.374-1.025 0.898-1.025 1.476s0.364 1.102 1.026 1.475l8.657 4.887c0.614 0.346 1.403 0.52 2.191 0.52s1.578-0.173 2.192-0.52l8.657-4.887c0.662-0.374 1.027-0.898 1.027-1.475s-0.365-1.102-1.027-1.475z"/>		
        </g>	
        <g id="info">
            <path d="M12.75 16.5v-5.25h-2.25v0.75h1.5v4.5h-1.5v0.75h3.75v-0.75h-1.5zM12.375 21.75v0 0c-5.178 0-9.375-4.197-9.375-9.375s4.197-9.375 9.375-9.375c5.178 0 9.375 4.197 9.375 9.375s-4.197 9.375-9.375 9.375zM12.375 21c4.763 0 8.625-3.862 8.625-8.625s-3.862-8.625-8.625-8.625c-4.763 0-8.625 3.862-8.625 8.625s3.862 8.625 8.625 8.625v0 0zM12.375 9.75c0.621 0 1.125-0.504 1.125-1.125s-0.504-1.125-1.125-1.125c-0.621 0-1.125 0.504-1.125 1.125s0.504 1.125 1.125 1.125v0 0z"/>
        </g>	
        <g id="trash">
            <path d="M17.25 5.25h3v0.75h-1.5v14.245c0 1.253-1.007 2.255-2.25 2.255h-8.25c-1.25 0-2.25-1.010-2.25-2.255v-14.245h-1.5v-0.75h4.5v-1.496c0-0.833 0.671-1.504 1.498-1.504h3.754c0.826 0 1.498 0.673 1.498 1.504v1.496h1.5zM6.75 6v14.254c0 0.826 0.67 1.496 1.494 1.496h8.262c0.825 0 1.494-0.677 1.494-1.496v-14.254h-11.25zM9 7.5v12.75h0.75v-12.75h-0.75zM12 7.5v12.75h0.75v-12.75h-0.75zM15 7.5v12.75h0.75v-12.75h-0.75zM10.502 3c-0.415 0-0.752 0.332-0.752 0.749v1.501h5.25v-1.501c0-0.414-0.328-0.749-0.752-0.749h-3.746z"/>		
        </g>	
        <g id="plus">
            <path d="M12,2c0.276,0,0.512,0.098,0.707,0.293S13,2.724,13,3v8h8c0.275,0,0.512,0.098,0.707,0.293S22,11.724,22,12
				s-0.098,0.512-0.293,0.707S21.275,13,21,13h-8v8c0,0.275-0.098,0.512-0.293,0.707S12.276,22,12,22s-0.512-0.098-0.707-0.293
				S11,21.275,11,21v-8H3c-0.276,0-0.512-0.098-0.707-0.293S2,12.276,2,12s0.098-0.512,0.293-0.707S2.724,11,3,11h8V3
				c0-0.276,0.098-0.512,0.293-0.707S11.724,2,12,2z"/>		
        </g>	
        <g id="minus">
            <path d="M16,10c0,0.553-0.048,1-0.602,1H4.601C4.049,11,4,10.553,4,10c0-0.553,0.049-1,0.601-1H15.4C15.952,9,16,9.447,16,10z"/>
        </g>
        <g id="presentation">
            <path d="M24,1.6H12.4V0.4C12.4,0.179,12.221,0,12,0s-0.4,0.179-0.4,0.4v1.2H0v16.8h11.034l-4.917,4.917
					c-0.156,0.156-0.156,0.409,0,0.565C6.195,23.961,6.298,24,6.4,24c0.103,0,0.205-0.039,0.283-0.117l4.917-4.917V22.8
					c0,0.222,0.179,0.4,0.4,0.4s0.4-0.179,0.4-0.4v-3.834l4.917,4.917C17.395,23.961,17.498,24,17.6,24
					c0.103,0,0.205-0.039,0.283-0.117c0.156-0.156,0.156-0.409,0-0.565L12.966,18.4H24V1.6z M23.2,17.6H0.8V2.4h22.4V17.6z"/>
            <path d="M5.6,10c0,3.529,2.871,6.4,6.4,6.4c3.529,0,6.4-2.871,6.4-6.4c0-3.529-2.871-6.4-6.4-6.4C8.471,3.6,5.6,6.471,5.6,10z
				 M17.6,10c0,3.088-2.512,5.6-5.6,5.6S6.4,13.088,6.4,10S8.912,4.4,12,4.4S17.6,6.912,17.6,10z"/>
            <path d="M10.208,6.849C10.08,6.919,10,7.054,10,7.2v5.6c0,0.146,0.08,0.28,0.208,0.351c0.06,0.033,0.126,0.05,0.192,0.05
				c0.075,0,0.149-0.021,0.215-0.063l4.4-2.8C15.13,10.264,15.2,10.137,15.2,10s-0.07-0.264-0.186-0.337l-4.4-2.8
				C10.491,6.785,10.335,6.779,10.208,6.849z M10.8,7.928L14.055,10L10.8,12.072V7.928z"/>		
        </g>	
        <g id="undo">
            <path fill="#7d7d7d" d="M10 9V5l-7 7 7 7v-4.1c5 0 8.5 1.6 11 5.1-1-5-4-10-11-11z"/>
            <path d="M0 0h24v24H0z" fill="none"/>		
        </g>	
        <g id="redo">
            <path fill="#7d7d7d" d="M14 9V5l7 7-7 7v-4.1c-5 0-8.5 1.6-11 5.1 1-5 4-10 11-11z"></path>		
        </g>	
        <g id="grid">
            <path fill="#7d7d7d" d="M6 9h3v-3h-3v3zM10.5 9h3v-3h-3v3zM15 6v3h3v-3h-3zM6 13.5h3v-3h-3v3zM10.5 13.5h3v-3h-3v3zM15 13.5h3v-3h-3v3zM6 18h3v-3h-3v3zM10.5 18h3v-3h-3v3zM15 18h3v-3h-3v3z"></path>
        </g>	
        <g id="add-stage">
            <path d="M14 10H2v2h12v-2zm0-4H2v2h12V6zm4 8v-4h-2v4h-4v2h4v4h2v-4h4v-2h-4zM2 16h8v-2H2v2z">
        </g>
        <g id="down">	
            <path d="M12,2c0.276,0,0.512,0.098,0.707,0.293S13,2.724,13,3v15.586l5.289-5.297C18.481,13.096,18.719,13,19,13
				c0.287,0,0.525,0.096,0.715,0.285S20,13.713,20,14c0,0.281-0.096,0.519-0.289,0.711l-7,7C12.519,21.904,12.281,22,12,22
				s-0.519-0.096-0.711-0.289l-7-7C4.096,14.519,4,14.281,4,14c0-0.287,0.095-0.525,0.285-0.715S4.713,13,5,13
				c0.281,0,0.519,0.096,0.711,0.289L11,18.586V3c0-0.276,0.098-0.512,0.293-0.707S11.724,2,12,2z"/>	
        </g>
        <g id="up">
            <path d="M12,2c0.281,0,0.519,0.096,0.711,0.289l7,7C19.904,9.481,20,9.719,20,10c0,0.287-0.096,0.525-0.285,0.715S19.287,11,19,11
				c-0.281,0-0.519-0.096-0.711-0.289L13,5.414V21c0,0.275-0.098,0.512-0.293,0.707S12.276,22,12,22s-0.512-0.098-0.707-0.293
				S11,21.275,11,21V5.414l-5.289,5.297C5.519,10.904,5.281,11,5,11c-0.287,0-0.525-0.095-0.715-0.285S4,10.287,4,10
				c0-0.281,0.096-0.519,0.289-0.711l7-7C11.481,2.096,11.719,2,12,2z"/>
        </g>	
        <g id="align-vertical">
            <path d="M1.875 12.75v6.75h9.75v4.5h0.75v-4.5h9.75v-6.75h-9.75v-1.5h7.5v-6.75h-7.5v-4.5h-0.75v4.5h-7.5v6.75h7.5v1.5h-9.75zM4.875 5.25h14.25v5.25h-14.25v-5.25zM21.375 18.75h-18.75v-5.25h18.75v5.25z"/>	
        </g>
        <g id="align-bottom">	
            <path fill="none" stroke="#000" stroke-width="0.75" stroke-miterlimit="10" stroke-linecap="butt" stroke-linejoin="miter" d="M24 23.625h-24"></path>
            <path fill="none" stroke="#000" stroke-width="0.75" stroke-miterlimit="10" stroke-linecap="butt" stroke-linejoin="miter" d="M4.875 1.875h6v19.5h-6v-19.5z"></path>
            <path fill="none" stroke="#000" stroke-width="0.75" stroke-miterlimit="10" stroke-linecap="butt" stroke-linejoin="miter" d="M13.125 6.375h6v15h-6v-15z"></path>		
        </g>
        <g id="align-top">	
            <path fill="none" stroke="#000" stroke-width="0.75" stroke-miterlimit="10" stroke-linecap="butt" stroke-linejoin="miter" d="M0 0.375h24"></path>
            <path fill="none" stroke="#000" stroke-width="0.75" stroke-miterlimit="10" stroke-linecap="butt" stroke-linejoin="miter" d="M4.875 2.625h6v19.5h-6v-19.5z"></path>
            <path fill="none" stroke="#000" stroke-width="0.75" stroke-miterlimit="10" stroke-linecap="butt" stroke-linejoin="miter" d="M13.125 2.625h6v15h-6v-15z"></path>		
        </g>
        <g id="align-left">	
            <path d="M0.75 0h0.75v24h-0.75v-24z"></path>
            <path d="M23.25 12.75h-20.25v6.75h20.25v-6.75zM22.5 18.75h-18.75v-5.25h18.75v5.25z"></path>
            <path d="M3 4.5v6.75h15.75v-6.75h-15.75zM18 10.5h-14.25v-5.25h14.25v5.25z"></path>		
        </g>	
        <g id="align-right">	
            <path d="M22.5 0h0.75v24h-0.75v-24z"></path>
            <path d="M21 12.75h-20.25v6.75h20.25v-6.75zM20.25 18.75h-18.75v-5.25h18.75v5.25z"></path>
            <path d="M21 4.5h-15.75v6.75h15.75v-6.75zM20.25 10.5h-14.25v-5.25h14.25v5.25z"></path>		
        </g>
        <g id="align-horizontal">	
            <path fill="none" stroke="#000" stroke-width="0.75" stroke-miterlimit="10" stroke-linecap="butt" stroke-linejoin="miter" d="M4.875 12h-4.875"></path>
            <path fill="none" stroke="#000" stroke-width="0.75" stroke-miterlimit="10" stroke-linecap="butt" stroke-linejoin="miter" d="M24 12h-4.875"></path>
            <path fill="none" stroke="#000" stroke-width="0.75" stroke-miterlimit="10" stroke-linecap="butt" stroke-linejoin="miter" d="M13.125 12h-2.25"></path>
            <path fill="none" stroke="#000" stroke-width="0.75" stroke-miterlimit="10" stroke-linecap="butt" stroke-linejoin="miter" d="M4.875 2.25h6v19.5h-6v-19.5z"></path>
            <path fill="none" stroke="#000" stroke-width="0.75" stroke-miterlimit="10" stroke-linecap="butt" stroke-linejoin="miter" d="M13.125 4.5h6v15h-6v-15z"></path>		
        </g>
        <g id="reflect-vertical">	
            <path fill="none" stroke="#000" stroke-width="0.75" stroke-miterlimit="10" stroke-linecap="butt" stroke-linejoin="miter" d="M17.25 0.375h-15l7.5 7.5z"></path>
            <path fill="none" stroke="#000" stroke-width="0.75" stroke-miterlimit="10" stroke-linecap="butt" stroke-linejoin="miter" d="M2.78 23.095l-0.53 0.53h0.75"></path>
            <path fill="none" stroke="#000" stroke-width="0.75" stroke-miterlimit="10" stroke-linecap="butt" stroke-linejoin="miter" d="M3.75 23.625h12.375"></path>
            <path fill="none" stroke="#000" stroke-width="0.75" stroke-miterlimit="10" stroke-linecap="butt" stroke-linejoin="miter" d="M16.5 23.625h0.75l-0.53-0.53"></path>
            <path fill="none" stroke="#000" stroke-width="0.75" stroke-miterlimit="10" stroke-linecap="butt" stroke-linejoin="miter" d="M16.224 22.599l-5.696-5.696"></path>
            <path fill="none" stroke="#000" stroke-width="0.75" stroke-miterlimit="10" stroke-linecap="butt" stroke-linejoin="miter" d="M10.28 16.655l-0.53-0.53-0.53 0.53"></path>
            <path fill="none" stroke="#000" stroke-width="0.75" stroke-miterlimit="10" stroke-linecap="butt" stroke-linejoin="miter" d="M8.724 17.151l-5.696 5.696"></path>
            <path fill="none" stroke="#000" stroke-width="0.75" stroke-miterlimit="10" stroke-linecap="butt" stroke-linejoin="miter" d="M0.75 12h0.75"></path>
            <path fill="none" stroke="#000" stroke-width="0.75" stroke-miterlimit="10" stroke-linecap="butt" stroke-linejoin="miter" d="M2.25 12h15.375"></path>
            <path fill="none" stroke="#000" stroke-width="0.75" stroke-miterlimit="10" stroke-linecap="butt" stroke-linejoin="miter" d="M18 12h0.75"></path>
            <path fill="none" stroke="#000" stroke-width="0.75" stroke-miterlimit="10" stroke-linecap="butt" stroke-linejoin="bevel" d="M19.125 17.25v4.125h4.125"></path>
            <path fill="none" stroke="#000" stroke-width="0.75" stroke-miterlimit="10" stroke-linecap="butt" stroke-linejoin="miter" d="M19.125 21.375c2.951-2.108 4.5-5.472 4.5-9.375s-1.549-7.267-4.5-9.375"></path>		
        </g>	
        <g id="reflect-horizontal">	
            <path fill="none" stroke="#000" stroke-width="0.75" stroke-miterlimit="10" stroke-linecap="butt" stroke-linejoin="miter" d="M0.375 6.375v15l7.5-7.5z"></path>
            <path fill="none" stroke="#000" stroke-width="0.75" stroke-miterlimit="10" stroke-linecap="butt" stroke-linejoin="miter" d="M23.095 20.845l0.53 0.53v-0.75"></path>
            <path fill="none" stroke="#000" stroke-width="0.75" stroke-miterlimit="10" stroke-linecap="butt" stroke-linejoin="miter" d="M23.625 19.875v-12.375"></path>
            <path fill="none" stroke="#000" stroke-width="0.75" stroke-miterlimit="10" stroke-linecap="butt" stroke-linejoin="miter" d="M23.625 7.125v-0.75l-0.53 0.53"></path>
            <path fill="none" stroke="#000" stroke-width="0.75" stroke-miterlimit="10" stroke-linecap="butt" stroke-linejoin="miter" d="M22.599 7.401l-5.696 5.696"></path>
            <path fill="none" stroke="#000" stroke-width="0.75" stroke-miterlimit="10" stroke-linecap="butt" stroke-linejoin="miter" d="M16.655 13.345l-0.53 0.53 0.53 0.53"></path>
            <path fill="none" stroke="#000" stroke-width="0.75" stroke-miterlimit="10" stroke-linecap="butt" stroke-linejoin="miter" d="M17.151 14.901l5.696 5.696"></path>
            <path fill="none" stroke="#000" stroke-width="0.75" stroke-miterlimit="10" stroke-linecap="butt" stroke-linejoin="miter" d="M12 22.875v-0.75"></path>
            <path fill="none" stroke="#000" stroke-width="0.75" stroke-miterlimit="10" stroke-linecap="butt" stroke-linejoin="miter" d="M12 21.375v-15.375"></path>
            <path fill="none" stroke="#000" stroke-width="0.75" stroke-miterlimit="10" stroke-linecap="butt" stroke-linejoin="miter" d="M12 5.625v-0.75"></path>
            <path fill="none" stroke="#000" stroke-width="0.75" stroke-miterlimit="10" stroke-linecap="butt" stroke-linejoin="bevel" d="M17.25 4.875h4.125v-4.125"></path>
            <path fill="none" stroke="#000" stroke-width="0.75" stroke-miterlimit="10" stroke-linecap="butt" stroke-linejoin="miter" d="M21.375 4.875c-2.108-2.95-5.472-4.5-9.375-4.5s-7.267 1.549-9.375 4.5"></path>		
        </g>
        <g id="align">
            <path d="M23.267 21.070h-22.534c-0.405 0-0.733 0.328-0.733 0.733s0.328 0.733 0.733 0.733h22.534c0.405 0 0.733-0.328 0.733-0.733s-0.328-0.733-0.733-0.733z"></path>
            <path d="M23.267 12.715h-5.434c-0.405 0-0.733 0.328-0.733 0.733v5.434c0 0.405 0.328 0.733 0.733 0.733h5.434c0.405 0 0.733-0.328 0.733-0.733v-5.434c0-0.405-0.328-0.733-0.733-0.733zM22.534 18.149h-3.968v-3.968h3.968v3.968z"></path>
            <path d="M0.733 19.615h5.434c0.405 0 0.733-0.328 0.733-0.733v-9.675c0-0.405-0.328-0.733-0.733-0.733h-5.434c-0.405 0-0.733 0.328-0.733 0.733v9.675c0 0.405 0.328 0.733 0.733 0.733zM1.466 9.94h3.968v8.209h-3.968v-8.209z"></path>
            <path d="M9.283 19.615h5.434c0.405 0 0.733-0.328 0.733-0.733v-16.686c0-0.405-0.328-0.733-0.733-0.733h-5.434c-0.405 0-0.733 0.328-0.733 0.733v16.686c0 0.405 0.328 0.733 0.733 0.733zM10.016 2.93h3.968v15.219h-3.968v-15.219z"></path>
        </g>	
        <g id="arrange">
            <path d="M23.733,8.389L12.162,3.674c-0.104-0.042-0.22-0.042-0.323,0L0.267,8.389C0.108,8.454,0.003,8.607,0,8.779
			c-0.003,0.172,0.098,0.329,0.254,0.398l11.571,5.143c0.056,0.024,0.115,0.037,0.174,0.037c0.059,0,0.119-0.013,0.174-0.037
			l11.572-5.143c0.156-0.07,0.256-0.227,0.254-0.398C23.997,8.607,23.893,8.454,23.733,8.389z M12,13.459L1.522,8.803L12,4.534
			l10.478,4.269L12,13.459z"/>		
            <path d="M23.733,14.389l-4.877-1.987c-0.219-0.089-0.47,0.016-0.558,0.235c-0.09,0.22,0.016,0.47,0.234,0.559l3.944,1.607
			L12,19.459L1.522,14.803l3.839-1.564c0.219-0.089,0.325-0.339,0.235-0.559c-0.089-0.219-0.339-0.324-0.559-0.235l-4.772,1.944
			C0.108,14.453,0.003,14.607,0,14.779s0.098,0.328,0.254,0.398l11.571,5.143c0.056,0.024,0.115,0.037,0.174,0.037
			c0.059,0,0.119-0.013,0.174-0.037l11.572-5.143c0.156-0.07,0.256-0.227,0.254-0.398C23.997,14.607,23.893,14.453,23.733,14.389z"
            />		
        </g>
        <g id="bring-forward">
            <path fill="none" stroke="#000000" d="M23.476,14.792l-2.888-1.878l-7.434,4.833c-0.368,0.24-0.781,0.359-1.195,0.359
			c-0.413,0-0.826-0.119-1.194-0.359L3.33,12.914l-2.887,1.878c-0.324,0.21-0.359,0.547-0.359,0.681
			c0,0.135,0.035,0.471,0.359,0.683l11.126,7.232c0.24,0.156,0.539,0.156,0.78,0l11.125-7.232c0.326-0.212,0.36-0.548,0.36-0.683
			C23.835,15.339,23.801,15.002,23.476,14.792z"/>		
            <path fill="#666" d="M23.637,8.014L12.394,1.157c-0.243-0.148-0.545-0.148-0.788,0L0.363,8.014C0.035,8.214,0,8.532,0,8.66
			s0.035,0.446,0.363,0.646l11.243,6.857c0.243,0.148,0.545,0.148,0.788,0l11.243-6.857C23.965,9.106,24,8.788,24,8.66
			S23.965,8.214,23.637,8.014z"/>	
			
        </g>
        <g id="bring-front">
            <path fill="#666" d="M12 12.039l12-5.81-12-5.81-12 5.81 12 5.81z"></path>
            <path fill="none" stroke-width="1" stroke="#666" stroke-miterlimit="4" stroke-linecap="butt" stroke-linejoin="miter" d="M18.993 9.477l-6.993 3.373-6.985-3.376-5.015 2.428 12 5.81 12-5.81z"></path>
            <path fill="none" stroke-width="1" stroke="#666" stroke-miterlimit="4" stroke-linecap="butt" stroke-linejoin="miter" d="M18.993 15.346l-6.993 3.373-6.985-3.376-5.015 2.427 12 5.81 12-5.81z"></path>		
        </g>	
        <g id="send-backward">
            <path fill="#666"  d="M23.476,14.792l-2.888-1.878l-7.434,4.833c-0.368,0.24-0.781,0.359-1.195,0.359
			c-0.413,0-0.826-0.119-1.194-0.359L3.33,12.914l-2.887,1.878c-0.324,0.21-0.359,0.547-0.359,0.681
			c0,0.135,0.035,0.471,0.359,0.683l11.126,7.232c0.24,0.156,0.539,0.156,0.78,0l11.125-7.232c0.326-0.212,0.36-0.548,0.36-0.683
			C23.835,15.339,23.801,15.002,23.476,14.792z"/>		
            <path fill="none" stroke="#000000" d="M23.637,8.014L12.394,1.157c-0.243-0.148-0.545-0.148-0.788,0L0.363,8.014C0.035,8.214,0,8.532,0,8.66
			s0.035,0.446,0.363,0.646l11.243,6.857c0.243,0.148,0.545,0.148,0.788,0l11.243-6.857C23.965,9.106,24,8.788,24,8.66
			S23.965,8.214,23.637,8.014z"/>			
        </g>
        <g id="send-back">
            <path fill="none" stroke-width="1" stroke="#666" d="M12 12.039l12-5.81-12-5.81-12 5.81 12 5.81z"></path>
            <path fill="none" stroke-width="1" stroke="#666" stroke-miterlimit="4" stroke-linecap="butt" stroke-linejoin="miter" d="M18.993 9.477l-6.993 3.373-6.985-3.376-5.015 2.428 12 5.81 12-5.81z"></path>
            <path fill="#666" stroke-width="1" stroke="#666" stroke-miterlimit="4" stroke-linecap="butt" stroke-linejoin="miter" d="M18.993 15.346l-6.993 3.373-6.985-3.376-5.015 2.427 12 5.81 12-5.81z"></path>			
        </g>	
        <g id="position">
            <path d="M23.965 0.28c-0.046-0.11-0.134-0.199-0.245-0.245-0.055-0.023-0.114-0.035-0.173-0.035h-5.434c-0.25 0-0.453 0.203-0.453 0.453s0.203 0.453 0.453 0.453h4.341l-7.378 7.378c-0.177 0.177-0.177 0.463 0 0.64 0.088 0.088 0.204 0.133 0.32 0.133s0.232-0.044 0.32-0.133l7.378-7.378v4.341c0 0.25 0.203 0.453 0.453 0.453s0.453-0.203 0.453-0.453v-5.434c0-0.059-0.012-0.118-0.035-0.173z"></path>
            <path d="M8.284 15.076l-7.378 7.378v-4.341c0-0.25-0.203-0.453-0.453-0.453s-0.453 0.203-0.453 0.453v5.434c0 0.059 0.012 0.118 0.035 0.173 0.046 0.11 0.134 0.199 0.245 0.245 0.055 0.023 0.114 0.035 0.173 0.035h5.434c0.25 0 0.453-0.203 0.453-0.453s-0.203-0.453-0.453-0.453h-4.341l7.378-7.378c0.177-0.177 0.177-0.463 0-0.64s-0.463-0.177-0.64 0z"></path>
            <path d="M0.453 6.34c0.25 0 0.453-0.203 0.453-0.453v-4.341l7.378 7.378c0.088 0.088 0.204 0.133 0.32 0.133s0.232-0.044 0.32-0.133c0.177-0.177 0.177-0.463 0-0.64l-7.378-7.378h4.341c0.25 0 0.453-0.203 0.453-0.453s-0.203-0.453-0.453-0.453h-5.434c-0.059 0-0.118 0.012-0.173 0.035-0.111 0.046-0.199 0.134-0.245 0.245-0.023 0.055-0.035 0.114-0.035 0.173v5.434c0 0.25 0.203 0.453 0.453 0.453z"></path>
            <path d="M23.547 17.66c-0.25 0-0.453 0.203-0.453 0.453v4.341l-7.378-7.378c-0.177-0.177-0.463-0.177-0.64 0s-0.177 0.463 0 0.64l7.378 7.378h-4.341c-0.25 0-0.453 0.203-0.453 0.453s0.203 0.453 0.453 0.453h5.434c0.059 0 0.118-0.012 0.173-0.035 0.11-0.046 0.199-0.134 0.245-0.245 0.023-0.055 0.035-0.114 0.035-0.173v-5.434c0-0.25-0.203-0.453-0.453-0.453z"></path>
        </g>	
        <g id="rotate">
            <path d="M23.611 12.632c-0.213 0-0.387 0.174-0.387 0.387 0 2.527-5.141 4.661-11.226 4.661s-11.226-2.135-11.226-4.661c0-1.167 1.155-2.339 3.169-3.215 2.113-0.92 4.923-1.429 7.922-1.442l-1.379 1.377c-0.151 0.151-0.151 0.396 0 0.547 0.076 0.076 0.175 0.113 0.274 0.113s0.198-0.038 0.274-0.113l2.316-2.314-2.316-2.316c-0.151-0.151-0.396-0.151-0.547 0s-0.151 0.396 0 0.547l1.385 1.385c-3.105 0.014-6.026 0.547-8.236 1.507-2.343 1.018-3.634 2.413-3.634 3.925 0 3.049 5.272 5.436 12 5.436 6.729-0.001 12-2.39 12-5.437-0.002-0.213-0.175-0.387-0.389-0.387z"></path>
        </g>
        <g id="copy">
            <path d="M16.714 24h-12.902c-0.958 0-1.736-0.779-1.736-1.736v-16.802c0-0.957 0.779-1.736 1.736-1.736h1.642c0.192 0 0.347 0.156 0.347 0.347s-0.156 0.347-0.347 0.347h-1.642c-0.574 0-1.042 0.467-1.042 1.042v16.801c0 0.574 0.467 1.042 1.042 1.042h12.902c0.574 0 1.042-0.467 1.042-1.042v-1.643c0-0.192 0.156-0.347 0.347-0.347s0.347 0.156 0.347 0.347v1.643c0 0.958-0.779 1.737-1.736 1.737z"></path>
            <path d="M20.187 20.274h-12.902c-0.958 0-1.736-0.779-1.736-1.736v-16.801c0-0.957 0.779-1.736 1.736-1.736h9.449c0.192 0 0.347 0.156 0.347 0.347s-0.155 0.347-0.347 0.347h-9.449c-0.574 0-1.042 0.467-1.042 1.042v16.801c0 0.574 0.467 1.042 1.042 1.042h12.902c0.574 0 1.042-0.467 1.042-1.042v-13.216c0-0.192 0.156-0.347 0.347-0.347s0.347 0.156 0.347 0.347v13.216c0 0.958-0.779 1.736-1.736 1.736z"></path>
            <path d="M21.576 5.668h-4.842c-0.192 0-0.347-0.156-0.347-0.347v-4.843c0-0.192 0.156-0.347 0.347-0.347s0.347 0.156 0.347 0.347v4.496h4.495c0.192 0 0.347 0.156 0.347 0.347s-0.155 0.347-0.347 0.347z"></path>
            <path d="M21.576 5.668c-0.090 0-0.181-0.035-0.249-0.105l-4.842-4.974c-0.133-0.138-0.131-0.357 0.007-0.491 0.137-0.133 0.358-0.13 0.491 0.007l4.842 4.974c0.133 0.138 0.131 0.357-0.007 0.491-0.067 0.065-0.155 0.098-0.242 0.098z"></path>
        </g>
        <g id="ninety-ccw">
            <path d="M12,15.107c-6.542,0-11.653,1.36-11.653,2.993c0,1.866,4.563,3.504,10.585,3.678V24l3.017-3.27l-3.017-3.067v2.018
			c-4.985-0.075-8.881-0.675-8.881-1.61c0-1.37,4.463-2.483,9.949-2.483c5.484,0,9.947,1.113,9.947,2.483
			c0,0.854-3.254,1.427-7.617,1.577v2.073c5.385-0.351,9.322-1.887,9.322-3.62C23.652,16.468,18.543,15.107,12,15.107z"/>
            <path d="M6.026,12.131c0.228,0.024,0.492,0,0.852-0.036c0.612-0.083,1.188-0.335,1.631-0.755c0.516-0.468,0.888-1.151,1.032-2.075
				H9.504c-0.432,0.527-1.055,0.839-1.835,0.839c-1.403,0-2.303-1.055-2.303-2.387c0-1.475,1.067-2.771,2.663-2.771
				s2.578,1.295,2.578,3.286c0,1.715-0.575,2.915-1.343,3.658c-0.6,0.587-1.427,0.947-2.267,1.044c-0.384,0.06-0.72,0.071-0.972,0.06
				V12.131z M6.41,7.646c0,0.971,0.588,1.655,1.499,1.655c0.708,0,1.259-0.348,1.535-0.815C9.504,8.39,9.541,8.27,9.541,8.102
				c0-1.331-0.492-2.351-1.595-2.351C7.046,5.751,6.41,6.542,6.41,7.646z"/>
            <path d="M16.752,8.893c0,2.651-0.983,4.114-2.71,4.114c-1.523,0-2.555-1.427-2.579-4.006c0-2.614,1.128-4.054,2.711-4.054
				C15.816,4.947,16.752,6.411,16.752,8.893z M12.519,9.013c0,2.027,0.624,3.178,1.583,3.178c1.079,0,1.595-1.259,1.595-3.25
				c0-1.919-0.491-3.179-1.583-3.179C13.19,5.763,12.519,6.89,12.519,9.013z"/>
            <path d="M20.713,6.219c0,0.971-0.78,1.607-1.607,1.607c-0.936,0-1.571-0.708-1.571-1.547C17.522,5.355,18.242,4.66,19.13,4.66
				C20.113,4.66,20.713,5.403,20.713,6.219z M18.182,6.279c0,0.551,0.408,0.983,0.936,0.983c0.54,0,0.947-0.444,0.947-1.032
				c0-0.443-0.264-1.007-0.947-1.007C18.494,5.223,18.182,5.763,18.182,6.279z"/>		
        </g>	
        <g id="ninety-cw">
            <path d="M0.348,18.101c0,1.733,3.938,3.27,9.322,3.62v-2.073c-4.363-0.15-7.617-0.723-7.617-1.577c0-1.37,4.463-2.483,9.947-2.483
			c5.485,0,9.948,1.113,9.948,2.483c0,0.936-3.896,1.535-8.881,1.61v-2.018l-3.017,3.067L13.067,24v-2.222
			c6.022-0.174,10.585-1.812,10.585-3.678c0-1.633-5.11-2.993-11.652-2.993C5.457,15.107,0.348,16.468,0.348,18.101z"/>		
            <path d="M6.026,12.131c0.228,0.024,0.492,0,0.852-0.036c0.612-0.083,1.188-0.335,1.631-0.755c0.516-0.468,0.888-1.151,1.032-2.075
				H9.504c-0.432,0.527-1.055,0.839-1.835,0.839c-1.403,0-2.303-1.055-2.303-2.387c0-1.475,1.067-2.771,2.663-2.771
				s2.578,1.295,2.578,3.286c0,1.715-0.575,2.915-1.343,3.658c-0.6,0.587-1.427,0.947-2.267,1.044c-0.384,0.06-0.72,0.071-0.972,0.06
				V12.131z M6.41,7.646c0,0.971,0.588,1.655,1.499,1.655c0.708,0,1.259-0.348,1.535-0.815C9.504,8.39,9.541,8.27,9.541,8.102
				c0-1.331-0.492-2.351-1.595-2.351C7.046,5.751,6.41,6.542,6.41,7.646z"/>
            <path d="M16.752,8.893c0,2.651-0.983,4.114-2.71,4.114c-1.523,0-2.555-1.427-2.579-4.006c0-2.614,1.128-4.054,2.711-4.054
				C15.816,4.947,16.752,6.411,16.752,8.893z M12.519,9.013c0,2.027,0.624,3.178,1.583,3.178c1.079,0,1.595-1.259,1.595-3.25
				c0-1.919-0.491-3.179-1.583-3.179C13.19,5.763,12.519,6.89,12.519,9.013z"/>
            <path d="M20.713,6.219c0,0.971-0.78,1.607-1.607,1.607c-0.936,0-1.571-0.708-1.571-1.547C17.522,5.355,18.242,4.66,19.13,4.66
				C20.113,4.66,20.713,5.403,20.713,6.219z M18.182,6.279c0,0.551,0.408,0.983,0.936,0.983c0.54,0,0.947-0.444,0.947-1.032
				c0-0.443-0.264-1.007-0.947-1.007C18.494,5.223,18.182,5.763,18.182,6.279z"/>		
        </g>	
        <g id="one-hundred-eighty">
            <path d="M12,15.107c-6.542,0-11.653,1.36-11.653,2.993c0,1.866,4.563,3.504,10.585,3.678V24l3.017-3.27l-3.017-3.067v2.018
				c-4.985-0.075-8.881-0.675-8.881-1.61c0-1.37,4.463-2.483,9.949-2.483c5.485,0,9.948,1.113,9.948,2.483
				c0,0.854-3.254,1.427-7.617,1.577v2.073c5.385-0.351,9.322-1.887,9.322-3.62C23.653,16.468,18.543,15.107,12,15.107z"/>		
            <path d="M4.25,5.986H4.226L2.87,6.718L2.666,5.915l1.703-0.912h0.9v7.796H4.25V5.986z"/>
            <path d="M8.019,10.82c0-0.983,0.588-1.679,1.548-2.087L9.554,8.697C8.69,8.289,8.318,7.618,8.318,6.946
				c0-1.235,1.044-2.075,2.411-2.075c1.511,0,2.267,0.948,2.267,1.919c0,0.66-0.323,1.367-1.283,1.823v0.036
				c0.972,0.384,1.571,1.067,1.571,2.015c0,1.355-1.163,2.267-2.65,2.267C9.002,12.931,8.019,11.959,8.019,10.82z M12.217,10.772
				c0-0.948-0.66-1.403-1.715-1.703C9.59,9.333,9.099,9.933,9.099,10.676c-0.036,0.792,0.563,1.487,1.559,1.487
				C11.604,12.163,12.217,11.576,12.217,10.772z M9.314,6.874c0,0.78,0.588,1.199,1.487,1.439c0.671-0.228,1.188-0.708,1.188-1.416
				c0-0.624-0.372-1.271-1.319-1.271C9.794,5.627,9.314,6.203,9.314,6.874z"/>
            <path d="M19.451,8.817c0,2.651-0.983,4.114-2.71,4.114c-1.523,0-2.555-1.427-2.579-4.006c0-2.614,1.128-4.054,2.711-4.054
				C18.516,4.871,19.451,6.334,19.451,8.817z M15.218,8.937c0,2.027,0.623,3.178,1.583,3.178c1.079,0,1.595-1.259,1.595-3.25
				c0-1.919-0.491-3.179-1.583-3.179C15.89,5.687,15.218,6.814,15.218,8.937z"/>
            <path d="M23.413,6.143c0,0.971-0.78,1.607-1.607,1.607c-0.936,0-1.571-0.708-1.571-1.547c-0.012-0.924,0.708-1.619,1.596-1.619
				C22.813,4.583,23.413,5.327,23.413,6.143z M20.882,6.203c0,0.551,0.408,0.983,0.936,0.983c0.54,0,0.947-0.444,0.947-1.032
				c0-0.443-0.264-1.007-0.947-1.007C21.194,5.147,20.882,5.687,20.882,6.203z"/>			
        </g>
        <g id="move-left">
            <path d="M10.928 21c-0.801 0-1.555-0.312-2.121-0.879l-7.121-7.121 7.121-7.121c1.133-1.134 3.109-1.134 4.242 0 0.566 0.564 0.879 1.317 0.879 2.119 0 0.746-0.27 1.451-0.764 2.002h4.836c1.654 0 3 1.346 3 3s-1.346 3-3 3h-4.836c0.493 0.549 0.764 1.252 0.764 1.998 0.002 0.802-0.312 1.557-0.879 2.124-0.567 0.566-1.32 0.878-2.121 0.878zM4.514 13l5.707 5.707c0.379 0.378 1.035 0.378 1.414 0 0.189-0.189 0.293-0.441 0.293-0.708s-0.104-0.517-0.291-0.705l-3.295-3.294h9.658c0.552 0 1-0.449 1-1s-0.448-1-1-1h-9.658l3.293-3.293c0.189-0.189 0.293-0.441 0.293-0.708s-0.104-0.517-0.292-0.705c-0.381-0.38-1.036-0.379-1.415-0.001l-5.707 5.707z"></path>
        </g>	
        <g id="move-right">
            <path d="M12 21c-0.801 0-1.555-0.312-2.121-0.879s-0.88-1.321-0.879-2.123c0-0.746 0.271-0.998 0.764-1.998h-4.836c-1.654 0-3-1.347-3-3 0-1.654 1.346-3 3-3h4.836c-0.494-1-0.764-1.255-0.764-2.001 0.001-0.802 0.312-1.554 0.88-2.121 1.132-1.132 3.108-1.133 4.241 0.001l7.121 7.121-7.121 7.121c-0.566 0.567-1.32 0.879-2.121 0.879zM4.928 12c-0.552 0-1 0.449-1 1s0.448 1 1 1h9.658l-3.293 3.293c-0.189 0.189-0.293 0.439-0.293 0.706 0 0.269 0.104 0.519 0.293 0.708 0.379 0.378 1.035 0.378 1.414 0l5.707-5.707-5.707-5.707c-0.379-0.378-1.035-0.378-1.414 0-0.189 0.189-0.293 0.439-0.293 0.706 0 0.268 0.104 0.519 0.293 0.708l3.293 3.293h-9.658z"></path>
        </g>
        <g id="move-up">
            <path d="M12 21c-1.654 0-3-1.346-3-3v-4.764c-1.143 1.024-3.025 0.979-4.121-0.115-1.17-1.169-1.17-3.073 0-4.242l7.121-7.121 7.121 7.121c1.17 1.169 1.17 3.073 0 4.242-1.094 1.095-2.979 1.14-4.121 0.115v4.764c0 1.654-1.346 3-3 3zM11 8.414v9.586c0 0.551 0.448 1 1 1s1-0.449 1-1v-9.586l3.293 3.293c0.379 0.378 1.035 0.378 1.414 0 0.391-0.391 0.391-1.023 0-1.414l-5.707-5.707-5.707 5.707c-0.391 0.391-0.391 1.023 0 1.414 0.379 0.378 1.035 0.378 1.414 0l3.293-3.293z"></path>
        </g>	
        <g id="move-down">
            <path d="M12 21.312l-7.121-7.121c-1.17-1.17-1.17-3.073 0-4.242 1.094-1.094 2.978-1.138 4.121-0.115v-4.834c0-1.654 1.346-3 3-3s3 1.346 3 3v4.834c1.143-1.023 3.027-0.979 4.121 0.115 1.17 1.169 1.17 3.072 0 4.242l-7.121 7.121zM7 11.070c-0.268 0-0.518 0.104-0.707 0.293-0.391 0.39-0.391 1.023 0 1.414l5.707 5.707 5.707-5.707c0.391-0.391 0.391-1.024 0-1.414-0.379-0.379-1.035-0.379-1.414 0l-3.293 3.293v-9.656c0-0.551-0.448-1-1-1s-1 0.449-1 1v9.656l-3.293-3.293c-0.189-0.189-0.439-0.293-0.707-0.293z"></path>
        </g>
        <g id="zoom-in-layer">
            <path d="M4.92 16.92l-3.72 3.48 2.4 2.4 3.48-3.72 2.52 2.52v-7.2h-7.2l2.52 2.52zM22.8 3.6l-2.4-2.4-3.48 3.72-2.52-2.52v7.2h7.2l-2.52-2.52 3.72-3.48z"></path>
        </g>
        <g id="zoom-out-layer">
            <path d="M8.384 13.184l-3.517 3.637-2.467-2.915v7.693h7.664l-2.916-2.497 3.636-3.518-2.4-2.4zM13.936 2.4l2.916 2.497-3.636 3.518 2.4 2.4 3.517-3.637 2.467 2.915v-7.693h-7.664z"></path>			
        </g>	
        <g id="magic">
            <path d="M6 4.5l-3-3h-1.5v1.5l3 3zM7.5 0h1.5v3h-1.5zM13.5 7.5h3v1.5h-3zM15 3v-1.5h-1.5l-3 3 1.5 1.5zM0 7.5h3v1.5h-3zM7.5 13.5h1.5v3h-1.5zM1.5 13.5v1.5h1.5l3-3-1.5-1.5zM23.672 20.672l-14.909-14.909c-0.438-0.438-1.153-0.438-1.591 0l-1.409 1.409c-0.438 0.438-0.438 1.153 0 1.591l14.909 14.909c0.438 0.438 1.153 0.438 1.591 0l1.409-1.409c0.438-0.438 0.438-1.153 0-1.591zM11.25 12.75l-4.5-4.5 1.5-1.5 4.5 4.5-1.5 1.5z"></path>
        </g>
        <g id="more-vert">
            <path d="M0 0h24v24H0z" fill="none"/>
            <path d="M12 8c1.1 0 2-.9 2-2s-.9-2-2-2-2 .9-2 2 .9 2 2 2zm0 2c-1.1 0-2 .9-2 2s.9 2 2 2 2-.9 2-2-.9-2-2-2zm0 6c-1.1 0-2 .9-2 2s.9 2 2 2 2-.9 2-2-.9-2-2-2z"/>            
        </g>
        <g id="text-right">
            <path d="M3 3h18v2.016h-18v-2.016zM9 9v-2.016h12v2.016h-12zM3 12.984v-1.969h18v1.969h-18zM9 17.016v-2.016h12v2.016h-12zM3 21v-2.016h18v2.016h-18z"></path>
        </g>
        <g id="text-left">
            <path d="M3 3h18v2.016h-18v-2.016zM3 21v-2.016h18v2.016h-18zM3 12.984v-1.969h18v1.969h-18zM15 6.984v2.016h-12v-2.016h12zM15 15v2.016h-12v-2.016h12z"></path>
        </g>   
        <g id="text-center">
            <path d="M3 3h18v2.016h-18v-2.016zM6.984 6.984h10.031v2.016h-10.031v-2.016zM3 12.984v-1.969h18v1.969h-18zM3 21v-2.016h18v2.016h-18zM6.984 15h10.031v2.016h-10.031v-2.016z"></path>
        </g>
        <g id="text-justify">
            <path d="M3 3h18v2.016h-18v-2.016zM3 9v-2.016h18v2.016h-18zM3 12.984v-1.969h18v1.969h-18zM3 17.016v-2.016h18v2.016h-18zM3 21v-2.016h18v2.016h-18z"></path>
        </g>  
        <g id="text-decoration">
            <path fill="#7d7d7d" d="M12 6l-1.875 5.016h3.75zM9.516 12.797l-0.938 2.203h-2.063l4.734-11.016h1.5l4.734 11.016h-2.063l-0.938-2.203h-4.969zM5.016 17.016h13.969v1.969h-13.969v-1.969z"></path>
        </g>   
        <g id="bold">
            <path fill="#7d7d7d" d="M13.5 15.516c0.844 0 1.5-0.656 1.5-1.5s-0.656-1.5-1.5-1.5h-3.516v3h3.516zM9.984 6.516v3h3c0.844 0 1.5-0.656 1.5-1.5s-0.656-1.5-1.5-1.5h-3zM15.609 10.781c1.313 0.609 2.156 1.922 2.156 3.422 0 2.109-1.594 3.797-3.703 3.797h-7.078v-14.016h6.281c2.25 0 3.984 1.781 3.984 4.031 0 1.031-0.656 2.109-1.641 2.766z"></path>
        </g>
        <g id="italic">
            <path fill="#7d7d7d" d="M9.984 3.984h8.016v3h-2.813l-3.375 8.016h2.203v3h-8.016v-3h2.813l3.375-8.016h-2.203v-3z"></path>
        </g> 
        <g id="underlined">
            <path d="M5.016 18.984h13.969v2.016h-13.969v-2.016zM12 17.016c-3.328 0-6-2.672-6-6v-8.016h2.484v8.016c0 1.922 1.594 3.469 3.516 3.469s3.516-1.547 3.516-3.469v-8.016h2.484v8.016c0 3.328-2.672 6-6 6z"></path>
        </g>    
        <g id="strikethrough">
            <path d="M9.375 13.125c0 1.787 1.132 2.531 2.906 2.531 1.226 0 2.297-0.5 2.297-1.688 0-1.121-0.595-1.375-1.406-1.781-0.141-0.047-0.375-0.141-0.563-0.188h-9.609v-2.016h18v2.016h-3.891c0.047 0.094 0.141 0.234 0.188 0.328 0.188 0.469 0.328 1.031 0.328 1.641 0 2.168-1.415 3.257-3.141 3.75-0.656 0.188-1.359 0.281-2.156 0.281-0.469 0-0.984-0.047-1.453-0.141-1.027-0.205-1.903-0.49-2.625-1.031-1.070-0.803-1.828-1.871-1.828-3.703h2.953zM14.578 7.5c0-1.443-0.919-2.109-2.391-2.109-1.058 0-1.858 0.34-2.203 1.031-0.094 0.188-0.141 0.422-0.141 0.656 0 0.469 0.281 0.891 0.75 1.219 0.375 0.234 0.75 0.469 1.406 0.703h-4.594c-0.047-0.094-0.141-0.141-0.188-0.234-0.281-0.469-0.375-1.031-0.375-1.688 0-1.347 0.7-2.313 1.5-2.953 0.963-0.674 2.241-1.125 3.891-1.125 1.644 0 3.006 0.47 3.891 1.266 0.823 0.741 1.453 1.779 1.453 3.234h-3z"></path>
        </g>      
        <g id="overline">
            <path d="M7.547 19.5l1.35-4.5h6.205l1.35 4.5h2.663l-4.5-15h-5.232l-4.5 15h2.663zM11.147 7.5h1.705l1.35 4.5h-4.405l1.35-4.5z"></path>
        </g> 
        <g id="shadow">
            <path fill="#7d7d7d" d="M10.207 13.241h-4c-0.347 0-0.653 0.222-0.761 0.551l-1.441 4.418c-0.137 0.42 0.093 0.872 0.513 1.008 0.083 0.028 0.166 0.041 0.249 0.041 0.337 0 0.65-0.216 0.761-0.551l1.26-3.867h3.419c0.442 0 0.8-0.358 0.8-0.8s-0.358-0.8-0.8-0.8z"></path>
            <path fill="#7d7d7d" d="M7.362 7.325l-0.557 1.67c-0.14 0.418 0.086 0.872 0.506 1.013 0.084 0.028 0.17 0.041 0.253 0.041 0.335 0 0.647-0.213 0.758-0.547l0.557-1.67c0.14-0.418-0.086-0.872-0.506-1.012-0.418-0.142-0.87 0.087-1.010 0.506z"></path>
            <path fill="#7d7d7d" d="M8.759 0.487c-0.109-0.326-0.414-0.547-0.758-0.547-0.346 0-0.65 0.22-0.759 0.547l-4.867 14.6c-0.14 0.418 0.086 0.872 0.506 1.013s0.873-0.086 1.012-0.506l1.051-3.151h6.063c0.017 0 0.030-0.010 0.047-0.011l1.054 3.162c0.112 0.336 0.424 0.549 0.759 0.549 0.083 0 0.169-0.014 0.252-0.041 0.419-0.141 0.646-0.594 0.506-1.014l-4.866-14.6zM5.477 10.841l2.524-7.57 2.521 7.57h-5.045z"></path>
            <path fill="#7d7d7d" d="M16.826 17.487l-4.866-14.6c-0.14-0.418-0.591-0.647-1.011-0.506-0.418 0.141-0.646 0.594-0.506 1.014l4.866 14.6c0.112 0.336 0.424 0.549 0.759 0.549 0.083 0 0.169-0.014 0.252-0.041 0.42-0.143 0.646-0.596 0.506-1.015z"></path>           
        </g>  
        <g id="text-height">
            <path fill="#666" d="M4.4 9.8c-0.22 0-0.4-0.18-0.4-0.4v-3.526c0-0.166 0.005-0.327 0.010-0.482 0.013-0.466 0.024-0.905-0.117-1.050-0.083-0.085-0.273-0.104-0.415-0.104-0.289 0-0.476 0.087-0.552 0.262-0.090 0.202-0.326 0.294-0.528 0.202-0.202-0.089-0.292-0.326-0.202-0.528 0.209-0.468 0.677-0.736 1.283-0.736 0.439 0 0.76 0.114 0.986 0.347 0.379 0.387 0.362 0.964 0.345 1.63-0.004 0.148-0.009 0.302-0.009 0.459v3.526c-0.002 0.22-0.182 0.4-0.402 0.4z"></path>
            <path fill="#666" d="M3.597 10.205c-0.63 0-2.302 0-2.302-1.682 0-1.216 1.238-3.050 3.105-3.050 0.22 0 0.4 0.179 0.4 0.4v3.926c0 0.221-0.18 0.4-0.4 0.4l-0.803 0.006zM4 6.314c-1.175 0.245-1.905 1.514-1.905 2.211 0 0.659 0.379 0.883 1.502 0.883l0.403-0.004v-3.090z"></path>
            <path fill="#666" d="M6 9.8c-0.22 0-0.4-0.18-0.4-0.4v-7.2c0-0.22 0.18-0.4 0.4-0.4s0.4 0.18 0.4 0.4v7.2c0 0.22-0.18 0.4-0.4 0.4z"></path>
            <path fill="#666" d="M7.407 10.205l-1.407-0.005c-0.22 0-0.4-0.18-0.4-0.4v-3.926c0-0.22 0.18-0.4 0.4-0.4 1.761 0 3.418 1.717 3.418 3.050 0 0.682-0.236 1.162-0.702 1.43-0.386 0.221-0.858 0.251-1.31 0.251zM6.4 9.4l1.007 0.005c0.325 0 0.687-0.017 0.912-0.147 0.083-0.048 0.302-0.172 0.302-0.734 0-0.762-1.030-1.978-2.218-2.212l-0.002 3.089z"></path>
            <path fill="#666" d="M6.829 15.77c-0.104 0-0.207-0.041-0.283-0.117-0.123-0.122-0.15-0.313-0.072-0.467l1.639-3.144c0.018-0.036 0.042-0.069 0.072-0.098l6.217-6.217c0.077-0.077 0.178-0.117 0.283-0.117v0c0.106 0 0.209 0.042 0.283 0.117l1.504 1.505c0.156 0.155 0.156 0.41 0 0.566l-6.217 6.217c-0.028 0.029-0.061 0.054-0.098 0.072l-3.142 1.638c-0.060 0.029-0.122 0.045-0.186 0.045zM8.794 12.466l-1.022 1.962 1.962-1.022 5.889-5.888-0.938-0.94-5.89 5.888z"></path>
            <path fill="#666" d="M16.471 7.799l-0.566-0.566 0.955-0.957c0.19-0.188 0.316-0.43 0.343-0.661 0.014-0.114 0.015-0.33-0.138-0.482-0.255-0.253-0.779-0.162-1.145 0.204l-0.954 0.955-0.566-0.566 0.954-0.955c0.683-0.683 1.704-0.776 2.276-0.204 0.285 0.286 0.418 0.702 0.366 1.142-0.050 0.414-0.252 0.815-0.572 1.133l-0.954 0.955z"></path>
            <path fill="#666" d="M9.228 11.468l1.506 1.504-0.565 0.566-1.506-1.504 0.565-0.566z"></path>
            <path fill="#666" d="M18.4 17.4h-17.6c-0.22 0-0.4-0.18-0.4-0.4s0.18-0.4 0.4-0.4h17.6c0.22 0 0.4 0.18 0.4 0.4s-0.18 0.4-0.4 0.4z"></path>           
        </g>   
        <g id="paint-bucket">
            <path d="M7.878 20.586c-0.668 0-1.296-0.26-1.768-0.732l-4.672-4.671c-0.975-0.976-0.975-2.562 0-3.536l8.5-8.5c0.195-0.195 0.512-0.195 0.707 0l9 9c0.143 0.143 0.186 0.358 0.108 0.545s-0.26 0.309-0.462 0.309h-2.793l-6.854 6.854c-0.472 0.473-1.1 0.732-1.768 0.732zM10.292 4.207l-8.146 8.146c-0.584 0.585-0.584 1.537 0 2.122l4.671 4.671c0.566 0.565 1.553 0.567 2.121 0l7-7c0.094-0.094 0.221-0.146 0.354-0.146h1.793l-7.793-7.793z"></path>
            <path d="M9.792 11c-0.276 0-0.5-0.224-0.5-0.5v-8c0-0.827-0.673-1.5-1.5-1.5s-1.5 0.673-1.5 1.5v5.516c0 0.276-0.224 0.5-0.5 0.5s-0.5-0.224-0.5-0.5v-5.516c0-1.378 1.122-2.5 2.5-2.5s2.5 1.122 2.5 2.5v8c-0 0.276-0.224 0.5-0.5 0.5z"></path>
            <path d="M20.292 24c-1.654 0-3-1.346-3-3 0-1.479 2.31-5.325 2.572-5.76 0.182-0.299 0.674-0.299 0.855 0 0.263 0.435 2.572 4.281 2.572 5.76 0 1.654-1.346 3-3 3zM20.292 16.484c-0.904 1.576-2 3.74-2 4.516 0 1.103 0.897 2 2 2s2-0.897 2-2c0-0.775-1.096-2.939-2-4.516z"></path>         
        </g>  
        <g id="refresh">
            <path fill="#666" d="M12 18v-3l3.984 3.984-3.984 4.031v-3c-4.406 0-8.016-3.609-8.016-8.016 0-1.547 0.469-3.047 1.266-4.266l1.453 1.453c-0.469 0.844-0.703 1.781-0.703 2.813 0 3.328 2.672 6 6 6zM12 3.984c4.406 0 8.016 3.609 8.016 8.016 0 1.547-0.469 3.047-1.266 4.266l-1.453-1.453c0.469-0.844 0.703-1.781 0.703-2.813 0-3.328-2.672-6-6-6v3l-3.984-3.984 3.984-4.031v3z"></path>
        </g>    
    </defs>
</svg>