<svg version="1.1" id="Capa_1" xmlns="http://www.w3.org/2000/svg" xmlns:xlink="http://www.w3.org/1999/xlink" x="0px" y="0px"
	 viewBox="0 0 60 60" style="enable-background:new 0 0 60 60;" xml:space="preserve">
	<g>
		<path d="M60,4H31V1c0-0.553-0.447-1-1-1s-1,0.447-1,1v3H0v42h27.586L15.293,58.293c-0.391,0.391-0.391,1.023,0,1.414
			C15.488,59.902,15.744,60,16,60s0.512-0.098,0.707-0.293L29,47.414V57c0,0.553,0.447,1,1,1s1-0.447,1-1v-9.586l12.293,12.293
			C43.488,59.902,43.744,60,44,60s0.512-0.098,0.707-0.293c0.391-0.391,0.391-1.023,0-1.414L32.414,46H60V4z M58,44H2V6h56V44z"/>
		<path d="M14,25c0,8.822,7.178,16,16,16s16-7.178,16-16S38.822,9,30,9S14,16.178,14,25z M44,25c0,7.72-6.28,14-14,14s-14-6.28-14-14
			s6.28-14,14-14S44,17.28,44,25z"/>
		<path d="M25.519,17.123C25.199,17.299,25,17.635,25,18v14c0,0.365,0.199,0.701,0.519,0.877C25.669,32.959,25.835,33,26,33
			c0.187,0,0.373-0.053,0.537-0.156l11-7C37.825,25.66,38,25.342,38,25s-0.175-0.66-0.463-0.844l-11-7
			C26.228,16.962,25.839,16.948,25.519,17.123z M27,19.821L35.138,25L27,30.179V19.821z"/>
	</g>
</svg>
