<!-- Generated by IcoMoon.io -->
<svg version="1.1" xmlns="http://www.w3.org/2000/svg" width="32" height="32" viewBox="0 0 32 32">
<title>printer-text</title>
<path d="M26 27v1c0 1.112-0.894 2-1.997 2h-15.005c-1.107 0-1.997-0.895-1.997-2v-1h-2.006c-1.654 0-2.994-1.343-2.994-2.999v-9.001c0-1.655 1.341-2.999 2.994-2.999h2.006v-7c0-1.112 0.894-2 1.997-2h15.005c1.107 0 1.997 0.895 1.997 2v7h2.006c1.654 0 2.994 1.343 2.994 2.999v9.001c0 1.655-1.341 2.999-2.994 2.999h-2.006zM7 26v-6h19v6h1.993c1.109 0 2.007-0.894 2.007-2.003v-8.994c0-1.106-0.898-2.003-2.007-2.003h-22.985c-1.109 0-2.007 0.894-2.007 2.003v8.994c0 1.106 0.898 2.003 2.007 2.003h1.993zM9 4c-0.552 0-1 0.453-1 0.997v7.003h17v-7.003c0-0.551-0.455-0.997-1-0.997h-15zM8 21v7.003c0 0.551 0.455 0.997 1 0.997h15c0.552 0 1-0.453 1-0.997v-7.003h-17zM25 17c0.552 0 1-0.448 1-1s-0.448-1-1-1c-0.552 0-1 0.448-1 1s0.448 1 1 1v0zM9 23v1h15v-1h-15zM9 26v1h15v-1h-15z"></path>
</svg>
